<?xml version='1.0' encoding='utf-8'?>
<!-- Generator: imaengine 6.0   -->
<svg viewBox="0,0,1440,1443" xmlns:xlink="http://www.w3.org/1999/xlink" xmlns="http://www.w3.org/2000/svg" width="1440" height="1443" version="1.1">
<defs/>
<g id="layer0">
<path d="M0,0M16,1443L81,1443L145,1443L210,1443L273,1443L337,1443L402,1443L466,1443L529,1443L529,1440L468,1440L406,1440L345,1440L285,1440L223,1440L163,1440L102,1440L42,1440L42,1438L22,1438L22,1437C21.2,1437.1 17.7,1440.7 16,1443Z" stroke="#a0bbbc" stroke-width="0.75" stroke-linecap="round" fill="#a0bbbc" stroke-linejoin="round"/>
<path d="M0,0M529,1443L607,1443L685,1443L685,1440L679,1440C664.3,1436 657.9,1420.4 649,1411L648,1411L646,1411C642.9,1406.1 635.9,1404.1 634,1396C631.5,1393.5 628.5,1390.5 625,1387L624,1387C621.8,1383.7 616.3,1383.2 616,1377C607.3,1363.9 591.8,1354.7 585,1341C575.9,1327.8 564.4,1314.5 555,1303C543.3,1289.2 531.8,1274.7 522,1258C510.1,1245 500.1,1227.4 492,1212C481.1,1196.9 475.6,1176.4 469,1156C462.2,1138.4 458.2,1114.8 453,1096C450.3,1087.5 445.6,1106.1 447,1090C443.8,1105.2 431.3,1135 429,1158C432.1,1159.9 429.7,1167.3 430,1171C430.8,1201.7 441.4,1223.5 447,1246C456.2,1267.8 464.2,1292.2 474,1311C482.7,1332.7 492.1,1355.8 502,1374C510.7,1395.8 521.8,1414.7 529,1437L529,1440L529,1443Z" stroke="#d7dfdd" stroke-width="0.75" stroke-linecap="round" fill="#d7dfdd" stroke-linejoin="round"/>
<path d="M0,0M685,1443L759,1443L831,1443L904,1443L976,1443L978,1440L976,1440L904,1440L834,1440L763,1440L693,1440L693,1438C689.2,1437.3 685.8,1440 685,1440L685,1443Z" stroke="#b1c4c5" stroke-width="0.75" stroke-linecap="round" fill="#b1c4c5" stroke-linejoin="round"/>
<path d="M0,0M976,1443L1081,1443L1081,1441L1080,1441C1079.7,1439.7 1075.1,1438.7 1075,1438C1055.2,1440 1008.8,1436.3 988,1440L985,1440L984,1438C981.2,1437.9 979.2,1441.3 978,1440L976,1443Z" stroke="#c9d4d4" stroke-width="0.75" stroke-linecap="round" fill="#c9d4d4" stroke-linejoin="round"/>
<path d="M0,0M1081,1443L1168,1443L1255,1443L1342,1443L1429,1443C1430.7,1437.7 1425.7,1435.2 1423,1435L1422,1437C1415.1,1440.1 1402.6,1437.6 1393,1438C1370,1441 1342.4,1439.4 1317,1440L1240,1440L1164,1440L1087,1440C1084.9,1439.5 1079.9,1440.1 1081,1441L1081,1443Z" stroke="#95b3b7" stroke-width="0.75" stroke-linecap="round" fill="#95b3b7" stroke-linejoin="round"/>
<path d="M0,0M1080,1441L1081,1441C1080.5,1438.3 1088.5,1440.8 1087,1440L1087,1438C1082.7,1438.4 1081.6,1436.5 1080,1438C1073,1424.9 1072.1,1404.7 1066,1386C1062.4,1367.1 1059.2,1347.3 1053,1330C1051.5,1336.3 1057.5,1341.3 1053,1345L1053,1347C1059.4,1359.9 1062.1,1379 1065,1393C1069.3,1408.6 1072.2,1428.6 1075,1438C1076.7,1439.5 1081.1,1440.5 1080,1441Z" stroke="#03170b" stroke-width="0.75" stroke-linecap="round" fill="#03170b" stroke-linejoin="round"/>
<path d="M0,0M42,1440L102,1440L163,1440L223,1440L285,1440L345,1440L406,1440L468,1440L529,1440L529,1437C512.3,1440.1 486.9,1437.6 469,1438L408,1438L346,1438L286,1438L225,1438L163,1438L102,1438L42,1438L42,1440Z" stroke="#2d8297" stroke-width="0.75" stroke-linecap="round" fill="#2d8297" stroke-linejoin="round"/>
<path d="M0,0M679,1440L685,1440C685.8,1440 689.2,1437.3 693,1438L795,1438C792.3,1428.3 794,1403.1 793,1386C793.7,1367.5 788.5,1351.8 781,1342C774,1331 764.5,1321.5 753,1314C744,1304.8 729.6,1298.2 721,1290C708.2,1284.3 703.3,1270.2 690,1264C674.6,1258.9 668,1253 657,1245C643.4,1239.6 632.7,1231.3 621,1224C609.5,1217.2 597.2,1208.6 588,1201L585,1201C576.8,1193.7 567.4,1187.1 558,1180C569,1193.5 584.1,1202.4 598,1212C610.7,1228.8 643.1,1225.4 642,1255C649.7,1276.8 663.1,1292.5 675,1309C686,1324.5 704.8,1342.9 694,1371C685.1,1390 660.8,1396.2 649,1411C657.9,1420.4 664.3,1436 679,1440Z" stroke="#3a899e" stroke-width="0.75" stroke-linecap="round" fill="#3a899e" stroke-linejoin="round"/>
<path d="M0,0M693,1440L763,1440L834,1440L904,1440L976,1440C957.6,1436.5 928.7,1440.8 912,1437C894.7,1439.7 872.8,1437.8 853,1438L795,1438L693,1438L693,1440Z" stroke="#619aa6" stroke-width="0.75" stroke-linecap="round" fill="#619aa6" stroke-linejoin="round"/>
<path d="M0,0M976,1440L978,1440C980.8,1440.6 982.8,1437.2 984,1438C990.1,1425.6 990.6,1407.1 999,1396L999,1395L996,1395C995.5,1389.4 996.1,1381.4 997,1380L994,1380C993.3,1383.8 987.6,1383.1 982,1383C965.7,1378.8 955.3,1368.2 951,1351C939.7,1373.7 923.6,1392.9 915,1416C912.1,1421.1 911.2,1428.2 912,1437C928.7,1440.8 957.6,1436.5 976,1440Z" stroke="#093e3f" stroke-width="0.75" stroke-linecap="round" fill="#093e3f" stroke-linejoin="round"/>
<path d="M0,0M985,1440L988,1440C986.4,1432.2 996.6,1412.7 999,1396C990.6,1407.1 990.1,1425.6 984,1438L985,1440Z" stroke="#7da7ac" stroke-width="0.75" stroke-linecap="round" fill="#7da7ac" stroke-linejoin="round"/>
<path d="M0,0M988,1440C1008.8,1436.3 1055.2,1440 1075,1438C1072.2,1428.6 1069.3,1408.6 1065,1393C1062.1,1379 1059.4,1359.9 1053,1347C1058.7,1364.9 1064,1387.1 1039,1380C1027.7,1378.6 1016.4,1373.7 1008,1371C1001.3,1376.6 1002.5,1383.9 999,1395L999,1396C996.6,1412.7 986.4,1432.2 988,1440Z" stroke="#7da7ac" stroke-width="0.75" stroke-linecap="round" fill="#7da7ac" stroke-linejoin="round"/>
<path d="M0,0M1087,1440L1164,1440L1240,1440L1317,1440C1342.4,1439.4 1370,1441 1393,1438L1317,1438L1240,1438L1164,1438L1087,1438L1087,1440Z" stroke="#186d80" stroke-width="0.75" stroke-linecap="round" fill="#186d80" stroke-linejoin="round"/>
<path d="M0,0M22,1438L42,1438L102,1438L163,1438L225,1438L286,1438L346,1438L408,1438L469,1438C486.9,1437.6 512.3,1440.1 529,1437C521.8,1414.7 510.7,1395.8 502,1374C492.1,1355.8 482.7,1332.7 474,1311C464.2,1292.2 456.2,1267.8 447,1246C441.4,1223.5 430.8,1201.7 430,1171L429,1171L427,1171C428.3,1167.3 425.9,1159.9 429,1158C431.3,1135 443.8,1105.2 447,1090C449.2,1087.3 448.8,1080.9 445,1081C426.8,1094.8 411.9,1111.9 397,1129C383.3,1145.9 368.3,1165.3 352,1182C338.9,1199.1 324.2,1218.7 309,1236C298.1,1255.8 279.1,1271.1 258,1282C239.5,1294.7 217.7,1307.2 199,1321C182.8,1335.5 163,1350 144,1363C125.3,1375.4 104.4,1388.9 84,1401C65.4,1413 40.9,1422.9 22,1437L22,1438Z" stroke="#0a4348" stroke-width="0.75" stroke-linecap="round" fill="#0a4348" stroke-linejoin="round"/>
<path d="M0,0M795,1438L853,1438C872.8,1437.8 894.7,1439.7 912,1437C911.2,1428.2 912.1,1421.1 915,1416C909.1,1400.9 901.4,1387.6 895,1372C890.6,1356.4 880,1346 867,1338C854.4,1329.6 839,1324 828,1314C814.2,1306.8 801.3,1298.7 787,1291C769.4,1288.6 761,1276 744,1272C720.3,1267.7 738.6,1253.3 708,1254C687.3,1264.5 679.1,1250.7 669,1239C655.3,1237.7 649.7,1202.4 664,1200C649,1195.2 629.9,1191.5 622,1180C603,1169.7 595.1,1193.2 588,1201C597.2,1208.6 609.5,1217.2 621,1224C632.7,1231.3 643.4,1239.6 657,1245C668,1253 674.6,1258.9 690,1264C703.3,1270.2 708.2,1284.3 721,1290C729.6,1298.2 744,1304.8 753,1314C764.5,1321.5 774,1331 781,1342C788.5,1351.8 793.7,1367.5 793,1386C794,1403.1 792.3,1428.3 795,1438Z" stroke="#1b758a" stroke-width="0.75" stroke-linecap="round" fill="#1b758a" stroke-linejoin="round"/>
<path d="M0,0M1080,1438C1081.6,1436.5 1082.7,1438.4 1087,1438L1164,1438L1240,1438L1317,1438L1393,1438C1402.6,1437.6 1415.1,1440.1 1422,1437L1420,1437C1398.5,1424.5 1375.5,1411.2 1351,1402C1329.7,1390 1304.7,1376.9 1281,1372C1254.9,1368.6 1237.5,1356 1219,1344C1199.9,1333.6 1180.7,1322.8 1162,1311C1142.2,1301.3 1124.4,1289.1 1102,1281C1082.7,1272.2 1061.1,1261.4 1038,1254C1031.9,1259.3 1038.1,1264.4 1036,1272C1039.8,1277.7 1040.9,1285.6 1042,1293C1046.3,1305.2 1048.7,1318.8 1053,1330C1059.2,1347.3 1062.4,1367.1 1066,1386C1072.1,1404.7 1073,1424.9 1080,1438Z" stroke="#02170b" stroke-width="0.75" stroke-linecap="round" fill="#02170b" stroke-linejoin="round"/>
<path d="M0,0M1420,1437L1422,1437L1423,1435C1412.6,1428.4 1400.6,1422.4 1389,1416C1377.4,1409.6 1366.5,1402.5 1351,1399C1339,1395.9 1330.4,1381.2 1317,1383C1311.6,1378.2 1292.8,1370 1281,1372C1304.7,1376.9 1329.7,1390 1351,1402C1375.5,1411.2 1398.5,1424.5 1420,1437Z" stroke="#f6f8f7" stroke-width="0.75" stroke-linecap="round" fill="#f6f8f7" stroke-linejoin="round"/>
<path d="M0,0M915,1416C923.6,1392.9 939.7,1373.7 951,1351C959.3,1330.8 973.1,1315.6 973,1287C982.3,1266.8 975.2,1230.7 987,1213C999.8,1202.7 1001.1,1192.9 994,1180C993.4,1165.2 970,1155.8 982,1134C982.3,1111.3 980.1,1093.1 993,1083C1000.9,1071.5 1010.5,1057.3 1018,1044C1024.7,1028.2 1031.5,1013 1036,996C1042.3,982.4 1046.4,962.8 1048,943C1052.2,925.2 1054.7,905.7 1056,885C1058.5,868.1 1056.5,842.3 1077,841C1087.3,829.8 1094.3,814.8 1102,801C1094.6,804.3 1094.1,818.1 1086,819C1062,810.2 1062.1,772 1066,739L1066,726L1065,726C1066,693.6 1065.2,660.9 1060,636C1059.2,605.8 1049.5,582.2 1044,558C1037.4,534.6 1026.5,515.5 1015,496C1005.2,477.4 994.7,456.4 990,433L987,436C981.9,414.3 968.6,374.4 990,363C988.2,337.9 980.5,318.5 976,295C971,274 958.1,259.9 946,244C941.2,247.3 930.3,247.9 924,247C919.5,241 912.1,237.4 906,232L903,232C893.9,225.6 876.8,226.7 864,223C850.3,220.8 852.4,233.9 847,240C866,241.3 876.1,246 877,261C883.8,272.6 890.3,284.2 897,295C903.6,306.9 909.9,318.6 915,331C919,344.7 926.1,357.6 927,372C938.1,390.6 921.7,393.7 927,414C931.8,426.5 922.4,455.9 936,457C942.9,433.6 942.7,477 942,487C944,512.9 940.3,518 933,519C924.1,521.3 909.2,520.7 903,523C893.3,523.9 883.5,527.6 876,528C848,532.5 820.9,539.8 801,550C791.1,562.6 777,570.5 769,585C760.2,597 750.7,611.3 751,631C750.7,635.8 753.2,646.8 750,646L750,649C771.1,654.4 793.3,650.9 813,646C841.9,646.1 816.5,621.3 841,609C854,616.6 856.7,646.6 882,640C906.8,644.4 906,611.2 918,610C927.4,624.4 952.1,625.4 964,634C980.1,640.5 990.1,661.3 1005,661C1019.9,671.9 1016.4,697.6 1015,718C1014.7,742.2 1015.3,768.5 1009,778C1006.9,799.3 999.9,817.9 994,834C987.2,850.1 982.1,870.6 975,885C976.3,903.7 969.2,926.6 960,937C959.6,961.1 954.1,979.6 949,999C944.5,1017.4 935.3,1033.8 933,1053C929.9,1073.3 908.6,1077.6 904,1095C901.1,1115 891.5,1131 880,1141C867.7,1152.7 854,1163 837,1170C820.4,1176.8 804.8,1186.9 786,1189C766.8,1188.4 740.1,1190.2 724,1195C707.5,1203 680.2,1197.8 664,1200C649.7,1202.4 655.3,1237.7 669,1239C679.1,1250.7 687.3,1264.5 708,1254C738.6,1253.3 720.3,1267.7 744,1272C761,1276 769.4,1288.6 787,1291C801.3,1298.7 814.2,1306.8 828,1314C839,1324 854.4,1329.6 867,1338C880,1346 890.6,1356.4 895,1372C901.4,1387.6 909.1,1400.9 915,1416Z" stroke="#146475" stroke-width="0.75" stroke-linecap="round" fill="#146475" stroke-linejoin="round"/>
<path d="M0,0M646,1411L648,1411C646.1,1404.3 638.6,1399.3 634,1396C635.9,1404.1 642.9,1406.1 646,1411Z" stroke="#5292a3" stroke-width="0.75" stroke-linecap="round" fill="#5292a3" stroke-linejoin="round"/>
<path d="M0,0M648,1411L649,1411C660.8,1396.2 685.1,1390 694,1371C704.8,1342.9 686,1324.5 675,1309C663.1,1292.5 649.7,1276.8 642,1255C643.1,1225.4 610.7,1228.8 598,1212C594.4,1222 602.9,1246 610,1255C616.6,1270.4 624.9,1283.1 633,1296C639,1309.1 648.4,1325.9 646,1342C643.4,1360.4 627.9,1365.9 619,1378C621.2,1381.8 626.1,1381.9 625,1387C628.5,1390.5 631.5,1393.5 634,1396C638.6,1399.3 646.1,1404.3 648,1411Z" stroke="#5d97a4" stroke-width="0.75" stroke-linecap="round" fill="#5d97a4" stroke-linejoin="round"/>
<path d="M0,0M996,1395L999,1395C1002.5,1383.9 1001.3,1376.6 1008,1371C1013.7,1353.4 1035.1,1349 1053,1345C1057.5,1341.3 1051.5,1336.3 1053,1330C1048.7,1318.8 1046.3,1305.2 1042,1293C1034.1,1300.8 1016.2,1288.9 1017,1306C1018,1338.5 991.8,1343.3 997,1380C996.1,1381.4 995.5,1389.4 996,1395Z" stroke="#217a8f" stroke-width="0.75" stroke-linecap="round" fill="#217a8f" stroke-linejoin="round"/>
<path d="M0,0M624,1387L625,1387C626.1,1381.9 621.2,1381.8 619,1378L618,1378L616,1377C616.3,1383.2 621.8,1383.7 624,1387Z" stroke="#619aa6" stroke-width="0.75" stroke-linecap="round" fill="#619aa6" stroke-linejoin="round"/>
<path d="M0,0M982,1383C987.6,1383.1 993.3,1383.8 994,1380L994,1323C997.8,1307.3 987.7,1278.2 1003,1275C1007.4,1274.8 1008.1,1268 1009,1267C1000.9,1250.7 994.5,1229.5 987,1213C975.2,1230.7 982.3,1266.8 973,1287C973.1,1315.6 959.3,1330.8 951,1351C955.3,1368.2 965.7,1378.8 982,1383Z" stroke="#062c2a" stroke-width="0.75" stroke-linecap="round" fill="#062c2a" stroke-linejoin="round"/>
<path d="M0,0M994,1380L997,1380C991.8,1343.3 1018,1338.5 1017,1306C1009.3,1282.6 1021.1,1267.9 1036,1272C1038.1,1264.4 1031.9,1259.3 1038,1254C1016.7,1259.4 1020.5,1234.7 1014,1221C1007.3,1207.7 1002.5,1192.5 994,1180C1001.1,1192.9 999.8,1202.7 987,1213C994.5,1229.5 1000.9,1250.7 1009,1267C1012,1274.1 1007,1276.6 1003,1275C987.7,1278.2 997.8,1307.3 994,1323L994,1380Z" stroke="#0f525c" stroke-width="0.75" stroke-linecap="round" fill="#0f525c" stroke-linejoin="round"/>
<path d="M0,0M1039,1380C1064,1387.1 1058.7,1364.9 1053,1347L1053,1345C1035.1,1349 1013.7,1353.4 1008,1371C1016.4,1373.7 1027.7,1378.6 1039,1380Z" stroke="#619aa6" stroke-width="0.75" stroke-linecap="round" fill="#619aa6" stroke-linejoin="round"/>
<path d="M0,0M618,1378L619,1378C627.9,1365.9 643.4,1360.4 646,1342C648.4,1325.9 639,1309.1 633,1296C624.9,1283.1 616.6,1270.4 610,1255C602.9,1246 594.4,1222 598,1212C584.1,1202.4 569,1193.5 558,1180C554.4,1176 547.4,1171.5 546,1167L544,1167C514,1163.9 528.1,1100.3 552,1131C560.3,1133.7 563.2,1141.8 571,1144C571.6,1125.8 563.8,1103.4 558,1086C551.7,1067.3 544.3,1049.7 534,1035C522,1022 512.1,1006.9 495,999C482.8,989 453.4,981.9 441,993C445.7,1006.3 449.3,1020.7 450,1038C444.1,1055.6 461.1,1076.7 445,1081C448.8,1080.9 449.2,1087.3 447,1090C445.6,1106.1 450.3,1087.5 453,1096C482.2,1083.9 476,1129.9 487,1141C496.2,1161.2 505.3,1182.6 516,1198C523.6,1222.5 543.8,1224.2 553,1243C565.6,1256.2 573.6,1293.2 556,1305L555,1303C564.4,1314.5 575.9,1327.8 585,1341C591.8,1354.7 607.3,1363.9 616,1377L618,1378Z" stroke="#72a1a9" stroke-width="0.75" stroke-linecap="round" fill="#72a1a9" stroke-linejoin="round"/>
<path d="M0,0M1017,1306C1016.2,1288.9 1034.1,1300.8 1042,1293C1040.9,1285.6 1039.8,1277.7 1036,1272C1021.1,1267.9 1009.3,1282.6 1017,1306Z" stroke="#16697b" stroke-width="0.75" stroke-linecap="round" fill="#16697b" stroke-linejoin="round"/>
<path d="M0,0M556,1305C573.6,1293.2 565.6,1256.2 553,1243C543.8,1224.2 523.6,1222.5 516,1198C505.3,1182.6 496.2,1161.2 487,1141C476,1129.9 482.2,1083.9 453,1096C458.2,1114.8 462.2,1138.4 469,1156C475.6,1176.4 481.1,1196.9 492,1212C500.1,1227.4 510.1,1245 522,1258C531.8,1274.7 543.3,1289.2 555,1303L556,1305Z" stroke="#91b0b5" stroke-width="0.75" stroke-linecap="round" fill="#91b0b5" stroke-linejoin="round"/>
<path d="M0,0M1003,1275C1007,1276.6 1012,1274.1 1009,1267C1008.1,1268 1007.4,1274.8 1003,1275Z" stroke="#093e3f" stroke-width="0.75" stroke-linecap="round" fill="#093e3f" stroke-linejoin="round"/>
<path d="M0,0M585,1201L588,1201C595.1,1193.2 603,1169.7 622,1180C629.9,1191.5 649,1195.2 664,1200C680.2,1197.8 707.5,1203 724,1195C740.1,1190.2 766.8,1188.4 786,1189C804.8,1186.9 820.4,1176.8 837,1170C854,1163 867.7,1152.7 880,1141C891.5,1131 901.1,1115 904,1095C908.6,1077.6 929.9,1073.3 933,1053C935.3,1033.8 944.5,1017.4 949,999C954.1,979.6 959.6,961.1 960,937C969.2,926.6 976.3,903.7 975,885C982.1,870.6 987.2,850.1 994,834C999.9,817.9 1006.9,799.3 1009,778C1015.3,768.5 1014.7,742.2 1015,718C1016.4,697.6 1019.9,671.9 1005,661C990.1,661.3 980.1,640.5 964,634C952.1,625.4 927.4,624.4 918,610C906,611.2 906.8,644.4 882,640C882.8,651.8 893,667.2 903,672C914.6,684.3 931.8,669.4 943,679C960.9,680.1 970.7,688.3 979,697C990.2,705.5 993.7,719.6 993,735C991.6,751.6 987.1,765.1 984,780C979.3,793.3 975,807 967,817C960.3,828.3 952.3,838.3 940,844C930.5,852.5 918.1,858.1 898,856C882.7,849.3 858.3,850.7 858,828C849,811.7 837.8,795.2 834,775C828.5,762 821.7,736 817,718C807.1,700.5 817.3,665.3 813,646C793.3,650.9 771.1,654.4 750,649L750,718C750.8,740 756.5,759.1 757,778L759,778C777.3,785 781,823.5 772,841C768.2,865.2 733.3,858.3 712,865C711.4,863.5 709.6,858.7 708,859C705.8,863.2 702,858.6 700,859C701,866 700,871 697,874C715.2,879.8 726.1,891.9 733,907C732.1,928.4 767.2,910.6 777,924C789.4,927.8 794.3,942 798,952L796,955C801,952.9 813.2,954.5 811,948C825.6,928.2 812.3,915.5 811,903L810,904C810.5,909.1 805.2,911.2 802,910L799,907L798,907C787.4,898.8 774.5,889.8 765,882C755.5,871.1 778.7,858.7 784,852C791.7,837.5 819.9,852.1 829,841C849.3,836.9 835.3,869.7 835,880C847.8,901.7 881.4,903.4 892,924C910.4,940.2 931.2,960.1 907,985C899,1010.5 884,1030.8 870,1048C850.4,1061.9 833.7,1078.2 804,1081C810.2,1083.4 808.3,1096.8 814,1096C822.7,1115.2 818.4,1158.1 801,1164C784.6,1172.6 764.2,1177.2 741,1179C719,1182 703.3,1191.3 678,1191C669.7,1186.1 652.9,1186.7 645,1183L642,1183C630.5,1176.7 616.1,1170.2 606,1164C593.5,1158.5 582.6,1151.4 571,1144C563.2,1141.8 560.3,1133.7 552,1131C575.9,1141.4 559.5,1155 546,1167C547.4,1171.5 554.4,1176 558,1180C567.4,1187.1 576.8,1193.7 585,1201Z" stroke="#2d8297" stroke-width="0.75" stroke-linecap="round" fill="#2d8297" stroke-linejoin="round"/>
<path d="M0,0M678,1191C703.3,1191.3 719,1182 741,1179C764.2,1177.2 784.6,1172.6 801,1164C813,1149.6 808.9,1112.6 814,1096C808.3,1096.8 810.2,1083.4 804,1081C792.4,1084.9 778,1085.5 763,1086C746.8,1082.7 737.5,1072 724,1065C709.2,1050.7 741.5,1049.8 754,1047C754.1,1025.6 765.1,1024.2 765,1005L705,1005L705,1003L697,1003C703.5,1030 677.3,1053.1 687,1071C704.5,1084.5 731.7,1088.3 757,1093C760.6,1094.5 758.1,1104.5 759,1105C761.2,1110.5 761.2,1124.5 759,1129L757,1129C745.9,1146.9 727.2,1157.2 706,1165C701.2,1167.3 691.8,1168.4 687,1168C663.5,1167.2 647,1159.9 645,1183C652.9,1186.7 669.7,1186.1 678,1191Z" stroke="#699da7" stroke-width="0.75" stroke-linecap="round" fill="#699da7" stroke-linejoin="round"/>
<path d="M0,0M642,1183L645,1183C647,1159.9 663.5,1167.2 687,1168C691.8,1168.4 701.2,1167.3 706,1165C727.2,1157.2 745.9,1146.9 757,1129L757,1093C731.7,1088.3 704.5,1084.5 687,1071C677.3,1053.1 703.5,1030 697,1003L678,1003C662.1,1000.1 638.8,1001.5 624,999C619.8,999.8 612.4,997.4 610,1000C638.4,1000.2 598.4,1011.7 589,1008C581.7,1004.8 585.1,982.6 592,988C601,987 606.4,982.4 618,984C639.8,982.7 665.4,975.2 687,969C709.8,959.2 742.6,968.8 757,969C766,963.5 778.5,962 786,955C786.6,945.3 782.8,931.4 777,924C767.2,910.6 732.1,928.4 733,907C726.1,891.9 715.2,879.8 697,874L694,876C661.2,875.1 668.9,844.1 700,859C702,858.6 705.8,863.2 708,859C719.7,848.8 746.1,850.5 750,834C758.8,820.9 763.5,798.5 759,778L757,778L754,778C737.3,771.7 741.3,743.7 736,724C730.8,709 733,684.1 729,663C730.5,637.5 709.7,634.3 712,607C714.7,585.7 727.9,574.9 754,577C767.7,567.7 781.1,558.1 795,549C789.3,549.3 788.3,554.3 783,555C788.8,527.9 801,499.6 795,466C791.3,436.2 780.1,413.4 774,385C769.9,355.6 762.5,329 750,307C737.9,287.3 721.6,265.2 714,244C691.9,244.4 674.2,248.7 657,253C638.6,256.5 623.6,265.2 610,271C613.2,278.3 633.1,288.2 646,292C663.1,296.2 676.6,305.5 684,316C692.1,329.4 697.3,345.2 697,366C700.1,383.7 698.3,408.3 699,426C697.9,445.9 702.3,471.3 693,483C686.6,496.9 672,505.1 661,513C653.2,525 636.8,531.4 630,543C619.7,553 607.6,563.7 604,579C621.4,584.4 642.7,587.8 654,597C666.3,596.9 671.9,631.2 658,633C657.1,634.7 654.1,638.3 654,639C653.9,654 637.4,666.4 637,675C637.7,699.2 618.9,694.3 607,705C624.2,703 635.6,717.8 658,714C673,711.7 698.1,702.5 709,712C721.6,718.6 732.1,738.6 721,753C715.6,767.4 705.8,780.4 694,787C679.5,792.8 654,790.1 640,795C623.1,797.9 607.1,804.8 595,811C581.4,817.7 567.6,826.8 556,834C542.9,840.7 526.6,847.2 508,847C485.7,844.3 473.9,830.1 463,814C453.6,798.4 447.9,778.1 441,759C434.6,732.8 443.4,710.9 463,706C474.6,698.6 522.4,719.7 505,702C494,702.5 497.8,687.7 492,682C491.3,683.9 486.3,684.5 486,684C485,689.1 472.6,686.3 469,687C462.2,685.3 467.5,673.3 471,672L471,669L469,669C460.5,659.7 447.4,651.9 450,633C451.5,616.2 458.4,602.2 469,597L468,597C457.4,587.3 449.2,572.7 445,558C441.9,541.6 443.1,520.4 441,502C438.3,485.2 434.9,468.6 424,459C416.9,448 403.4,437.8 391,435C395.5,455.3 401,476.5 406,493C413.7,507.1 418.7,541 408,553C404.7,571.2 400,587.5 393,601L393,606C387.1,625.1 382.7,645.7 382,670C381.6,679.7 384,695.6 381,700L381,697L379,697C382.3,713.9 380.5,725.6 376,733C378.7,725 386.1,724.9 387,735C390.4,753.9 395.5,773.6 397,792C404.9,798.8 401.4,810.6 393,810C391.3,804.6 385.6,799.7 385,795C383.1,790.3 380.9,781.9 378,780C368.6,782.4 353,784.2 351,787C343.3,780.9 327.1,766.5 333,745C335,739.5 336.3,732.8 340,729C331,703.9 307.9,746 289,738L288,736C294.9,762.3 305.2,788.3 316,811C326.7,836.3 341.8,856.2 357,876C367.7,891.9 386.9,919.9 414,915C427.8,936.2 428.8,970.2 441,993C453.4,981.9 482.8,989 495,999C512.1,1006.9 522,1022 534,1035C544.3,1049.7 551.7,1067.3 558,1086C563.8,1103.4 571.6,1125.8 571,1144C582.6,1151.4 593.5,1158.5 606,1164C616.1,1170.2 630.5,1176.7 642,1183Z" stroke="#96b3b7" stroke-width="0.75" stroke-linecap="round" fill="#96b3b7" stroke-linejoin="round"/>
<path d="M0,0M427,1171L429,1171L429,1158C425.9,1159.9 428.3,1167.3 427,1171Z" stroke="#217a90" stroke-width="0.75" stroke-linecap="round" fill="#217a90" stroke-linejoin="round"/>
<path d="M0,0M429,1171L430,1171C429.7,1167.3 432.1,1159.9 429,1158L429,1171Z" stroke="#72a0a9" stroke-width="0.75" stroke-linecap="round" fill="#72a0a9" stroke-linejoin="round"/>
<path d="M0,0M544,1167L546,1167C559.5,1155 575.9,1141.4 552,1131C528.1,1100.3 514,1163.9 544,1167Z" stroke="#4a90a2" stroke-width="0.75" stroke-linecap="round" fill="#4a90a2" stroke-linejoin="round"/>
<path d="M0,0M801,1164C818.4,1158.1 822.7,1115.2 814,1096C808.9,1112.6 813,1149.6 801,1164Z" stroke="#5292a3" stroke-width="0.75" stroke-linecap="round" fill="#5292a3" stroke-linejoin="round"/>
<path d="M0,0M757,1129L759,1129L759,1105C758.1,1104.5 760.6,1094.5 757,1093L757,1129Z" stroke="#8aadb2" stroke-width="0.75" stroke-linecap="round" fill="#8aadb2" stroke-linejoin="round"/>
<path d="M0,0M759,1129C761.2,1124.5 761.2,1110.5 759,1105L759,1129Z" stroke="#7da7ac" stroke-width="0.75" stroke-linecap="round" fill="#7da7ac" stroke-linejoin="round"/>
<path d="M0,0M763,1086C778,1085.5 792.4,1084.9 804,1081C833.7,1078.2 850.4,1061.9 870,1048C884,1030.8 899,1010.5 907,985C931.2,960.1 910.4,940.2 892,924C881.4,903.4 847.8,901.7 835,880C833.5,893.8 814.3,892.6 811,903C812.3,915.5 825.6,928.2 811,948C813.2,954.5 801,952.9 796,955C768.9,956.9 778,986.3 771,1000C775,992.2 764.2,981.9 769,972C754,984.9 720.3,981.8 715,1003L765,1003C784.6,1001 836.3,988.4 811,1018C791.6,1027 782,1047.9 754,1047C741.5,1049.8 709.2,1050.7 724,1065C737.5,1072 746.8,1082.7 763,1086Z" stroke="#196e80" stroke-width="0.75" stroke-linecap="round" fill="#196e80" stroke-linejoin="round"/>
<path d="M0,0M754,1047C782,1047.9 791.6,1027 811,1018C836.3,988.4 784.6,1001 765,1003L765,1005C765.1,1024.2 754.1,1025.6 754,1047Z" stroke="#438da0" stroke-width="0.75" stroke-linecap="round" fill="#438da0" stroke-linejoin="round"/>
<path d="M0,0M589,1008C598.4,1011.7 638.4,1000.2 610,1000C607.9,1002 600.8,1002.4 598,1002C593.5,1000.9 594,990.8 592,988C585.1,982.6 581.7,1004.8 589,1008Z" stroke="#5d97a5" stroke-width="0.75" stroke-linecap="round" fill="#5d97a5" stroke-linejoin="round"/>
<path d="M0,0M705,1005L765,1005L765,1003L715,1003L705,1003L705,1005Z" stroke="#4a91a2" stroke-width="0.75" stroke-linecap="round" fill="#4a91a2" stroke-linejoin="round"/>
<path d="M0,0M678,1003L697,1003L705,1003L715,1003C720.3,981.8 754,984.9 769,972C782.6,962.4 765.1,966.8 757,969C742.6,968.8 709.8,959.2 687,969C665.4,975.2 639.8,982.7 618,984C626.3,985.3 621.8,990.5 624,999C638.8,1001.5 662.1,1000.1 678,1003Z" stroke="#3b8a9e" stroke-width="0.75" stroke-linecap="round" fill="#3b8a9e" stroke-linejoin="round"/>
<path d="M0,0M598,1002C600.8,1002.4 607.9,1002 610,1000C612.4,997.4 619.8,999.8 624,999C621.8,990.5 626.3,985.3 618,984C606.4,982.4 601,987 592,988C594,990.8 593.5,1000.9 598,1002Z" stroke="#217a90" stroke-width="0.75" stroke-linecap="round" fill="#217a90" stroke-linejoin="round"/>
<path d="M0,0M771,1000C778,986.3 768.9,956.9 796,955L798,952C790.9,950.4 791.5,956 786,955C778.5,962 766,963.5 757,969C765.1,966.8 782.6,962.4 769,972C764.2,981.9 775,992.2 771,1000Z" stroke="#217b90" stroke-width="0.75" stroke-linecap="round" fill="#217b90" stroke-linejoin="round"/>
<path d="M0,0M825,990C833.5,991.4 840.3,987.7 846,988C843.7,981.7 833.2,964.6 847,963C825,954.1 803.5,984 825,990Z" stroke="#125c6a" stroke-width="0.75" stroke-linecap="round" fill="#125c6a" stroke-linejoin="round"/>
<path d="M0,0M846,988C871.4,986.9 893.4,981.9 907,969C896.6,952.2 868,976 847,963C833.2,964.6 843.7,981.7 846,988Z" stroke="#0d4c56" stroke-width="0.75" stroke-linecap="round" fill="#0d4c56" stroke-linejoin="round"/>
<path d="M0,0M786,955C791.5,956 790.9,950.4 798,952C794.3,942 789.4,927.8 777,924C782.8,931.4 786.6,945.3 786,955Z" stroke="#77a4aa" stroke-width="0.75" stroke-linecap="round" fill="#77a4aa" stroke-linejoin="round"/>
<path d="M0,0M802,910C805.2,911.2 810.5,909.1 810,904C808.8,907.4 802.1,908.2 799,907L802,910Z" stroke="#125c6a" stroke-width="0.75" stroke-linecap="round" fill="#125c6a" stroke-linejoin="round"/>
<path d="M0,0M798,907L799,907C802.1,908.2 808.8,907.4 810,904L811,903C814.3,892.6 833.5,893.8 835,880C835.3,869.7 849.3,836.9 829,841C819.9,852.1 791.7,837.5 784,852C778.7,858.7 755.5,871.1 765,882C774.5,889.8 787.4,898.8 798,907Z" stroke="#0f525c" stroke-width="0.75" stroke-linecap="round" fill="#0f525c" stroke-linejoin="round"/>
<path d="M0,0M694,876L697,874C700,871 701,866 700,859C668.9,844.1 661.2,875.1 694,876Z" stroke="#2d8297" stroke-width="0.75" stroke-linecap="round" fill="#2d8297" stroke-linejoin="round"/>
<path d="M0,0M712,865C733.3,858.3 768.2,865.2 772,841C781,823.5 777.3,785 759,778C763.5,798.5 758.8,820.9 750,834C746.1,850.5 719.7,848.8 708,859C709.6,858.7 711.4,863.5 712,865Z" stroke="#4a91a3" stroke-width="0.75" stroke-linecap="round" fill="#4a91a3" stroke-linejoin="round"/>
<path d="M0,0M898,856C918.1,858.1 930.5,852.5 940,844C952.3,838.3 960.3,828.3 967,817C975,807 979.3,793.3 984,780C987.1,765.1 991.6,751.6 993,735C993.7,719.6 990.2,705.5 979,697C970.7,688.3 960.9,680.1 943,679C931.8,669.4 914.6,684.3 903,672C893,667.2 882.8,651.8 882,640C856.7,646.6 854,616.6 841,609C816.5,621.3 841.9,646.1 813,646C817.3,665.3 807.1,700.5 817,718C820.3,703.3 833.5,698.5 846,693C858.8,685.6 874.9,689.1 891,688C925.5,689 948.3,701.2 958,726C964.5,736.9 964.3,759.9 960,772C957,786.7 949.4,799.1 942,807C927.8,827.8 891,826 858,828C858.3,850.7 882.7,849.3 898,856Z" stroke="#4a91a3" stroke-width="0.75" stroke-linecap="round" fill="#4a91a3" stroke-linejoin="round"/>
<path d="M0,0M508,847C526.6,847.2 542.9,840.7 556,834C567.6,826.8 581.4,817.7 595,811C607.1,804.8 623.1,797.9 640,795C654,790.1 679.5,792.8 694,787C705.8,780.4 715.6,767.4 721,753C732.1,738.6 721.6,718.6 709,712C698.1,702.5 673,711.7 658,714C635.6,717.8 624.2,703 607,705C595.7,708.2 586.9,714.4 573,715C565.6,719.1 556.9,721.4 547,723C532.2,717.3 518.1,710.4 505,702C522.4,719.7 474.6,698.6 463,706C443.4,710.9 434.6,732.8 441,759C447.9,778.1 453.6,798.4 463,814C473.9,830.1 485.7,844.3 508,847Z" stroke="#a5bdbf" stroke-width="0.75" stroke-linecap="round" fill="#a5bdbf" stroke-linejoin="round"/>
<path d="M0,0M858,828C891,826 927.8,827.8 942,807C949.4,799.1 957,786.7 960,772C964.3,759.9 964.5,736.9 958,726C948.3,701.2 925.5,689 891,688C874.9,689.1 858.8,685.6 846,693C833.5,698.5 820.3,703.3 817,718C821.7,736 828.5,762 834,775C837.8,795.2 849,811.7 858,828Z" stroke="#619aa6" stroke-width="0.75" stroke-linecap="round" fill="#619aa6" stroke-linejoin="round"/>
<path d="M0,0M1086,819C1094.1,818.1 1094.6,804.3 1102,801C1108.7,785.7 1114,765.4 1122,750C1128.1,732.1 1133.9,713.9 1134,690L1132,690C1133.3,684.8 1130.8,676.3 1134,673C1132.2,654.6 1140.2,651.4 1138,631C1143.5,614 1134.1,601.4 1131,588L1131,568C1140.5,551.6 1138.5,527.4 1117,525C1107.5,527 1103.5,523 1105,513C1105.6,510 1104.7,502.5 1107,504L1107,495L1107,492L1105,492L1105,490C1102.3,493.3 1104.8,501.8 1104,507C1095.1,532.5 1128.7,523.2 1111,544C1105.6,561.9 1095.6,577.6 1090,594C1070.6,625.9 1094.5,640.1 1113,654C1127.2,667.1 1122.7,721.1 1101,723C1097.4,736.3 1080.1,741.2 1069,741L1066,739C1062.1,772 1062,810.2 1086,819Z" stroke="#0f525c" stroke-width="0.75" stroke-linecap="round" fill="#0f525c" stroke-linejoin="round"/>
<path d="M0,0M393,810C401.4,810.6 404.9,798.8 397,792C392.1,791.6 388.6,793.1 385,795C385.6,799.7 391.3,804.6 393,810Z" stroke="#5292a3" stroke-width="0.75" stroke-linecap="round" fill="#5292a3" stroke-linejoin="round"/>
<path d="M0,0M385,795C388.6,793.1 392.1,791.6 397,792C395.5,773.6 390.4,753.9 387,735C381,734 377,735 376,739L376,735C373.9,738.4 376.9,747.4 367,744L366,742L366,751C369.2,761.4 376,770.9 378,780C380.9,781.9 383.1,790.3 385,795Z" stroke="#196e80" stroke-width="0.75" stroke-linecap="round" fill="#196e80" stroke-linejoin="round"/>
<path d="M0,0M351,787C353,784.2 368.6,782.4 378,780C376,770.9 369.2,761.4 366,751C360.3,751.8 358.9,756.4 352,756C348,750.5 330,758.5 333,745C327.1,766.5 343.3,780.9 351,787Z" stroke="#7da7ac" stroke-width="0.75" stroke-linecap="round" fill="#7da7ac" stroke-linejoin="round"/>
<path d="M0,0M754,778L757,778C756.5,759.1 750.8,740 750,718L750,649L750,646L750,631C733.4,617.7 748.4,589.4 754,577C727.9,574.9 714.7,585.7 712,607C709.7,634.3 730.5,637.5 729,663C733,684.1 730.8,709 736,724C741.3,743.7 737.3,771.7 754,778Z" stroke="#7da7ac" stroke-width="0.75" stroke-linecap="round" fill="#7da7ac" stroke-linejoin="round"/>
<path d="M0,0M352,756C358.9,756.4 360.3,751.8 366,751L366,742C365.9,727.6 352.9,732.6 349,724L348,721C343.9,722.4 341.4,724.9 340,729C336.3,732.8 335,739.5 333,745C330,758.5 348,750.5 352,756Z" stroke="#3a899e" stroke-width="0.75" stroke-linecap="round" fill="#3a899e" stroke-linejoin="round"/>
<path d="M0,0M367,744C376.9,747.4 373.9,738.4 376,735L376,733C380.5,725.6 382.3,713.9 379,697L379,691L378,691L378,661C379,658.1 380,646.7 381,654C384.2,656.8 381.7,665.3 382,670C382.7,645.7 387.1,625.1 393,606L388,607L388,598C378.2,614.1 390,646.4 361,640C347.9,634.5 321.5,624 309,630C312.3,644.6 331.9,651.4 331,673C337.1,690.3 352.8,699.3 352,720C351.5,721.2 350.5,725.6 349,724C352.9,732.6 365.9,727.6 366,742L367,744Z" stroke="#0d4c56" stroke-width="0.75" stroke-linecap="round" fill="#0d4c56" stroke-linejoin="round"/>
<path d="M0,0M1069,741C1080.1,741.2 1097.4,736.3 1101,723C1087.2,734 1067.5,703.4 1066,726L1066,739L1069,741Z" stroke="#0b4449" stroke-width="0.75" stroke-linecap="round" fill="#0b4449" stroke-linejoin="round"/>
<path d="M0,0M376,739C377,735 381,734 387,735C386.1,724.9 378.7,725 376,733L376,735L376,739Z" stroke="#13606f" stroke-width="0.75" stroke-linecap="round" fill="#13606f" stroke-linejoin="round"/>
<path d="M0,0M289,738C307.9,746 331,703.9 340,729C341.4,724.9 343.9,722.4 348,721C346.3,712.9 351.8,715.3 352,720C352.8,699.3 337.1,690.3 331,673C331.9,651.4 312.3,644.6 309,630C307,623 307.8,613.2 303,609C301.4,613.7 309.4,621.3 304,627C307.6,641.9 318,649.5 324,661C331.6,670.2 328,688.8 339,697C356.8,714.8 336.1,706.4 324,715C313.1,722.6 304.4,731.9 288,733L286,732L288,736L289,738Z" stroke="#619aa6" stroke-width="0.75" stroke-linecap="round" fill="#619aa6" stroke-linejoin="round"/>
<path d="M0,0M288,733C304.4,731.9 313.1,722.6 324,715C336.1,706.4 356.8,714.8 339,697C328,688.8 331.6,670.2 324,661C318,649.5 307.6,641.9 304,627C286.5,629.4 272.5,640.1 274,664C277,665.6 283,666.7 285,666C286,662.9 296,665.4 297,664C313.6,663.6 313.9,676.5 303,681C303.4,683.5 298.8,684.5 298,684L297,685C294.8,686.9 296.5,695.7 292,693C286,691.7 281,695.1 277,694C279.2,706 282.2,721.1 286,732L288,733Z" stroke="#85aaaf" stroke-width="0.75" stroke-linecap="round" fill="#85aaaf" stroke-linejoin="round"/>
<path d="M0,0M1065,726L1066,726C1067.5,703.4 1087.2,734 1101,723C1122.7,721.1 1127.2,667.1 1113,654C1094.5,640.1 1070.6,625.9 1090,594L1089,594C1063.7,595.4 1045.6,590.4 1044,558C1049.5,582.2 1059.2,605.8 1060,636C1065.2,660.9 1066,693.6 1065,726Z" stroke="#062d2a" stroke-width="0.75" stroke-linecap="round" fill="#062d2a" stroke-linejoin="round"/>
<path d="M0,0M349,724C351.3,724.2 352.3,719.6 352,720C351.8,715.3 346.3,712.9 348,721L349,724Z" stroke="#37859a" stroke-width="0.75" stroke-linecap="round" fill="#37859a" stroke-linejoin="round"/>
<path d="M0,0M547,723C556.9,721.4 565.6,719.1 573,715L570,715C566.6,702.6 563.3,687 561,675L549,675C537.4,669.3 532.8,642.4 517,661C512,671.2 500.1,677.4 492,682C497.8,687.7 494,702.5 505,702C518.1,710.4 532.2,717.3 547,723Z" stroke="#7da7ac" stroke-width="0.75" stroke-linecap="round" fill="#7da7ac" stroke-linejoin="round"/>
<path d="M0,0M570,715L573,715C586.9,714.4 595.7,708.2 607,705C618.9,694.3 637.7,699.2 637,675C637.4,666.4 653.9,654 654,639C639,643 637.5,660.5 616,658C613,651.9 606.9,644.6 601,642C592.3,635.9 597.6,648.8 594,652C598.3,675.1 573.8,671.5 561,675C563.3,687 566.6,702.6 570,715Z" stroke="#5d97a5" stroke-width="0.75" stroke-linecap="round" fill="#5d97a5" stroke-linejoin="round"/>
<path d="M0,0M381,700C384,695.6 381.6,679.7 382,670C381.7,665.3 384.2,656.8 381,654L381,697L381,700Z" stroke="#438ca0" stroke-width="0.75" stroke-linecap="round" fill="#438ca0" stroke-linejoin="round"/>
<path d="M0,0M379,697L381,697L381,654C380,646.7 379,658.1 378,661C381,668.6 378.6,684.4 379,691L379,697Z" stroke="#1c768a" stroke-width="0.75" stroke-linecap="round" fill="#1c768a" stroke-linejoin="round"/>
<path d="M0,0M277,694C281,695.1 286,691.7 292,693C291.3,688.2 290.4,685.7 297,685L298,684L297,684L295,682L292,684C281.4,687 278.1,673.3 285,667L285,666C283,666.7 277,665.6 274,664C273.7,676.3 277,684 277,694Z" stroke="#37869a" stroke-width="0.75" stroke-linecap="round" fill="#37869a" stroke-linejoin="round"/>
<path d="M0,0M292,693C296.5,695.7 294.8,686.9 297,685C290.4,685.7 291.3,688.2 292,693Z" stroke="#37859a" stroke-width="0.75" stroke-linecap="round" fill="#37859a" stroke-linejoin="round"/>
<path d="M0,0M378,691L379,691C378.6,684.4 381,668.6 378,661L378,691Z" stroke="#16697b" stroke-width="0.75" stroke-linecap="round" fill="#16697b" stroke-linejoin="round"/>
<path d="M0,0M1132,690L1134,690L1134,673C1130.8,676.3 1133.3,684.8 1132,690Z" stroke="#4a90a2" stroke-width="0.75" stroke-linecap="round" fill="#4a90a2" stroke-linejoin="round"/>
<path d="M0,0M469,687C472.6,686.3 485,689.1 486,684L484,684C484.5,673 477.1,675.6 471,672C467.5,673.3 462.2,685.3 469,687Z" stroke="#619aa6" stroke-width="0.75" stroke-linecap="round" fill="#619aa6" stroke-linejoin="round"/>
<path d="M0,0M292,684L295,682C296.9,680.9 303.9,678.1 303,681C313.9,676.5 313.6,663.6 297,664C294.2,666.7 288.5,666 285,667C278.1,673.3 281.4,687 292,684Z" stroke="#16697b" stroke-width="0.75" stroke-linecap="round" fill="#16697b" stroke-linejoin="round"/>
<path d="M0,0M297,684L298,684C301.7,685.1 303.3,681.1 303,681C303.9,678.1 296.9,680.9 295,682L297,684Z" stroke="#2d8297" stroke-width="0.75" stroke-linecap="round" fill="#2d8297" stroke-linejoin="round"/>
<path d="M0,0M484,684L486,684C489.5,685.3 491.5,681.9 492,682C500.1,677.4 512,671.2 517,661C511.3,662.4 508,669.7 502,669C502.9,671.5 498.3,672.5 498,672C492,670 496,661.6 501,664C510.3,656.8 520.5,650 531,643C538.9,636.1 568,635.8 559,622C568.7,614.1 589.2,614.3 604,616C616.9,616.9 635.9,622.8 651,622C643.6,612 654.8,606.9 654,597C642.7,587.8 621.4,584.4 604,579C596,580.4 589.2,576.7 583,577C581.6,580.6 574.2,578.2 570,579C550.3,580.3 533.5,584.5 514,586L514,604C515.3,609.7 512.8,618.2 516,621C514.1,593.8 520.3,608.1 516,624C516.1,628.2 511.1,630.7 510,631C494,640.9 479.2,653.6 471,669L471,672C477.1,675.6 484.5,673 484,684Z" stroke="#277e93" stroke-width="0.75" stroke-linecap="round" fill="#277e93" stroke-linejoin="round"/>
<path d="M0,0M549,675L561,675C573.8,671.5 598.3,675.1 594,652L586,652C584.1,650 579.6,649.5 579,651C578,660.1 567.2,662.8 561,664C557.6,662.9 556.8,658.7 555,655L549,655C547.3,653.1 543.9,649 544,646C537.5,648.3 533,644.3 531,643C520.5,650 510.3,656.8 501,664L502,669C508,669.7 511.3,662.4 517,661C532.8,642.4 537.4,669.3 549,675Z" stroke="#186d80" stroke-width="0.75" stroke-linecap="round" fill="#186d80" stroke-linejoin="round"/>
<path d="M0,0M498,672C501.2,673.1 502.8,669.1 502,669L501,664C496,661.6 492,670 498,672Z" stroke="#1c768a" stroke-width="0.75" stroke-linecap="round" fill="#1c768a" stroke-linejoin="round"/>
<path d="M0,0M469,669L471,669C479.2,653.6 494,640.9 510,631L507,631C501,622.3 474.5,578.9 513,589L514,586C533.5,584.5 550.3,580.3 570,579L570,577C551,578.5 533.9,581.4 517,585C499.4,586.9 482.4,589.9 469,597C458.4,602.2 451.5,616.2 450,633C447.4,651.9 460.5,659.7 469,669Z" stroke="#7da7ac" stroke-width="0.75" stroke-linecap="round" fill="#7da7ac" stroke-linejoin="round"/>
<path d="M0,0M285,667C288.5,666 294.2,666.7 297,664C296,665.4 286,662.9 285,666L285,667Z" stroke="#5d97a5" stroke-width="0.75" stroke-linecap="round" fill="#5d97a5" stroke-linejoin="round"/>
<path d="M0,0M561,664C567.2,662.8 578,660.1 579,651C577.6,646.3 571.4,642.9 567,643C565.5,650 557.2,649.7 555,655C556.8,658.7 557.6,662.9 561,664Z" stroke="#073330" stroke-width="0.75" stroke-linecap="round" fill="#073330" stroke-linejoin="round"/>
<path d="M0,0M616,658C637.5,660.5 639,643 654,639C654.1,638.3 657.1,634.7 658,633C655,630.5 652.6,626.9 651,622C635.9,622.8 616.9,616.9 604,616C606.6,627.7 600.2,633.8 601,642C606.9,644.6 613,651.9 616,658Z" stroke="#186d80" stroke-width="0.75" stroke-linecap="round" fill="#186d80" stroke-linejoin="round"/>
<path d="M0,0M549,655L555,655C557.2,649.7 565.5,650 567,643C561.4,632.7 550.9,647 544,646C543.9,649 547.3,653.1 549,655Z" stroke="#186d80" stroke-width="0.75" stroke-linecap="round" fill="#186d80" stroke-linejoin="round"/>
<path d="M0,0M586,652L594,652C597.6,648.8 592.3,635.9 601,642C600.2,633.8 606.6,627.7 604,616C589.2,614.3 568.7,614.1 559,622C568,635.8 538.9,636.1 531,643C533,644.3 537.5,648.3 544,646C550.9,647 561.4,632.7 567,643C571.4,642.9 577.6,646.3 579,651C579.6,649.5 584.1,650 586,652Z" stroke="#125c6a" stroke-width="0.75" stroke-linecap="round" fill="#125c6a" stroke-linejoin="round"/>
<path d="M0,0M750,646C753.2,646.8 750.7,635.8 751,631L750,631L750,646Z" stroke="#217a90" stroke-width="0.75" stroke-linecap="round" fill="#217a90" stroke-linejoin="round"/>
<path d="M0,0M361,640C390,646.4 378.2,614.1 388,598L390,595C394.8,578.1 401.8,556.1 397,534C388.5,521.8 378.7,508.9 379,483C380.4,479 378.6,474.2 378,474C368.4,465.6 362.3,453.7 360,438C340.7,447.7 328.1,464.1 295,460C285.8,457.2 268.5,461.5 264,453C264,455 265.3,461.1 267,463C269.9,475.6 273,487.5 271,504C279.6,517.9 275.6,548.7 289,562C293.4,573.8 299.3,586.1 300,598C301.4,600.9 302.4,607.3 303,609C307.8,613.2 307,623 309,630C321.5,624 347.9,634.5 361,640Z" stroke="#093e3f" stroke-width="0.75" stroke-linecap="round" fill="#093e3f" stroke-linejoin="round"/>
<path d="M0,0M658,633C671.9,631.2 666.3,596.9 654,597C654.8,606.9 643.6,612 651,622C652.6,626.9 655,630.5 658,633Z" stroke="#438da0" stroke-width="0.75" stroke-linecap="round" fill="#438da0" stroke-linejoin="round"/>
<path d="M0,0M507,631L510,631C511.1,630.7 516.1,628.2 516,624L516,622L513,622L513,604L513,589C474.5,578.9 501,622.3 507,631Z" stroke="#619aa6" stroke-width="0.75" stroke-linecap="round" fill="#619aa6" stroke-linejoin="round"/>
<path d="M0,0M750,631L751,631C750.7,611.3 760.2,597 769,585C777,570.5 791.1,562.6 801,550C801.8,546.8 793.6,546.6 795,549C781.1,558.1 767.7,567.7 754,577C748.4,589.4 733.4,617.7 750,631Z" stroke="#4a91a3" stroke-width="0.75" stroke-linecap="round" fill="#4a91a3" stroke-linejoin="round"/>
<path d="M0,0M870,625C888.5,623 898.3,611.7 904,597C900.3,589.2 860,586.6 873,607C869.5,609.2 867.1,615.2 865,616C862.2,618.6 869.8,624.6 870,625Z" stroke="#073330" stroke-width="0.75" stroke-linecap="round" fill="#073330" stroke-linejoin="round"/>
<path d="M0,0M516,624C520.3,608.1 514.1,593.8 516,621L516,622L516,624Z" stroke="#3b8a9e" stroke-width="0.75" stroke-linecap="round" fill="#3b8a9e" stroke-linejoin="round"/>
<path d="M0,0M513,622L516,622L516,621C512.8,618.2 515.3,609.7 514,604L513,604L513,622Z" stroke="#5292a3" stroke-width="0.75" stroke-linecap="round" fill="#5292a3" stroke-linejoin="round"/>
<path d="M0,0M859,616L865,616C867.1,615.2 869.5,609.2 873,607C869.4,597.3 853,610.1 859,616Z" stroke="#1a7285" stroke-width="0.75" stroke-linecap="round" fill="#1a7285" stroke-linejoin="round"/>
<path d="M0,0M388,607L393,606L393,601L391,601C392,598.9 391.4,593.9 390,595L388,598L388,607Z" stroke="#217a90" stroke-width="0.75" stroke-linecap="round" fill="#217a90" stroke-linejoin="round"/>
<path d="M0,0M513,604L514,604L514,586L513,589L513,604Z" stroke="#438da0" stroke-width="0.75" stroke-linecap="round" fill="#438da0" stroke-linejoin="round"/>
<path d="M0,0M391,601L393,601C400,587.5 404.7,571.2 408,553C409,532.2 404.9,513.5 400,499C400.6,492.1 391.1,501.1 390,499C388,492.4 385.1,482.8 384,477C380.1,476.2 381.8,484.4 379,483C378.7,508.9 388.5,521.8 397,534C401.8,556.1 394.8,578.1 390,595C393.2,594.5 390.7,602.5 391,601Z" stroke="#1c768a" stroke-width="0.75" stroke-linecap="round" fill="#1c768a" stroke-linejoin="round"/>
<path d="M0,0M298,598L300,598C299.3,586.1 293.4,573.8 289,562C291.1,575.9 295.3,586.7 298,598Z" stroke="#093e40" stroke-width="0.75" stroke-linecap="round" fill="#093e40" stroke-linejoin="round"/>
<path d="M0,0M468,597L469,597C482.4,589.9 499.4,586.9 517,585C533.9,581.4 551,578.5 570,577L583,577C589.2,576.7 596,580.4 604,579C607.6,563.7 619.7,553 630,543C636.8,531.4 653.2,525 661,513C672,505.1 686.6,496.9 693,483C702.3,471.3 697.9,445.9 699,426C698.3,408.3 700.1,383.7 697,366C697.3,345.2 692.1,329.4 684,316C676.6,305.5 663.1,296.2 646,292C633.1,288.2 613.2,278.3 610,271L606,271C599.8,276.4 589.1,280.1 583,283C579.8,288.8 571.5,289.5 565,292C544.7,304.7 520,313 496,322C473.6,332.1 455.2,348 435,358C429.5,361 423.5,363 417,364C409.5,368.1 397.1,370.1 391,373C386.6,375.7 384.4,384 381,385C369.7,402.2 390.4,417.2 391,435C403.4,437.8 416.9,448 424,459C434.9,468.6 438.3,485.2 441,502C443.1,520.4 441.9,541.6 445,558C449.2,572.7 457.4,587.3 468,597Z" stroke="#b0c4c5" stroke-width="0.75" stroke-linecap="round" fill="#b0c4c5" stroke-linejoin="round"/>
<path d="M0,0M1089,594L1090,594C1095.6,577.6 1105.6,561.9 1111,544C1128.7,523.2 1095.1,532.5 1104,507C1104.8,501.8 1102.3,493.3 1105,490C1104.8,486.2 1105.9,480.2 1107,480C1104.9,475.9 1108.7,470.3 1105,465L1104,465C1105.6,461.6 1100.8,451.8 1107,453C1105,423 1100.6,395.4 1098,366C1096.8,335.2 1088,312 1084,283C1081.9,254.1 1077.6,226.4 1066,205C1057.5,182.5 1041.4,166.5 1020,156C996.8,148.2 977.1,140 957,126C945.6,105.4 930.4,88.6 916,70C902.3,52.7 878.9,44.1 861,30C840.4,18.6 816.2,10.8 789,6L787,6C784.7,2.8 776.2,5.3 771,4L742,4C732.4,7.4 717.2,5.2 705,6L705,4L676,4C678.7,26.7 665.4,33.4 654,42C643.2,46.9 635.2,72.1 642,79C649.9,78.7 656.8,82.4 663,81C679,83 693.9,86.1 703,94C712.6,101.1 740.1,97.6 738,109C712.6,102.7 709.8,113.9 732,118C746.2,122 747.6,145.4 733,148C730,172.4 736,201.8 744,211C774.2,214.8 808.4,216 835,220C852.5,206.4 897.2,215.3 913,222C928.7,225.1 942,232.7 946,244C958.1,259.9 971,274 976,295C980.5,318.5 988.2,337.9 990,363C999.2,383 995.2,414.1 990,433C994.7,456.4 1005.2,477.4 1015,496C1026.5,515.5 1037.4,534.6 1044,558C1045.6,590.4 1063.7,595.4 1089,594Z" stroke="#031b12" stroke-width="0.75" stroke-linecap="round" fill="#031b12" stroke-linejoin="round"/>
<path d="M0,0M1131,588C1133.3,587.2 1133.3,571.6 1131,568L1131,588Z" stroke="#b1c4c5" stroke-width="0.75" stroke-linecap="round" fill="#b1c4c5" stroke-linejoin="round"/>
<path d="M0,0M570,579C574.2,578.2 581.6,580.6 583,577L570,577L570,579Z" stroke="#7da7ac" stroke-width="0.75" stroke-linecap="round" fill="#7da7ac" stroke-linejoin="round"/>
<path d="M0,0M783,555C788.3,554.3 789.3,549.3 795,549C793.6,546.6 801.8,546.8 801,550C820.9,539.8 848,532.5 876,528C875.3,510.4 872.5,482.1 867,466C863.3,446.2 853.8,431.7 849,412C841.3,395.8 837.3,373.2 834,354C829.7,334.3 825.6,314.4 817,298C795.9,290.2 807.5,258.3 784,253C762.6,248.4 738.1,245.9 714,243L714,244C721.6,265.2 737.9,287.3 750,307C762.5,329 769.9,355.6 774,385C780.1,413.4 791.3,436.2 795,466C801,499.6 788.8,527.9 783,555Z" stroke="#77a3aa" stroke-width="0.75" stroke-linecap="round" fill="#77a3aa" stroke-linejoin="round"/>
<path d="M0,0M408,553C418.7,541 413.7,507.1 406,493C404.7,495.3 402.3,499.9 400,499C404.9,513.5 409,532.2 408,553Z" stroke="#619aa6" stroke-width="0.75" stroke-linecap="round" fill="#619aa6" stroke-linejoin="round"/>
<path d="M0,0M876,528C883.5,527.6 893.3,523.9 903,523C902.6,496.5 895.9,473.7 891,453C884.3,432.3 874.8,412.2 867,394C857.9,376.2 851.9,352.7 846,333C843.8,315.9 830,278.2 817,298C825.6,314.4 829.7,334.3 834,354C837.3,373.2 841.3,395.8 849,412C853.8,431.7 863.3,446.2 867,466C872.5,482.1 875.3,510.4 876,528Z" stroke="#5292a3" stroke-width="0.75" stroke-linecap="round" fill="#5292a3" stroke-linejoin="round"/>
<path d="M0,0M903,523C909.2,520.7 924.1,521.3 933,519C927.8,492.7 927.6,459.5 921,436C917.1,409 909.3,383.3 898,364C888.5,343 877.5,320.7 867,301C856,281 839.2,264.5 834,240C807.1,242.5 789.3,233.7 769,231C748.4,227.7 728.1,221.4 705,222C707.8,232 701.8,237.4 688,235C696.5,238.5 706.6,239.4 714,243C738.1,245.9 762.6,248.4 784,253C807.5,258.3 795.9,290.2 817,298C830,278.2 843.8,315.9 846,333C851.9,352.7 857.9,376.2 867,394C874.8,412.2 884.3,432.3 891,453C895.9,473.7 902.6,496.5 903,523Z" stroke="#37869a" stroke-width="0.75" stroke-linecap="round" fill="#37869a" stroke-linejoin="round"/>
<path d="M0,0M933,519C940.3,518 944,512.9 942,487C942.7,477 942.9,433.6 936,457C922.4,455.9 931.8,426.5 927,414C921.7,393.7 938.1,390.6 927,372C926.1,357.6 919,344.7 915,331C909.9,318.6 903.6,306.9 897,295C890.3,284.2 883.8,272.6 877,261C876.1,246 866,241.3 847,240L834,240C839.2,264.5 856,281 867,301C877.5,320.7 888.5,343 898,364C909.3,383.3 917.1,409 921,436C927.6,459.5 927.8,492.7 933,519Z" stroke="#217a90" stroke-width="0.75" stroke-linecap="round" fill="#217a90" stroke-linejoin="round"/>
<path d="M0,0M1105,513C1108.9,516.3 1110,505 1107,504C1104.7,502.5 1105.6,510 1105,513Z" stroke="#f6f7f7" stroke-width="0.75" stroke-linecap="round" fill="#f6f7f7" stroke-linejoin="round"/>
<path d="M0,0M270,504L271,504C273,487.5 269.9,475.6 267,463C265.6,477 272.6,487.2 270,504Z" stroke="#073330" stroke-width="0.75" stroke-linecap="round" fill="#073330" stroke-linejoin="round"/>
<path d="M0,0M390,499C391.1,501.1 400.6,492.1 400,499C402.3,499.9 404.7,495.3 406,493C401,476.5 395.5,455.3 391,435C390.4,417.2 369.7,402.2 381,385C378.5,381.4 376.5,387.9 375,387C366.4,396.7 365.9,416.1 372,429C376.1,442.2 379.1,459.2 382,471C381.9,473.8 385.3,475.8 384,477C385.1,482.8 388,492.4 390,499Z" stroke="#4a91a2" stroke-width="0.75" stroke-linecap="round" fill="#4a91a2" stroke-linejoin="round"/>
<path d="M0,0M1107,495C1112.5,497 1110.1,484.8 1108,484C1108.6,487.3 1108.9,493.6 1107,492L1107,495Z" stroke="#d2dcdb" stroke-width="0.75" stroke-linecap="round" fill="#d2dcdb" stroke-linejoin="round"/>
<path d="M0,0M1105,492L1107,492C1108.9,493.6 1108.6,487.3 1108,484L1107,480C1105.9,480.2 1104.8,486.2 1105,490L1105,492Z" stroke="#72a0a9" stroke-width="0.75" stroke-linecap="round" fill="#72a0a9" stroke-linejoin="round"/>
<path d="M0,0M379,483C381.8,484.4 380.1,476.2 384,477C384.6,474.2 381.2,472.2 382,471C381.1,471.8 379.6,475.8 378,474C378.6,474.2 380.4,479 379,483Z" stroke="#166a7b" stroke-width="0.75" stroke-linecap="round" fill="#166a7b" stroke-linejoin="round"/>
<path d="M0,0M378,474C382.1,476 380.7,469 382,471C379.1,459.2 376.1,442.2 372,429C365.9,416.1 366.4,396.7 375,387C374.8,377.5 384.3,371.3 391,373C397.1,370.1 409.5,368.1 417,364L417,363C409.7,361.8 404,365.7 399,364L399,363C380.2,368.2 363.2,375.2 355,391C330.3,407.7 365.1,412.7 360,438C362.3,453.7 368.4,465.6 378,474Z" stroke="#13606f" stroke-width="0.75" stroke-linecap="round" fill="#13606f" stroke-linejoin="round"/>
<path d="M0,0M1104,465L1105,465C1102.7,461 1112.1,457 1107,453C1100.8,451.8 1105.6,461.6 1104,465Z" stroke="#156475" stroke-width="0.75" stroke-linecap="round" fill="#156475" stroke-linejoin="round"/>
<path d="M0,0M295,460C328.1,464.1 340.7,447.7 360,438C365.1,412.7 330.3,407.7 355,391C363.2,375.2 380.2,368.2 399,363C414.8,353.8 431.8,345.8 445,334C460.6,325.2 475.9,313.9 490,306L489,306C479.3,297.4 475.8,280 466,273C458.9,262.6 454.5,249 444,241C432.5,249.7 400.8,259.2 406,238L393,238L393,237C384.3,238.3 379.7,243.7 370,244C370.5,231.9 390.6,227.8 399,219C414.7,210.7 417.8,189.8 435,183C427.6,176.7 415.8,155.5 408,142C404,127.4 383.1,110.8 385,102C368.1,115.6 345.3,123.8 334,144C325.5,164.6 305.4,178 289,193C270.2,204.7 286.4,241.9 267,259C266.4,284.8 240.3,304.3 252,330C254.6,330.5 253.9,342.3 252,340C248.7,348.4 260.7,363.9 252,375C254.2,379.1 254.2,395.6 252,397L252,399C255.9,410.1 262,419 261,435C265.7,436.5 263.8,451.5 264,453C268.5,461.5 285.8,457.2 295,460Z" stroke="#042119" stroke-width="0.75" stroke-linecap="round" fill="#042119" stroke-linejoin="round"/>
<path d="M0,0M262,453L264,453C263.8,451.5 265.7,436.5 261,435C261,438.8 263.7,445.7 262,453Z" stroke="#062d2a" stroke-width="0.75" stroke-linecap="round" fill="#062d2a" stroke-linejoin="round"/>
<path d="M0,0M987,436L990,433C995.2,414.1 999.2,383 990,363C968.6,374.4 981.9,414.3 987,436Z" stroke="#0d4c55" stroke-width="0.75" stroke-linecap="round" fill="#0d4c55" stroke-linejoin="round"/>
<path d="M0,0M250,399L252,399L252,397L252,382C248.8,385.3 251.3,393.8 250,399Z" stroke="#acc1c2" stroke-width="0.75" stroke-linecap="round" fill="#acc1c2" stroke-linejoin="round"/>
<path d="M0,0M252,397C254.2,395.6 254.2,379.1 252,375L252,382L252,397Z" stroke="#2d8297" stroke-width="0.75" stroke-linecap="round" fill="#2d8297" stroke-linejoin="round"/>
<path d="M0,0M375,387C376.5,387.9 378.5,381.4 381,385C384.4,384 386.6,375.7 391,373C384.3,371.3 374.8,377.5 375,387Z" stroke="#2d8297" stroke-width="0.75" stroke-linecap="round" fill="#2d8297" stroke-linejoin="round"/>
<path d="M0,0M399,364C404,365.7 409.7,361.8 417,363C424.7,362.7 427.3,357.3 435,357C447.7,341.7 465.1,331.1 483,321C502.3,312.9 523.2,304.2 541,297L540,297C541.2,290.8 537.3,289.7 538,283C529.3,285.3 522.2,289.2 513,291C501.6,294.8 495.5,301.1 490,306C475.9,313.9 460.6,325.2 445,334C431.8,345.8 414.8,353.8 399,363L399,364Z" stroke="#186d80" stroke-width="0.75" stroke-linecap="round" fill="#186d80" stroke-linejoin="round"/>
<path d="M0,0M417,364C423.5,363 429.5,361 435,358L435,357C427.3,357.3 424.7,362.7 417,363L417,364Z" stroke="#16697b" stroke-width="0.75" stroke-linecap="round" fill="#16697b" stroke-linejoin="round"/>
<path d="M0,0M435,358C455.2,348 473.6,332.1 496,322C520,313 544.7,304.7 565,292L565,288C557.1,290.6 550.3,294.8 541,297C523.2,304.2 502.3,312.9 483,321C465.1,331.1 447.7,341.7 435,357L435,358Z" stroke="#699da7" stroke-width="0.75" stroke-linecap="round" fill="#699da7" stroke-linejoin="round"/>
<path d="M0,0M252,340C253.9,342.3 254.6,330.5 252,330L252,340Z" stroke="#000000" stroke-width="0.75" stroke-linecap="round" fill="#000000" stroke-linejoin="round"/>
<path d="M0,0M489,306L490,306C495.5,301.1 501.6,294.8 513,291L511,291C506.5,273.6 495.6,259.9 486,249C483.7,225.6 456,234 444,241C454.5,249 458.9,262.6 466,273C475.8,280 479.3,297.4 489,306Z" stroke="#073330" stroke-width="0.75" stroke-linecap="round" fill="#073330" stroke-linejoin="round"/>
<path d="M0,0M540,297L541,297C550.3,294.8 557.1,290.6 565,288C569.9,286.3 577.1,283.9 579,282C584.2,279.1 592.3,275.7 597,274C598,267.1 592.4,262.5 595,259C576.1,267.1 558,276 538,283C537.3,289.7 541.2,290.8 540,297Z" stroke="#217b90" stroke-width="0.75" stroke-linecap="round" fill="#217b90" stroke-linejoin="round"/>
<path d="M0,0M565,292C571.5,289.5 579.8,288.8 583,283L582,283L579,282C577.1,283.9 569.9,286.3 565,288L565,292Z" stroke="#84aaaf" stroke-width="0.75" stroke-linecap="round" fill="#84aaaf" stroke-linejoin="round"/>
<path d="M0,0M511,291L513,291C522.2,289.2 529.3,285.3 538,283C558,276 576.1,267.1 595,259C615.3,250.9 638.6,243.7 658,237C652.2,219.9 688.3,222.7 705,222C728.1,221.4 748.4,227.7 769,231C789.3,233.7 807.1,242.5 834,240L847,240C852.4,233.9 850.3,220.8 864,223C854.3,223.1 842.5,221.4 835,220C808.4,216 774.2,214.8 744,211C715.7,211.2 688.1,211.6 664,216C642.9,221.8 624.4,232.8 604,238C589.7,219.7 618.7,212.8 624,202C649.4,196.8 636.6,183.1 642,172C653,165.6 682.3,169.4 693,171C691.9,148.9 713.5,149.5 733,148C747.6,145.4 746.2,122 732,118C709.8,113.9 712.6,102.7 738,109C740.1,97.6 712.6,101.1 703,94C693.9,86.1 679,83 663,81C668.2,106.6 646.2,133.6 609,117C579.6,115.2 549.4,124.4 520,126C505.7,119.4 492.8,63.7 517,58C544.1,58.1 560.9,78.8 588,78C594.6,63.3 598.7,43.6 613,39C636.2,40.7 640.9,24.4 642,4L607,4C602,1.4 598.1,5.8 591,4C568.6,14.1 535.2,12.7 517,27C493,33.2 481.4,55.9 457,64C449.9,75.5 426.7,78.2 445,90C452.7,101 459.7,115 465,126C477.3,143 462.5,154.6 451,159C428.5,168.5 452.7,175.2 435,183C417.8,189.8 414.7,210.7 399,219C403.9,223.1 399.5,234.4 403,234C406,233.6 407,238.2 406,238C400.8,259.2 432.5,249.7 444,241C456,234 483.7,225.6 486,249C495.6,259.9 506.5,273.6 511,291Z" stroke="#0f525c" stroke-width="0.75" stroke-linecap="round" fill="#0f525c" stroke-linejoin="round"/>
<path d="M0,0M582,283L583,283C589.1,280.1 599.8,276.4 606,271C601.4,270.5 598.6,274.7 597,274C592.3,275.7 584.2,279.1 579,282L582,283Z" stroke="#2d8297" stroke-width="0.75" stroke-linecap="round" fill="#2d8297" stroke-linejoin="round"/>
<path d="M0,0M597,274C598.6,274.7 601.4,270.5 606,271L610,271C623.6,265.2 638.6,256.5 657,253C674.2,248.7 691.9,244.4 714,244L714,243C706.6,239.4 696.5,238.5 688,235C678.2,235.3 664.6,235.1 658,237C638.6,243.7 615.3,250.9 595,259C592.4,262.5 598,267.1 597,274Z" stroke="#438da0" stroke-width="0.75" stroke-linecap="round" fill="#438da0" stroke-linejoin="round"/>
<path d="M0,0M924,247C930.3,247.9 941.2,247.3 946,244C942,232.7 928.7,225.1 913,222C911.9,226.4 909.5,230 906,232C912.1,237.4 919.5,241 924,247Z" stroke="#0d4c55" stroke-width="0.75" stroke-linecap="round" fill="#0d4c55" stroke-linejoin="round"/>
<path d="M0,0M370,244C379.7,243.7 384.3,238.3 393,237C395.1,235 403.9,236.4 403,234C399.5,234.4 403.9,223.1 399,219C390.6,227.8 370.5,231.9 370,244Z" stroke="#093e40" stroke-width="0.75" stroke-linecap="round" fill="#093e40" stroke-linejoin="round"/>
<path d="M0,0M393,238L406,238C407.6,235.3 403.6,233.7 403,234C403.9,236.4 395.1,235 393,237L393,238Z" stroke="#083839" stroke-width="0.75" stroke-linecap="round" fill="#083839" stroke-linejoin="round"/>
<path d="M0,0M604,238C624.4,232.8 642.9,221.8 664,216C688.1,211.6 715.7,211.2 744,211C736,201.8 730,172.4 733,148C713.5,149.5 691.9,148.9 693,171C682.3,169.4 653,165.6 642,172C636.6,183.1 649.4,196.8 624,202C618.7,212.8 589.7,219.7 604,238Z" stroke="#062d2a" stroke-width="0.75" stroke-linecap="round" fill="#062d2a" stroke-linejoin="round"/>
<path d="M0,0M658,237C664.6,235.1 678.2,235.3 688,235C701.8,237.4 707.8,232 705,222C688.3,222.7 652.2,219.9 658,237Z" stroke="#1a7285" stroke-width="0.75" stroke-linecap="round" fill="#1a7285" stroke-linejoin="round"/>
<path d="M0,0M903,232L906,232C909.5,230 911.9,226.4 913,222C897.2,215.3 852.5,206.4 835,220C842.5,221.4 854.3,223.1 864,223C876.8,226.7 893.9,225.6 903,232Z" stroke="#073330" stroke-width="0.75" stroke-linecap="round" fill="#073330" stroke-linejoin="round"/>
<path d="M0,0M435,183C452.7,175.2 428.5,168.5 451,159C462.5,154.6 477.3,143 465,126C459.7,115 452.7,101 445,90C426.7,78.2 449.9,75.5 457,64C447.1,72.1 434.7,77.7 424,85C414.2,91.5 396.6,94.8 385,102C383.1,110.8 404,127.4 408,142C415.8,155.5 427.6,176.7 435,183Z" stroke="#083839" stroke-width="0.75" stroke-linecap="round" fill="#083839" stroke-linejoin="round"/>
<path d="M0,0M520,126C549.4,124.4 579.6,115.2 609,117C646.2,133.6 668.2,106.6 663,81C656.8,82.4 649.9,78.7 642,79C639.2,78.9 637.2,82.3 636,81C624.9,75.1 603.3,79.7 588,78C560.9,78.8 544.1,58.1 517,58C492.8,63.7 505.7,119.4 520,126Z" stroke="#125c6a" stroke-width="0.75" stroke-linecap="round" fill="#125c6a" stroke-linejoin="round"/>
<path d="M0,0M636,81C638.8,81.6 640.8,78.2 642,79C635.2,72.1 643.2,46.9 654,42C665.4,33.4 678.7,26.7 676,4L642,4C640.9,24.4 636.2,40.7 613,39C598.7,43.6 594.6,63.3 588,78C603.3,79.7 624.9,75.1 636,81Z" stroke="#073330" stroke-width="0.75" stroke-linecap="round" fill="#073330" stroke-linejoin="round"/>
<path d="M0,0M705,6C717.2,5.2 732.4,7.4 742,4L705,4L705,6Z" stroke="#093839" stroke-width="0.75" stroke-linecap="round" fill="#093839" stroke-linejoin="round"/>
<path d="M0,0M787,6L789,6C790.3,2.5 786.9,0.5 787,0L690,0L592,0L591,4C598.1,5.8 602,1.4 607,4C633.1,2.1 662.6,3.6 690,3C716.8,3.6 747.9,2.1 771,4C776.2,5.3 784.7,2.8 787,6Z" stroke="#a1bbbd" stroke-width="0.75" stroke-linecap="round" fill="#a1bbbd" stroke-linejoin="round"/>
<path d="M0,0M607,4L642,4L676,4L705,4L742,4L771,4C747.9,2.1 716.8,3.6 690,3C662.6,3.6 633.1,2.1 607,4Z" stroke="#37869a" stroke-width="0.75" stroke-linecap="round" fill="#37869a" stroke-linejoin="round"/>
</g>
<g id="layer1" opacity="0.8">
<path d="M0,0M13,1443C39.1,1436.1 76.8,1438.2 106,1440L205,1440L304,1440L402,1440L501,1440C555,1447.9 516.1,1423.5 513,1399C503.5,1376 490.4,1356.1 481,1332C471.9,1309.1 461.8,1284.9 453,1263C443.4,1239.6 434.4,1215.6 430,1186C421,1154.9 435.7,1129.1 441,1104C461.7,1083.5 456.4,1067.7 454,1027C452.1,997.4 437.5,977.6 433,951C436.2,915.3 410.4,908.1 384,901C365.3,887.8 354.6,864 342,846C327.3,827.7 316.9,805.1 307,781C299.8,756.8 288.4,733.8 285,706C280.5,680.7 270,644.8 295,633C290.9,619.1 260,658.9 276,685C280,714.5 285.8,741.7 297,763C305.6,787.3 314.1,813.3 327,831C339.1,851.9 353.3,870.7 366,891C371.3,918.2 417.8,906 423,931C429,958.5 436.9,983.6 445,1008C445.1,1028.4 462.7,1083.1 441,1083C424.3,1099.3 407.5,1115.5 394,1135C376.9,1150.9 364.4,1171.4 348,1188C333.3,1206.3 318.4,1224.4 304,1243C293.2,1264.6 269.6,1275.5 252,1288C230.1,1299.6 210.7,1313.2 192,1327C176.2,1344.2 153.7,1356.1 136,1369C116.3,1382.3 96.3,1395.3 75,1407C54.6,1419.1 31.2,1430.1 13,1443M1425,1443C1421.3,1432.7 1384.6,1419.4 1368,1408C1341.6,1400.4 1321.6,1384.1 1297,1375C1264.6,1373.9 1242.1,1360.1 1222,1347C1201.2,1334.3 1179.8,1321.7 1158,1309C1136.7,1296.3 1113.2,1283.5 1089,1275C1069.1,1260.9 1036.5,1259.5 1020,1242C1014.5,1213 1000.2,1191 988,1170C973.9,1155.8 982.5,1106.4 990,1087C1004.4,1067.4 1019.6,1046.3 1027,1021C1038.2,998.2 1045.5,971.5 1050,942C1055.4,912.9 1055.5,876.7 1062,850C1086.4,840.9 1093.5,814 1107,793C1112.3,764.4 1128.1,743.8 1131,714C1134.7,683.7 1133.9,648.9 1140,621C1124.1,597.8 1134.6,557.2 1134,535C1096.7,534 1107.9,499 1105,468C1109.1,436.4 1099,404.9 1099,373C1097.2,341.8 1089.2,315.8 1086,285C1081,255.5 1077.9,222.3 1065,202C1054.5,179 1036.9,162.6 1014,151C984.7,146.3 960.4,134.3 949,112C933.5,94.5 921.4,72.6 903,57C880.8,44.7 861.7,27.5 837,19C813,11.4 785.1,0 753,4L649,4C614.2,0.6 585.3,4 559,13C528.1,16.6 507.3,32.1 487,45C469.8,61.3 444.6,70.1 426,85C400.3,94.3 374.9,105.2 357,120C334,131 330.4,161.4 310,175C285.9,188.7 274.3,208 276,238C263.8,260.3 260.7,291.2 249,313C257.4,345.4 250.9,374.5 253,406C261.8,432.7 265.5,465.3 270,493C276.3,521.7 281.2,553.1 292,574C305.7,595.3 299.6,635.4 319,649C327.3,674.3 346.8,696.2 349,720C317.2,766.3 372.5,697.7 367,747C375.6,769.1 385.8,806.4 397,811C389.2,785.8 376.4,764.6 375,732C380.8,742.7 393.8,805.7 396,787C391.3,758.2 381.7,733.8 381,700C377.8,667.4 380.1,630.8 388,607C389.7,600.6 393.1,592.5 396,589C397.7,585.1 400.1,577.9 402,576C411.8,537.5 394.9,589.8 400,556C400.6,500.4 385,572.5 379,585C380.1,593.3 369.8,601.1 375,591C379.9,542.2 367.2,598.8 366,610C363.2,616.7 359.8,622.3 357,628C347,668.4 381.6,587.9 366,633C365.9,641 362.4,649 360,652C358.7,665.6 366.6,702 360,705C342,688.5 336.1,658.1 321,640C312.3,615.2 305.6,587.9 297,562C284.3,540.7 283.3,505.4 276,480C275.7,471.6 278.8,463.2 277,456C273.4,453.9 278.6,439.3 274,439C267.2,407.9 276,473.7 273,456C271.2,425 255.9,398.3 262,369C259,352.8 268.7,358.6 264,366C259.1,400.6 270.4,384.7 274,417C274.1,434.3 277.3,423.3 280,426C284.6,446.1 287.4,489.2 294,444C302.9,437 298.2,458.3 301,459C325,459.9 313.7,513.2 330,474C330,483 328.3,490.3 327,498C325.8,505.3 329.7,511 328,516C336.1,513.6 344.2,537.3 345,508C346.9,502.3 352.8,496.7 352,490C354.5,486.4 354.6,476.9 355,474C359.7,463 366,491.2 361,453C360.6,446.7 353.4,439.8 357,433C349.3,376.4 350.7,464.5 340,442C334.8,440.1 338.7,424.7 337,420C342.5,430.5 347.4,383.5 361,382C377,363.5 420.9,371.1 439,357C443.1,345.8 464.5,317.7 484,309C509.2,311.4 534.3,297.8 559,289C563.2,285.1 573,283.4 576,280C595.9,267.4 549,291.1 540,291C521.3,296.1 456.4,316.2 505,294C531.9,285.9 557.3,275 576,261C580.6,256.6 587.9,254.9 594,252C609.4,234.4 565.9,261.4 558,262C530.2,268.7 500.5,273 478,285C449.1,283.2 540.5,257.7 504,261C481.8,273.2 452.5,279 438,279C455.3,271.7 493.7,247.1 489,244C465.2,254.7 444.7,268.2 421,279C421.7,262.1 460.5,251.7 478,241C500.4,229.4 522.9,217.9 547,208C541.6,204.1 500.5,223.3 484,231C480.7,235.3 470.1,236.2 468,240C431.3,254.7 475.1,227.1 484,225C506.8,212.8 533.8,203.5 559,196C595.7,181.3 522,201.6 514,208C488.8,217.2 465.1,229.9 444,241C422.2,253.7 399.3,264.8 378,277C371,279.5 366.3,283.8 358,285C356.2,288.8 347.3,289.5 345,291C307.4,298.7 350.5,280.5 327,285C348,275.7 373,257.1 388,253C402.3,249.2 446.6,222.5 436,222C432.9,226.5 424.1,229.3 421,232C388.8,251.2 429.1,220.1 436,216C452.8,198.8 482.7,189.8 501,180C486.4,183.9 496.1,176.9 501,175C505.9,175.5 515.3,169 511,175C491.3,186.1 527,169.7 537,171C568.3,167.8 596.8,160 627,157C655.2,160.8 696.4,141.5 712,159C774.9,182.5 682.7,155 694,163C710.2,162.2 764.6,200.3 732,186C721.4,193.9 689.7,163.4 661,168C652.7,173.5 571.6,185.1 616,183C641.4,179.1 703.1,190.8 684,195C668.6,191.1 685.4,197.4 688,198C669.5,205.3 638.8,190.1 625,205C605.4,219.9 583,233.8 564,247C582.7,233.2 625.7,243.1 634,225C613.2,221.5 681.2,213.5 694,208C731.4,208.2 762,205.6 789,214C793.6,215.3 809.1,218.9 811,213C770.7,202.4 834.3,210.2 846,210C876,211.6 905.1,208.9 928,223C962.4,237.6 940.1,246 969,268C983.8,287.7 980.7,324.8 990,349C997.3,374 1016.7,400.6 1003,430C982.1,447.6 1007.5,482.6 1015,499C1029.4,520.1 1042.9,542.9 1048,570C1057.8,594.7 1061.3,625.2 1065,655C1066.7,673.3 1063.2,762.2 1075,706C1078.3,649.9 1089.6,686.3 1081,724C1063.6,735.1 1059.3,806.2 1078,753C1083.8,730.8 1115.8,720.6 1119,700C1123.6,662.2 1113.5,660.8 1092,639C1070,616.4 1096.7,586.1 1102,565C1095.6,536.2 1132.6,516.6 1126,561C1118.5,591.6 1119.3,610.2 1129,642C1126.8,673.8 1130.8,714.1 1119,735C1109.2,759.2 1102.4,786.4 1090,808C1085.6,838.1 1045.7,834.5 1051,873C1047.5,903 1044.9,934.4 1039,963C1034.1,992.1 1022.3,1016.6 1012,1039C1002.9,1063.9 981.5,1076.5 976,1105C970.3,1142.3 974.4,1169.3 988,1191C1004.4,1202.8 1006.4,1239.7 1021,1257C1048.1,1256.2 1034.5,1291 1048,1318C1056.4,1344.6 1061,1374 1068,1401C1061,1441.4 1080.4,1443 1123,1440L1225,1440L1329,1440C1363.4,1442.6 1396.9,1434.3 1425,1443M681,1440L759,1440L837,1440C863.6,1442.1 889,1436.8 912,1440C936.9,1438.9 966.3,1442.3 987,1437C1017.2,1416.2 952.9,1449.6 990,1419C998,1399.8 999.1,1375.5 994,1351C994.6,1324.2 997.1,1302.9 994,1276C989,1240 1017,1287.2 1015,1291C1012.3,1268.7 1000.2,1254.8 994,1234C991.9,1220.2 977.2,1171.3 981,1218C979.8,1242.8 980.6,1269.6 975,1290C971.9,1312.9 966.8,1333.8 961,1354C957.3,1372.6 973.5,1394.2 979,1393C990,1420.5 972.3,1434.5 951,1434L873,1434L796,1434L718,1434C689.9,1436.6 666.6,1433.9 660,1414C645.5,1403 636.1,1386.4 622,1374C610.7,1359.8 597.9,1346.6 586,1332C572.5,1320 563.6,1302.9 549,1291C537.1,1277.4 527.9,1260.6 516,1246C507.3,1229.2 495.2,1215.3 489,1195C481.1,1177.4 474.4,1158.1 469,1137C467.3,1121.9 453,1074.1 459,1117C463.2,1139.3 470,1158.5 477,1177C483.3,1197.2 491.6,1214.9 502,1230C511.1,1247.4 523.4,1261.1 532,1278C542.7,1293.8 558.4,1304.2 568,1320C578.7,1335.8 592.6,1347.9 603,1363C615.5,1376.9 630.3,1388.2 640,1404C655.4,1414.5 662.2,1435.2 681,1440M1003,1438C1017.7,1436.7 1049.6,1441.8 1051,1435C1038.7,1437.8 1012.4,1432 1003,1438M105,1434C96.6,1434.3 88.2,1431.2 81,1432C34.6,1437.2 73.2,1413.4 84,1410C105.8,1398.8 124.9,1384.9 145,1372C165,1359 184.2,1345.2 202,1330C220.3,1315.9 240.7,1301.9 261,1291C280.9,1278.4 301.2,1265.6 313,1245C326.1,1225.1 343,1207.7 355,1189C371.7,1172.7 387,1155 402,1137C407.8,1134.7 409.2,1124.5 414,1123C432.8,1092 424.2,1140.9 420,1153C417.5,1189 426.7,1212.8 435,1237C442,1263.5 453.9,1284.6 462,1309C471.7,1332.8 481.2,1356.3 493,1377C501.3,1392 527.2,1437.4 489,1434L390,1434C360.8,1430.8 323.7,1433.4 294,1432C263.2,1436.6 231.6,1430 198,1432C164.4,1432.7 133.8,1434.4 105,1434M1366,1432C1353.1,1431.7 1333.8,1433.9 1324,1431C1337.9,1431.8 1357.2,1429.6 1366,1432M180,1429C194.4,1428.7 214.6,1430.8 225,1428C210.6,1428.8 190.4,1426.7 180,1429M192,1416C208.7,1420.1 194.7,1374.8 192,1387C180.1,1398.5 180.6,1418.8 192,1416M208,1350C222.4,1343.9 242.7,1344.2 255,1336C237.3,1338.8 218.5,1340 208,1350M727,1056C749.8,1054.4 776,1056.5 792,1048C771.6,1052.1 742.5,1047 727,1056M747,1005C764,1003.8 784.6,1003.4 796,999C812,996.5 825.5,992 840,988C856.4,986.9 870.5,983 885,979C902.8,984.2 915.3,976.4 916,960C907.8,958.4 889.3,965.8 877,969C864,973.5 850.3,977.8 835,981C820.4,983.9 804.6,986.1 790,990C780.1,997.6 757,992.5 742,996C723.8,996.4 706.2,993.1 688,994C677.1,992.5 639.1,999.1 649,988C655.3,985.6 693.2,974.4 666,978C653.7,980.8 640.9,994.4 625,985C607.5,978.3 592.9,992 598,1000C612.3,1003.7 628.3,991.5 643,1000C663,999 677.3,1002.7 696,1002C710.8,1005.2 731.9,1002.1 747,1005M757,981C774.9,976.4 786.2,965.7 799,957C778.5,958 769,970.5 757,981M765,876C781.7,873.4 784.1,853.9 801,853C816.4,862.8 836.3,851.9 832,837C828.8,858.5 803.4,841.3 793,847C781.6,854.6 772.7,864.7 765,876M690,874C727.1,876.9 687.7,866.8 681,864C654.1,851.4 681.3,873.7 690,874M700,868C720.3,868.7 687.7,857.2 684,856C662.3,858.2 700.4,864.2 700,868M573,712C591.1,712.3 605,705.3 615,699C600.2,702.5 584.9,708.1 573,712M292,696C274.4,647.7 341,697.5 304,666C296.9,664.2 286.7,663.5 285,669C281.8,674.4 283.4,677.6 283,684C288.6,697.4 287.9,658.3 292,696M483,682C507,680.2 520.7,646.7 537,652C528.4,681.9 577,680.9 591,664C600.3,670 513.9,671.3 564,664C594.3,646.9 575.2,624.5 556,654C514.3,652.4 587.9,621.3 589,645C589,658.4 594.6,642.1 597,640C612.1,650.4 634.8,666.5 612,640C595.7,625.1 554.4,628.8 535,639C512.5,648 496.4,663.9 483,682M471,676C484.7,671.2 488.3,655.8 499,648C510.2,640.4 524.8,634.1 535,628C549.3,624 567.7,621.5 585,622C596.6,622 629.6,631.4 625,622C613.6,616.8 594.4,612.5 577,616C561.2,618.5 543.1,621.3 531,625C517.3,630.1 503.9,637.6 493,643C484.3,652.5 475.1,664.3 471,676M796,642C827.7,646.8 829.1,613.1 850,601C840,607.9 854.1,653 889,639C897.9,639.3 902.4,632.2 904,628C911,607.9 882.5,655 867,630C862.7,626.2 856.7,620.6 856,615C857.6,597.7 910.2,592.3 873,607C838.6,643.2 914.1,615.7 900,603C921.2,606.5 967,640.2 933,604C917.6,589.2 874.1,587.2 852,597C829.3,607.8 811.8,625.6 796,642M349,619C355,612 354.2,598.2 354,585C349.8,593.8 350.7,607.7 349,619M801,615C814.9,609.6 823.3,596.2 835,591C849,585.2 865.9,580.2 882,579C901.3,579 917.9,584.2 930,589C942.1,591.7 957.4,608.2 964,603C954.1,594.1 939.6,586.8 927,582C911.6,578.1 892,575.9 876,574C855.9,573.7 838.3,577.9 828,585C815.9,591.9 806.8,601.8 801,615M321,598C325.1,588.6 328.4,577.9 328,564C324.3,573.8 321.7,585.2 321,598M516,595C533.2,590.7 548,583.5 571,585C586.4,583 624.6,592.3 621,585C604.2,581.1 583.9,575.9 564,579C545.3,581.6 527.6,587.7 516,595M310,589C313.3,579.3 304.9,567.1 306,556C302.1,567.8 306.5,584 310,589M318,586C325.6,571.4 320.6,551.6 313,541C309.1,548.2 313.6,578.2 318,586M783,571C796.5,560.5 806.5,557.7 817,555C828.6,546.8 844,540.4 859,538C845.9,528.8 828.3,542 816,546C802.1,551.4 789.9,561.1 783,571M844,561C866.4,562.9 878.7,555.2 897,553C943.5,550.3 878.2,549.5 909,544C893.7,541.3 871.5,536.4 859,546C824.2,551.9 852.5,554.1 844,561M375,508C380.7,496.2 382.6,478.5 378,465C373.8,472.2 373.5,498.2 375,508M340,496C337.6,486.5 342.7,474 345,465C347.9,475 344,488.7 340,496M336,418C328.4,411.3 340,392.6 345,385C347.8,387.9 335.6,405.9 336,418M363,405C369.1,398.9 371,385.6 376,381C366.4,383 363,395 363,405M417,360C392,359.9 438.9,346.6 439,339C457.2,331.9 425.6,360.3 417,360M391,354C403.9,342.7 431.6,332 451,321C439.8,333 417.1,348.7 391,354M1002,345C994.8,333.2 988.8,320.2 987,303C990.5,318.5 997.4,330.6 1002,345M994,300C987.8,288.7 983.5,275 979,261C988.8,269.7 990.7,285.8 994,300M372,276C382.7,272.5 395.3,267.9 399,259C390,264.7 379.2,271.1 372,276M1023,271C1014.2,252.3 998.7,239.8 991,219C1005.1,233.4 1017.7,248.8 1023,271M465,270C481.1,263.1 496,255 513,249C530.5,243.5 548.9,238.9 559,226C541.6,231.6 525.2,238.2 507,243C492.6,251.6 472.6,254.6 465,270M340,267C317.6,264.6 363.8,243.3 373,234C394,223.5 410.9,209.4 432,199C451.6,188.1 470.9,176.4 493,168C516.8,160.3 537.5,150 561,142C584.3,137.6 621.4,136.3 636,130C604,129.5 576.6,133.1 549,136C543.5,139 535.7,139.2 529,141C493.1,152.5 520.4,147.8 538,147C516.1,155.6 491.6,162.1 469,171C449.1,181.6 430.9,194.4 411,205C412.9,197.5 440,178.9 457,171C496.9,149 437.1,173.3 427,180C424.4,191.3 344.7,194.6 381,184C412.6,185.1 430.9,172.4 450,160C466.4,151.6 494.1,133.5 499,129C454.3,149.6 490.8,123.7 511,117C530.8,105.9 555,97.7 580,94C590.2,88.5 668.5,92.2 636,87C605.2,87.2 575.1,88.1 550,94C527.5,102.5 504.6,110.6 486,123C466.4,134.4 449,148.1 432,162C411.8,172.8 381.7,173.7 361,184C372,168.7 398.9,161.8 420,153C433.6,151.4 484.6,116.9 444,135C439.4,138.4 433.6,140.6 430,145C445.4,123.3 412.5,152.4 402,151C394.9,158 329.5,179.2 364,162C384.1,150.6 414,149.5 430,135C419.8,127.8 386,145 364,147C360.6,134 394.3,120.3 406,111C370.4,113.8 436,97 439,87C456.1,72.6 477.8,63.3 493,48C516.3,39.8 538.3,30.8 559,21C583.7,14.7 607.3,6 639,9C660.2,7.7 730.2,15.6 666,15C644.8,16.7 585.9,27.6 645,27C676.4,26.6 702,32 723,42C752.3,56.4 687.5,36.8 672,39C642.3,32.2 614.7,37.7 588,42C581.4,43.4 574.3,44.3 567,45C564.2,48.2 555.7,45.7 550,46C516.4,53.2 572,48.3 543,57C569.3,52.3 598.3,48.2 627,54C683.2,63.7 607.8,58.4 589,61C576.1,64.4 592.4,64.5 595,67C569.3,75.9 628.8,69.7 637,73C653.3,74.1 636.7,75.9 630,75C622.7,73.7 620.1,77.1 613,76C579,76.5 617.2,79.1 628,79C657.6,81.4 691.5,78.5 703,97C728.2,101.6 763.2,103.3 772,115C747.2,109.8 718.3,107.7 693,102C704.7,111.8 735.9,117.3 753,129C789.9,148 724,127 717,120C710.5,118.5 704.5,116.5 699,114C661.1,104.6 684.7,115.2 703,120C718.1,128.9 759.7,138.3 757,144C727.2,143.3 712.8,126.7 685,123C657.7,119.9 629.5,117 598,117C570,119.5 541.2,121.7 519,130C473.3,150.9 526.7,135.8 546,130C571.8,125.3 601.3,123.8 633,124C667.9,120.6 689,130.5 712,138C723,149.6 794.8,143.6 744,153C716.8,149.2 695,140 661,142C633.7,144 602.2,140.4 577,148C551.9,150.2 509.2,170 561,156C569.3,156.3 573.7,152.7 582,153C617.6,147.7 617.3,156 586,160C561.2,163.1 521.4,169.8 517,166C493.1,173.1 475.4,186.4 454,196C434.3,207.3 419.2,223.2 399,234C377.8,243.2 360.6,258.5 340,267M801,238C829.6,239.9 797.5,231.9 792,231C766.4,226.6 795,238.1 801,238M564,237C577,230.7 589.9,221.7 601,216C610.9,206.1 627.6,200.9 637,193C619.8,195.1 607.2,204.3 595,210C584.6,218.4 571.3,227 564,237M345,235C333.1,231.4 320.2,228.3 312,220C328,220.5 337.5,227 345,235M513,232C530.4,226.9 545,218.5 564,214C581,208.5 594.1,198.6 610,192C589.3,193.8 578,205.5 561,211C543.3,216.8 525.5,222 513,232M877,223C902,223.5 870.3,215.4 865,216C840.1,216.9 874,222.9 877,223M678,219C684.3,218.1 700.9,220.6 700,217C694.3,215.2 682.4,215.1 678,219M483,214C494.9,210.2 509.3,205.5 517,199C504.8,203.1 490.7,208 483,214M757,204C745.9,200.6 729,202.5 721,195C734.9,196.6 747.2,199.3 757,204M543,190C559.9,186.1 579.2,181.6 594,177C611.6,173.6 633,174 646,166C625.8,167.1 607.3,172.4 589,174C573.8,179.3 556.8,183.3 543,190M522,186C534.3,185.1 546.2,180.8 553,177C541.2,177.9 529.3,182.2 522,186M372,138C395.8,132.3 418.6,123.7 438,115C466.1,108 458.8,96.7 484,84C468.1,81.6 446.8,102.2 433,112C416.2,124.2 389.7,126.7 372,138M442,121C459.6,116.2 481.6,113.6 492,103C478.2,112 452,110.6 442,121M493,108C513.5,99 535.3,91.8 556,84C533.7,90.2 510,95.5 493,108M622,106C660.7,108.7 641.4,101.7 621,100C588.1,102.9 596.7,105.9 622,106Z" fill="#2c0515"/>
</g>
</svg>
