<?xml version='1.0' encoding='utf-8'?>
<!-- Generator: imaengine 6.0   -->
<svg viewBox="0,0,1440,1443" xmlns:xlink="http://www.w3.org/1999/xlink" xmlns="http://www.w3.org/2000/svg" width="1440" height="1443" version="1.1">
<defs/>
<g id="layer0">
<path d="M0,0M0,1443L78,1443L156,1443L234,1443L310,1443L388,1443L465,1443L543,1443L619,1443L619,1440L613,1440C606.8,1434.7 595.5,1434 591,1426L588,1426C569.6,1416.9 565.3,1393.2 555,1375C544.9,1357.6 536.4,1338.1 528,1318C518.4,1300.1 510.6,1279.9 501,1261C494.4,1240.7 482.9,1222.7 478,1201C471.9,1187.8 468.5,1168.4 466,1152L463,1152L463,1149L462,1149C461.1,1139.9 463.6,1127.4 460,1120C454,1134.5 421,1138.8 408,1153C390.9,1166.4 374.4,1179.9 355,1191C336.9,1202.4 318.2,1213.7 298,1224C279,1234.4 260.5,1246 240,1255C220.3,1266.2 198.4,1276.8 181,1288C162.4,1299.4 144.5,1311.6 124,1321C105.1,1332.1 85,1342 64,1351C44.5,1361.5 27.4,1374.4 0,1377L0,1443Z" stroke="#eaeded" stroke-width="0.75" stroke-linecap="round" fill="#eaeded" stroke-linejoin="round"/>
<path d="M0,0M619,1443L693,1443L765,1443L838,1443L910,1443L910,1440L894,1440L847,1440C834,1437.2 813,1439.3 799,1438L708,1438C690.7,1441.2 668.8,1439.3 649,1440L619,1440L619,1443Z" stroke="#cad4d4" stroke-width="0.75" stroke-linecap="round" fill="#cad4d4" stroke-linejoin="round"/>
<path d="M0,0M910,1443L978,1443L1044,1443L1110,1443L1176,1443L1242,1443L1308,1443L1374,1443L1440,1443L1440,1360L1440,1278C1417.4,1275.7 1399,1269 1380,1263C1361,1257.6 1341.3,1250.7 1323,1246C1305.9,1239.2 1282.6,1235.9 1269,1227C1250.3,1221.4 1233.4,1211.6 1219,1203C1203.2,1195 1187.2,1184.3 1173,1176C1157.5,1167.1 1140.4,1157.6 1128,1147C1112.8,1138.3 1101.9,1122.6 1089,1113C1076.7,1100.9 1060.5,1090.5 1041,1087C1043.2,1097.1 1042.6,1117.2 1033,1117C1034.1,1123.3 1030.7,1128.3 1032,1132C1029.6,1154.5 1024.5,1176 1020,1194C1015.6,1214 1010.8,1235.8 1006,1254C1003,1274.8 996.9,1295.4 993,1314C987.8,1332.8 982.4,1351.5 976,1369C973.6,1392.6 957.7,1402.7 945,1416C941.7,1417.7 941.6,1422.6 936,1422L934,1426C933.2,1429.3 927.8,1431.4 927,1432C926.4,1435.5 921.9,1438 919,1437C920.2,1441.3 911.6,1439.8 910,1440L910,1443Z" stroke="#e5eae9" stroke-width="0.75" stroke-linecap="round" fill="#e5eae9" stroke-linejoin="round"/>
<path d="M0,0M292,1440C308.9,1431.2 308.2,1398.8 310,1381C294.1,1386.6 299.1,1423.3 292,1440Z" stroke="#acc1c2" stroke-width="0.75" stroke-linecap="round" fill="#acc1c2" stroke-linejoin="round"/>
<path d="M0,0M613,1440L619,1440L649,1440C666.8,1437.3 688.7,1439.2 708,1438L799,1438C800.6,1421.6 777.3,1407.5 762,1399C745.6,1388.9 732.8,1374.7 705,1375C687.3,1363.3 648.5,1381.8 639,1363C631.4,1349.9 628.8,1307.1 642,1297C622.6,1286.5 599.1,1277.6 582,1266C569.1,1249.8 534.2,1243.4 516,1258C526.4,1278.1 532.7,1301.8 546,1318C556.3,1338.2 566.1,1358.4 576,1378C581.5,1388.9 597.6,1404.6 594,1413C600.7,1415.5 596.4,1421.2 594,1423L591,1426C595.5,1434 606.8,1434.7 613,1440Z" stroke="#5d97a5" stroke-width="0.75" stroke-linecap="round" fill="#5d97a5" stroke-linejoin="round"/>
<path d="M0,0M649,1440C668.8,1439.3 690.7,1441.2 708,1438C688.7,1439.2 666.8,1437.3 649,1440Z" stroke="#9bb8b9" stroke-width="0.75" stroke-linecap="round" fill="#9bb8b9" stroke-linejoin="round"/>
<path d="M0,0M847,1440L894,1440C888,1419.3 892.4,1378.7 895,1356C897.4,1330.4 906.4,1294.7 889,1278C875.8,1283.3 864.5,1291 850,1296C838.7,1302.5 822.2,1306.9 810,1311C794.6,1313.8 777.5,1317.7 762,1318C746.4,1321.2 722.8,1320 711,1317L703,1317C681.1,1312.4 662.9,1303.6 642,1297C628.8,1307.1 631.4,1349.9 639,1363C648.5,1381.8 687.3,1363.3 705,1375C732.8,1374.7 745.6,1388.9 762,1399C777.3,1407.5 800.6,1421.6 799,1438C813,1439.3 834,1437.2 847,1440Z" stroke="#85aaaf" stroke-width="0.75" stroke-linecap="round" fill="#85aaaf" stroke-linejoin="round"/>
<path d="M0,0M894,1440L910,1440C910.8,1436.7 909.4,1428.3 912,1429L916,1429C919.5,1426.5 922.5,1423.5 925,1420C924.9,1417.3 933.6,1419.9 933,1419C931.4,1412.3 936.4,1408.7 939,1408C943.5,1401.5 936.1,1376.9 948,1368L946,1368C938.5,1354.3 941.7,1327.8 951,1318C957.1,1305 972,1295.2 972,1279C971.6,1260.7 951.2,1255.1 931,1260C915.9,1260.1 901.3,1270.2 889,1278C906.4,1294.7 897.4,1330.4 895,1356C892.4,1378.7 888,1419.3 894,1440Z" stroke="#699da7" stroke-width="0.75" stroke-linecap="round" fill="#699da7" stroke-linejoin="round"/>
<path d="M0,0M910,1440C911.6,1439.8 920.2,1441.3 919,1437L912,1437L912,1429C909.4,1428.3 910.8,1436.7 910,1440Z" stroke="#699da7" stroke-width="0.75" stroke-linecap="round" fill="#699da7" stroke-linejoin="round"/>
<path d="M0,0M1092,1440L1107,1440C1106.4,1434.5 1109.4,1432.5 1107,1431L1104,1429C1098.7,1427.8 1098,1434.2 1095,1432C1071.8,1427.7 1061.8,1409.7 1048,1395C1046.6,1395.7 1046.9,1402 1047,1402C1041.7,1425.8 1058.3,1427.2 1066,1437C1071.9,1440.7 1088.6,1436.4 1092,1440Z" stroke="#77a4aa" stroke-width="0.75" stroke-linecap="round" fill="#77a4aa" stroke-linejoin="round"/>
<path d="M0,0M1107,1440C1122.2,1441.9 1115.3,1432.7 1107,1431C1109.4,1432.5 1106.4,1434.5 1107,1440Z" stroke="#b4c7c7" stroke-width="0.75" stroke-linecap="round" fill="#b4c7c7" stroke-linejoin="round"/>
<path d="M0,0M1048,1438C1053.7,1437.6 1065.8,1440.2 1066,1437C1058.3,1427.2 1041.7,1425.8 1047,1402C1042.2,1411.1 1035.8,1435.7 1048,1438Z" stroke="#c0cfce" stroke-width="0.75" stroke-linecap="round" fill="#c0cfce" stroke-linejoin="round"/>
<path d="M0,0M912,1437L919,1437C921.9,1438 926.4,1435.5 927,1432L919,1432L916,1429L912,1429L912,1437Z" stroke="#5d97a5" stroke-width="0.75" stroke-linecap="round" fill="#5d97a5" stroke-linejoin="round"/>
<path d="M0,0M919,1432L927,1432C927.8,1431.4 933.2,1429.3 934,1426L930,1426C929.4,1424 924.9,1422 925,1420C922.5,1423.5 919.5,1426.5 916,1429L919,1432Z" stroke="#4a90a2" stroke-width="0.75" stroke-linecap="round" fill="#4a90a2" stroke-linejoin="round"/>
<path d="M0,0M1095,1432C1098,1434.2 1098.7,1427.8 1104,1429C1095.7,1418.8 1088.3,1407.2 1078,1398C1077.5,1387.8 1048.3,1371.9 1048,1395C1061.8,1409.7 1071.8,1427.7 1095,1432Z" stroke="#38869a" stroke-width="0.75" stroke-linecap="round" fill="#38869a" stroke-linejoin="round"/>
<path d="M0,0M588,1426L591,1426L594,1423L589,1423C574.5,1417.2 571.4,1396.5 564,1384C556.3,1371.2 549.5,1357 543,1342C536.1,1328.4 529.1,1314.4 523,1299C515.8,1285.7 510.7,1269.8 504,1255L502,1255C496.9,1237.5 485.2,1216.7 483,1201L478,1201C482.9,1222.7 494.4,1240.7 501,1261C510.6,1279.9 518.4,1300.1 528,1318C536.4,1338.1 544.9,1357.6 555,1375C565.3,1393.2 569.6,1416.9 588,1426Z" stroke="#105864" stroke-width="0.75" stroke-linecap="round" fill="#105864" stroke-linejoin="round"/>
<path d="M0,0M930,1426L934,1426L936,1422L933,1419C933.6,1419.9 924.9,1417.3 925,1420C924.9,1422 929.4,1424 930,1426Z" stroke="#3b8a9e" stroke-width="0.75" stroke-linecap="round" fill="#3b8a9e" stroke-linejoin="round"/>
<path d="M0,0M589,1423L594,1423C596.4,1421.2 600.7,1415.5 594,1413L591,1413C586.3,1401.5 578,1390.8 576,1378C566.1,1358.4 556.3,1338.2 546,1318C532.7,1301.8 526.4,1278.1 516,1258C512.4,1257 512.8,1248 508,1249C509.1,1253.2 504.6,1255.2 504,1255C510.7,1269.8 515.8,1285.7 523,1299C529.1,1314.4 536.1,1328.4 543,1342C549.5,1357 556.3,1371.2 564,1384C571.4,1396.5 574.5,1417.2 589,1423Z" stroke="#0e4d56" stroke-width="0.75" stroke-linecap="round" fill="#0e4d56" stroke-linejoin="round"/>
<path d="M0,0M936,1422C941.6,1422.6 941.7,1417.7 945,1416C943.9,1413 938.9,1410.5 939,1408C936.4,1408.7 931.4,1412.3 933,1419L936,1422Z" stroke="#2d8297" stroke-width="0.75" stroke-linecap="round" fill="#2d8297" stroke-linejoin="round"/>
<path d="M0,0M945,1416C957.7,1402.7 973.6,1392.6 976,1369L972,1369L972,1368L966,1368C965.9,1361.3 963.9,1349.2 966,1342C960.9,1327.3 955.3,1366 948,1368C936.1,1376.9 943.5,1401.5 939,1408C938.9,1410.5 943.9,1413 945,1416Z" stroke="#1b758a" stroke-width="0.75" stroke-linecap="round" fill="#1b758a" stroke-linejoin="round"/>
<path d="M0,0M591,1413L594,1413C597.6,1404.6 581.5,1388.9 576,1378C578,1390.8 586.3,1401.5 591,1413Z" stroke="#1c768a" stroke-width="0.75" stroke-linecap="round" fill="#1c768a" stroke-linejoin="round"/>
<path d="M0,0" stroke="#fbfbfb" stroke-width="0.75" stroke-linecap="round" fill="#fbfbfb" stroke-linejoin="round"/>
<path d="M0,0M972,1369L976,1369C982.4,1351.5 987.8,1332.8 993,1314C996.9,1295.4 1003,1274.8 1006,1254C1010.8,1235.8 1015.6,1214 1020,1194C1024.5,1176 1029.6,1154.5 1032,1132L1029,1134C1027.4,1157.7 1021.7,1179.7 1015,1197C1012.6,1215.4 1007.5,1234.1 1003,1249C999.9,1270.9 994.1,1290.2 990,1311C983.6,1329.6 980.9,1351.9 972,1368L972,1369Z" stroke="#16697b" stroke-width="0.75" stroke-linecap="round" fill="#16697b" stroke-linejoin="round"/>
<path d="M0,0M946,1368L948,1368C955.3,1366 960.9,1327.3 966,1342C971.8,1328 977.1,1310.5 981,1296C987,1281.7 989,1260.9 996,1249C1004.1,1233.6 1000.4,1205.9 1015,1197C1021.7,1179.7 1027.4,1157.7 1029,1134L1026,1137C1012.8,1131.9 1018.7,1105.1 1017,1090C1014.6,1074.6 1015.1,1053.2 1012,1039C997.8,1038.6 975.5,1041 961,1045C945.6,1049.6 931.3,1055.3 918,1062C904.2,1068.2 888.1,1072.1 876,1080C863,1086.3 851.8,1097 850,1113C869.8,1105.1 890.2,1091.9 907,1087C929.7,1089.6 951.8,1094.2 949,1119C949,1142.8 931.3,1151.8 918,1161C901.4,1170.8 886.1,1184.1 870,1192C854.4,1202.9 840.1,1214.6 819,1219C815.9,1234.5 780.9,1233.3 771,1224C762,1214.2 734.1,1197 732,1216C724.7,1232.6 716.5,1250 718,1273C717.7,1288.7 739.8,1319.5 711,1317C722.8,1320 746.4,1321.2 762,1318C777.5,1317.7 794.6,1313.8 810,1311C822.2,1306.9 838.7,1302.5 850,1296C864.5,1291 875.8,1283.3 889,1278C901.3,1270.2 915.9,1260.1 931,1260C951.2,1255.1 971.6,1260.7 972,1279C972,1295.2 957.1,1305 951,1318C941.7,1327.8 938.5,1354.3 946,1368Z" stroke="#3b8a9e" stroke-width="0.75" stroke-linecap="round" fill="#3b8a9e" stroke-linejoin="round"/>
<path d="M0,0M966,1368L972,1368C980.9,1351.9 983.6,1329.6 990,1311C994.1,1290.2 999.9,1270.9 1003,1249C1001.3,1245.8 997.5,1250.4 996,1249C989,1260.9 987,1281.7 981,1296C977.1,1310.5 971.8,1328 966,1342C963.9,1349.2 965.9,1361.3 966,1368Z" stroke="#125b6a" stroke-width="0.75" stroke-linecap="round" fill="#125b6a" stroke-linejoin="round"/>
<path d="M0,0M703,1317L711,1317C739.8,1319.5 717.7,1288.7 718,1273C716.5,1250 724.7,1232.6 732,1216C734.1,1197 762,1214.2 771,1224C780.9,1233.3 815.9,1234.5 819,1219L805,1219C788.9,1200.3 755,1199.1 723,1204C716.9,1201.6 705.1,1204.4 699,1201C668.3,1194.4 665.9,1224.4 636,1212C606.4,1207.1 588.5,1188.8 568,1176C543.9,1162.8 555.5,1107.7 591,1128C578.1,1122.6 560.7,1119.1 549,1114C540.9,1106.5 525,1103.8 514,1096C500.5,1092.8 486.5,1123 481,1104C477.9,1120.1 484.2,1135.8 483,1153C486.6,1167.2 484,1189.8 489,1200C493.2,1218.8 501.2,1233.8 508,1249C512.8,1248 512.4,1257 516,1258C534.2,1243.4 569.1,1249.8 582,1266C599.1,1277.6 622.6,1286.5 642,1297C662.9,1303.6 681.1,1312.4 703,1317Z" stroke="#217a90" stroke-width="0.75" stroke-linecap="round" fill="#217a90" stroke-linejoin="round"/>
<path d="M0,0M502,1255L504,1255C504.6,1255.2 509.1,1253.2 508,1249C501.2,1233.8 493.2,1218.8 489,1200C485.5,1198.7 483.5,1202.1 483,1201C485.2,1216.7 496.9,1237.5 502,1255Z" stroke="#16697b" stroke-width="0.75" stroke-linecap="round" fill="#16697b" stroke-linejoin="round"/>
<path d="M0,0M996,1249C997.5,1250.4 1001.3,1245.8 1003,1249C1007.5,1234.1 1012.6,1215.4 1015,1197C1000.4,1205.9 1004.1,1233.6 996,1249Z" stroke="#196e80" stroke-width="0.75" stroke-linecap="round" fill="#196e80" stroke-linejoin="round"/>
<path d="M0,0M805,1219L819,1219C840.1,1214.6 854.4,1202.9 870,1192C886.1,1184.1 901.4,1170.8 918,1161C919.7,1138 916.1,1117.8 903,1111C878.8,1099.4 888.5,1096 907,1087C890.2,1091.9 869.8,1105.1 850,1113C837.4,1118.9 826.5,1127 813,1132C802.6,1140.3 786.2,1144.9 774,1149C759.2,1152.5 745.1,1159.3 729,1159C713.5,1162.7 691.6,1162 679,1162C657.6,1157.8 629.1,1148.1 610,1135L607,1135C602.9,1132.1 597.8,1129.2 591,1128C555.5,1107.7 543.9,1162.8 568,1176C588.5,1188.8 606.4,1207.1 636,1212C665.9,1224.4 668.3,1194.4 699,1201C705.1,1204.4 716.9,1201.6 723,1204C755,1199.1 788.9,1200.3 805,1219Z" stroke="#186d80" stroke-width="0.75" stroke-linecap="round" fill="#186d80" stroke-linejoin="round"/>
<path d="M0,0M478,1201L483,1201C483.7,1200.1 488.7,1199.5 489,1200C484,1189.8 486.6,1167.2 483,1153C484.2,1135.8 477.9,1120.1 481,1104L481,1101L480,1101C482.1,1095.3 471.2,1099.2 471,1098C470.2,1101.1 467.9,1108.3 468,1114C468.9,1118.5 467.1,1123.3 466,1123L466,1125C471.1,1127.6 470.7,1150.3 466,1150L466,1152C468.5,1168.4 471.9,1187.8 478,1201Z" stroke="#0b4449" stroke-width="0.75" stroke-linecap="round" fill="#0b4449" stroke-linejoin="round"/>
<path d="M0,0M679,1162C691.6,1162 713.5,1162.7 729,1159C745.1,1159.3 759.2,1152.5 774,1149C786.2,1144.9 802.6,1140.3 813,1132C826.5,1127 837.4,1118.9 850,1113C851.8,1097 863,1086.3 876,1080C888.1,1072.1 904.2,1068.2 918,1062C931.3,1055.3 945.6,1049.6 961,1045C975.5,1041 997.8,1038.6 1012,1039C1010.7,1029.4 1013.5,1020.3 1023,1026C1023.3,1019.7 1019.1,1008 1023,1000C1013.6,986.8 976.9,987.8 960,994C941.8,1001.7 923,1010.5 906,1017C884.9,1021.9 865.6,1028.6 847,1036C830.1,1044.5 815.5,1057.5 798,1063L796,1062L796,1069C791,1094 785.4,1118.4 753,1116C724.5,1120.6 700.9,1107.1 673,1117C644.7,1112.3 645.4,1077.6 630,1059C628.8,1055 626.8,1048.5 624,1048C632.8,1067.1 610.4,1048.7 603,1048C592.8,1038.4 578.1,1030.3 564,1026C545.7,1024 532.6,1014.3 519,1009C501.1,1006.6 486.2,1018.2 477,1026C492.6,1043.9 502.5,1073.1 481,1093L481,1101L481,1104C486.5,1123 500.5,1092.8 514,1096C531.2,1088.1 555.8,1071.3 579,1084C596.8,1093.9 611.2,1113 610,1135C629.1,1148.1 657.6,1157.8 679,1162Z" stroke="#5292a3" stroke-width="0.75" stroke-linecap="round" fill="#5292a3" stroke-linejoin="round"/>
<path d="M0,0M918,1161C931.3,1151.8 949,1142.8 949,1119C951.8,1094.2 929.7,1089.6 907,1087C888.5,1096 878.8,1099.4 903,1111C916.1,1117.8 919.7,1138 918,1161Z" stroke="#217a8f" stroke-width="0.75" stroke-linecap="round" fill="#217a8f" stroke-linejoin="round"/>
<path d="M0,0M463,1152L466,1152L466,1150L466,1147L465,1147L465,1126C461.8,1131.3 464.4,1141.9 463,1149L463,1152Z" stroke="#a5bdbf" stroke-width="0.75" stroke-linecap="round" fill="#a5bdbf" stroke-linejoin="round"/>
<path d="M0,0M466,1150C470.7,1150.3 471.1,1127.6 466,1125L466,1147L466,1150Z" stroke="#1c768a" stroke-width="0.75" stroke-linecap="round" fill="#1c768a" stroke-linejoin="round"/>
<path d="M0,0M462,1149L463,1149C464.4,1141.9 461.8,1131.3 465,1126L466,1123C467.1,1123.3 468.9,1118.5 468,1114C464,1112.4 460.8,1116.7 460,1120C463.6,1127.4 461.1,1139.9 462,1149Z" stroke="#cdd8d7" stroke-width="0.75" stroke-linecap="round" fill="#cdd8d7" stroke-linejoin="round"/>
<path d="M0,0M465,1147L466,1147L466,1125L466,1123L465,1126L465,1147Z" stroke="#84aaaf" stroke-width="0.75" stroke-linecap="round" fill="#84aaaf" stroke-linejoin="round"/>
<path d="M0,0M1026,1137L1029,1134L1032,1132C1030.7,1128.3 1034.1,1123.3 1033,1117L1033,1114L1030,1114C1031.4,1105.3 1029,1089.4 1032,1084L1033,1084C1031.9,1077 1031.1,1065.3 1030,1059C1030.4,1050.9 1024.1,1042.3 1027,1035C1025.2,1035.4 1025.6,1027.5 1023,1026C1013.5,1020.3 1010.7,1029.4 1012,1039C1015.1,1053.2 1014.6,1074.6 1017,1090C1018.7,1105.1 1012.8,1131.9 1026,1137Z" stroke="#0d4c56" stroke-width="0.75" stroke-linecap="round" fill="#0d4c56" stroke-linejoin="round"/>
<path d="M0,0M607,1135L610,1135C611.2,1113 596.8,1093.9 579,1084C555.8,1071.3 531.2,1088.1 514,1096C525,1103.8 540.9,1106.5 549,1114C560.7,1119.1 578.1,1122.6 591,1128C597.8,1129.2 602.9,1132.1 607,1135Z" stroke="#3a899e" stroke-width="0.75" stroke-linecap="round" fill="#3a899e" stroke-linejoin="round"/>
<path d="M0,0M673,1117C700.9,1107.1 724.5,1120.6 753,1116C785.4,1118.4 791,1094 796,1069L795,1069L795,1047C790.8,1029.8 779.3,1017.6 765,1012C748.3,1005.3 725.8,1012.4 708,1012C688.2,1008.2 673.1,1020.8 663,1029C649.8,1036.8 641.1,1049.1 630,1059C645.4,1077.6 644.7,1112.3 673,1117Z" stroke="#91b0b5" stroke-width="0.75" stroke-linecap="round" fill="#91b0b5" stroke-linejoin="round"/>
<path d="M0,0M1033,1117C1042.6,1117.2 1043.2,1097.1 1041,1087C1041.1,1078.4 1039.2,1066 1036,1057C1035.8,1058.9 1030.8,1059.5 1030,1059C1031.1,1065.3 1031.9,1077 1033,1084L1035,1086C1037.2,1091 1037.2,1105 1035,1110L1035,1111L1033,1114L1033,1117Z" stroke="#bacbcb" stroke-width="0.75" stroke-linecap="round" fill="#bacbcb" stroke-linejoin="round"/>
<path d="M0,0M1030,1114L1033,1114L1035,1111L1033,1111L1033,1110L1032,1110L1032,1084C1029,1089.4 1031.4,1105.3 1030,1114Z" stroke="#1c768a" stroke-width="0.75" stroke-linecap="round" fill="#1c768a" stroke-linejoin="round"/>
<path d="M0,0M1033,1111L1035,1111L1035,1110L1035,1086L1033,1084L1033,1110L1033,1111Z" stroke="#699da7" stroke-width="0.75" stroke-linecap="round" fill="#699da7" stroke-linejoin="round"/>
<path d="M0,0M1032,1110L1033,1110L1033,1084L1032,1084L1032,1110Z" stroke="#38869a" stroke-width="0.75" stroke-linecap="round" fill="#38869a" stroke-linejoin="round"/>
<path d="M0,0M1035,1110C1037.2,1105 1037.2,1091 1035,1086L1035,1110Z" stroke="#96b3b7" stroke-width="0.75" stroke-linecap="round" fill="#96b3b7" stroke-linejoin="round"/>
<path d="M0,0M480,1101L481,1101L481,1093L480,1093C480.7,1089.7 473.4,1090.5 472,1090C472.5,1090.8 469.8,1094.2 471,1098C471.2,1099.2 482.1,1095.3 480,1101Z" stroke="#3b8a9e" stroke-width="0.75" stroke-linecap="round" fill="#3b8a9e" stroke-linejoin="round"/>
<path d="M0,0M480,1093L481,1093C502.5,1073.1 492.6,1043.9 477,1026L475,1026C476.1,1029.7 471.6,1031.7 471,1032C487,1045.7 485.2,1074.6 472,1090C473.4,1090.5 480.7,1089.7 480,1093Z" stroke="#8aadb2" stroke-width="0.75" stroke-linecap="round" fill="#8aadb2" stroke-linejoin="round"/>
<path d="M0,0M795,1069L796,1069L796,1062C795.7,1057.7 798.2,1046.7 795,1047L795,1069Z" stroke="#8aadb2" stroke-width="0.75" stroke-linecap="round" fill="#8aadb2" stroke-linejoin="round"/>
<path d="M0,0M798,1063C815.5,1057.5 830.1,1044.5 847,1036C865.6,1028.6 884.9,1021.9 906,1017C923,1010.5 941.8,1001.7 960,994C976.9,987.8 1013.6,986.8 1023,1000C1028.5,988.7 1036.3,974.6 1042,961C1047.9,946.9 1053.6,932.6 1059,918C1061.4,903.1 1068,887.8 1069,870C1072.6,853.1 1073.1,833.6 1081,822C1088.3,811.5 1093.2,794.5 1095,777C1099.1,761.1 1102.6,744.6 1107,729C1109.8,713.2 1113.4,693.1 1111,676C1109.7,658.3 1095.6,652.4 1080,648L1077,651C1077.5,657.5 1083.2,674.9 1071,670C1069,665.5 1066.2,661.3 1066,654C1063.3,655 1065.8,647 1065,648C1063,638 1061,628 1060,616C1058.9,613.1 1063.7,603.3 1057,604C1041.1,586.9 1008.9,609 999,627C979.6,641.5 952,648 943,673C938.6,676.6 931.8,677.8 928,682C933.8,683.2 936.8,686.2 937,691C941.3,691.9 941.6,699 945,697C961.5,713.3 937.9,687.9 954,697C962,713.8 981.4,713.2 993,726C1004.4,736.6 1018,752.1 1015,771C1009.7,788.5 1007.2,811.7 1003,829C1001.2,850.6 994,869 990,886C984,903.8 977.6,923.2 969,936C959,949.3 942.2,958.3 928,966C910.8,971.3 895.2,978.7 870,976C856.3,973.2 842.7,969.8 838,957C822.7,956.2 809.1,957.6 795,958C792.1,961.7 779.9,959.1 777,960L777,958C776.3,957.1 771.3,956.5 771,957L769,957C768.3,955.1 761.9,954.9 763,952C758.3,950.7 750.7,951.3 745,949C714.5,944.5 733.5,990.3 724,994C708,1003.2 682.6,1003.8 663,1003C661.7,990.9 651.9,975 642,969C637.8,970.9 628,970.6 624,970C608.2,965.3 595.3,957.2 573,958C551.6,969.6 545.9,1007.5 523,1006C511.6,1000.1 504.7,986.1 499,975C493.1,963.4 489.4,949.1 481,939C477.4,925.1 472,912.5 468,898C465.9,882.6 459.4,871.1 454,858C447.9,846.6 443.3,833.2 436,822C430.7,810.9 425.9,792.9 432,778C435.4,763.9 452.1,762.6 457,750L484,723L483,723C472.6,712.1 457.9,703 447,694C433.2,687.3 420.6,678.9 411,667C397.9,661.3 391.3,637.2 399,621C404.6,607 414.8,592.5 435,597C446.4,577.4 465.4,565.4 484,553C474.7,541.3 466.1,527.9 460,511C450.4,498.2 455.9,472 459,457C465.5,442.7 471.3,424.7 477,411C484.4,397.1 475,363.9 502,372L499,369L489,369C479.3,367.7 473.1,362.9 462,363C473,372 446.8,394.5 445,412C435.1,429.1 433.5,454.5 417,465C416.9,497.9 404.8,518.8 384,531C379.2,555.4 374.6,584 378,612L378,613L378,636L378,637C386.9,654.4 385.9,685.5 385,708C392.3,735.2 393.7,767.8 397,798C399.8,829.6 405.8,857.7 412,885C417.2,914.3 429.7,935.8 439,960C449.8,983.7 464.2,1003.3 475,1026L477,1026C486.2,1018.2 501.1,1006.6 519,1009C532.6,1014.3 545.7,1024 564,1026C578.1,1030.3 592.8,1038.4 603,1048C610.4,1048.7 632.8,1067.1 624,1048C626.8,1048.5 628.8,1055 630,1059C641.1,1049.1 649.8,1036.8 663,1029C673.1,1020.8 688.2,1008.2 708,1012C725.8,1012.4 748.3,1005.3 765,1012C779.3,1017.6 790.8,1029.8 795,1047C798.2,1046.7 795.7,1057.7 796,1062L798,1063Z" stroke="#71a0a9" stroke-width="0.75" stroke-linecap="round" fill="#71a0a9" stroke-linejoin="round"/>
<path d="M0,0M1030,1059C1034,1060.3 1036,1056.9 1036,1057C1035,1051 1036.1,1036.5 1027,1035C1024.1,1042.3 1030.4,1050.9 1030,1059Z" stroke="#c4d2d0" stroke-width="0.75" stroke-linecap="round" fill="#c4d2d0" stroke-linejoin="round"/>
<path d="M0,0M469,1032L471,1032C471.6,1031.7 476.1,1029.7 475,1026C464.2,1003.3 449.8,983.7 439,960C429.7,935.8 417.2,914.3 412,885C405.8,857.7 399.8,829.6 397,798C393.7,767.8 392.3,735.2 385,708L378,708L378,706C377.8,709.4 372.2,710.3 370,709C374.9,728.8 386.3,739.2 385,768C388.4,791.1 393.1,812.4 393,838C395.3,862.2 396.3,887.2 405,904C409.7,925.8 417.1,944.4 426,961C430.6,965 433.4,973.7 435,978C443.6,997 457.3,1014.8 469,1032Z" stroke="#b1c4c5" stroke-width="0.75" stroke-linecap="round" fill="#b1c4c5" stroke-linejoin="round"/>
<path d="M0,0M523,1006C545.9,1007.5 551.6,969.6 573,958C568.9,948.4 582.7,945.5 589,942C596.6,939.9 604.1,935.1 609,933C612.7,927.7 623.3,929.3 627,924C643.1,909.4 674,896.7 703,906C733,902.4 774.5,905.8 778,925C794,930.3 814.9,932.3 828,937C827.8,930.8 831.7,924.5 828,921L826,921C815.8,911.7 806.5,901 804,883C798.7,868.9 797.6,849.9 790,837C789.3,833.3 785.8,831.9 784,834C780.1,836.6 779.2,842.7 772,843C770.9,841.5 769.1,836.8 768,837C762.2,842.3 750.5,845 741,844C736.8,840.6 725.3,840.6 721,838L717,838C706.3,836.2 692.3,837.2 682,834C663.6,826.8 646.3,847.8 622,840C613.5,839 606,836.5 600,832C590.1,840.9 583.2,854.9 573,861C561.4,867.4 556.2,880.2 535,877C516,874 517.7,849.3 513,831C511.6,831.8 510.1,835.8 508,834C499.6,817.6 486.8,802.8 490,775C498.9,758.5 510,742 528,736C548,724.9 573.5,738.9 586,745C616.4,751.5 596.2,770.6 588,786C596.6,770.8 612.9,758.9 610,736C597.7,724.9 588.2,707.8 565,708L546,708C530.1,712.4 499.7,704.8 490,714C491.1,719.6 486.2,719.7 484,723L457,750C452.1,762.6 435.4,763.9 432,778C425.9,792.9 430.7,810.9 436,822C443.3,833.2 447.9,846.6 454,858C459.4,871.1 465.9,882.6 468,898C472,912.5 477.4,925.1 481,939C489.4,949.1 493.1,963.4 499,975C504.7,986.1 511.6,1000.1 523,1006Z" stroke="#85aaaf" stroke-width="0.75" stroke-linecap="round" fill="#85aaaf" stroke-linejoin="round"/>
<path d="M0,0M663,1003C682.6,1003.8 708,1003.2 724,994C733.5,990.3 714.5,944.5 745,949C719,956 707.7,935.2 687,945C672.7,953.7 649.8,953.8 642,969C651.9,975 661.7,990.9 663,1003Z" stroke="#5292a3" stroke-width="0.75" stroke-linecap="round" fill="#5292a3" stroke-linejoin="round"/>
<path d="M0,0M433,978L435,978C433.4,973.7 430.6,965 426,961C427.5,968 431.3,972.2 433,978Z" stroke="#acc1c2" stroke-width="0.75" stroke-linecap="round" fill="#acc1c2" stroke-linejoin="round"/>
<path d="M0,0M870,976C895.2,978.7 910.8,971.3 928,966C942.2,958.3 959,949.3 969,936C977.6,923.2 984,903.8 990,886C994,869 1001.2,850.6 1003,829C1007.2,811.7 1009.7,788.5 1015,771C1018,752.1 1004.4,736.6 993,726C981.4,713.2 962,713.8 954,697C937.9,687.9 961.5,713.3 945,697C941.6,699 941.3,691.9 937,691C936.8,686.2 933.8,683.2 928,682C924.2,684.3 914,683.7 912,685C896.5,682.7 879.5,678.8 865,676C849.5,674.2 830.8,672 814,672C807.5,683 792.5,686 774,685C759.6,674 739.1,668.3 742,639C747.5,668 721.6,666.1 702,670C691.7,662.8 676.6,668.2 670,663C660.2,665.9 655,676.9 649,682C654,696.2 662.8,708.4 663,724C665,744.5 661.6,759.1 648,763C634.8,768.6 620.6,775.3 610,781C602,787.2 594.7,816.1 616,808C617.5,807.3 618.5,802.9 619,804L622,801C637.7,782.2 671.3,796.5 679,808L684,810C697.2,815.5 711.7,818.5 721,808C732.7,802.4 741.1,790.9 756,790L763,790C782.6,786.7 798.2,814.8 804,795C798.2,779.5 787.7,766.2 772,762C759.4,747.8 778.8,723 796,735C801.4,751.4 813.1,763.5 820,775C805.7,761.3 813.6,748.2 832,747C849.4,743.9 866.7,748.4 882,751C895.6,756.9 910.2,761.3 919,771C930.2,779.3 937.1,791.4 939,808C943,825.9 941.5,845.3 940,862C936.6,877.6 932.4,892.4 922,901C911.7,909.7 897.1,914.1 879,915C862.3,917.3 842,916 828,921C831.7,924.5 827.8,930.8 828,937C835.3,942.4 848.2,947.6 838,957C842.7,969.8 856.3,973.2 870,976Z" stroke="#91b0b4" stroke-width="0.75" stroke-linecap="round" fill="#91b0b4" stroke-linejoin="round"/>
<path d="M0,0M624,970C628,970.6 637.8,970.9 642,969C649.8,953.8 672.7,953.7 687,945C707.7,935.2 719,956 745,949C750.7,951.3 758.3,950.7 763,952C768.7,950.9 772.1,954.5 771,957C774.5,955.7 776.5,959.1 777,958L795,958C809.1,957.6 822.7,956.2 838,957C848.2,947.6 835.3,942.4 828,937C814.9,932.3 794,930.3 778,925C757.9,923.1 730.7,919.1 711,922C689.2,925.1 665.6,928.1 642,927C640.6,922.4 632.6,924.4 627,924C623.3,929.3 612.7,927.7 609,933C652.9,929 612.4,956.6 591,952C592.2,947.7 588.3,944.6 589,942C582.7,945.5 568.9,948.4 573,958C595.3,957.2 608.2,965.3 624,970Z" stroke="#1a7385" stroke-width="0.75" stroke-linecap="round" fill="#1a7385" stroke-linejoin="round"/>
<path d="M0,0M777,960C779.9,959.1 792.1,961.7 795,958L777,958L777,960Z" stroke="#217a8f" stroke-width="0.75" stroke-linecap="round" fill="#217a8f" stroke-linejoin="round"/>
<path d="M0,0M769,957L771,957C772.1,954.5 768.7,950.9 763,952C761.9,954.9 768.3,955.1 769,957Z" stroke="#1a7285" stroke-width="0.75" stroke-linecap="round" fill="#1a7285" stroke-linejoin="round"/>
<path d="M0,0M591,952C612.4,956.6 652.9,929 609,933C604.1,935.1 596.6,939.9 589,942C588.3,944.6 592.2,947.7 591,952Z" stroke="#125c6a" stroke-width="0.75" stroke-linecap="round" fill="#125c6a" stroke-linejoin="round"/>
<path d="M0,0M642,927C665.6,928.1 689.2,925.1 711,922C730.7,919.1 757.9,923.1 778,925C774.5,905.8 733,902.4 703,906C674,896.7 643.1,909.4 627,924C632.6,924.4 640.6,922.4 642,927Z" stroke="#4a91a3" stroke-width="0.75" stroke-linecap="round" fill="#4a91a3" stroke-linejoin="round"/>
<path d="M0,0M826,921L828,921C842,916 862.3,917.3 879,915C897.1,914.1 911.7,909.7 922,901C932.4,892.4 936.6,877.6 940,862C941.5,845.3 943,825.9 939,808C937.1,791.4 930.2,779.3 919,771C910.2,761.3 895.6,756.9 882,751C866.7,748.4 849.4,743.9 832,747C813.6,748.2 805.7,761.3 820,775C825.3,790.6 835.7,802.2 822,813C810.2,819.5 799.3,829.5 790,837C797.6,849.9 798.7,868.9 804,883C806.5,901 815.8,911.7 826,921Z" stroke="#acc1c2" stroke-width="0.75" stroke-linecap="round" fill="#acc1c2" stroke-linejoin="round"/>
<path d="M0,0M535,877C556.2,880.2 561.4,867.4 573,861C583.2,854.9 590.1,840.9 600,832C591.9,821.7 584.5,810.5 586,792C578.5,780.9 543.5,782.6 535,790C522.5,798.5 510.2,807.2 513,831C517.7,849.3 516,874 535,877Z" stroke="#acc1c2" stroke-width="0.75" stroke-linecap="round" fill="#acc1c2" stroke-linejoin="round"/>
<path d="M0,0M741,844C750.5,845 762.2,842.3 768,837C760.6,821 785.6,823.9 784,834C785.8,831.9 789.3,833.3 790,837C799.3,829.5 810.2,819.5 822,813C835.7,802.2 825.3,790.6 820,775C813.1,763.5 801.4,751.4 796,735C778.8,723 759.4,747.8 772,762C787.7,766.2 798.2,779.5 804,795C798.2,814.8 782.6,786.7 763,790L766,793C773.6,792.4 775.6,796.4 781,796C785.1,798.2 788.2,804.2 781,805L780,805C777.2,807.7 771.5,807 768,808C757.6,809.3 745.9,811.9 738,813C728.6,802.4 745.5,793.8 753,793L756,790C741.1,790.9 732.7,802.4 721,808C722.9,815.9 736.9,827.6 721,838C725.3,840.6 736.8,840.6 741,844Z" stroke="#699da7" stroke-width="0.75" stroke-linecap="round" fill="#699da7" stroke-linejoin="round"/>
<path d="M0,0M772,843C779.2,842.7 780.1,836.6 784,834C785.6,823.9 760.6,821 768,837C769.1,836.8 770.9,841.5 772,843Z" stroke="#277e93" stroke-width="0.75" stroke-linecap="round" fill="#277e93" stroke-linejoin="round"/>
<path d="M0,0M622,840C646.3,847.8 663.6,826.8 682,834C683,831.4 682.4,826.4 681,828L679,828C677,823.5 668.6,824.9 667,819L663,819C652.4,814.4 635.7,813 625,810L622,810L616,810L616,808C594.7,816.1 602,787.2 610,781C620.6,775.3 634.8,768.6 648,763C661.6,759.1 665,744.5 663,724C662.8,708.4 654,696.2 649,682C643.6,684.6 642.2,691.2 633,690C603.3,688.8 570.4,686.4 565,708C588.2,707.8 597.7,724.9 610,736C612.9,758.9 596.6,770.8 588,786C588.5,788.6 587.9,793.6 586,792C584.5,810.5 591.9,821.7 600,832C606,836.5 613.5,839 622,840Z" stroke="#6a9ea8" stroke-width="0.75" stroke-linecap="round" fill="#6a9ea8" stroke-linejoin="round"/>
<path d="M0,0M717,838L721,838C736.9,827.6 722.9,815.9 721,808C711.7,818.5 697.2,815.5 684,810C689.3,817 682.2,823 681,828C684.2,827 681.7,835 682,834C692.3,837.2 706.3,836.2 717,838Z" stroke="#4a91a3" stroke-width="0.75" stroke-linecap="round" fill="#4a91a3" stroke-linejoin="round"/>
<path d="M0,0M508,834C512.6,836 511.2,829 513,831C510.2,807.2 522.5,798.5 535,790C543.5,782.6 578.5,780.9 586,792C589.7,793 587.2,785 588,786C596.2,770.6 616.4,751.5 586,745C573.5,738.9 548,724.9 528,736C510,742 498.9,758.5 490,775C486.8,802.8 499.6,817.6 508,834Z" stroke="#9ab7b9" stroke-width="0.75" stroke-linecap="round" fill="#9ab7b9" stroke-linejoin="round"/>
<path d="M0,0M679,828L681,828C682.2,823 689.3,817 684,810L679,808L675,808C675.4,806 670.8,805 670,805C674.7,810.9 673.6,818.6 667,819C668.6,824.9 677,823.5 679,828Z" stroke="#2e8397" stroke-width="0.75" stroke-linecap="round" fill="#2e8397" stroke-linejoin="round"/>
<path d="M0,0M663,819L667,819C673.6,818.6 674.7,810.9 670,805C662,794.2 635.5,788.1 625,801C626.5,806.3 626.5,807 625,810C635.7,813 652.4,814.4 663,819Z" stroke="#083839" stroke-width="0.75" stroke-linecap="round" fill="#083839" stroke-linejoin="round"/>
<path d="M0,0M738,813C745.9,811.9 757.6,809.3 768,808C769.2,804.7 774.9,805.4 780,805L781,805C777.7,803.2 783.1,798.8 781,796C775.6,796.4 773.6,792.4 766,793L753,793C745.5,793.8 728.6,802.4 738,813Z" stroke="#093e40" stroke-width="0.75" stroke-linecap="round" fill="#093e40" stroke-linejoin="round"/>
<path d="M0,0M616,810L622,810C621.7,808.1 619.4,804.4 619,804C617.7,804.3 616.7,808.9 616,808L616,810Z" stroke="#71a0a9" stroke-width="0.75" stroke-linecap="round" fill="#71a0a9" stroke-linejoin="round"/>
<path d="M0,0M622,810L625,810C626.5,807 626.5,806.3 625,801L622,801L619,804C619.4,804.4 621.7,808.1 622,810Z" stroke="#156576" stroke-width="0.75" stroke-linecap="round" fill="#156576" stroke-linejoin="round"/>
<path d="M0,0M675,808L679,808C671.3,796.5 637.7,782.2 622,801L625,801C635.5,788.1 662,794.2 670,805C673.7,804.4 675.3,808.4 675,808Z" stroke="#91b0b5" stroke-width="0.75" stroke-linecap="round" fill="#91b0b5" stroke-linejoin="round"/>
<path d="M0,0M768,808C771.5,807 777.2,807.7 780,805C774.9,805.4 769.2,804.7 768,808Z" stroke="#186d80" stroke-width="0.75" stroke-linecap="round" fill="#186d80" stroke-linejoin="round"/>
<path d="M0,0M781,805C788.2,804.2 785.1,798.2 781,796C783.1,798.8 777.7,803.2 781,805Z" stroke="#186d80" stroke-width="0.75" stroke-linecap="round" fill="#186d80" stroke-linejoin="round"/>
<path d="M0,0M690,793C714,800.9 746.5,780.3 715,771C692.2,757.5 659.8,785.2 690,793Z" stroke="#bacaca" stroke-width="0.75" stroke-linecap="round" fill="#bacaca" stroke-linejoin="round"/>
<path d="M0,0M753,793L766,793L763,790L756,790L753,793Z" stroke="#1c768a" stroke-width="0.75" stroke-linecap="round" fill="#1c768a" stroke-linejoin="round"/>
<path d="M0,0M483,723L484,723C486.2,719.7 491.1,719.6 490,714L489,714C505.2,678.9 457.5,683.3 450,664C436.9,647.9 418.8,625.2 435,597C414.8,592.5 404.6,607 399,621C391.3,637.2 397.9,661.3 411,667C420.6,678.9 433.2,687.3 447,694C457.9,703 472.6,712.1 483,723Z" stroke="#5d97a4" stroke-width="0.75" stroke-linecap="round" fill="#5d97a4" stroke-linejoin="round"/>
<path d="M0,0M489,714L490,714C499.7,704.8 530.1,712.4 546,708C544.8,686.6 563,687.4 585,688C591,686.5 627.4,677.8 633,690C642.2,691.2 643.6,684.6 649,682C655,676.9 660.2,665.9 670,663C675.1,657.6 673,645.5 673,636C669.5,616.8 678.3,580.3 655,588C639.3,614.6 633.5,578.3 618,574L616,579C617,585.5 623.8,585.7 625,591C633.5,600.5 643.3,613.6 642,628C622.8,633 625.1,638 615,649L612,649C606.9,654.5 596.1,657.2 589,658C585.7,660.7 585.2,666.2 579,666C576.9,665.2 576.9,658.5 579,660L579,654C571.8,659 564.1,666.6 550,663C546.1,659.3 536.9,656.9 534,654C530.9,658.4 553.4,668.3 535,670C525.1,666.9 513.8,664.2 508,655C498.6,645.9 489.9,659.2 475,658L474,655C451.3,643.7 483.5,625.4 495,624C511.8,617.5 534.4,614.3 553,612C563.6,611.3 576.4,604.6 562,597C558.3,596.2 550.9,598.6 549,595L532,595L532,594L508,594L508,592C501.3,591.6 487.3,594.1 484,591C476.5,590.1 467.7,591.9 463,592C446.8,571.6 491.1,566.9 514,573C523,571.4 534.4,569.3 543,570C546.9,566.8 560.1,569.4 564,568C585.7,568.3 551.5,564.5 549,564L523,564L523,562C515.9,563.1 510.3,561.7 508,556L507,556C503.8,548.8 489.1,549.9 484,553C465.4,565.4 446.4,577.4 435,597C418.8,625.2 436.9,647.9 450,664C457.5,683.3 505.2,678.9 489,714Z" stroke="#3a899e" stroke-width="0.75" stroke-linecap="round" fill="#3a899e" stroke-linejoin="round"/>
<path d="M0,0M370,709C372.2,710.3 377.8,709.4 378,706C375.1,693.2 377.1,672.1 376,658L375,658C375,655.9 372.3,652.5 373,651L370,651L369,649C370,658.4 368.1,670 367,679C370.6,680 368.1,689.5 369,690C370.5,691.1 373,704.7 367,703C366.3,705 371.7,705.7 370,709Z" stroke="#78a4ab" stroke-width="0.75" stroke-linecap="round" fill="#78a4ab" stroke-linejoin="round"/>
<path d="M0,0M378,708L385,708C385.9,685.5 386.9,654.4 378,637C374.8,641.4 377.4,654.6 376,658C377.1,672.1 375.1,693.2 378,706L378,708Z" stroke="#85aaaf" stroke-width="0.75" stroke-linecap="round" fill="#85aaaf" stroke-linejoin="round"/>
<path d="M0,0M546,708L565,708C570.4,686.4 603.3,688.8 633,690C627.4,677.8 591,686.5 585,688C563,687.4 544.8,686.6 546,708Z" stroke="#5292a3" stroke-width="0.75" stroke-linecap="round" fill="#5292a3" stroke-linejoin="round"/>
<path d="M0,0M367,703C373,704.7 370.5,691.1 369,690C368.9,693 369.8,700.5 367,699L367,703Z" stroke="#8aadb2" stroke-width="0.75" stroke-linecap="round" fill="#8aadb2" stroke-linejoin="round"/>
<path d="M0,0M367,699C369.8,700.5 368.9,693 369,690C368.1,689.5 370.6,680 367,679C366.1,681.1 364.5,695.2 367,699Z" stroke="#8aadb2" stroke-width="0.75" stroke-linecap="round" fill="#8aadb2" stroke-linejoin="round"/>
<path d="M0,0M774,685C792.5,686 807.5,683 814,672C796,678 795.2,656.7 796,649C791.3,648.7 785.4,648.6 787,640C798.7,624.7 763.7,628.5 771,612C793.8,585.6 758.4,591.2 751,576C751.7,572.7 741.6,576.2 744,573C736.5,573.9 727.7,583.3 733,591C749.6,607.4 750.3,612.1 742,639C739.1,668.3 759.6,674 774,685Z" stroke="#5d97a5" stroke-width="0.75" stroke-linecap="round" fill="#5d97a5" stroke-linejoin="round"/>
<path d="M0,0M912,685C914,683.7 924.2,684.3 928,682C931.8,677.8 938.6,676.6 943,673C928.1,647.8 971.4,648.6 958,625C957.8,626.9 952.8,627.5 952,627L949,624C938.6,639.6 919.4,641.4 913,622C911,637.2 898.7,645 888,649C880.8,645.8 890.8,639.4 885,639C879.8,644.9 866.1,645.6 856,645L844,633C844.1,637.2 849.6,648.2 837,646C830.9,643.5 820.9,641 816,639C807.7,641.4 816.3,650.7 808,652C805.7,650.3 800,651 796,649C795.2,656.7 796,678 814,672C830.8,672 849.5,674.2 865,676C879.5,678.8 896.5,682.7 912,685Z" stroke="#37859a" stroke-width="0.75" stroke-linecap="round" fill="#37859a" stroke-linejoin="round"/>
<path d="M0,0M943,673C952,648 979.6,641.5 999,627C1008.9,609 1041.1,586.9 1057,604C1056.6,586.1 1051.8,569 1051,552C1045.8,530.3 1043.4,503.1 1030,490C1023.5,490.5 1019.2,493.2 1011,492C1009.3,490.1 1003.7,488.7 1002,489C1000.4,505.4 998.8,521.8 994,535C987.2,546.2 980.8,557.8 963,558C947.9,545.7 925.2,538.9 909,529C893.9,524.9 876.6,535 874,541C864,544.5 855.7,548.8 873,547C901.7,557.4 891,527.7 913,540C926.7,545 941,551.7 951,558C961.3,560.5 981.3,569.7 970,580C961.3,576.7 951.3,573.7 943,568C924.6,561.7 902,572.5 882,571C877.8,573.3 872.8,574.3 867,574C863.6,578.2 851.6,576.8 850,580L850,588C864.7,585.8 870.9,591.6 880,594C887.6,593.9 894.9,593.6 900,595C907.5,592.4 919.2,594.3 925,597C932,600.5 941.6,600.9 945,607C953.2,604.4 961,615.8 958,625C971.4,648.6 928.1,647.8 943,673Z" stroke="#5292a3" stroke-width="0.75" stroke-linecap="round" fill="#5292a3" stroke-linejoin="round"/>
<path d="M0,0M535,670C553.4,668.3 530.9,658.4 534,654C528,649.1 522.1,631.1 511,642C510.7,646.4 506.7,650.9 508,655C513.8,664.2 525.1,666.9 535,670Z" stroke="#619aa6" stroke-width="0.75" stroke-linecap="round" fill="#619aa6" stroke-linejoin="round"/>
<path d="M0,0M702,670C721.6,666.1 747.5,668 742,639C750.3,612.1 749.6,607.4 733,591C722.5,605 702.4,609.9 679,612C676.6,611.3 679.4,601.5 676,603C676.1,613 681.5,629.8 675,637L673,636C673,645.5 675.1,657.6 670,663C676.6,668.2 691.7,662.8 702,670Z" stroke="#abc1c2" stroke-width="0.75" stroke-linecap="round" fill="#abc1c2" stroke-linejoin="round"/>
<path d="M0,0M1071,670C1083.2,674.9 1077.5,657.5 1077,651C1075.7,654.7 1069.3,653.3 1068,657L1066,654C1066.2,661.3 1069,665.5 1071,670Z" stroke="#0f525c" stroke-width="0.75" stroke-linecap="round" fill="#0f525c" stroke-linejoin="round"/>
<path d="M0,0M579,666C585.2,666.2 585.7,660.7 589,658C584.7,656.8 583.6,662.2 582,661L579,660C576.9,658.5 576.9,665.2 579,666Z" stroke="#8aadb2" stroke-width="0.75" stroke-linecap="round" fill="#8aadb2" stroke-linejoin="round"/>
<path d="M0,0M550,663C564.1,666.6 571.8,659 579,654C580.8,646.8 585.4,642.4 585,633C588.5,617.5 567.2,612.8 553,612C534.4,614.3 511.8,617.5 495,624C483.5,625.4 451.3,643.7 474,655C484.5,649 501.9,649.4 511,642C522.1,631.1 528,649.1 534,654C536.9,656.9 546.1,659.3 550,663Z" stroke="#083839" stroke-width="0.75" stroke-linecap="round" fill="#083839" stroke-linejoin="round"/>
<path d="M0,0M582,661C583.6,662.2 584.7,656.8 589,658C596.1,657.2 606.9,654.5 612,649L610,649C607.9,646 601.8,642.5 601,639C599,634.1 590.3,628.4 585,633C585.4,642.4 580.8,646.8 579,654L579,660L582,661Z" stroke="#b0c4c5" stroke-width="0.75" stroke-linecap="round" fill="#b0c4c5" stroke-linejoin="round"/>
<path d="M0,0M375,658L376,658C377.4,654.6 374.8,641.4 378,637L378,636L376,636L376,634L375,637C376.2,643.7 372.3,644.8 373,651C372.3,652.5 375,655.9 375,658Z" stroke="#619aa6" stroke-width="0.75" stroke-linecap="round" fill="#619aa6" stroke-linejoin="round"/>
<path d="M0,0M475,658C489.9,659.2 498.6,645.9 508,655C506.7,650.9 510.7,646.4 511,642C501.9,649.4 484.5,649 474,655L475,658Z" stroke="#186d80" stroke-width="0.75" stroke-linecap="round" fill="#186d80" stroke-linejoin="round"/>
<path d="M0,0M1068,657C1069.3,653.3 1075.7,654.7 1077,651L1080,648C1081.9,635.2 1092.2,619.6 1092,600C1096.1,583.1 1097.8,563.8 1101,546C1103.1,527.1 1106.4,509.4 1108,490C1110,471 1114.3,454.3 1117,436L1113,436C1108.9,463.4 1105.7,491.2 1101,517C1107.5,555.6 1081.8,560.3 1053,555L1051,552C1051.8,569 1056.6,586.1 1057,604C1063.7,603.3 1058.9,613.1 1060,616C1059.2,623.7 1072.4,617.4 1077,619C1090.7,618.5 1076.7,654.2 1066,651L1065,648C1064.5,650.6 1065.1,655.6 1066,654L1068,657Z" stroke="#093e40" stroke-width="0.75" stroke-linecap="round" fill="#093e40" stroke-linejoin="round"/>
<path d="M0,0M808,652C816.3,650.7 807.7,641.4 816,639L816,631C812,626.4 808,635.8 804,633C813.3,616.5 785.6,616.5 798,589L795,589C781.5,589.7 767.1,584.1 774,568C771.4,565.5 763.8,569 760,570C761.3,575.8 753,572.5 751,576C758.4,591.2 793.8,585.6 771,612C763.7,628.5 798.7,624.7 787,640C785.4,648.6 791.3,648.7 796,649C800,651 805.7,650.3 808,652Z" stroke="#1a7385" stroke-width="0.75" stroke-linecap="round" fill="#1a7385" stroke-linejoin="round"/>
<path d="M0,0M370,651L373,651C372.3,644.8 376.2,643.7 375,637C372.9,630.8 371.7,639.9 367,637C366.6,640.4 370.4,644 369,649L370,651Z" stroke="#1a7385" stroke-width="0.75" stroke-linecap="round" fill="#1a7385" stroke-linejoin="round"/>
<path d="M0,0M1066,651C1076.7,654.2 1090.7,618.5 1077,619C1072.4,617.4 1059.2,623.7 1060,616C1061,628 1063,638 1065,648L1066,651Z" stroke="#0d4c55" stroke-width="0.75" stroke-linecap="round" fill="#0d4c55" stroke-linejoin="round"/>
<path d="M0,0M610,649L612,649L615,649C610.1,646.4 608.7,639.8 601,639C601.8,642.5 607.9,646 610,649Z" stroke="#13606f" stroke-width="0.75" stroke-linecap="round" fill="#13606f" stroke-linejoin="round"/>
<path d="M0,0M615,649C625.1,638 622.8,633 642,628C643.3,613.6 633.5,600.5 625,591C620.9,595.1 607.4,601.6 592,600C583.3,598.2 573.9,596.6 562,597C576.4,604.6 563.6,611.3 553,612C567.2,612.8 588.5,617.5 585,633C590.3,628.4 599,634.1 601,639C608.7,639.8 610.1,646.4 615,649Z" stroke="#135f6f" stroke-width="0.75" stroke-linecap="round" fill="#135f6f" stroke-linejoin="round"/>
<path d="M0,0M888,649C898.7,645 911,637.2 913,622C897.9,602.7 893.3,630.8 885,639C890.8,639.4 880.8,645.8 888,649Z" stroke="#7da7ac" stroke-width="0.75" stroke-linecap="round" fill="#7da7ac" stroke-linejoin="round"/>
<path d="M0,0M837,646C849.6,648.2 844.1,637.2 844,633C841.9,628.6 836.3,627.2 837,619C828.1,611.6 822.7,628.4 816,631L816,639C820.9,641 830.9,643.5 837,646Z" stroke="#a5bdbf" stroke-width="0.75" stroke-linecap="round" fill="#a5bdbf" stroke-linejoin="round"/>
<path d="M0,0M856,645C866.1,645.6 879.8,644.9 885,639C893.3,630.8 897.9,602.7 913,622C919.4,641.4 938.6,639.6 949,624C950.1,620.1 948.7,611.5 945,607C941.6,600.9 932,600.5 925,597C924.8,600.4 919.8,602.8 916,601C912.1,598.8 900.1,600.2 898,597L894,597C892.1,593.9 884.7,596.3 880,595C863.8,600.8 828.7,595.8 837,619C836.3,627.2 841.9,628.6 844,633L856,645Z" stroke="#093e3f" stroke-width="0.75" stroke-linecap="round" fill="#093e3f" stroke-linejoin="round"/>
<path d="M0,0M549,642C557.5,644.1 555,631.4 553,630C545,627.9 547.5,640.6 549,642Z" stroke="#1a7285" stroke-width="0.75" stroke-linecap="round" fill="#1a7285" stroke-linejoin="round"/>
<path d="M0,0M564,642C569.3,644.2 571.3,639.6 570,637C572,631.9 566.1,630.8 564,631L564,642Z" stroke="#5d97a5" stroke-width="0.75" stroke-linecap="round" fill="#5d97a5" stroke-linejoin="round"/>
<path d="M0,0M367,637C371.7,639.9 372.9,630.8 375,637L376,634C377.4,628.3 374.8,615.2 378,613L378,612C375.5,612.6 370.8,614.4 369,613L366,613C364.4,616.5 366.8,630 367,637Z" stroke="#186d80" stroke-width="0.75" stroke-linecap="round" fill="#186d80" stroke-linejoin="round"/>
<path d="M0,0M570,637C576,632.3 567.1,623.4 564,631C566.1,630.8 572,631.9 570,637Z" stroke="#115864" stroke-width="0.75" stroke-linecap="round" fill="#115864" stroke-linejoin="round"/>
<path d="M0,0M675,637C681.5,629.8 676.1,613 676,603C673.3,573.3 640.7,572.8 612,568L610,573C613.1,573 616.5,575.7 618,574C633.5,578.3 639.3,614.6 655,588C678.3,580.3 669.5,616.8 673,636L675,637Z" stroke="#84aaaf" stroke-width="0.75" stroke-linecap="round" fill="#84aaaf" stroke-linejoin="round"/>
<path d="M0,0M376,636L378,636L378,613C374.8,615.2 377.4,628.3 376,634L376,636Z" stroke="#619aa6" stroke-width="0.75" stroke-linecap="round" fill="#619aa6" stroke-linejoin="round"/>
<path d="M0,0M804,633C808,635.8 812,626.4 816,631C822.7,628.4 828.1,611.6 837,619C828.7,595.8 863.8,600.8 880,595L880,594C870.9,591.6 864.7,585.8 850,588C853,593.1 844.1,590.3 844,591C841.9,588.6 838.7,586.8 840,580C827.1,584.6 811.7,586.2 798,589C785.6,616.5 813.3,616.5 804,633Z" stroke="#125c6a" stroke-width="0.75" stroke-linecap="round" fill="#125c6a" stroke-linejoin="round"/>
<path d="M0,0M952,627C956,628.3 958,624.9 958,625C961,615.8 953.2,604.4 945,607C948.7,611.5 950.1,620.1 949,624L952,627Z" stroke="#1a7285" stroke-width="0.75" stroke-linecap="round" fill="#1a7285" stroke-linejoin="round"/>
<path d="M0,0M868,624L871,624L871,613C863.3,611.4 868.3,623.8 868,624Z" stroke="#438da0" stroke-width="0.75" stroke-linecap="round" fill="#438da0" stroke-linejoin="round"/>
<path d="M0,0M871,624C877.5,625.6 874.4,610 871,613L871,624Z" stroke="#4a90a2" stroke-width="0.75" stroke-linecap="round" fill="#4a90a2" stroke-linejoin="round"/>
<path d="M0,0M855,621C862.4,624.3 858.5,613 859,612C853.5,610.1 855.2,619.3 855,621Z" stroke="#115864" stroke-width="0.75" stroke-linecap="round" fill="#115864" stroke-linejoin="round"/>
<path d="M0,0M366,613L369,613C367.9,581.2 355.1,558.6 351,531C347.1,513.7 342.1,490.5 339,477L337,477C339.2,500.9 346,523.6 351,546C354.9,567.6 363.2,588.9 366,613Z" stroke="#0b4449" stroke-width="0.75" stroke-linecap="round" fill="#0b4449" stroke-linejoin="round"/>
<path d="M0,0M369,613C370.8,614.4 375.5,612.6 378,612C374.6,584 379.2,555.4 384,531L384,529C378.6,530.1 356.4,527.8 351,531C355.1,558.6 367.9,581.2 369,613Z" stroke="#0b4449" stroke-width="0.75" stroke-linecap="round" fill="#0b4449" stroke-linejoin="round"/>
<path d="M0,0M679,612C702.4,609.9 722.5,605 733,591C727.7,583.3 736.5,573.9 744,573C749.4,572.3 755.3,568.7 760,570C763.8,569 771.4,565.5 774,568C788.8,563 808.1,559.5 823,556C839.2,551.8 855.8,546.8 870,549L873,547C855.7,548.8 864,544.5 874,541L870,541C854.6,546.1 836.7,548.2 820,552C804.3,555.2 811.6,520.9 801,516C791.3,505.7 781.7,495.3 766,490C753.7,484 739.1,476.8 726,472C713.7,466.4 690.3,463.8 675,469C662.1,475.9 647.3,483 637,490C624.9,497.9 612.9,505.9 606,519C598.5,529 597.5,555 598,567L603,568L612,568C640.7,572.8 673.3,573.3 676,603C679.4,601.5 676.6,611.3 679,612Z" stroke="#c0cecd" stroke-width="0.75" stroke-linecap="round" fill="#c0cecd" stroke-linejoin="round"/>
<path d="M0,0M916,601C919.8,602.8 924.8,600.4 925,597C919.2,594.3 907.5,592.4 900,595L898,597C900.1,600.2 912.1,598.8 916,601Z" stroke="#13606f" stroke-width="0.75" stroke-linecap="round" fill="#13606f" stroke-linejoin="round"/>
<path d="M0,0M592,600C607.4,601.6 620.9,595.1 625,591C623.8,585.7 617,585.5 616,579L613,579C612.3,577.1 605.9,576.9 607,574L604,574L603,573L601,573C589.9,568.8 576,568.4 564,570L543,570C534.4,569.3 523,571.4 514,573C511.7,586.2 506.8,597.3 484,591C487.3,594.1 501.3,591.6 508,592C515.7,593.4 529.7,590.9 532,594C537.7,594.8 546.2,592.3 549,595C550.9,598.6 558.3,596.2 562,597C573.9,596.6 583.3,598.2 592,600Z" stroke="#093e40" stroke-width="0.75" stroke-linecap="round" fill="#093e40" stroke-linejoin="round"/>
<path d="M0,0M894,597L898,597L900,595C894.9,593.6 887.6,593.9 880,594L880,595C884.7,596.3 892.1,593.9 894,597Z" stroke="#4a91a2" stroke-width="0.75" stroke-linecap="round" fill="#4a91a2" stroke-linejoin="round"/>
<path d="M0,0M532,595L549,595C546.2,592.3 537.7,594.8 532,594L532,595Z" stroke="#093e40" stroke-width="0.75" stroke-linecap="round" fill="#093e40" stroke-linejoin="round"/>
<path d="M0,0M508,594L532,594C529.7,590.9 515.7,593.4 508,592L508,594Z" stroke="#0a4348" stroke-width="0.75" stroke-linecap="round" fill="#0a4348" stroke-linejoin="round"/>
<path d="M0,0M463,592C467.7,591.9 476.5,590.1 484,591C506.8,597.3 511.7,586.2 514,573C491.1,566.9 446.8,571.6 463,592Z" stroke="#0d4c56" stroke-width="0.75" stroke-linecap="round" fill="#0d4c56" stroke-linejoin="round"/>
<path d="M0,0M844,591C844.1,590.3 853,593.1 850,588L850,580L849,580L847,579C848.1,582.2 839.4,579.6 840,580C838.7,586.8 841.9,588.6 844,591Z" stroke="#16697b" stroke-width="0.75" stroke-linecap="round" fill="#16697b" stroke-linejoin="round"/>
<path d="M0,0M795,589L798,589C811.7,586.2 827.1,584.6 840,580C839.4,579.6 848.1,582.2 847,579C853.1,576.6 858.2,573.7 867,574C872.8,574.3 877.8,573.3 882,571L879,571C878.8,560.2 879.3,551.3 870,549C855.8,546.8 839.2,551.8 823,556C808.1,559.5 788.8,563 774,568C767.1,584.1 781.5,589.7 795,589Z" stroke="#0a4348" stroke-width="0.75" stroke-linecap="round" fill="#0a4348" stroke-linejoin="round"/>
<path d="M0,0M849,580L850,580C851.6,576.8 863.6,578.2 867,574C858.2,573.7 853.1,576.6 847,579L849,580Z" stroke="#0b4449" stroke-width="0.75" stroke-linecap="round" fill="#0b4449" stroke-linejoin="round"/>
<path d="M0,0M970,580C981.3,569.7 961.3,560.5 951,558C946.7,559.7 947.1,566.1 943,568C951.3,573.7 961.3,576.7 970,580Z" stroke="#196e80" stroke-width="0.75" stroke-linecap="round" fill="#196e80" stroke-linejoin="round"/>
<path d="M0,0M613,579L616,579L618,574C616.5,575.7 613.1,573 610,573L607,574C605.9,576.9 612.3,577.1 613,579Z" stroke="#3a899e" stroke-width="0.75" stroke-linecap="round" fill="#3a899e" stroke-linejoin="round"/>
<path d="M0,0M751,576C753,572.5 761.3,575.8 760,570C755.3,568.7 749.4,572.3 744,573C741.6,576.2 751.7,572.7 751,576Z" stroke="#5d97a5" stroke-width="0.75" stroke-linecap="round" fill="#5d97a5" stroke-linejoin="round"/>
<path d="M0,0M604,574L607,574L610,573L612,568L603,568L603,573L604,574Z" stroke="#84aaaf" stroke-width="0.75" stroke-linecap="round" fill="#84aaaf" stroke-linejoin="round"/>
<path d="M0,0M601,573L603,573L603,568L598,567L594,567C580.6,564.2 563.2,562.5 549,562L549,564C551.5,564.5 585.7,568.3 564,568L564,570C576,568.4 589.9,568.8 601,573Z" stroke="#96b3b7" stroke-width="0.75" stroke-linecap="round" fill="#96b3b7" stroke-linejoin="round"/>
<path d="M0,0M879,571L882,571C902,572.5 924.6,561.7 943,568C947.1,566.1 946.7,559.7 951,558C941,551.7 926.7,545 913,540C891,527.7 901.7,557.4 873,547L870,549C879.3,551.3 878.8,560.2 879,571Z" stroke="#105864" stroke-width="0.75" stroke-linecap="round" fill="#105864" stroke-linejoin="round"/>
<path d="M0,0M543,570L564,570L564,568C560.1,569.4 546.9,566.8 543,570Z" stroke="#166a7b" stroke-width="0.75" stroke-linecap="round" fill="#166a7b" stroke-linejoin="round"/>
<path d="M0,0M594,567L598,567C597.5,555 598.5,529 606,519C612.9,505.9 624.9,497.9 637,490C647.3,483 662.1,475.9 675,469C690.3,463.8 713.7,466.4 726,472C739.1,476.8 753.7,484 766,490C781.7,495.3 791.3,505.7 801,516C811.6,520.9 804.3,555.2 820,552C836.7,548.2 854.6,546.1 870,541C859.5,528.9 864.9,489.9 852,475C842,456.5 829.2,440.3 823,417C818.1,393.4 804.9,377.6 784,369C764.4,360.7 741.2,353.4 727,340C710.2,347.2 695.9,356.9 679,364C666.2,380.6 638.4,384.3 610,384C607.3,382.2 603.1,381.4 601,378L583,378C575.2,378.2 568.5,373.4 564,372L546,372L522,372L522,373C520.2,390 517.2,407.9 514,421C510.1,435.1 506.9,449.9 502,463C500.6,478.5 499.4,500 504,513C509.1,524 505.3,552.1 508,556C510.3,561.7 515.9,563.1 523,562L549,562C563.2,562.5 580.6,564.2 594,567Z" stroke="#a5bdbf" stroke-width="0.75" stroke-linecap="round" fill="#a5bdbf" stroke-linejoin="round"/>
<path d="M0,0M523,564L549,564L549,562L523,562L523,564Z" stroke="#619aa6" stroke-width="0.75" stroke-linecap="round" fill="#619aa6" stroke-linejoin="round"/>
<path d="M0,0M963,558C980.8,557.8 987.2,546.2 994,535C998.8,521.8 1000.4,505.4 1002,489C984.5,483.5 977.3,456.6 981,438C979.4,429.6 976.4,422.6 975,414C973.8,389.8 959.1,376.9 946,366L945,366C934.8,353.9 919.3,344.7 907,336C891,328 890.4,308 877,301C848.7,298.4 805.4,294.2 784,307C805.3,318.2 818.2,338.6 841,345C860.3,357.2 873.6,374.9 886,393C898.8,411.7 914,427.5 919,453C927.7,481 918,510.4 909,529C925.2,538.9 947.9,545.7 963,558Z" stroke="#72a0a9" stroke-width="0.75" stroke-linecap="round" fill="#72a0a9" stroke-linejoin="round"/>
<path d="M0,0M507,556L508,556C505.3,552.1 509.1,524 504,513C499.4,500 500.6,478.5 502,463C506.9,449.9 510.1,435.1 514,421C517.2,407.9 520.2,390 522,373L507,373L507,372L504,372L502,372C475,363.9 484.4,397.1 477,411C471.3,424.7 465.5,442.7 459,457C455.9,472 450.4,498.2 460,511C466.1,527.9 474.7,541.3 484,553C489.1,549.9 503.8,548.8 507,556Z" stroke="#8aadb2" stroke-width="0.75" stroke-linecap="round" fill="#8aadb2" stroke-linejoin="round"/>
<path d="M0,0M1053,555C1081.8,560.3 1107.5,555.6 1101,517C1105.7,491.2 1108.9,463.4 1113,436L1111,436C1107.4,422.7 1113.8,408 1114,394L1111,394C1115.7,375.6 1103.3,362.1 1098,348C1096.1,344.6 1096.1,333.2 1098,340C1108.6,357.2 1112.9,344.6 1105,330C1102.5,331.1 1095.8,331.9 1095,333C1095.6,308.3 1069.7,287.4 1074,264C1071.1,263.3 1069.4,258 1069,256C1062.8,239.3 1050,236.6 1054,219C1046.3,210.9 1038.1,198.1 1026,192L1021,193L1012,202C1003,189.2 1000.7,171.9 976,166L973,166C961,158 946.3,151.7 943,133L940,133C933.9,122.9 912.7,124.1 907,114L906,117C906.2,122.3 900.7,125.3 898,126C896.9,124 894.1,119.7 894,118C889.4,110.5 877.2,103.7 882,93L880,91C866.8,84 850.1,72.5 831,75C814.5,67.2 806.3,54.3 784,55L783,58C779.2,61.8 765.1,58.3 763,61C754.4,60.5 743.5,61.2 742,66C737.2,64.2 730.6,60.2 732,54C722.7,50.3 709.5,50.5 699,48L697,48L697,49C694.6,52.7 682.4,50.1 679,51L679,49L679,48C678.1,49.4 670.1,50 664,49C665.9,54 657.7,52.4 658,54C644.5,57.6 629.4,51.7 622,60C621.4,52.4 608.2,60.5 603,58C587.2,68.7 552.7,60.2 543,76C552.3,89.2 545.2,94.2 535,100C535.2,94.7 529.1,91.2 526,90C502.3,98.5 483.9,116.4 471,138C455.7,155.4 434.2,170.2 418,189C416,197.6 424.9,198.3 424,202C425.1,207.1 414.7,215 411,217L409,213L406,213C405.9,210.5 401.4,208.5 402,207C390.7,216.2 386.3,236.4 378,250C373.2,268.7 363.9,282.4 360,301C356,318 350.7,337.3 346,355C342.3,374.3 339.2,394.2 337,415C342.3,425.4 340.2,450.6 339,460L339,477C342.1,490.5 347.1,513.7 351,531C356.4,527.8 378.6,530.1 384,529C393,512.1 401.1,491.6 402,468C401.4,450.2 405,425.6 408,409C415.1,396 416.5,371.8 429,367C433.9,363.3 443.9,360.8 450,360C473.1,357.2 487.2,366 502,369C510.7,370.2 513.8,366.3 522,367L529,367C543,365 558.9,364.9 573,363C546,353.6 611.4,354.9 622,349C643.2,329.9 667.2,347.3 679,351C693,339.7 709.7,340.9 721,330C733.5,320.7 746.9,310.3 759,303C771.9,291.5 799.7,292.7 819,289C829.8,282.6 852.8,282 867,285C881.9,288.1 899.4,288.6 912,294C928.1,295.9 932.1,309.9 939,321C943.7,332.5 959.2,340.1 958,352C973.2,363.8 991,394.3 979,417C979,419.6 979.6,424.6 981,423C993.3,421 1005.1,450.8 1012,466C1016.7,469 1015.9,471.5 1017,474C1019.2,481.8 1032.3,478.7 1030,490C1043.4,503.1 1045.8,530.3 1051,552L1053,555Z" stroke="#052922" stroke-width="0.75" stroke-linecap="round" fill="#052922" stroke-linejoin="round"/>
<path d="M0,0M870,541L874,541C876.6,535 893.9,524.9 909,529C918,510.4 927.7,481 919,453C914,427.5 898.8,411.7 886,393C873.6,374.9 860.3,357.2 841,345C818.2,338.6 805.3,318.2 784,307C781.7,306.9 779.7,310.3 778,309C762.4,320.3 743.3,330.8 727,340C741.2,353.4 764.4,360.7 784,369C804.9,377.6 818.1,393.4 823,417C829.2,440.3 842,456.5 852,475C864.9,489.9 859.5,528.9 870,541Z" stroke="#91b0b5" stroke-width="0.75" stroke-linecap="round" fill="#91b0b5" stroke-linejoin="round"/>
<path d="M0,0M384,531C404.8,518.8 416.9,497.9 417,465L417,463L411,463C407.8,464.4 408,472.1 403,469L402,468C401.1,491.6 393,512.1 384,529L384,531Z" stroke="#217a90" stroke-width="0.75" stroke-linecap="round" fill="#217a90" stroke-linejoin="round"/>
<path d="M0,0M1011,492C1019.2,493.2 1023.5,490.5 1030,490C1032.3,478.7 1019.2,481.8 1017,474L1014,474C1012.4,472.5 1007.9,470.5 1009,468L1006,468C994.6,463.6 984.1,455.1 984,441L982,441L981,438C977.3,456.6 984.5,483.5 1002,489C1003.7,488.7 1009.3,490.1 1011,492Z" stroke="#2e8397" stroke-width="0.75" stroke-linecap="round" fill="#2e8397" stroke-linejoin="round"/>
<path d="M0,0M336,477L337,477L339,477L339,460C337.4,450 342,430 336,426L336,429C338,440.3 338,459.7 336,471L336,472L336,477Z" stroke="#2d8297" stroke-width="0.75" stroke-linecap="round" fill="#2d8297" stroke-linejoin="round"/>
<path d="M0,0M1014,474L1017,474C1015.9,471.5 1016.7,469 1012,466L1009,468C1007.9,470.5 1012.4,472.5 1014,474Z" stroke="#0a4348" stroke-width="0.75" stroke-linecap="round" fill="#0a4348" stroke-linejoin="round"/>
<path d="M0,0M334,472L336,472L336,471L336,432C333.1,443.1 335.3,459.3 334,472Z" stroke="#b5c7c7" stroke-width="0.75" stroke-linecap="round" fill="#b5c7c7" stroke-linejoin="round"/>
<path d="M0,0M336,471C338,459.7 338,440.3 336,429L336,432L336,471Z" stroke="#72a1a9" stroke-width="0.75" stroke-linecap="round" fill="#72a1a9" stroke-linejoin="round"/>
<path d="M0,0M403,469C408,472.1 407.8,464.4 411,463C408.8,462.8 408.8,454.4 411,456C411.4,438.1 414.5,420.3 418,408C419.7,392.7 428.6,379.6 429,367C416.5,371.8 415.1,396 408,409C405,425.6 401.4,450.2 402,468L403,469Z" stroke="#105864" stroke-width="0.75" stroke-linecap="round" fill="#105864" stroke-linejoin="round"/>
<path d="M0,0M1006,468L1009,468L1012,466C1005.1,450.8 993.3,421 981,423C979.8,431.2 985.2,432.8 984,441C984.1,455.1 994.6,463.6 1006,468Z" stroke="#0d4c55" stroke-width="0.75" stroke-linecap="round" fill="#0d4c55" stroke-linejoin="round"/>
<path d="M0,0M417,465C433.5,454.5 435.1,429.1 445,412C446.8,394.5 473,372 462,363C460.9,359.1 451.1,363.9 450,360C443.9,360.8 433.9,363.3 429,367C428.6,379.6 419.7,392.7 418,408C414.5,420.3 411.4,438.1 411,456C408.4,462.7 419,459.6 417,463L417,465Z" stroke="#4a91a3" stroke-width="0.75" stroke-linecap="round" fill="#4a91a3" stroke-linejoin="round"/>
<path d="M0,0M411,463L417,463C419,459.6 408.4,462.7 411,456C408.8,454.4 408.8,462.8 411,463Z" stroke="#5292a3" stroke-width="0.75" stroke-linecap="round" fill="#5292a3" stroke-linejoin="round"/>
<path d="M0,0M339,460C340.2,450.6 342.3,425.4 337,415C338.2,417.5 337.1,423.5 336,426C342,430 337.4,450 339,460Z" stroke="#125c6a" stroke-width="0.75" stroke-linecap="round" fill="#125c6a" stroke-linejoin="round"/>
<path d="M0,0M982,441L984,441C985.2,432.8 979.8,431.2 981,423C977.8,424 980.3,416 979,417L976,420C977,417.4 976.4,412.4 975,414C976.4,422.6 979.4,429.6 981,438L982,441Z" stroke="#0f525c" stroke-width="0.75" stroke-linecap="round" fill="#0f525c" stroke-linejoin="round"/>
<path d="M0,0M1111,436L1113,436L1117,436C1119.3,429.3 1122.9,418.6 1122,406L1122,391L1122,388C1119.6,390.2 1113.7,391.8 1114,394C1113.8,408 1107.4,422.7 1111,436Z" stroke="#125b6a" stroke-width="0.75" stroke-linecap="round" fill="#125b6a" stroke-linejoin="round"/>
<path d="M0,0M976,420L979,417C991,394.3 973.2,363.8 958,352L957,352L955,351C955.3,358.8 950.5,362 946,366C959.1,376.9 973.8,389.8 975,414C978.2,413 975.7,421 976,420Z" stroke="#16697b" stroke-width="0.75" stroke-linecap="round" fill="#16697b" stroke-linejoin="round"/>
<path d="M0,0M1122,406C1126.4,405.4 1126.4,392.6 1122,391L1122,406Z" stroke="#77a4aa" stroke-width="0.75" stroke-linecap="round" fill="#77a4aa" stroke-linejoin="round"/>
<path d="M0,0M1111,394L1114,394C1113.7,391.8 1119.6,390.2 1122,388C1118.8,362.6 1112.4,338.9 1107,319C1098.5,299 1088.7,279.8 1078,261L1077,261L1074,258L1071,258L1069,256C1069.4,258 1071.1,263.3 1074,264C1086.7,283.8 1098.2,306.6 1105,330C1112.9,344.6 1108.6,357.2 1098,340C1096.1,333.2 1096.1,344.6 1098,348C1103.3,362.1 1115.7,375.6 1111,394Z" stroke="#093e3f" stroke-width="0.75" stroke-linecap="round" fill="#093e3f" stroke-linejoin="round"/>
<path d="M0,0M610,384C638.4,384.3 666.2,380.6 679,364C673.9,366 666.1,368.7 660,367C641.1,371.6 626.9,380.4 601,378C603.1,381.4 607.3,382.2 610,384Z" stroke="#77a3aa" stroke-width="0.75" stroke-linecap="round" fill="#77a3aa" stroke-linejoin="round"/>
<path d="M0,0M583,378L601,378C626.9,380.4 641.1,371.6 660,367L658,364C652,366 646.7,368.7 637,367C616.9,355.5 601,357.7 573,363C558.9,364.9 543,365 529,367C531.9,373 521.8,369.5 522,370C516.8,371.4 504.7,368.8 504,372L507,372L522,372L546,372C548.9,369.7 561.1,369.7 564,372C568.5,373.4 575.2,378.2 583,378Z" stroke="#2d8297" stroke-width="0.75" stroke-linecap="round" fill="#2d8297" stroke-linejoin="round"/>
<path d="M0,0M507,373L522,373L522,372L507,372L507,373Z" stroke="#619aa6" stroke-width="0.75" stroke-linecap="round" fill="#619aa6" stroke-linejoin="round"/>
<path d="M0,0M502,372L504,372C504.7,368.8 516.8,371.4 522,370L522,367C513.8,366.3 510.7,370.2 502,369L499,369L502,372Z" stroke="#1a7385" stroke-width="0.75" stroke-linecap="round" fill="#1a7385" stroke-linejoin="round"/>
<path d="M0,0M546,372L564,372C561.1,369.7 548.9,369.7 546,372Z" stroke="#6a9ea8" stroke-width="0.75" stroke-linecap="round" fill="#6a9ea8" stroke-linejoin="round"/>
<path d="M0,0M522,370C521.8,369.5 531.9,373 529,367L522,367L522,370Z" stroke="#217a90" stroke-width="0.75" stroke-linecap="round" fill="#217a90" stroke-linejoin="round"/>
<path d="M0,0M489,369L499,369L502,369C487.2,366 473.1,357.2 450,360C451.1,363.9 460.9,359.1 462,363C473.1,362.9 479.3,367.7 489,369Z" stroke="#052822" stroke-width="0.75" stroke-linecap="round" fill="#052822" stroke-linejoin="round"/>
<path d="M0,0M637,367C646.7,368.7 652,366 658,364C666.2,361.1 677.6,358.1 679,351C667.2,347.3 643.2,329.9 622,349C611.4,354.9 546,353.6 573,363C601,357.7 616.9,355.5 637,367Z" stroke="#0a4348" stroke-width="0.75" stroke-linecap="round" fill="#0a4348" stroke-linejoin="round"/>
<path d="M0,0M660,367C666.1,368.7 673.9,366 679,364C695.9,356.9 710.2,347.2 727,340C743.3,330.8 762.4,320.3 778,309C772.1,307.6 774.4,314.9 768,313C769.7,303 749.2,311.3 759,303C746.9,310.3 733.5,320.7 721,330C709.7,340.9 693,339.7 679,351C677.6,358.1 666.2,361.1 658,364L660,367Z" stroke="#1c768a" stroke-width="0.75" stroke-linecap="round" fill="#1c768a" stroke-linejoin="round"/>
<path d="M0,0M945,366L946,366C950.5,362 955.3,358.8 955,351L922,318C911.2,307.9 897.9,297.5 879,297L877,301C890.4,308 891,328 907,336C919.3,344.7 934.8,353.9 945,366Z" stroke="#1c768a" stroke-width="0.75" stroke-linecap="round" fill="#1c768a" stroke-linejoin="round"/>
<path d="M0,0M957,352L958,352C959.2,340.1 943.7,332.5 939,321C932.1,309.9 928.1,295.9 912,294C899.4,288.6 881.9,288.1 867,285C852.8,282 829.8,282.6 819,289C831.9,293.5 863,293.3 879,297C897.9,297.5 911.2,307.9 922,318L955,351L957,352Z" stroke="#0c4850" stroke-width="0.75" stroke-linecap="round" fill="#0c4850" stroke-linejoin="round"/>
<path d="M0,0M1095,333C1095.8,331.9 1102.5,331.1 1105,330C1098.2,306.6 1086.7,283.8 1074,264C1069.7,287.4 1095.6,308.3 1095,333Z" stroke="#0c4850" stroke-width="0.75" stroke-linecap="round" fill="#0c4850" stroke-linejoin="round"/>
<path d="M0,0M768,313C774.4,314.9 772.1,307.6 778,309C781.3,309.6 783.3,306.2 784,307C805.4,294.2 848.7,298.4 877,301L879,297C863,293.3 831.9,293.5 819,289C799.7,292.7 771.9,291.5 759,303C749.2,311.3 769.7,303 768,313Z" stroke="#166a7b" stroke-width="0.75" stroke-linecap="round" fill="#166a7b" stroke-linejoin="round"/>
<path d="M0,0M1077,261L1078,261C1079.5,260 1082.1,250 1077,249C1069.2,247.9 1074,254.4 1074,258L1077,261Z" stroke="#71a0a9" stroke-width="0.75" stroke-linecap="round" fill="#71a0a9" stroke-linejoin="round"/>
<path d="M0,0M1071,258L1074,258C1074,254.4 1069.2,247.9 1077,249C1074,236.8 1065,225.8 1054,219C1050,236.6 1062.8,239.3 1069,256L1071,258Z" stroke="#156576" stroke-width="0.75" stroke-linecap="round" fill="#156576" stroke-linejoin="round"/>
<path d="M0,0M411,217C414.7,215 425.1,207.1 424,202C421.2,207.3 412.8,210.4 409,213L411,217Z" stroke="#0d4c56" stroke-width="0.75" stroke-linecap="round" fill="#0d4c56" stroke-linejoin="round"/>
<path d="M0,0M406,213L409,213C412.8,210.4 421.2,207.3 424,202C424.9,198.3 416,197.6 418,189C411.2,190.7 408.2,202 402,207C401.4,208.5 405.9,210.5 406,213Z" stroke="#0d4c56" stroke-width="0.75" stroke-linecap="round" fill="#0d4c56" stroke-linejoin="round"/>
<path d="M0,0M1012,202L1021,193L1018,193C1013.7,189.9 1021.2,183.9 1023,184C1015.2,167.3 994.3,163.2 981,151C981.4,158.1 975.2,161.4 976,166C1000.7,171.9 1003,189.2 1012,202Z" stroke="#146475" stroke-width="0.75" stroke-linecap="round" fill="#146475" stroke-linejoin="round"/>
<path d="M0,0M1018,193L1021,193L1026,192C1026.3,190.8 1022.7,187.9 1023,184C1021.2,183.9 1013.7,189.9 1018,193Z" stroke="#277f93" stroke-width="0.75" stroke-linecap="round" fill="#277f93" stroke-linejoin="round"/>
<path d="M0,0M973,166L976,166C975.2,161.4 981.4,158.1 981,151C970.3,143.2 959.5,135 948,127C948.6,131.2 944.1,133.2 943,133C946.3,151.7 961,158 973,166Z" stroke="#105763" stroke-width="0.75" stroke-linecap="round" fill="#105763" stroke-linejoin="round"/>
<path d="M0,0M940,133L943,133C944.1,133.2 948.6,131.2 948,127C937.3,113.2 919.9,105.6 903,97C896.1,99.4 900.7,108.6 903,111C905.1,111.1 906.6,115.1 907,114C912.7,124.1 933.9,122.9 940,133Z" stroke="#16697b" stroke-width="0.75" stroke-linecap="round" fill="#16697b" stroke-linejoin="round"/>
<path d="M0,0M898,126C900.7,125.3 906.2,122.3 906,117C903.9,114.2 902.4,117.2 901,117L901,115C897.6,114.8 896.6,120.2 894,118C894.1,119.7 896.9,124 898,126Z" stroke="#125c6a" stroke-width="0.75" stroke-linecap="round" fill="#125c6a" stroke-linejoin="round"/>
<path d="M0,0M894,118C896.6,120.2 897.6,114.8 901,115L903,111C900.7,108.6 896.1,99.4 903,97C901.5,98.7 900.8,93.3 897,94L888,94C889,91.3 881,93.8 882,93C877.2,103.7 889.4,110.5 894,118Z" stroke="#5292a3" stroke-width="0.75" stroke-linecap="round" fill="#5292a3" stroke-linejoin="round"/>
<path d="M0,0M901,117C903.6,114.2 905.1,117.2 906,117L907,114C905.4,113.9 903.9,109.9 903,111L901,115L901,117Z" stroke="#13606f" stroke-width="0.75" stroke-linecap="round" fill="#13606f" stroke-linejoin="round"/>
<path d="M0,0M535,100C545.2,94.2 552.3,89.2 543,76C536.5,79.9 531.1,84.6 526,90C529.1,91.2 535.2,94.7 535,100Z" stroke="#125c6a" stroke-width="0.75" stroke-linecap="round" fill="#125c6a" stroke-linejoin="round"/>
<path d="M0,0M888,94L897,94C893.6,91.2 887.8,90 880,91L882,93C884.6,92.5 889.6,93.1 888,94Z" stroke="#5d97a5" stroke-width="0.75" stroke-linecap="round" fill="#5d97a5" stroke-linejoin="round"/>
<path d="M0,0M742,66C743.5,61.2 754.4,60.5 763,61L762,58L741,58L741,55L736,54L732,54C730.6,60.2 737.2,64.2 742,66Z" stroke="#196e80" stroke-width="0.75" stroke-linecap="round" fill="#196e80" stroke-linejoin="round"/>
<path d="M0,0M763,61C765.1,58.3 779.2,61.8 783,58L762,58L763,61Z" stroke="#125c6a" stroke-width="0.75" stroke-linecap="round" fill="#125c6a" stroke-linejoin="round"/>
<path d="M0,0M622,60C629.4,51.7 644.5,57.6 658,54C656.3,50.1 641.3,55.5 643,49C635.2,50.8 631.8,47.2 625,46C622.5,47.6 615.8,48.4 615,49L612,48C604.7,47.4 602.7,52.4 603,58C608.2,60.5 621.4,52.4 622,60Z" stroke="#156576" stroke-width="0.75" stroke-linecap="round" fill="#156576" stroke-linejoin="round"/>
<path d="M0,0M741,58L762,58L783,58L784,55L780,54C774.5,57.6 757.7,53.3 754,57L754,55C753.5,58.1 745.1,56.7 744,57L741,55L741,58Z" stroke="#217a8f" stroke-width="0.75" stroke-linecap="round" fill="#217a8f" stroke-linejoin="round"/>
<path d="M0,0M744,57C745.1,56.7 753.5,58.1 754,55L754,52L754,51C751.6,55.1 739.4,49.9 736,54L741,55L744,57Z" stroke="#78a4ab" stroke-width="0.75" stroke-linecap="round" fill="#78a4ab" stroke-linejoin="round"/>
<path d="M0,0M754,57C757.7,53.3 774.5,57.6 780,54C778.9,50.1 769.1,54.9 768,51C769.8,56.9 758,52.6 757,54L757,52L754,52L754,55L754,57Z" stroke="#72a1a9" stroke-width="0.75" stroke-linecap="round" fill="#72a1a9" stroke-linejoin="round"/>
<path d="M0,0M658,54C657.7,52.4 665.9,54 664,49L643,49C641.3,55.5 656.3,50.1 658,54Z" stroke="#277f93" stroke-width="0.75" stroke-linecap="round" fill="#277f93" stroke-linejoin="round"/>
<path d="M0,0M757,54C758,52.6 769.8,56.9 768,51L765,51C761.2,49.8 757.8,52.5 757,52L757,54Z" stroke="#91b0b4" stroke-width="0.75" stroke-linecap="round" fill="#91b0b4" stroke-linejoin="round"/>
<path d="M0,0M754,52L757,52C757.8,52.5 761.2,49.8 765,51C766.8,49.1 755,48.4 754,51L754,52Z" stroke="#d3dcdb" stroke-width="0.75" stroke-linecap="round" fill="#d3dcdb" stroke-linejoin="round"/>
<path d="M0,0M679,51C682.4,50.1 694.6,52.7 697,49L679,49L679,51Z" stroke="#217a90" stroke-width="0.75" stroke-linecap="round" fill="#217a90" stroke-linejoin="round"/>
<path d="M0,0M615,49C615.8,48.4 622.5,47.6 625,46C624.4,45 610.8,42.5 612,48L615,49Z" stroke="#acc1c2" stroke-width="0.75" stroke-linecap="round" fill="#acc1c2" stroke-linejoin="round"/>
<path d="M0,0M679,49L697,49L697,48L681,48L679,48L679,49Z" stroke="#5d97a5" stroke-width="0.75" stroke-linecap="round" fill="#5d97a5" stroke-linejoin="round"/>
<path d="M0,0M681,48L697,48L699,48L697,46L685,46L685,45C684.3,46 679.9,47 681,48Z" stroke="#9ab7b9" stroke-width="0.75" stroke-linecap="round" fill="#9ab7b9" stroke-linejoin="round"/>
<path d="M0,0M685,46L697,46C698.4,43.7 689.1,45.5 685,45L685,46Z" stroke="#000000" stroke-width="0.75" stroke-linecap="round" fill="#000000" stroke-linejoin="round"/>
</g>
<g id="layer1" opacity="0.8">
<path d="M0,0M294,1443C306.2,1428.2 308.1,1403.1 312,1380C301.2,1396.2 294.7,1416.7 294,1443M615,1440C635.8,1441.5 653.9,1437.7 672,1438L730,1438L789,1438L846,1438C866.8,1437 884.4,1441.2 903,1440C924.6,1442.6 930.5,1429.5 940,1420C949.8,1410.5 961.7,1400.5 969,1390C974.9,1377.4 977.7,1361.2 984,1348C987.2,1332.4 993,1316.4 994,1300C999.3,1286 1002,1266.9 1006,1254C1008.7,1236.9 1014.4,1220.7 1017,1206C1019.8,1189.8 1024.8,1175.8 1026,1158C1029.4,1142.1 1032.9,1123.7 1035,1108C1032.6,1091.9 1032.3,1073.2 1030,1056C1029.3,1039.3 1020.2,1022.8 1020,1011C1023.1,995.1 1031.7,984.7 1038,972C1044.7,959.5 1050.7,943.6 1054,930C1060.5,916.7 1063.1,897.4 1069,886C1072.3,870 1069.6,845.4 1074,832C1080.6,820.1 1091.7,812.1 1093,795C1093.1,775.3 1099.6,759.9 1102,745C1107.3,731.4 1111.2,716.2 1113,699C1116,676.7 1111,659.8 1098,655C1071.3,643.2 1086.6,659.2 1101,664C1113.1,672.9 1106.6,698.8 1105,712C1103,729 1096.8,741.9 1095,759C1089.7,772.9 1089.8,795 1084,807C1077.3,818.8 1067.5,828 1066,846C1067.4,866.2 1066.6,887.3 1059,897C1055.4,912.4 1050.5,926.5 1045,940C1041.2,955.5 1032,968.2 1027,981C1018.1,990.6 1013.6,1005.2 1012,1023C1015.1,1039.7 1012.7,1063.9 1015,1078C1016.6,1096.7 1019,1116.2 1020,1132C1022.6,1148.1 1015.6,1168.1 1014,1182C1008.6,1195.6 1005.7,1211.7 1002,1227C999.6,1243.9 991.5,1257.7 988,1272C986.6,1289.1 980.7,1302.2 975,1315C968.3,1329.5 964.9,1347.3 967,1360C965.6,1377.6 962.3,1393.3 949,1399C939.5,1408.8 929.5,1420.7 919,1428C911,1438.8 884.9,1434.6 868,1435C847.6,1436.9 829.1,1432.6 813,1435C792.6,1436.9 776.9,1433.6 757,1434C741.9,1436.6 719.5,1432 702,1434C685.9,1434.7 669.7,1435.2 649,1435C627.3,1438.4 612.8,1431 604,1422C591,1416.5 583.1,1405.4 579,1390C571.2,1379 566.2,1362.2 559,1351C554.4,1337.3 548.4,1321.4 540,1312C532.2,1301 526.6,1284.7 520,1273C514.7,1260.3 506.7,1249.3 501,1236C494.4,1223.3 490.2,1205.6 486,1192C483.6,1175.9 484.5,1156 481,1140C481,1122.8 477.8,1099.3 481,1084C469.6,1091.6 468,1109 468,1128C463.8,1145.2 469.8,1166.2 471,1180C474.6,1195.9 481.4,1208.1 486,1222C490.7,1237.1 499.2,1250.4 504,1263C510,1276 514.5,1290.5 520,1303C526.5,1316.8 533.7,1331.5 538,1344C545.6,1355.9 551.6,1368.9 558,1381C565.4,1393.4 569.7,1410.9 579,1419C589.2,1427.8 602.6,1433.4 615,1440M1108,1440C1121.7,1437.7 1081.7,1408 1074,1393C1044.1,1342.3 1040.8,1444.1 1051,1413C1052,1381.5 1085.8,1411.5 1092,1429C1097.5,1437.8 1078.2,1432.5 1072,1434C1028.5,1436.5 1097.2,1440.1 1108,1440M714,1320C734.1,1319.1 757.6,1321.6 775,1318C792.1,1314.8 812.4,1312.3 825,1306C840,1300.5 857.4,1296.9 868,1287C881.7,1279.9 897.6,1273 909,1266C924.6,1261.6 939.8,1237.8 915,1257C902.7,1265 887.6,1272.8 876,1279C862.4,1286.2 848,1294.6 834,1299C819.6,1304.9 800,1308.1 784,1311C767.4,1314.9 745.6,1314.1 724,1314C705.5,1312.7 688,1307.4 673,1303C659.1,1296.9 644.7,1290.3 628,1285C616.1,1277.6 600.8,1270.1 588,1264C570.7,1249.8 561.3,1250.7 582,1267C596.2,1273.6 611.6,1281 622,1288C638,1293.3 653.1,1301 666,1306C679.6,1313.2 699.1,1316.6 714,1320M736,1243C751.1,1243.5 778.1,1235.8 747,1237C727.7,1240 710,1238.5 736,1243M709,1200C732.8,1199.8 734.7,1193.4 708,1195C683.1,1189.4 688.4,1200.4 709,1200M687,1171C711.4,1173.1 704.3,1162.4 685,1165C656.4,1163.2 675.2,1170.1 687,1171M715,1168C723.1,1170.7 743,1166.2 730,1164C721.8,1163.3 703.4,1163.7 715,1168M486,1063C489.1,1045 469.7,1030.4 462,1017C451.5,1002.5 441.5,987.5 433,970C424.4,954.6 417.8,936.2 411,918C403.3,900.7 402,877 397,856C395.7,873.7 401.6,901.8 408,916C413.7,935.8 420,954.5 430,969C439.6,984.9 445.9,1003.6 457,1017C465.7,1033.8 481.8,1042.7 486,1063M490,1045C489.4,1034.8 477.6,1022.6 474,1012C474.8,1023.5 486,1036.2 490,1045M681,990C694.8,989.5 729.1,992 724,985C712.4,982.8 681.2,984.7 681,990M565,958C584.5,948.5 617.7,952.7 631,937C651.6,932.5 684.2,932.9 708,934C734.1,929.9 764.3,930.2 781,940C803.2,943.4 839.5,949.4 843,949C827.8,935.7 804.2,930.3 778,927C752.2,924.6 725.1,919.5 700,925C674.8,930.4 646.1,928 624,931C597.5,933.4 579.3,945.7 565,958M417,900C420.7,874.8 405.1,851.2 405,822C405.5,789.5 396.7,766.3 396,735C391.7,763.5 400.6,788.6 400,820C402.8,850.2 415.4,869.6 417,900M775,843C776.2,834.4 800,823.6 790,822C777.5,823.1 761.1,831.1 775,843M682,826C712.8,821.8 671.2,817.8 670,805C663.8,796.1 642,785.2 630,796C611.8,814.2 626.4,803.1 637,813C654.6,815.2 671.7,820 682,826M700,822C724,822.8 729.8,813.1 753,811C762.4,799.1 805.8,815.3 789,801C780.2,791.4 752.1,784.5 741,798C732.6,810.9 716.4,818.5 700,822M589,811C584.7,779.6 617.4,767.3 613,750C604.8,768.3 575.9,786.1 589,811M597,807C600.6,800.4 601.5,784.5 603,780C598.3,785.9 592.4,796.5 597,807M1050,798C1050.8,790.4 1054.2,775.6 1051,771C1049.8,778.2 1046.3,792.2 1050,798M823,790C820.6,766.6 800.9,750.1 790,732C795.1,754.2 815.2,770.2 823,790M376,724C373.6,707.4 374.6,676.8 376,655C371.3,632.4 379.5,608.7 378,586C377.8,561.3 377.3,535.8 388,522C399.9,509 401.4,482.5 399,462C399,420.4 391.7,476.2 393,492C388.4,511.8 370.8,520.9 369,541C365.3,572.9 352.5,521.6 352,510C346.5,497.1 340.6,461.3 348,450C352,418.2 363.1,416.3 364,451C366.1,469.2 367.2,515.6 381,484C388.8,469.5 390.3,438.3 400,435C415.3,425.5 410.7,394.2 418,379C422.2,360 444.5,350.3 466,361C484.4,367.8 505.7,375.6 526,369C547.5,365 570.6,363.1 594,361C616.1,359.2 627.5,344 648,342C647,332.2 577.7,345.2 618,333C640.9,333.4 664.3,333 678,322C708.9,308.5 673.8,342.4 669,349C668.4,362.9 608.1,359.8 636,369C662.5,370.5 676.1,359.1 687,345C725.8,329.7 658.3,371.9 691,357C704.4,344.9 717.9,333.4 732,322C748,314.1 755.9,295.4 777,294C800.2,292.2 823.5,290.5 849,291C832.3,277.6 882.8,288.3 892,291C918.9,286.8 938.8,300.9 933,319C943.4,333.5 956.2,347.4 966,360C988,367.7 976.6,393 979,415C984,435.4 980.1,466 1005,463C1018,475.5 1036.8,481.7 1042,501C1045.7,522.1 1051.2,543.3 1053,564C1055.9,586.1 1059.1,607.9 1062,630C1062.2,652.9 1071.4,673.7 1078,684C1077.1,662.2 1075.1,638.3 1089,625C1092.8,605 1096.3,581.8 1098,561C1101.4,539.5 1103.7,516.7 1108,496C1110.2,473.9 1113.5,450.5 1119,433C1125.8,414.7 1126.6,388.8 1120,369C1114.3,350.9 1111,327.5 1105,310C1097.1,293.9 1086.7,279.3 1080,261C1080.7,235.9 1063,227 1051,216C1042.6,199.9 1022.7,194.8 1017,175C1003.4,164.7 985.6,155.9 973,145C953.5,140.5 951,118 933,111C915.1,104.5 900.5,92.5 880,90C864.7,80.8 847.9,72.6 825,70C813.5,57.6 792.3,52.2 769,52C746.4,62.1 725.9,49.5 705,48C681.1,41.6 660.1,55.4 639,49C613,31.9 606.1,60.8 588,64C563,57.7 545.3,71.6 535,82C528.4,100.4 497,94 490,112C475.1,121.4 469.9,142.9 456,151C440.4,160.9 429.5,175 418,189C407.1,202 390.3,211.8 387,231C379.7,248.7 372.9,266.9 364,283C359.6,302.9 354.2,324.2 349,342C343.8,361.3 341.4,383.9 337,405C335.3,427.2 336,454.5 336,477C339.1,498.9 344.5,518.5 349,538C352.9,559.4 358.7,580.4 364,597C363.9,622.6 371.2,640.3 370,666C362.2,685.3 366.3,713.1 376,724M387,687C388.5,656.6 389.3,614.3 387,589C384.3,623.2 384.1,655.9 387,687M540,678C559.2,671.8 484.7,666.3 513,639C529.7,638.6 543.3,682.2 573,660C584.4,625.5 599.8,631.5 618,654C585.8,649.9 556.9,689.6 601,666C644.5,663.6 609.6,627.2 589,624C579.2,605.9 540,610.2 513,616C493.2,616.4 446.2,640.4 475,651C508,651.2 506,676 540,678M877,658C894.9,655.4 916,646.7 915,631C906.5,640.2 890.1,652 877,658M850,657C848.7,646.6 815.7,634.5 792,643C782.1,654.1 838.7,647.4 850,657M564,652C555.4,654.1 554.7,647.8 550,645C537.8,616.3 561.7,623.5 558,648C560,654.7 569.2,645.5 562,643C559.5,599.1 581.8,646.9 564,652M858,648C890.5,655.1 891.7,617.4 907,616C921.8,641.2 929.8,640.8 952,622C963.6,605.6 920.4,588.7 915,597C932.2,597.7 967,636.4 931,613C921.7,594.3 888.3,598.7 865,592C862.6,590.4 846,589.4 847,594C875,601.6 822.5,603.9 822,612C808.9,623.1 777.5,653 816,630C834.5,596.2 840.8,642.1 858,648M864,637C851.8,636.7 847.2,606.6 859,604C862.8,598.7 850.4,635.8 864,637M870,633C863.4,629 868.9,606 870,607C879.6,610.3 872.6,631.4 870,633M1075,628C1063.8,616.6 1066.3,581.7 1068,562C1064,543.3 1084.1,511.5 1081,519C1088.4,558.1 1089.4,539.7 1092,508C1094.2,492.1 1084.7,465.8 1092,445C1094,441.4 1096.8,434.6 1096,430C1097,395.1 1083.8,449.9 1081,412C1061.1,399.9 1077.4,371.8 1080,366C1061.3,354.2 1028.1,378.7 1060,355C1082.3,373 1065.3,330.6 1053,327C1045.1,315.6 1041.4,263.8 1057,294C1059.9,297.7 1067.7,299.5 1068,303C1076.3,336.9 1077.2,292.8 1083,316C1093.2,328.8 1091.3,362.3 1099,369C1099.5,350.1 1095.7,324 1087,309C1079.5,292.1 1066.5,280 1057,264C1043.5,226.7 1059.2,313.8 1047,262C1044.7,239.8 1034.4,225.1 1011,223C963.6,210.3 1054.1,225.9 1008,211C1001.3,212.1 997.7,206.1 994,205C976,187.9 986.9,189.8 994,196C985,201.7 1046.5,220.7 1015,202C997,193.2 992.6,181.2 964,181C945.2,154.3 958,158.5 973,178C1017.1,189.1 992,172 973,165C963.2,163.6 926.3,135.2 951,142C968,150.5 981.7,161.8 997,171C1008.9,184.6 1017.7,200.8 1033,210C1044.6,224.3 1064.1,232.4 1072,247C1073.1,257.4 1067.1,242.9 1066,243C1049.3,225 1066.3,262.1 1069,265C1078.6,281.4 1088.8,296.2 1096,313C1101.3,333.7 1107.6,352.4 1111,373C1118,392.4 1117.4,420.5 1110,438C1103.5,456.5 1104.7,482.7 1098,501C1093.7,521.7 1093.2,546.2 1089,567C1085.9,588.9 1086.3,614.3 1075,628M790,618C806.3,614.8 815.3,604.8 828,598C811.4,600.9 799.3,607.8 790,618M583,600C633.6,602.2 588.2,586 574,583C561.1,575 614.3,585.4 619,591C638.4,614.1 625.9,558.5 600,573C582.3,568.1 553,561.9 534,568C515.2,581.7 490.7,569.9 474,573C437.1,589.2 462.7,586.5 474,583C447.7,594.3 507.8,593.1 517,592C537.4,592.4 563.8,597 583,600M783,589C814.1,590.2 838.2,581.8 859,574C883.6,569.3 916.8,567.2 940,567C977.9,596 960.4,549.6 934,550C930.4,546.6 925.3,543.7 919,541C887,526.7 903.6,544.3 919,552C914.3,572.1 842,550.4 900,552C899.1,541.3 846.1,551.2 831,553C805.7,558.6 784.5,569.8 757,571C751.8,571.7 741.5,576.5 748,580C753.1,579.1 758.5,578.5 765,579C739.7,584.5 779.9,584 783,589M1060,532C1058,510 1044.2,466.4 1063,475C1067.2,482.1 1065.4,491.3 1062,480C1062.1,496.2 1066.2,515.6 1060,532M1092,508C1101.7,492.2 1094.9,459.4 1104,442C1111.2,427.7 1117.5,396.4 1108,378C1109.5,398.5 1095.1,403.7 1099,438C1093.2,457.7 1097.1,487.6 1092,508M1005,454C985.5,459.3 988,433.7 990,423C992.7,434.8 1009.2,442.4 1005,454M1042,451C1025.5,446 1036.4,429.5 1041,424C1047.9,421.3 1046.1,441 1048,429C1051.8,399.6 1054.5,454.3 1042,451M1018,423C1004.7,414.2 996,398.4 1020,412C1047.2,400.2 1019.7,418.6 1018,423M1050,420C1032.4,422.9 1035.4,398.5 1044,400C1062.3,401.5 1059.3,414 1050,420M349,393C351.7,371.6 357.6,344 361,322C366.4,299 375.5,277.6 384,259C390.9,238 397.9,214.5 414,204C433.1,194.7 444.8,175.9 459,163C477.6,153.7 481,126.6 499,118C520.2,110.7 533.2,93.3 547,81C565.5,62.7 598.7,90.1 610,67C608.2,61.1 622.6,57.1 615,63C596.1,84.8 635.2,67.4 649,70C653.5,67.5 667.3,67.4 657,64C633,65.1 677.7,56.5 688,57C721,51 728.3,79.5 756,72C779.2,61.8 811.7,69.1 813,91C822.1,93.7 815,105.6 810,99C790.6,83.9 813.9,117.4 787,97C779.4,92 776.3,99.2 775,96C782.3,70 781.7,68.3 769,90C762.5,128.8 757.3,74.3 729,87C738.9,93.1 719.7,91.4 717,91C687,72.8 712.2,103.9 697,105C712.5,123.1 664.6,111.3 660,100C667.6,70.6 614.9,66.6 622,91C598.1,112.6 634,52.9 607,87C583.2,75.6 543.5,113.3 558,90C565.7,67.3 532.8,109.1 523,111C518.2,112.4 505.4,115.4 517,115C546.5,108.1 517.8,144.2 520,145C518.2,150.3 506.9,149.5 504,151C512.3,143 493.6,131.8 481,150C468.9,165.8 444,171.5 438,192C431.8,199.8 394.6,230.5 412,223C431,213.6 436.8,188.9 454,180C470.8,145.9 488.7,196.9 481,193C455.7,161.6 482.1,203 472,219C457,202.2 430.5,204.5 424,220C420.7,223.6 413.3,230.2 421,231C456.5,236.6 429.1,231.5 418,240C417.6,243.9 409.8,298.8 396,279C374.9,267.6 371.7,310 366,325C361.3,348.8 355.4,370.9 349,393M610,378C628.1,375.6 598.9,369.4 589,372C567.9,379 605.5,375 610,378M373,339C364.5,333.2 387.2,307.6 381,321C403,323.9 369.5,327.1 373,339M811,277C792,279.5 799.7,272.2 813,273C833.5,271.9 823,276.4 811,277M595,270C592.8,264.5 599.8,249.2 604,253C612.7,262.2 602.1,269.4 595,270M387,268C392.3,260.8 395.8,251.3 399,241C393.6,249.1 388,256.5 387,268M1023,259C1007.4,256.7 1020.9,236.2 1024,231C1025.2,230.1 1035.3,256.6 1023,259M973,219C975.3,216.1 970.1,183.4 976,198C981.1,217.7 978.1,204.4 973,219M529,207C521.6,203.2 521.5,184.5 529,189C542.5,186.9 517.7,201.4 529,207M454,195C461.1,195.4 474,195.2 471,190C468.1,193.8 450.6,189.4 454,195M528,184C527.4,179.7 532.6,163.3 537,163C540.2,173 531.7,175.3 528,184M571,174C570.1,171.9 567.5,157.3 573,157C576.5,161.6 573.8,171.1 571,174M837,166C833.8,164.2 827.2,158 834,154C838.1,151.4 838.2,164 837,166M531,160C525.7,161.7 523.2,139.4 526,150C530.2,155.5 542.6,155.8 531,160M763,159C755.8,160.4 745.2,148.4 754,150C764.1,149 776,154 763,159M921,156C917.7,138.3 903.9,122.5 889,112C862.2,80.3 908.2,109.5 921,114C955.1,144.4 918.7,121.7 909,117C921.4,138.9 950,137.1 921,156M853,133C845.7,131.3 842.1,124.9 841,115C845.9,121.1 850.1,126.9 853,133M850,109C817.9,106.1 856,84.9 828,91C803.7,86.2 807.3,67.7 823,88C842.9,93.6 857.8,77.7 865,96C876.5,115.7 851,100.7 850,109M615,102C605.8,93.9 588.4,98.1 579,96C590.7,92.3 611.5,89.8 615,102Z" fill="#2c0515"/>
</g>
</svg>
