<?xml version='1.0' encoding='utf-8'?>
<!-- Generator: imaengine 6.0   -->
<svg viewBox="0,0,1440,1443" xmlns:xlink="http://www.w3.org/1999/xlink" xmlns="http://www.w3.org/2000/svg" width="1440" height="1443" version="1.1">
<defs/>
<g id="layer0">
<path d="M0,0M0,1443L61,1443L123,1443L184,1443L244,1443L306,1443L366,1443L427,1443L487,1443L489,1438L478,1438C461.2,1441.2 439.3,1439.3 420,1440L360,1440L300,1440L241,1440L181,1440L121,1440L61,1440L3,1440L0,1440L0,1443Z" stroke="#8aadb2" stroke-width="0.75" stroke-linecap="round" fill="#8aadb2" stroke-linejoin="round"/>
<path d="M0,0M487,1443L496,1443C513.9,1447.1 509.2,1411.7 501,1399C499.7,1415.2 501.1,1433.6 489,1438L487,1443Z" stroke="#a0babc" stroke-width="0.75" stroke-linecap="round" fill="#a0babc" stroke-linejoin="round"/>
<path d="M0,0M496,1443L562,1443L627,1443L624,1440L609,1440C590.6,1439.1 594.3,1413.5 586,1404C579.1,1392.4 574.7,1377.8 568,1365C559.2,1345.3 550.7,1324.8 543,1303C543.8,1299.6 540.1,1296.7 541,1294C532.4,1270.1 526,1241.2 522,1213C518.6,1197.9 516.2,1181.3 514,1164C512.5,1151 510.8,1137.7 511,1122L510,1122L510,1119C501.9,1140.9 499.1,1168.1 486,1185L484,1188C486.5,1196.5 485.2,1199.3 484,1206C489.2,1203.2 489.2,1217.8 484,1215C481.4,1231.2 480.1,1251.8 477,1266C474.7,1282.7 471.4,1298.4 469,1315C471.1,1333.2 480.6,1345.6 484,1359C490.8,1371.7 497.1,1384.4 501,1399C509.2,1411.7 513.9,1447.1 496,1443Z" stroke="#dde3e0" stroke-width="0.75" stroke-linecap="round" fill="#dde3e0" stroke-linejoin="round"/>
<path d="M0,0M627,1443L715,1443L802,1443C816.5,1438.8 841.3,1442.6 840,1425C846.2,1413.2 852.5,1401.5 858,1389C864.9,1377.9 870.9,1365.9 877,1354C883.1,1342.1 890.9,1331.9 897,1320C881.2,1316.5 873.5,1302.3 870,1288C867,1272.2 862.3,1255 849,1251C827.8,1249.1 814,1257.1 801,1261C787.4,1267.2 773.5,1275.2 763,1282C751.7,1290 738.7,1298.9 724,1302C708.9,1307.2 686.7,1304 672,1302C653.5,1296.6 633.7,1303.5 627,1312C618.2,1322.7 606.8,1330.3 600,1342C606.7,1358.8 614.6,1373.9 619,1392C621.5,1404 641.4,1433.2 624,1440L627,1443Z" stroke="#c0cece" stroke-width="0.75" stroke-linecap="round" fill="#c0cece" stroke-linejoin="round"/>
<path d="M0,0M802,1443L889,1443L975,1443C974.9,1440.3 977.2,1436.6 978,1437C980.1,1420.9 987.8,1407.6 990,1393C995.9,1381.1 999.1,1363.4 1003,1351C1008.2,1338 1014.2,1323 1017,1309C1021.9,1296.5 1026.5,1282.9 1030,1269C1035.2,1255.5 1041.2,1240.5 1044,1227C1049.6,1214.3 1052.8,1196.6 1056,1183C1059.4,1171.5 1064.5,1145.6 1056,1137C1048.8,1128.5 1051,1101.3 1059,1095C1056.8,1079 1049.2,1065.6 1036,1062C1037.2,1070.7 1034.4,1075.9 1033,1083C1033,1087.7 1031,1094.2 1027,1093C1029.8,1101.8 1022.9,1111.7 1020,1119C1015.7,1133 1007.2,1145.4 1000,1155C993.8,1166.3 987.4,1177.9 979,1188C972.8,1199.3 966.4,1210.9 958,1221C952.2,1232.7 944.3,1242.8 937,1254C930.8,1265.3 923.6,1276.1 916,1287C909.6,1297.3 902.7,1310.4 897,1320C890.9,1331.9 883.1,1342.1 877,1354C870.9,1365.9 864.9,1377.9 858,1389C852.5,1401.5 846.2,1413.2 840,1425C841.3,1442.6 816.5,1438.8 802,1443Z" stroke="#e1e5e5" stroke-width="0.75" stroke-linecap="round" fill="#e1e5e5" stroke-linejoin="round"/>
<path d="M0,0M975,1443L1033,1443L1090,1443L1147,1443L1204,1443L1263,1443L1320,1443L1377,1443L1434,1443L1434,1440L1428,1440C1429,1436.8 1421,1439.3 1422,1438C1406.4,1441.2 1383.6,1439.3 1368,1440L1314,1440L1260,1440L1206,1440L1150,1440L1096,1440L1042,1440L988,1440L988,1438C985.2,1438.2 976.8,1439.6 978,1437C977.2,1436.6 974.9,1440.3 975,1443Z" stroke="#91b0b4" stroke-width="0.75" stroke-linecap="round" fill="#91b0b4" stroke-linejoin="round"/>
<path d="M0,0M1434,1443L1440,1443L1440,1438L1435,1440L1434,1440L1434,1443Z" stroke="#c0cecd" stroke-width="0.75" stroke-linecap="round" fill="#c0cecd" stroke-linejoin="round"/>
<path d="M0,0M0,1440L3,1440L4,1438C1.4,1424.1 7.4,1407.3 3,1392L0,1392L0,1440Z" stroke="#0c4850" stroke-width="0.75" stroke-linecap="round" fill="#0c4850" stroke-linejoin="round"/>
<path d="M0,0M3,1440L61,1440L121,1440L181,1440L241,1440L300,1440L360,1440L420,1440C439.3,1439.3 461.2,1441.2 478,1438L418,1438L360,1438L300,1438L241,1438L181,1438L123,1438L63,1438L4,1438L3,1440Z" stroke="#156576" stroke-width="0.75" stroke-linecap="round" fill="#156576" stroke-linejoin="round"/>
<path d="M0,0M609,1440L624,1440C641.4,1433.2 621.5,1404 619,1392C614.6,1373.9 606.7,1358.8 600,1342L598,1342C596.3,1333.7 592.1,1326.9 589,1318C603,1343.7 606.1,1366.3 570,1366L568,1365C574.7,1377.8 579.1,1392.4 586,1404C594.3,1413.5 590.6,1439.1 609,1440Z" stroke="#9bb7b9" stroke-width="0.75" stroke-linecap="round" fill="#9bb7b9" stroke-linejoin="round"/>
<path d="M0,0M988,1440L1042,1440L1096,1440L1150,1440L1206,1440L1260,1440L1314,1440L1368,1440C1383.6,1439.3 1406.4,1441.2 1422,1438L1366,1438L1312,1438L1258,1438L1204,1438L1150,1438L1096,1438L1042,1438L988,1438L988,1440Z" stroke="#16697b" stroke-width="0.75" stroke-linecap="round" fill="#16697b" stroke-linejoin="round"/>
<path d="M0,0M1428,1440L1434,1440L1435,1440C1435.7,1430.5 1437.4,1432.4 1435,1425C1436.4,1418.9 1433.8,1409.3 1437,1405C1434.7,1398.4 1438.9,1393.6 1434,1387C1423.2,1377 1407.3,1369.1 1395,1362C1382.3,1353.4 1366.8,1345.1 1353,1339C1339.8,1331.4 1323,1324.4 1311,1317C1294.6,1312.1 1281.3,1301.6 1266,1297C1252.2,1290 1236.7,1281.7 1224,1275C1208.9,1268.8 1196,1257.9 1186,1248C1173.3,1239.9 1162.4,1227 1153,1216C1143,1206 1132.5,1195.5 1122,1185L1120,1185C1118.3,1181.2 1112.8,1180.7 1113,1174C1101.6,1163.5 1094.4,1146 1086,1134C1078.1,1119.9 1071.5,1104.5 1059,1095C1051,1101.3 1048.8,1128.5 1056,1137C1064.5,1145.6 1059.4,1171.5 1056,1183C1052.8,1196.6 1049.6,1214.3 1044,1227C1041.2,1240.5 1035.2,1255.5 1030,1269C1026.5,1282.9 1021.9,1296.5 1017,1309C1014.2,1323 1008.2,1338 1003,1351C999.1,1363.4 995.9,1381.1 990,1393C987.8,1407.6 980.1,1420.9 978,1437C976.8,1439.6 985.2,1438.2 988,1438L1042,1438L1096,1438L1150,1438L1204,1438L1258,1438L1312,1438L1366,1438L1422,1438C1424.6,1438 1429.6,1438.6 1428,1440Z" stroke="#010b01" stroke-width="0.75" stroke-linecap="round" fill="#010b01" stroke-linejoin="round"/>
<path d="M0,0M1435,1440L1440,1438L1440,1389L1438,1389L1434,1387C1438.9,1393.6 1434.7,1398.4 1437,1405C1436.1,1411.6 1438.7,1421.2 1435,1425C1437.4,1432.4 1435.7,1430.5 1435,1440Z" stroke="#a0babc" stroke-width="0.75" stroke-linecap="round" fill="#a0babc" stroke-linejoin="round"/>
<path d="M0,0M4,1438L63,1438L123,1438L181,1438L241,1438L300,1438L360,1438L418,1438L478,1438L489,1438C501.1,1433.6 499.7,1415.2 501,1399C497.1,1384.4 490.8,1371.7 484,1359C480.6,1345.6 471.1,1333.2 469,1315C471.4,1298.4 474.7,1282.7 477,1266C480.1,1251.8 481.4,1231.2 484,1215L484,1206C485.2,1199.3 486.5,1196.5 484,1188C465.9,1198.4 452,1213.5 433,1224C415.3,1234.2 396.5,1245.9 378,1254C359.2,1263.6 335.4,1270.3 316,1278C294.4,1284.4 273,1293.4 253,1300C232.8,1308.3 211.6,1317.5 193,1326C173,1334 152.6,1344 133,1351C114.3,1360.8 88.5,1365.4 67,1371C47.5,1379.4 26.5,1388.9 3,1392C7.4,1407.3 1.4,1424.1 4,1438Z" stroke="#010a01" stroke-width="0.75" stroke-linecap="round" fill="#010a01" stroke-linejoin="round"/>
<path d="M0,0M1435,1425C1438.7,1421.2 1436.1,1411.6 1437,1405C1433.8,1409.3 1436.4,1418.9 1435,1425Z" stroke="#1b758a" stroke-width="0.75" stroke-linecap="round" fill="#1b758a" stroke-linejoin="round"/>
<path d="M0,0M0,1392L3,1392C26.5,1388.9 47.5,1379.4 67,1371C88.5,1365.4 114.3,1360.8 133,1351C152.6,1344 173,1334 193,1326C211.6,1317.5 232.8,1308.3 253,1300C273,1293.4 294.4,1284.4 316,1278C335.4,1270.3 359.2,1263.6 378,1254C396.5,1245.9 415.3,1234.2 433,1224C452,1213.5 465.9,1198.4 484,1188L486,1185C465.8,1193.8 451.6,1208.6 433,1219C415.9,1230.9 397,1241 378,1251C358.7,1260.7 334.3,1265.3 315,1275C292.6,1281 272,1291 252,1297C231.2,1305.7 210.6,1314.1 190,1323C169.8,1331.3 150.7,1341.2 130,1350C110.3,1358.8 89.9,1361.7 66,1369C45.2,1377.2 24,1386.4 0,1389L0,1392Z" stroke="#f6f8f7" stroke-width="0.75" stroke-linecap="round" fill="#f6f8f7" stroke-linejoin="round"/>
<path d="M0,0M570,1366C606.1,1366.3 603,1343.7 589,1318C583.9,1301.3 593.9,1288.1 598,1276L595,1276C589.8,1267.6 565,1267.3 558,1272L558,1293C561.3,1292.6 559.1,1301.5 558,1299C553.7,1300.8 545.2,1301.9 543,1303C550.7,1324.8 559.2,1345.3 568,1365L570,1366Z" stroke="#8aadb2" stroke-width="0.75" stroke-linecap="round" fill="#8aadb2" stroke-linejoin="round"/>
<path d="M0,0M598,1342L600,1342C606.8,1330.3 618.2,1322.7 627,1312C633.7,1303.5 653.5,1296.6 672,1302C686.7,1304 708.9,1307.2 724,1302C738.7,1298.9 751.7,1290 763,1282C773.5,1275.2 787.4,1267.2 801,1261C814,1257.1 827.8,1249.1 849,1251C862.3,1255 867,1272.2 870,1288C873.5,1302.3 881.2,1316.5 897,1320C902.7,1310.4 909.6,1297.3 916,1287C923.6,1276.1 930.8,1265.3 937,1254C944.3,1242.8 952.2,1232.7 958,1221C966.4,1210.9 972.8,1199.3 979,1188C959.7,1178.4 962.3,1144.3 939,1140C912.1,1130.6 891.6,1150.6 874,1158C855.6,1168.5 836.3,1180.6 819,1191C802.1,1203.9 772.4,1202.6 762,1218C752.5,1222.1 729.4,1221.9 724,1234C718.1,1240.8 704.3,1251.1 691,1255C678.5,1261.5 664.9,1266.9 649,1270C631.3,1271.3 608.8,1267.8 598,1276C593.9,1288.1 583.9,1301.3 589,1318C592.1,1326.9 596.3,1333.7 598,1342Z" stroke="#b0c4c5" stroke-width="0.75" stroke-linecap="round" fill="#b0c4c5" stroke-linejoin="round"/>
<path d="M0,0M543,1303C545.2,1301.9 553.7,1300.8 558,1299L556,1299C555.1,1298.3 554.5,1293.3 555,1293L555,1291C549.9,1291.6 545.4,1295.6 541,1294C540.1,1296.7 543.8,1299.6 543,1303Z" stroke="#4a91a2" stroke-width="0.75" stroke-linecap="round" fill="#4a91a2" stroke-linejoin="round"/>
<path d="M0,0M556,1299L558,1299C559.1,1301.5 561.3,1292.6 558,1293L555,1293C553.7,1296.5 557.1,1298.5 556,1299Z" stroke="#438da0" stroke-width="0.75" stroke-linecap="round" fill="#438da0" stroke-linejoin="round"/>
<path d="M0,0M541,1294C545.4,1295.6 549.9,1291.6 555,1291C552.6,1275.6 548.1,1259.2 546,1245C544.4,1228.6 537.5,1217.5 535,1201C532.1,1209.1 533.8,1215.6 522,1213C526,1241.2 532.4,1270.1 541,1294Z" stroke="#196e80" stroke-width="0.75" stroke-linecap="round" fill="#196e80" stroke-linejoin="round"/>
<path d="M0,0M555,1293L558,1293L558,1272C554.8,1269.1 557.4,1256.9 556,1254L555,1254C535.2,1230 572.8,1222.1 598,1225C614.8,1234.2 636.8,1234.1 667,1233C688.1,1234.8 703.3,1219.4 717,1222C729.1,1220.5 740.3,1199 757,1206C771.9,1198.4 784.5,1189 796,1179C810,1171.2 822.4,1159.8 834,1152C830.4,1142.1 821.6,1127.8 811,1131C800.4,1138.9 789.8,1147.3 775,1152C763.6,1158.4 749.2,1164.9 736,1168C738.5,1166.9 736,1162.7 739,1159C728.3,1167.3 714.7,1172.7 699,1176C685,1179.6 668.9,1187.1 655,1186C644,1180.7 623.5,1181.3 613,1176L610,1176C597.9,1172.6 589,1165.5 582,1156L579,1156C567.4,1150.7 559.6,1140.1 552,1126C581,1153.1 536.2,1158.3 529,1177C531.4,1185.6 532.1,1194.9 535,1201C537.5,1217.5 544.4,1228.6 546,1245C548.1,1259.2 552.6,1275.6 555,1291L555,1293Z" stroke="#438ca0" stroke-width="0.75" stroke-linecap="round" fill="#438ca0" stroke-linejoin="round"/>
<path d="M0,0M595,1276L598,1276C608.8,1267.8 631.3,1271.3 649,1270C664.9,1266.9 678.5,1261.5 691,1255C704.3,1251.1 718.1,1240.8 724,1234C729.4,1221.9 752.5,1222.1 762,1218C760.3,1211.2 760,1207.2 757,1206C740.3,1199 729.1,1220.5 717,1222C703.3,1219.4 688.1,1234.8 667,1233C665.7,1247.6 626.1,1236.5 610,1237C592.1,1242.7 551.4,1231.8 556,1254C557.4,1256.9 554.8,1269.1 558,1272C565,1267.3 589.8,1267.6 595,1276Z" stroke="#71a0a9" stroke-width="0.75" stroke-linecap="round" fill="#71a0a9" stroke-linejoin="round"/>
<path d="M0,0M555,1254L556,1254C551.4,1231.8 592.1,1242.7 610,1237C626.1,1236.5 665.7,1247.6 667,1233C636.8,1234.1 614.8,1234.2 598,1225C572.8,1222.1 535.2,1230 555,1254Z" stroke="#5d97a4" stroke-width="0.75" stroke-linecap="round" fill="#5d97a4" stroke-linejoin="round"/>
<path d="M0,0M933,1252C936.3,1250 943.2,1243.6 934,1242C930.1,1245.5 926.2,1249 933,1252Z" stroke="#9bb7b9" stroke-width="0.75" stroke-linecap="round" fill="#9bb7b9" stroke-linejoin="round"/>
<path d="M0,0M762,1218C772.4,1202.6 802.1,1203.9 819,1191C836.3,1180.6 855.6,1168.5 874,1158C891.6,1150.6 912.1,1130.6 939,1140C962.3,1144.3 959.7,1178.4 979,1188C987.4,1177.9 993.8,1166.3 1000,1155C1007.2,1145.4 1015.7,1133 1020,1119L1018,1119C999.4,1119.4 1005.2,1092.3 1006,1078C992,1070.2 949.4,1052.6 936,1074C917.5,1086.9 903.8,1106.6 886,1119C869.1,1114.7 851.9,1144.9 834,1152C822.4,1159.8 810,1171.2 796,1179C784.5,1189 771.9,1198.4 757,1206C760,1207.2 760.3,1211.2 762,1218Z" stroke="#a0babc" stroke-width="0.75" stroke-linecap="round" fill="#a0babc" stroke-linejoin="round"/>
<path d="M0,0M484,1215C489.2,1217.8 489.2,1203.2 484,1206L484,1215Z" stroke="#d3dcdb" stroke-width="0.75" stroke-linecap="round" fill="#d3dcdb" stroke-linejoin="round"/>
<path d="M0,0M522,1213C533.8,1215.6 532.1,1209.1 535,1201C532.1,1194.9 531.4,1185.6 529,1177L528,1177C524.4,1174.2 523.6,1151.2 517,1164L514,1164C516.2,1181.3 518.6,1197.9 522,1213Z" stroke="#0c4950" stroke-width="0.75" stroke-linecap="round" fill="#0c4950" stroke-linejoin="round"/>
<path d="M0,0M655,1186C668.9,1187.1 685,1179.6 699,1176C714.7,1172.7 728.3,1167.3 739,1159C748.7,1143.4 761.6,1128.6 772,1116C778.8,1096 816.9,1112.3 825,1119C836.5,1109.5 846.6,1098.6 855,1086C868.6,1078.6 879.4,1068.4 886,1054C899.2,1046.2 897.5,1023.5 903,1008C910.2,994.2 918.3,981.3 925,967C920.9,938.7 928.9,914.8 931,889C931.6,860.6 948.2,848.2 946,817C948.8,800.8 952.4,785.4 954,768C955.9,746.9 955.1,723.1 963,708C968,690.7 970.8,668.7 973,651C974,629.2 976.4,606.9 981,591C985.1,572.8 996.7,559.6 1002,544L1000,540C995.8,531.7 991.4,523.1 985,516L984,517C986,513.4 979,514.8 981,513L979,513C970,504 961.5,488.7 966,469C969.7,453.2 961.9,425.4 975,418C976.2,406.2 969.7,398.3 970,388L967,388L967,385L961,385C952.1,383.9 942.2,382.8 931,382C929,385.2 918.6,383.2 918,385C906.7,382.6 890.3,381.9 879,381C899.4,379.9 889.4,411.8 898,420C903.9,433.9 907.2,452.5 909,468C908.3,486.5 904.9,505.1 898,516C893.6,530.1 884,539.5 876,550C876.6,555.9 886.2,552.3 886,558C899.3,565.2 911,594.2 876,588C863,586 851.2,582.8 838,580L835,580C820.8,569.1 791.9,583.3 775,574C765.7,576.8 751.7,578.2 741,577L736,579C725.9,573.6 714.1,569.4 702,565C698.7,580.5 691.5,594.2 690,609C686.9,624.6 695.1,638.4 708,642C714.5,636.5 721.3,631.3 729,627L732,625C730.7,621.8 728.1,619.4 726,616L723,618C722.7,620.8 717.3,621.9 717,622C713.5,620.5 716.1,612 718,613C718.1,611 722.7,610 723,610C737.3,593 774.8,602.7 796,604C815.2,603.8 824.9,612.1 838,616C851.1,621.9 863.6,627.4 865,643C891.1,651.3 911.4,666.4 915,694C920.5,718.9 922.5,763.8 915,786C903.3,807.8 892.8,832.6 882,853C871.9,876.4 857.5,895 841,912C829.8,933.8 835.2,974.5 822,993C813.6,1017.6 797.9,1034.9 783,1053C767.1,1070.6 754.5,1093.3 739,1110C721.1,1124.6 698.9,1135.4 663,1132C646.6,1127.9 632.2,1121.3 630,1102C627.7,1084.5 633.6,1065.7 640,1053C647.5,1039 656.3,1026.8 667,1017C677.8,1007 682.7,989.1 688,976C689.4,953.8 664.3,959.7 645,961C622.8,957.3 634.6,987.1 628,999C626,1014.5 618.4,1024.9 606,1030C594.7,1037.2 582.4,1042.9 574,1053C564.7,1060.5 558.4,1074.1 556,1087C566.6,1107.4 577.5,1126.5 591,1143C604.4,1147.8 615.7,1157.5 613,1176C623.5,1181.3 644,1180.7 655,1186Z" stroke="#a0bbbc" stroke-width="0.75" stroke-linecap="round" fill="#a0bbbc" stroke-linejoin="round"/>
<path d="M0,0M1120,1185L1122,1185C1122.7,1180.4 1118.9,1174.7 1113,1174C1112.8,1180.7 1118.3,1181.2 1120,1185Z" stroke="#f6f7f7" stroke-width="0.75" stroke-linecap="round" fill="#f6f7f7" stroke-linejoin="round"/>
<path d="M0,0M528,1177L529,1177C536.2,1158.3 581,1153.1 552,1126C544.2,1115 538.9,1098.4 534,1086C528.8,1072.2 523.4,1058.6 520,1042C512.2,1028.4 499.4,1006.9 501,997C499.9,995.5 498.1,990.7 496,991C499.3,996.2 496.6,996.4 493,996L492,993L490,993C476.4,974.6 462.3,954.4 453,933L451,933C441.8,912.2 436.4,885.2 432,861L430,861C436.7,845.9 411.4,852.6 415,859C416,878.2 423.3,892.9 423,910C428.1,925.8 433.9,944.8 441,960C449.9,974.1 458.3,988.7 466,1003C475.2,1015.2 484.5,1030.7 493,1044C500.3,1060.2 513.4,1070.1 510,1096C513.1,1102.4 510.6,1113.9 511,1122C514.5,1135 511.9,1153.6 517,1164C523.6,1151.2 524.4,1174.2 528,1177Z" stroke="#2d8297" stroke-width="0.75" stroke-linecap="round" fill="#2d8297" stroke-linejoin="round"/>
<path d="M0,0M610,1176L613,1176C615.7,1157.5 604.4,1147.8 591,1143C589.2,1148.3 584.5,1154.1 582,1156C589,1165.5 597.9,1172.6 610,1176Z" stroke="#84aaaf" stroke-width="0.75" stroke-linecap="round" fill="#84aaaf" stroke-linejoin="round"/>
<path d="M0,0M736,1168C749.2,1164.9 763.6,1158.4 775,1152C789.8,1147.3 800.4,1138.9 811,1131C814.8,1126.2 824.9,1124.8 825,1119C816.9,1112.3 778.8,1096 772,1116C761.6,1128.6 748.7,1143.4 739,1159C736,1162.7 738.5,1166.9 736,1168Z" stroke="#7da7ac" stroke-width="0.75" stroke-linecap="round" fill="#7da7ac" stroke-linejoin="round"/>
<path d="M0,0M514,1164L517,1164C511.9,1153.6 514.5,1135 511,1122C510.8,1137.7 512.5,1151 514,1164Z" stroke="#277e93" stroke-width="0.75" stroke-linecap="round" fill="#277e93" stroke-linejoin="round"/>
<path d="M0,0M579,1156L582,1156C584.5,1154.1 589.2,1148.3 591,1143C577.5,1126.5 566.6,1107.4 556,1087L555,1087C553.8,1079.3 550.3,1081.2 544,1080C525.7,1078.5 529.4,1052 520,1042C523.4,1058.6 528.8,1072.2 534,1086C538.9,1098.4 544.2,1115 552,1126C559.6,1140.1 567.4,1150.7 579,1156Z" stroke="#71a0a9" stroke-width="0.75" stroke-linecap="round" fill="#71a0a9" stroke-linejoin="round"/>
<path d="M0,0M834,1152C851.9,1144.9 869.1,1114.7 886,1119L883,1119C877.2,1108.3 896.8,1099.7 897,1089L895,1089C883,1079.4 874.2,1067.2 888,1056C891.7,1035.8 911.3,1046 918,1033C926.6,1022.8 937,1011.3 942,999C947.7,985.4 959.7,975.5 960,958C950.4,959.9 941.3,961.8 931,963C932.5,959 935.7,957.2 936,952C930.5,955.1 930.2,966.3 925,967C918.3,981.3 910.2,994.2 903,1008C897.5,1023.5 899.2,1046.2 886,1054C879.4,1068.4 868.6,1078.6 855,1086C846.6,1098.6 836.5,1109.5 825,1119C824.9,1124.8 814.8,1126.2 811,1131C821.6,1127.8 830.4,1142.1 834,1152Z" stroke="#5d97a5" stroke-width="0.75" stroke-linecap="round" fill="#5d97a5" stroke-linejoin="round"/>
<path d="M0,0M663,1132C698.9,1135.4 721.1,1124.6 739,1110C754.5,1093.3 767.1,1070.6 783,1053C797.9,1034.9 813.6,1017.6 822,993C835.2,974.5 829.8,933.8 841,912C857.5,895 871.9,876.4 882,853C892.8,832.6 903.3,807.8 915,786C922.5,763.8 920.5,718.9 915,694C911.4,666.4 891.1,651.3 865,643C859,643.1 858.3,652 852,649C841.4,646.1 829.5,644 814,645L807,645C807.6,648.2 798.9,645.6 799,646C790.1,645.1 785.8,648.8 777,648C774.5,643.4 772.5,634.9 771,631C777.1,608.7 746,625.5 735,628L733,631C726.1,638.9 730.1,650.3 709,646L708,642C695.1,638.4 686.9,624.6 690,609C691.5,594.2 698.7,580.5 702,565C677.8,560.8 708.7,536.1 720,537C720.3,531.1 739.1,525.1 741,534C766.6,535.6 781.4,526.4 808,529C833.3,522.2 850.1,530.9 861,546C868.3,544.9 869.8,552.8 876,550C884,539.5 893.6,530.1 898,516C904.9,505.1 908.3,486.5 909,468C907.2,452.5 903.9,433.9 898,420C889.4,411.8 899.4,379.9 879,381C862.9,377.1 846.9,373.1 831,369C817.2,362.8 800.3,359.7 787,352C772.4,347.6 760,340 747,333C735.4,325.3 722.1,316.7 715,306L714,306C713.9,303.9 709.9,302.4 711,301L709,301C708.9,299 704.4,297 705,295C706.1,290.8 699.3,290.5 699,289C690.8,294.3 664.1,294.6 648,294C630.9,296.2 618.4,305.6 607,312C594.9,318.7 580.7,326.4 573,336C563.5,345.5 553.2,354.2 547,367C539.1,378.4 533.4,394.6 528,406C524.2,421.9 517.3,436.9 514,451C509.1,465.4 503.6,481.7 501,496C491.5,506 506.5,540 481,534L481,535C486.4,534.2 490.3,537.3 492,537C503.1,536.3 514.1,542.8 522,547C533.6,546 536.9,556.1 541,559C558.1,566.9 561.4,587.6 579,594C601.7,595.2 601.3,619.7 601,643L601,657C595.1,670.6 588.4,683.9 586,702C582.8,717.6 578.7,735.3 573,747C570.3,761.8 559.2,777.7 564,793C566.8,810 577.5,821.1 580,835C591.9,838.7 615,853.4 622,838C634.7,825.3 655,818 679,819L684,819C725.4,819.2 695.1,846 673,843C673.5,836 670,832.5 663,832C659.3,832.9 654.7,835.8 652,835C651.8,838.4 646.5,840.1 645,840C636.8,853.1 623.8,863.9 609,868C602.5,879.3 596.1,902.1 592,922C618.7,929.3 645.4,929.6 667,921C696.3,921.7 729.9,919.5 754,922C765.4,917.8 777,902.4 792,916C810,926.7 783.5,935.9 772,939C771.7,941.3 764.2,940.4 763,940L762,937L757,939C758.4,947.2 735.9,952.7 726,958C713.2,963.9 701.2,972.9 688,976C682.7,989.1 677.8,1007 667,1017C656.3,1026.8 647.5,1039 640,1053C633.6,1065.7 627.7,1084.5 630,1102C632.2,1121.3 646.6,1127.9 663,1132Z" stroke="#b5c7c7" stroke-width="0.75" stroke-linecap="round" fill="#b5c7c7" stroke-linejoin="round"/>
<path d="M0,0M510,1122L511,1122C510.6,1113.9 513.1,1102.4 510,1096L510,1119L510,1122Z" stroke="#91b0b4" stroke-width="0.75" stroke-linecap="round" fill="#91b0b4" stroke-linejoin="round"/>
<path d="M0,0M883,1119L886,1119C903.8,1106.6 917.5,1086.9 936,1074C949.4,1052.6 992,1070.2 1006,1078C1016.8,1038.9 992,1027 967,1018C965.3,1021.5 959.8,1024.5 960,1027C953.6,1033.7 943.8,1042.9 942,1047L942,1045L939,1048C933.1,1051.1 937.4,1057.2 931,1057L931,1056C919,1065.8 907.6,1079.2 897,1089C896.8,1099.7 877.2,1108.3 883,1119Z" stroke="#84aaaf" stroke-width="0.75" stroke-linecap="round" fill="#84aaaf" stroke-linejoin="round"/>
<path d="M0,0M1018,1119L1020,1119C1022.9,1111.7 1029.8,1101.8 1027,1093C1022,1086.9 1019.2,1047.5 1030,1056L1035,1056C1032.6,1039.4 1020.4,1032.6 1023,1011L1021,1011L1021,973C1020.7,970.8 1005.2,972.8 1011,970C1013,960.5 989.2,968.8 991,979C984.7,993.7 976.1,1006.1 967,1018C992,1027 1016.8,1038.9 1006,1078C1005.2,1092.3 999.4,1119.4 1018,1119Z" stroke="#6a9da8" stroke-width="0.75" stroke-linecap="round" fill="#6a9da8" stroke-linejoin="round"/>
<path d="M0,0M1027,1093C1031,1094.2 1033,1087.7 1033,1083L1032,1083C1031.5,1074.4 1033.3,1060.1 1030,1056C1019.2,1047.5 1022,1086.9 1027,1093Z" stroke="#1a7385" stroke-width="0.75" stroke-linecap="round" fill="#1a7385" stroke-linejoin="round"/>
<path d="M0,0M895,1089L897,1089C907.6,1079.2 919,1065.8 931,1056C931.7,1051.2 934.2,1048.7 939,1048L942,1045C945.9,1037.4 951.9,1031.4 960,1027C959.8,1024.5 965.3,1021.5 967,1018C976.1,1006.1 984.7,993.7 991,979C989.2,968.8 1013,960.5 1011,970C1005.2,972.8 1020.7,970.8 1021,973L1023,970C1024.5,944.4 1024.9,913.3 1038,897L1032,897C1030.8,892.4 1034.7,885.1 1032,879C1005.5,885.5 982.9,895.9 973,919C970.3,933.5 964,947.2 960,958C959.7,975.5 947.7,985.4 942,999C937,1011.3 926.6,1022.8 918,1033C911.3,1046 891.7,1035.8 888,1056C874.2,1067.2 883,1079.4 895,1089Z" stroke="#3b8a9e" stroke-width="0.75" stroke-linecap="round" fill="#3b8a9e" stroke-linejoin="round"/>
<path d="M0,0M555,1087L556,1087C558.4,1074.1 564.7,1060.5 574,1053C582.4,1042.9 594.7,1037.2 606,1030C618.4,1024.9 626,1014.5 628,999C634.6,987.1 622.8,957.3 645,961C633,954.1 601.7,958.7 597,969C582.2,975.5 578.6,995.7 553,990C549.6,983.9 547.5,976 544,969C535.3,983.8 517.4,989.9 501,997C499.4,1006.9 512.2,1028.4 520,1042C529.4,1052 525.7,1078.5 544,1080C550.3,1081.2 553.8,1079.3 555,1087Z" stroke="#8aadb2" stroke-width="0.75" stroke-linecap="round" fill="#8aadb2" stroke-linejoin="round"/>
<path d="M0,0M1032,1083L1033,1083C1034.4,1075.9 1037.2,1070.7 1036,1062C1035.1,1061.3 1034.5,1056.3 1035,1056L1030,1056C1033.3,1060.1 1031.5,1074.4 1032,1083Z" stroke="#619aa6" stroke-width="0.75" stroke-linecap="round" fill="#619aa6" stroke-linejoin="round"/>
<path d="M0,0M931,1057C937.4,1057.2 933.1,1051.1 939,1048C934.2,1048.7 931.7,1051.2 931,1056L931,1057Z" stroke="#619aa6" stroke-width="0.75" stroke-linecap="round" fill="#619aa6" stroke-linejoin="round"/>
<path d="M0,0M942,1047C943.8,1042.9 953.6,1033.7 960,1027C951.9,1031.4 945.9,1037.4 942,1045L942,1047Z" stroke="#5d97a5" stroke-width="0.75" stroke-linecap="round" fill="#5d97a5" stroke-linejoin="round"/>
<path d="M0,0M1021,1011L1023,1011L1023,970L1021,973L1021,1011Z" stroke="#96b4b7" stroke-width="0.75" stroke-linecap="round" fill="#96b4b7" stroke-linejoin="round"/>
<path d="M0,0M501,997C517.4,989.9 535.3,983.8 544,969C545.4,956.4 534.1,944 535,939L534,936L531,933L529,933C528.9,930.5 524.4,928.5 525,927L523,927C512.7,923.3 488.6,909.6 517,906C518.4,900.8 515.8,888.7 519,888L520,886C526.6,873.6 539.9,867.9 546,855C544.7,849.6 551.1,848.5 549,844C548.7,840.6 548.3,833.2 552,835C529.9,819 545.6,784 549,762C553,734.6 561.9,710 567,685C564.8,681.6 569.3,673 571,669C605.9,643.6 542.9,655.5 556,640C530,605.7 537.7,662.9 501,649L493,649L490,648C471.9,657.4 466,679.5 456,697C435.9,704.8 447.6,746 442,766C441.1,786.1 441.3,793 442,810C454.6,825.3 441.9,856.3 450,873C461.3,885.7 453.8,917.2 463,931C474.5,951.5 484.3,972.7 496,991C498.1,990.7 499.9,995.5 501,997Z" stroke="#a5bdbf" stroke-width="0.75" stroke-linecap="round" fill="#a5bdbf" stroke-linejoin="round"/>
<path d="M0,0M493,996C496.6,996.4 499.3,996.2 496,991C484.3,972.7 474.5,951.5 463,931L463,933C470.7,954.5 487.3,974.9 492,993L493,996Z" stroke="#85aaaf" stroke-width="0.75" stroke-linecap="round" fill="#85aaaf" stroke-linejoin="round"/>
<path d="M0,0M490,993L492,993C487.3,974.9 470.7,954.5 463,933L453,933C462.3,954.4 476.4,974.6 490,993Z" stroke="#72a1a9" stroke-width="0.75" stroke-linecap="round" fill="#72a1a9" stroke-linejoin="round"/>
<path d="M0,0M553,990C578.6,995.7 582.2,975.5 597,969C601.7,958.7 633,954.1 645,961C664.3,959.7 689.4,953.8 688,976C701.2,972.9 713.2,963.9 726,958C735.9,952.7 758.4,947.2 757,939C753.6,938.2 750.7,941.9 748,940C734.5,949.9 713.9,944 696,946C680.5,951.3 656.8,950.5 640,952C636.6,955.7 623.4,953.1 619,954L619,952C591.2,947.6 571,953.1 567,970C557.7,958.8 544.6,950.9 535,939C534.1,944 545.4,956.4 544,969C547.5,976 549.6,983.9 553,990Z" stroke="#619aa6" stroke-width="0.75" stroke-linecap="round" fill="#619aa6" stroke-linejoin="round"/>
<path d="M0,0M567,970C571,953.1 591.2,947.6 619,952L640,952C656.8,950.5 680.5,951.3 696,946C713.9,944 734.5,949.9 748,940C747.1,935.8 744.8,928.5 738,931C721.4,935.9 701.7,937.2 682,939C665,941.8 644.3,943.9 627,945C611.4,938.3 578.5,946.4 579,925L543,925L538,925C542.2,933.5 583.3,941.1 558,949C549,947 540.6,934.7 534,936L535,939C544.6,950.9 557.7,958.8 567,970Z" stroke="#186d80" stroke-width="0.75" stroke-linecap="round" fill="#186d80" stroke-linejoin="round"/>
<path d="M0,0M925,967C930.2,966.3 930.5,955.1 936,952C930.3,913.4 943.8,925.8 946,894C953.1,870.9 948,839.9 946,817C948.2,848.2 931.6,860.6 931,889C928.9,914.8 920.9,938.7 925,967Z" stroke="#8aadb2" stroke-width="0.75" stroke-linecap="round" fill="#8aadb2" stroke-linejoin="round"/>
<path d="M0,0M931,963C941.3,961.8 950.4,959.9 960,958C964,947.2 970.3,933.5 973,919C966,895.4 972.6,862.7 981,847C983.3,821.4 1003.8,811.4 1012,793C1014,790 1013.3,784.3 1015,781C1016.9,763.9 1021.2,749.2 1024,733L1024,730C1015.9,718.2 1000.3,744.1 990,745C981.7,757.5 966.9,765.6 954,771L954,768C952.4,785.4 948.8,800.8 946,817C948,839.9 953.1,870.9 946,894C943.8,925.8 930.3,913.4 936,952C935.7,957.2 932.5,959 931,963Z" stroke="#77a4aa" stroke-width="0.75" stroke-linecap="round" fill="#77a4aa" stroke-linejoin="round"/>
<path d="M0,0M619,954C623.4,953.1 636.6,955.7 640,952L619,952L619,954Z" stroke="#3b8a9e" stroke-width="0.75" stroke-linecap="round" fill="#3b8a9e" stroke-linejoin="round"/>
<path d="M0,0M558,949C583.3,941.1 542.2,933.5 538,925L531,918C526.4,917.5 524.3,922.8 525,925C529.6,925 531.7,930.3 531,933L534,936C540.6,934.7 549,947 558,949Z" stroke="#105864" stroke-width="0.75" stroke-linecap="round" fill="#105864" stroke-linejoin="round"/>
<path d="M0,0M627,945C644.3,943.9 665,941.8 682,939C701.7,937.2 721.4,935.9 738,931C742.3,925.8 755.9,929.4 762,925C762.2,922.2 752.1,925.7 754,922C729.9,919.5 696.3,921.7 667,921C645.4,929.6 618.7,929.3 592,922C587.6,922.7 580,923.7 579,925C578.5,946.4 611.4,938.3 627,945Z" stroke="#5d97a5" stroke-width="0.75" stroke-linecap="round" fill="#5d97a5" stroke-linejoin="round"/>
<path d="M0,0M748,940C750.7,941.9 753.6,938.2 757,939L762,937C764.8,938.1 766.8,934.7 768,936C769.5,930.6 768.2,929.5 768,925L762,925C755.9,929.4 742.3,925.8 738,931C744.8,928.5 747.1,935.8 748,940Z" stroke="#125b6a" stroke-width="0.75" stroke-linecap="round" fill="#125b6a" stroke-linejoin="round"/>
<path d="M0,0M763,940C764.2,940.4 771.7,941.3 772,939L771,934L768,936C765.2,935.4 763.2,938.8 762,937L763,940Z" stroke="#7da7ac" stroke-width="0.75" stroke-linecap="round" fill="#7da7ac" stroke-linejoin="round"/>
<path d="M0,0M772,939C783.5,935.9 810,926.7 792,916C777,902.4 765.4,917.8 754,922C752.1,925.7 762.2,922.2 762,925L768,925C785.8,913.4 793.2,936.1 771,934L772,939Z" stroke="#7da7ac" stroke-width="0.75" stroke-linecap="round" fill="#7da7ac" stroke-linejoin="round"/>
<path d="M0,0M768,936L771,934C793.2,936.1 785.8,913.4 768,925C768.2,929.5 769.5,930.6 768,936Z" stroke="#1b758a" stroke-width="0.75" stroke-linecap="round" fill="#1b758a" stroke-linejoin="round"/>
<path d="M0,0M451,933L453,933L463,933L463,931C453.8,917.2 461.3,885.7 450,873C441.9,856.3 454.6,825.3 442,810C441,815.6 435.5,820.6 429,819C428.6,834.4 432.9,845.1 432,861C436.4,885.2 441.8,912.2 451,933Z" stroke="#91b0b4" stroke-width="0.75" stroke-linecap="round" fill="#91b0b4" stroke-linejoin="round"/>
<path d="M0,0M529,933L531,933C531.7,930.3 529.6,925 525,925L525,927C524.4,928.5 528.9,930.5 529,933Z" stroke="#1a7385" stroke-width="0.75" stroke-linecap="round" fill="#1a7385" stroke-linejoin="round"/>
<path d="M0,0M523,927L525,927L525,925C524.3,922.8 526.4,917.5 531,918L531,915C532.7,906.2 519,909.3 517,906C488.6,909.6 512.7,923.3 523,927Z" stroke="#438da0" stroke-width="0.75" stroke-linecap="round" fill="#438da0" stroke-linejoin="round"/>
<path d="M0,0M538,925L543,925C539.9,921.5 531.3,919.5 531,915L531,918L538,925Z" stroke="#72a1a9" stroke-width="0.75" stroke-linecap="round" fill="#72a1a9" stroke-linejoin="round"/>
<path d="M0,0M543,925L579,925C580,923.7 587.6,922.7 592,922C596.1,902.1 602.5,879.3 609,868C601.4,869.9 589.8,867.9 582,870C571.5,861.2 564.2,846.6 556,837L553,838L552,835C548.3,833.2 548.7,840.6 549,844C555.7,847.1 550.4,857.1 546,855C539.9,867.9 526.6,873.6 520,886C519.6,892.6 522.2,902.2 519,906L517,906C519,909.3 532.7,906.2 531,915C531.3,919.5 539.9,921.5 543,925Z" stroke="#78a4ab" stroke-width="0.75" stroke-linecap="round" fill="#78a4ab" stroke-linejoin="round"/>
<path d="M0,0M973,919C982.9,895.9 1005.5,885.5 1032,879C1036,870 1030.7,851.7 1044,852C1041.8,843 1045.8,818.9 1050,807C1049.3,801.4 1053.2,789.4 1051,778C1048.5,790.7 1045.5,793.6 1038,793C1035,787.7 1032,790.2 1029,792C1025.7,798.8 1023.5,810 1018,813C1014.4,809 1011.2,800.7 1012,793C1003.8,811.4 983.3,821.4 981,847C972.6,862.7 966,895.4 973,919Z" stroke="#5d97a5" stroke-width="0.75" stroke-linecap="round" fill="#5d97a5" stroke-linejoin="round"/>
<path d="M0,0M421,910L423,910C423.3,892.9 416,878.2 415,859C412.1,859.3 416,848.4 412,850C413.3,872.7 420,889 421,910Z" stroke="#3b8a9e" stroke-width="0.75" stroke-linecap="round" fill="#3b8a9e" stroke-linejoin="round"/>
<path d="M0,0M517,906L519,906L519,888C515.8,888.7 518.4,900.8 517,906Z" stroke="#8aadb2" stroke-width="0.75" stroke-linecap="round" fill="#8aadb2" stroke-linejoin="round"/>
<path d="M0,0M519,906C522.2,902.2 519.6,892.6 520,886L519,888L519,906Z" stroke="#85aaaf" stroke-width="0.75" stroke-linecap="round" fill="#85aaaf" stroke-linejoin="round"/>
<path d="M0,0M1032,897L1038,897C1042.5,888.3 1048.5,876.2 1051,864C1054.5,862.5 1050.8,857.8 1050,858C1046.2,858.2 1045.1,852.3 1044,852C1030.7,851.7 1036,870 1032,879C1034.7,885.1 1030.8,892.4 1032,897Z" stroke="#093839" stroke-width="0.75" stroke-linecap="round" fill="#093839" stroke-linejoin="round"/>
<path d="M0,0M582,870C589.8,867.9 601.4,869.9 609,868C623.8,863.9 636.8,853.1 645,840L642,840L639,838C631.4,837.9 633.1,846.6 625,846C624,844.4 621.3,840.6 622,838C615,853.4 591.9,838.7 580,835C570.9,818.1 537.5,804.2 556,837C564.2,846.6 571.5,861.2 582,870Z" stroke="#2d8297" stroke-width="0.75" stroke-linecap="round" fill="#2d8297" stroke-linejoin="round"/>
<path d="M0,0M1051,864L1057,864C1058.1,858.8 1049.4,852.1 1050,858C1050.8,857.8 1054.5,862.5 1051,864Z" stroke="#a5bdbe" stroke-width="0.75" stroke-linecap="round" fill="#a5bdbe" stroke-linejoin="round"/>
<path d="M0,0M1057,864C1080.8,862.8 1093.2,846.6 1107,834C1120,820 1132.6,805.6 1143,789C1146.4,775 1124.9,801.6 1116,799C1125.5,780.6 1146.8,771.4 1147,745C1155.1,720.5 1154.7,701.3 1152,672C1156.4,640.9 1144.5,627.3 1125,646C1113,661.5 1109.9,675.5 1105,696L1105,694C1102.8,694 1104.8,701.4 1102,699L1101,697C1111.9,706.6 1092.3,729.4 1072,726L1071,724C1071.6,730.3 1068.2,735.3 1069,739C1058.9,764.8 1082.1,754.9 1083,769C1079.5,787 1066.7,795.2 1060,810C1058.5,807.9 1052.4,806.5 1050,807C1045.8,818.9 1041.8,843 1044,852C1045.1,852.3 1046.2,858.2 1050,858C1049.4,852.1 1058.1,858.8 1057,864Z" stroke="#a5bdbf" stroke-width="0.75" stroke-linecap="round" fill="#a5bdbf" stroke-linejoin="round"/>
<path d="M0,0M430,861L432,861C432.9,845.1 428.6,834.4 429,819L427,819C428,813.1 408.5,813.5 409,816L409,828C412.6,829.9 410.2,837.3 411,841C413.3,840 412.4,847.5 412,850C416,848.4 412.1,859.3 415,859C411.4,852.6 436.7,845.9 430,861Z" stroke="#5d97a4" stroke-width="0.75" stroke-linecap="round" fill="#5d97a4" stroke-linejoin="round"/>
<path d="M0,0M546,855C550.4,857.1 555.7,847.1 549,844C551.1,848.5 544.7,849.6 546,855Z" stroke="#a5bdbf" stroke-width="0.75" stroke-linecap="round" fill="#a5bdbf" stroke-linejoin="round"/>
<path d="M0,0M625,846C633.1,846.6 631.4,837.9 639,838C641.3,834.5 650.2,833.1 652,835C654.7,835.8 659.3,832.9 663,832C664.4,830.3 671.4,830.2 670,828C670,823.4 679.6,825.5 681,825C678.8,822.5 681.6,820.5 679,819C655,818 634.7,825.3 622,838C621.3,840.6 624,844.4 625,846Z" stroke="#135f6f" stroke-width="0.75" stroke-linecap="round" fill="#135f6f" stroke-linejoin="round"/>
<path d="M0,0M673,843C695.1,846 725.4,819.2 684,819C692,819.8 690.6,826.5 681,825C686.8,829.6 671.3,827.6 670,828C671.4,830.2 664.4,830.3 663,832C670,832.5 673.5,836 673,843Z" stroke="#84aaaf" stroke-width="0.75" stroke-linecap="round" fill="#84aaaf" stroke-linejoin="round"/>
<path d="M0,0M409,841L411,841C410.2,837.3 412.6,829.9 409,828L409,841Z" stroke="#5d97a5" stroke-width="0.75" stroke-linecap="round" fill="#5d97a5" stroke-linejoin="round"/>
<path d="M0,0M642,840L645,840C646.5,840.1 651.8,838.4 652,835C650.2,833.1 641.3,834.5 639,838L642,840Z" stroke="#38869a" stroke-width="0.75" stroke-linecap="round" fill="#38869a" stroke-linejoin="round"/>
<path d="M0,0M553,838L556,837C537.5,804.2 570.9,818.1 580,835C577.5,821.1 566.8,810 564,793C559.2,777.7 570.3,761.8 573,747C578.7,735.3 582.8,717.6 586,702C588.4,683.9 595.1,670.6 601,657L600,657C600.8,652.8 598.4,645.4 601,643C601.3,619.7 601.7,595.2 579,594C561.4,587.6 558.1,566.9 541,559C541.9,563.5 537.3,565.9 535,565L534,564C534,570 531.4,573.4 526,574C527.5,571.3 519.5,573.8 520,573C513.9,575.4 507.7,578.2 498,577C496,581.5 485,576.5 483,580C498.5,588 526.4,583.1 537,595C526.5,608.3 493.6,592.5 480,604C482.2,606.4 481.8,614.3 484,613C497.4,613.8 515,612.4 523,615C547.8,618.3 521.8,628.1 520,637C519.5,641.6 509.5,640.2 508,642C510.9,647.5 500.8,644 501,645L501,649C537.7,662.9 530,605.7 556,640C542.9,655.5 605.9,643.6 571,669C569.3,673 564.8,681.6 567,685C561.9,710 553,734.6 549,762C545.6,784 529.9,819 552,835L553,838Z" stroke="#699da7" stroke-width="0.75" stroke-linecap="round" fill="#699da7" stroke-linejoin="round"/>
<path d="M0,0M670,828C671.3,827.6 686.8,829.6 681,825C679.6,825.5 670,823.4 670,828Z" stroke="#1a7285" stroke-width="0.75" stroke-linecap="round" fill="#1a7285" stroke-linejoin="round"/>
<path d="M0,0M681,825C690.6,826.5 692,819.8 684,819L679,819C681.6,820.5 678.8,822.5 681,825Z" stroke="#1c768a" stroke-width="0.75" stroke-linecap="round" fill="#1c768a" stroke-linejoin="round"/>
<path d="M0,0M427,819L429,819C435.5,820.6 441,815.6 442,810C441.3,793 441.1,786.1 442,766C425.2,754.4 413.2,734.9 417,703C411.3,674.4 447.6,674.9 447,648L441,648C442.2,644.2 436.8,643.5 438,642C423.6,642.2 409.7,645.8 402,646L402,639C397.1,643.1 404.6,659.6 397,661L397,664C395.5,666.6 396.9,675.4 394,675C393.7,680.7 397.4,687.5 396,696C398.2,703.1 398.2,718.9 396,726C398.1,756.6 402.2,788.8 409,816C408.5,813.5 428,813.1 427,819Z" stroke="#72a0a9" stroke-width="0.75" stroke-linecap="round" fill="#72a0a9" stroke-linejoin="round"/>
<path d="M0,0M1018,813C1023.5,810 1025.7,798.8 1029,792C1027.6,785.4 1015.6,789.4 1015,781C1013.3,784.3 1014,790 1012,793C1011.2,800.7 1014.4,809 1018,813Z" stroke="#16697b" stroke-width="0.75" stroke-linecap="round" fill="#16697b" stroke-linejoin="round"/>
<path d="M0,0M1060,810C1066.7,795.2 1079.5,787 1083,769C1082.1,754.9 1058.9,764.8 1069,739C1068.2,735.3 1071.6,730.3 1071,724C1068.9,710.4 1078.4,707.9 1077,694C1072,697.5 1064.5,698 1065,706L1063,709C1061.2,718.2 1060.3,728.3 1057,736C1055.9,750.9 1052.4,763.4 1051,778C1053.2,789.4 1049.3,801.4 1050,807C1052.4,806.5 1058.5,807.9 1060,810Z" stroke="#78a4ab" stroke-width="0.75" stroke-linecap="round" fill="#78a4ab" stroke-linejoin="round"/>
<path d="M0,0M1116,799C1124.9,801.6 1146.4,775 1143,789C1155.1,772.1 1164.8,752.8 1173,732C1170.5,732.6 1170.3,739 1168,738C1158.4,727.3 1168.5,703.9 1168,691C1169.9,674.7 1174,657.8 1179,646C1173.5,658.6 1159.2,668.1 1152,672C1154.7,701.3 1155.1,720.5 1147,745C1146.8,771.4 1125.5,780.6 1116,799Z" stroke="#8aadb2" stroke-width="0.75" stroke-linecap="round" fill="#8aadb2" stroke-linejoin="round"/>
<path d="M0,0M1038,793C1045.5,793.6 1048.5,790.7 1051,778C1052.4,763.4 1055.9,750.9 1057,736C1056.8,738.4 1050.5,738.1 1050,738C1043,735 1031.9,736.1 1024,733C1021.2,749.2 1016.9,763.9 1015,781C1015.6,789.4 1027.6,785.4 1029,792C1032,790.2 1035,787.7 1038,793Z" stroke="#115864" stroke-width="0.75" stroke-linecap="round" fill="#115864" stroke-linejoin="round"/>
<path d="M0,0M954,771C966.9,765.6 981.7,757.5 990,745C1000.3,744.1 1015.9,718.2 1024,730C1025.6,722.6 1026.7,714.7 1026,705C1031.6,677.5 1013.1,647.9 1024,633C1020.7,618.6 1019.3,599 1015,586C1013.6,570.1 1008.2,554.6 1002,544C996.7,559.6 985.1,572.8 981,591C976.4,606.9 974,629.2 973,651C970.8,668.7 968,690.7 963,708C955.1,723.1 955.9,746.9 954,768L954,771Z" stroke="#91b0b4" stroke-width="0.75" stroke-linecap="round" fill="#91b0b4" stroke-linejoin="round"/>
<path d="M0,0M442,766C447.6,746 435.9,704.8 456,697C466,679.5 471.9,657.4 490,648C488.9,639.6 482.3,636.2 483,625C476.5,623 467.3,632.1 463,634C463.3,639.3 460.8,641.8 456,642C455.1,645.2 449.4,647 447,646L447,648C447.6,674.9 411.3,674.4 417,703C413.2,734.9 425.2,754.4 442,766Z" stroke="#85aaaf" stroke-width="0.75" stroke-linecap="round" fill="#85aaaf" stroke-linejoin="round"/>
<path d="M0,0M1050,738C1050.5,738.1 1056.8,738.4 1057,736C1060.3,728.3 1061.2,718.2 1063,709L1062,709C1061,708.3 1060,703.9 1059,705L1057,708C1060,714.6 1055,717.1 1051,715C1049.7,713.9 1044.1,709.7 1048,706C1044.6,695.4 1044.2,680.8 1038,672C1031.9,680.9 1031,695 1026,705C1026.7,714.7 1025.6,722.6 1024,730L1024,733C1031.9,736.1 1043,735 1050,738Z" stroke="#156475" stroke-width="0.75" stroke-linecap="round" fill="#156475" stroke-linejoin="round"/>
<path d="M0,0M1168,738C1170.3,739 1170.5,732.6 1173,732C1179.1,718.7 1186.8,702.7 1192,687C1199.5,678 1201.7,645.9 1194,633C1199.7,647.8 1179.1,639.7 1179,646C1174,657.8 1169.9,674.7 1168,691C1168.5,703.9 1158.4,727.3 1168,738Z" stroke="#9ab7b9" stroke-width="0.75" stroke-linecap="round" fill="#9ab7b9" stroke-linejoin="round"/>
<path d="M0,0M396,726C398.2,718.9 398.2,703.1 396,696L396,726Z" stroke="#b0c4c5" stroke-width="0.75" stroke-linecap="round" fill="#b0c4c5" stroke-linejoin="round"/>
<path d="M0,0M1072,726C1092.3,729.4 1111.9,706.6 1101,697C1100.2,695.7 1093.5,696.3 1095,694C1087.4,695 1080.4,691.4 1078,688C1077.1,689.2 1076.5,694.2 1077,694C1078.4,707.9 1068.9,710.4 1071,724L1072,726Z" stroke="#91b0b4" stroke-width="0.75" stroke-linecap="round" fill="#91b0b4" stroke-linejoin="round"/>
<path d="M0,0M1051,715C1055,717.1 1060,714.6 1057,708L1056,708C1056.6,704.8 1047.9,707.4 1048,706C1044.1,709.7 1049.7,713.9 1051,715Z" stroke="#0e4d56" stroke-width="0.75" stroke-linecap="round" fill="#0e4d56" stroke-linejoin="round"/>
<path d="M0,0M1062,709L1063,709L1065,706L1063,706C1063.5,702.9 1061.8,697.6 1060,697C1061.7,701.3 1057.8,703.5 1059,705C1060.8,705.3 1061.8,709.9 1062,709Z" stroke="#16697b" stroke-width="0.75" stroke-linecap="round" fill="#16697b" stroke-linejoin="round"/>
<path d="M0,0M1056,708L1057,708L1059,705C1057.8,703.5 1061.7,701.3 1060,697C1066.5,681.2 1069.2,659.2 1078,648C1061,640.5 1040.2,636.3 1032,619C1027.3,626.2 1034,640.4 1030,643C1034.7,651.3 1034.6,663.4 1038,672C1044.2,680.8 1044.6,695.4 1048,706C1047.9,707.4 1056.6,704.8 1056,708Z" stroke="#052922" stroke-width="0.75" stroke-linecap="round" fill="#052922" stroke-linejoin="round"/>
<path d="M0,0M1063,706L1065,706C1064.5,698 1072,697.5 1077,694C1075.7,691 1079.1,689 1078,688C1082.7,661.3 1090.8,635.9 1110,625L1108,622C1091.6,618.7 1087.7,641.4 1078,648C1069.2,659.2 1066.5,681.2 1060,697C1061.8,697.6 1063.5,702.9 1063,706Z" stroke="#186d80" stroke-width="0.75" stroke-linecap="round" fill="#186d80" stroke-linejoin="round"/>
<path d="M0,0M1026,705C1031,695 1031.9,680.9 1038,672C1034.6,663.4 1034.7,651.3 1030,643L1029,643C1026.3,641.2 1027.2,635.3 1024,633C1013.1,647.9 1031.6,677.5 1026,705Z" stroke="#4a90a2" stroke-width="0.75" stroke-linecap="round" fill="#4a90a2" stroke-linejoin="round"/>
<path d="M0,0M1102,699C1105.2,699.5 1103.2,692.1 1105,694C1114.4,663.6 1092.4,674.9 1095,694C1093.5,696.3 1100.2,695.7 1101,697L1102,699Z" stroke="#438da0" stroke-width="0.75" stroke-linecap="round" fill="#438da0" stroke-linejoin="round"/>
<path d="M0,0M1105,696C1109.9,675.5 1113,661.5 1125,646C1144.5,627.3 1156.4,640.9 1152,672C1159.2,668.1 1173.5,658.6 1179,646C1179.1,639.7 1199.7,647.8 1194,633C1192.3,607.7 1175.3,597.7 1162,583C1153.2,598.5 1129.1,601.1 1120,615L1119,616C1122.9,621.1 1116.5,626.8 1111,627L1110,625C1090.8,635.9 1082.7,661.3 1078,688C1080.4,691.4 1087.4,695 1095,694C1092.4,674.9 1114.4,663.6 1105,694L1105,696Z" stroke="#77a4aa" stroke-width="0.75" stroke-linecap="round" fill="#77a4aa" stroke-linejoin="round"/>
<path d="M0,0M394,675C396.9,675.4 395.5,666.6 397,664L396,664L394,663C390.5,665.8 394.6,671.5 394,675Z" stroke="#6a9ea8" stroke-width="0.75" stroke-linecap="round" fill="#6a9ea8" stroke-linejoin="round"/>
<path d="M0,0M396,664L397,664L397,661L397,657L397,651L394,651C394.6,654.5 390.5,660.2 394,663L396,664Z" stroke="#0f525c" stroke-width="0.75" stroke-linecap="round" fill="#0f525c" stroke-linejoin="round"/>
<path d="M0,0M397,661C404.6,659.6 397.1,643.1 402,639C404.3,638.2 403.4,630.7 403,630L402,630L402,628C397.5,635 400.4,648.9 397,657L397,661Z" stroke="#093839" stroke-width="0.75" stroke-linecap="round" fill="#093839" stroke-linejoin="round"/>
<path d="M0,0M397,657C400.4,648.9 397.5,635 402,628L402,616L402,615C402.8,610.8 400.4,603.4 403,601L403,595C404.2,573.1 403.8,556.8 408,538C408.8,517 410.7,494.1 411,474C413.7,454.7 416.1,435.1 421,418C426.6,401.6 430.9,383.9 438,369C444.3,353.3 450.4,337.4 459,324C466.1,310.1 473.1,296.1 484,286L484,285C494.9,273.1 508.5,261.9 520,253C535.9,251.6 546.7,224.6 561,240C569.7,237.6 579.5,233 588,232C584.8,214.6 601.5,208.6 619,207C642.8,207.2 651,231.6 660,240C680.2,241.9 687.8,266.9 706,274C724.1,284.3 737.8,300.2 753,310C760,310.4 759.6,299.5 766,301C788.4,309.1 792,265.2 774,267C765.7,262.5 777.5,256.8 783,259C803.5,260.4 815.2,243.3 834,249C848.5,263.9 860.7,283.2 874,297C887.3,312.5 886.4,345.9 880,369C870.8,364.5 855.6,362.5 847,358L847,361C871.9,369.1 898,375 927,378C928.9,374.9 936.3,377.3 940,376C970.9,372.7 997.6,379 1014,390L1026,402C1012.1,412.5 1038.3,427.4 1033,442C1036.2,447 1028.5,456 1029,460C1030.9,466 1034.1,477.2 1030,481C1013.4,468.9 1014.2,512.3 1002,513C1003.7,527.3 1024.3,549.4 1021,570C1027.3,584.2 1030.2,601.3 1032,619C1040.2,636.3 1061,640.5 1078,648C1087.7,641.4 1091.6,618.7 1108,622C1107.5,615.4 1115.9,614.2 1120,615C1129.1,601.1 1153.2,598.5 1162,583C1163.2,565.2 1176.6,540.9 1165,522C1154.7,504.7 1162.2,479.2 1162,456L1161,456L1161,439L1159,439C1160.4,433.3 1157.8,420.2 1161,418C1161.1,415.5 1160.2,408 1162,409C1162.6,406.5 1161.7,399 1164,400C1165.1,388 1175.4,375.5 1177,360C1179.5,354.6 1173.2,351.1 1177,348C1174.9,323 1167.8,298.7 1159,277C1152.1,257.3 1142.5,235.4 1131,217C1123.1,197.8 1107,182.4 1096,163C1086.4,143.6 1072.1,127.9 1059,111L1050,111C1047.4,108.6 1044.2,106.8 1045,100C1034.2,89.3 1016.9,80 1000,72C983.5,64 967.9,54.6 952,45C947,45.7 946.1,54.3 940,52L942,55C947,54.9 951,63.3 945,63C942.7,60.3 936.8,61.2 934,58L930,58C928.6,57.8 928,52.8 928,52C920.5,49.5 913.3,45.7 909,39C900.4,39 907.8,32.5 904,28C883.4,27.1 867.1,16.8 850,9C844,10 845.6,8.6 843,13C844,10.3 836,12.8 837,12L835,12L816,12L805,12C786.7,15.2 793.5,44 777,49C760.2,52.8 743,62.7 730,66C720,46.8 675.1,78.8 690,54C697.4,37.1 720.8,33.8 714,4L688,4L678,4C678.5,8.6 671.8,17.8 664,16C664,11.7 671,7.7 667,4L637,4L637,3C633.5,3.9 628.7,2.1 628,1C606.3,9.4 582.7,17.9 565,36C549.8,54.3 523.5,62 508,81C505.5,84 502.5,87 499,90C499.1,89.9 495.4,92.2 493,93C507.5,110.6 499.3,124.9 474,120C466.5,123.3 463.2,129.3 454,127C452.5,124.3 464.3,116.7 459,112C446.8,122.3 437.6,135.1 429,148C422.3,162.2 413.4,178 408,195C402.8,211.8 397.9,228.9 394,247C394.1,267.6 384.2,282.4 382,303L382,321C382.9,334.6 383.8,347.7 385,360C400.8,360.1 394.7,378.7 390,385C390.8,392.1 384.7,397.6 385,406C388.7,408.5 386.2,419.5 387,421C386.5,425.1 388.3,434.4 385,433C384.7,448 379.5,462.8 378,478C380.3,480.5 380.3,491.5 378,493C380.5,519.6 383.6,549 390,573C394.3,588.7 395.9,607.1 396,627C398.6,632.5 397.2,645.4 397,651L397,657Z" stroke="#03170b" stroke-width="0.75" stroke-linecap="round" fill="#03170b" stroke-linejoin="round"/>
<path d="M0,0M600,657L601,657L601,643C598.4,645.4 600.8,652.8 600,657Z" stroke="#77a3aa" stroke-width="0.75" stroke-linecap="round" fill="#77a3aa" stroke-linejoin="round"/>
<path d="M0,0M394,651L397,651C397.2,645.4 398.6,632.5 396,627L394,627C396.7,636.4 391,644.8 394,651Z" stroke="#5d97a4" stroke-width="0.75" stroke-linecap="round" fill="#5d97a4" stroke-linejoin="round"/>
<path d="M0,0M493,649L501,649L501,645L501,640C498.6,639.8 495.7,636.2 496,634L495,634C495.6,630.8 491.1,628.8 490,628L489,628C489.5,625.8 482.1,627.8 484,625L483,625C482.3,636.2 488.9,639.6 490,648L493,649Z" stroke="#2e8397" stroke-width="0.75" stroke-linecap="round" fill="#2e8397" stroke-linejoin="round"/>
<path d="M0,0M852,649C858.3,652 859,643.1 865,643C863.6,627.4 851.1,621.9 838,616C824.9,612.1 815.2,603.8 796,604C791.3,604.3 784.9,602.9 787,610L787,612C793.2,611.5 800.7,612.5 801,615C807.2,614.8 811.8,616.2 814,619C820.3,621.7 825.4,624.6 829,628C834.9,630.7 862.7,639.8 844,643C830.5,642.5 830.4,634.6 820,633C818.6,634.2 821.4,644.6 814,645C829.5,644 841.4,646.1 852,649Z" stroke="#699da7" stroke-width="0.75" stroke-linecap="round" fill="#699da7" stroke-linejoin="round"/>
<path d="M0,0M441,648L447,648L447,646L444,643C435.1,634.6 452.1,630.5 456,625L451,625C445.5,621.5 457.5,617.5 451,613C438.7,618.2 436.7,625.6 438,642C436.8,643.5 442.2,644.2 441,648Z" stroke="#156576" stroke-width="0.75" stroke-linecap="round" fill="#156576" stroke-linejoin="round"/>
<path d="M0,0M777,648C785.8,648.8 790.1,645.1 799,646L799,643L795,643C761.7,635.4 807.6,628.4 799,625C790.1,625.3 756.4,612.5 787,610C784.9,602.9 791.3,604.3 796,604C774.8,602.7 737.3,593 723,610C721.8,614.3 727.2,615 726,616C728.1,619.4 730.7,621.8 732,625L735,628C746,625.5 777.1,608.7 771,631C772.5,634.9 774.5,643.4 777,648Z" stroke="#4a91a3" stroke-width="0.75" stroke-linecap="round" fill="#4a91a3" stroke-linejoin="round"/>
<path d="M0,0M402,646C409.7,645.8 423.6,642.2 438,642C436.7,625.6 438.7,618.2 451,613L451,610L448,610C439.7,601.1 440.2,597 444,589C438.3,590.9 437.8,600.9 429,597L429,595C426,607.5 422.7,619.2 405,616C405.9,622.4 404.2,625.7 403,630C403.4,630.7 404.3,638.2 402,639L402,646Z" stroke="#5392a3" stroke-width="0.75" stroke-linecap="round" fill="#5392a3" stroke-linejoin="round"/>
<path d="M0,0M447,646C449.4,647 455.1,645.2 456,642L453,640C449.2,640.3 446.4,644.5 444,643L447,646Z" stroke="#156475" stroke-width="0.75" stroke-linecap="round" fill="#156475" stroke-linejoin="round"/>
<path d="M0,0M709,646C730.1,650.3 726.1,638.9 733,631L732,631C731.9,629.4 727.9,627.9 729,627C721.3,631.3 714.5,636.5 708,642L709,646Z" stroke="#72a1a9" stroke-width="0.75" stroke-linecap="round" fill="#72a1a9" stroke-linejoin="round"/>
<path d="M0,0M799,646C798.9,645.6 807.6,648.2 807,645L804,642L799,643L799,646Z" stroke="#4a90a2" stroke-width="0.75" stroke-linecap="round" fill="#4a90a2" stroke-linejoin="round"/>
<path d="M0,0M501,645C500.8,644 510.9,647.5 508,642C509.1,638.8 500.4,641.4 501,640L501,645Z" stroke="#13606f" stroke-width="0.75" stroke-linecap="round" fill="#13606f" stroke-linejoin="round"/>
<path d="M0,0M807,645L814,645C821.4,644.6 818.6,634.2 820,633L820,631C813.5,625.7 806.5,634.9 804,642L807,645Z" stroke="#2d8297" stroke-width="0.75" stroke-linecap="round" fill="#2d8297" stroke-linejoin="round"/>
<path d="M0,0M444,643C446.4,644.5 449.2,640.3 453,640C455.5,637.9 459.1,632.9 463,634C467.3,632.1 476.5,623 483,625L484,625C486.2,623.6 491.8,622.2 493,622C499.7,621.3 494.9,631.1 496,634C495.7,636.2 498.6,639.8 501,640C500.4,641.4 509.1,638.8 508,642C509.5,640.2 519.5,641.6 520,637L519,637L519,633L517,633L516,630L507,630C498.8,621 515.2,621.8 519,622L520,622C520.2,619.1 523.8,616.2 523,615C515,612.4 497.4,613.8 484,613C477.3,619.4 462.3,620.7 456,625C452.1,630.5 435.1,634.6 444,643Z" stroke="#0c4850" stroke-width="0.75" stroke-linecap="round" fill="#0c4850" stroke-linejoin="round"/>
<path d="M0,0M795,643L799,643L804,642C806.5,634.9 813.5,625.7 820,631C822.8,630.2 827.2,627.6 829,628C825.4,624.6 820.3,621.7 814,619L810,619C808.5,616.9 800.6,617.3 801,615L795,615C795.2,611.7 785.1,615.2 787,612L787,610C756.4,612.5 790.1,625.3 799,625C807.6,628.4 761.7,635.4 795,643Z" stroke="#0f525c" stroke-width="0.75" stroke-linecap="round" fill="#0f525c" stroke-linejoin="round"/>
<path d="M0,0M844,643C862.7,639.8 834.9,630.7 829,628C827.2,627.6 822.8,630.2 820,631L820,633C830.4,634.6 830.5,642.5 844,643Z" stroke="#217a8f" stroke-width="0.75" stroke-linecap="round" fill="#217a8f" stroke-linejoin="round"/>
<path d="M0,0M1029,643L1030,643C1034,640.4 1027.3,626.2 1032,619C1030.2,601.3 1027.3,584.2 1021,570L1020,570C1015.4,558.6 1011.8,546.2 1005,537C1002.9,537.1 1001.4,541.1 1000,540L1002,544C1008.2,554.6 1013.6,570.1 1015,586C1019.3,599 1020.7,618.6 1024,633C1027.2,635.3 1026.3,641.2 1029,643Z" stroke="#1a7285" stroke-width="0.75" stroke-linecap="round" fill="#1a7285" stroke-linejoin="round"/>
<path d="M0,0M456,642C460.8,641.8 463.3,639.3 463,634C459.1,632.9 455.5,637.9 453,640L456,642Z" stroke="#156576" stroke-width="0.75" stroke-linecap="round" fill="#156576" stroke-linejoin="round"/>
<path d="M0,0M519,637L520,637C521.8,628.1 547.8,618.3 523,615C523.8,616.2 520.2,619.1 520,622C520.2,625.8 521.6,634.2 519,633L519,637Z" stroke="#217b90" stroke-width="0.75" stroke-linecap="round" fill="#217b90" stroke-linejoin="round"/>
<path d="M0,0M495,634L496,634C494.9,631.1 499.7,621.3 493,622C497.9,628.2 490.7,626 490,628C491.1,628.8 495.6,630.8 495,634Z" stroke="#186d80" stroke-width="0.75" stroke-linecap="round" fill="#186d80" stroke-linejoin="round"/>
<path d="M0,0M517,633L519,633C521.6,634.2 520.2,625.8 520,622L519,622C519.8,626.4 518.9,632.1 516,630L517,633Z" stroke="#217a90" stroke-width="0.75" stroke-linecap="round" fill="#217a90" stroke-linejoin="round"/>
<path d="M0,0M732,631L733,631L735,628L732,625L729,627C729.1,629.1 733.1,630.6 732,631Z" stroke="#6a9da8" stroke-width="0.75" stroke-linecap="round" fill="#6a9da8" stroke-linejoin="round"/>
<path d="M0,0M402,630L403,630C404.2,625.7 405.9,622.4 405,616L402,616L402,628L402,630Z" stroke="#0c4850" stroke-width="0.75" stroke-linecap="round" fill="#0c4850" stroke-linejoin="round"/>
<path d="M0,0M507,630L516,630C518.9,632.1 519.8,626.4 519,622C515.2,621.8 498.8,621 507,630Z" stroke="#699da7" stroke-width="0.75" stroke-linecap="round" fill="#699da7" stroke-linejoin="round"/>
<path d="M0,0M489,628L490,628C490.7,626 497.9,628.2 493,622C491.8,622.2 486.2,623.6 484,625C484,628.2 491.4,626.2 489,628Z" stroke="#196e80" stroke-width="0.75" stroke-linecap="round" fill="#196e80" stroke-linejoin="round"/>
<path d="M0,0M1152,628C1166.2,630.5 1193.8,629.1 1176,618C1167.2,611.5 1142.5,619 1152,628Z" stroke="#3b8a9e" stroke-width="0.75" stroke-linecap="round" fill="#3b8a9e" stroke-linejoin="round"/>
<path d="M0,0M394,627L396,627C395.9,607.1 394.3,588.7 390,573C392.6,587.8 391.8,610.4 394,627Z" stroke="#042119" stroke-width="0.75" stroke-linecap="round" fill="#042119" stroke-linejoin="round"/>
<path d="M0,0M1111,627C1116.5,626.8 1122.9,621.1 1119,616C1114.6,617.2 1111,622.2 1108,622L1110,625L1111,627Z" stroke="#217a90" stroke-width="0.75" stroke-linecap="round" fill="#217a90" stroke-linejoin="round"/>
<path d="M0,0M451,625L456,625C462.3,620.7 477.3,619.4 484,613C481.8,614.3 482.2,606.4 480,604C468.7,604.4 458.7,608.7 451,610L451,613C457.5,617.5 445.5,621.5 451,625Z" stroke="#438ca0" stroke-width="0.75" stroke-linecap="round" fill="#438ca0" stroke-linejoin="round"/>
<path d="M0,0M717,622C717.3,621.9 722.7,620.8 723,618L721,618C720.5,616.8 719.5,612.4 718,613C716.1,612 713.5,620.5 717,622Z" stroke="#619aa6" stroke-width="0.75" stroke-linecap="round" fill="#619aa6" stroke-linejoin="round"/>
<path d="M0,0M1108,622C1111,622.2 1114.6,617.2 1119,616L1120,615C1115.9,614.2 1107.5,615.4 1108,622Z" stroke="#042119" stroke-width="0.75" stroke-linecap="round" fill="#042119" stroke-linejoin="round"/>
<path d="M0,0M810,619L814,619C811.8,616.2 807.2,614.8 801,615C800.6,617.3 808.5,616.9 810,619Z" stroke="#699da7" stroke-width="0.75" stroke-linecap="round" fill="#699da7" stroke-linejoin="round"/>
<path d="M0,0M721,618L723,618L726,616C727.2,615 721.8,614.3 723,610C719.8,609.4 718.2,613.4 718,613C720.3,613.8 721.3,618.4 721,618Z" stroke="#5d97a5" stroke-width="0.75" stroke-linecap="round" fill="#5d97a5" stroke-linejoin="round"/>
<path d="M0,0M402,616L405,616C422.7,619.2 426,607.5 429,595C431,584.6 448.4,578 438,573C433.4,583.4 423.4,588.4 417,597C413.1,594 408.6,593.6 403,595L403,601C402.7,605.7 405.1,613.1 402,615L402,616Z" stroke="#166a7b" stroke-width="0.75" stroke-linecap="round" fill="#166a7b" stroke-linejoin="round"/>
<path d="M0,0M402,615C405.1,613.1 402.7,605.7 403,601C400.4,603.4 402.8,610.8 402,615Z" stroke="#0f525c" stroke-width="0.75" stroke-linecap="round" fill="#0f525c" stroke-linejoin="round"/>
<path d="M0,0M795,615L801,615C800.7,612.5 793.2,611.5 787,612C785.1,615.2 795.2,611.7 795,615Z" stroke="#5d97a5" stroke-width="0.75" stroke-linecap="round" fill="#5d97a5" stroke-linejoin="round"/>
<path d="M0,0M448,610L451,610C458.7,608.7 468.7,604.4 480,604C493.6,592.5 526.5,608.3 537,595C526.4,583.1 498.5,588 483,580L480,580C475.2,578.4 463,578.2 462,579C449.4,575.5 447.1,585.7 444,589C440.2,597 439.7,601.1 448,610Z" stroke="#9bb8b9" stroke-width="0.75" stroke-linecap="round" fill="#9bb8b9" stroke-linejoin="round"/>
<path d="M0,0M417,597C423.4,588.4 433.4,583.4 438,573C422,554.2 468.1,573.1 474,574C483.3,574.2 490.9,575.6 498,577C507.7,578.2 513.9,575.4 520,573C515.9,562.4 524,558.8 525,552C524.2,550.6 520.2,549.1 522,547C514.1,542.8 503.1,536.3 492,537C490,541 479,536 477,540C477.2,536.7 467.1,540.2 469,537L462,537L462,535C449.3,534.3 441.8,535.2 430,535C418.5,534.6 420.7,551.2 409,549C406.9,548 408.3,539.6 408,538C403.8,556.8 404.2,573.1 403,595C408.6,593.6 413.1,594 417,597Z" stroke="#0a4348" stroke-width="0.75" stroke-linecap="round" fill="#0a4348" stroke-linejoin="round"/>
<path d="M0,0M429,597C437.8,600.9 438.3,590.9 444,589C447.1,585.7 449.4,575.5 462,579C455.8,573 475.9,578.4 474,574C468.1,573.1 422,554.2 438,573C448.4,578 431,584.6 429,595L429,597Z" stroke="#38869a" stroke-width="0.75" stroke-linecap="round" fill="#38869a" stroke-linejoin="round"/>
<path d="M0,0M876,588C911,594.2 899.3,565.2 886,558C888.3,562 884.3,563.5 883,562L882,561C880.1,562.2 879.9,568.6 877,567C872.7,563.7 861.4,563.5 858,561C849.3,565.3 848.8,577.8 838,580C851.2,582.8 863,586 876,588Z" stroke="#6a9da8" stroke-width="0.75" stroke-linecap="round" fill="#6a9da8" stroke-linejoin="round"/>
<path d="M0,0M480,580L483,580C485,576.5 496,581.5 498,577C490.9,575.6 483.3,574.2 474,574C475.9,578.4 455.8,573 462,579C463,578.2 475.2,578.4 480,580Z" stroke="#438ca0" stroke-width="0.75" stroke-linecap="round" fill="#438ca0" stroke-linejoin="round"/>
<path d="M0,0M835,580L838,580C848.8,577.8 849.3,565.3 858,561C848,560.5 859.3,547.4 865,552C863.9,550.5 859.4,548.5 861,546C850.1,530.9 833.3,522.2 808,529C799.4,529 804.1,535.3 799,537C831.9,559.5 785.1,565.7 775,574C791.9,583.3 820.8,569.1 835,580Z" stroke="#5392a3" stroke-width="0.75" stroke-linecap="round" fill="#5392a3" stroke-linejoin="round"/>
<path d="M0,0M736,579L741,577C747.7,565.6 729.7,571.4 735,564C729.5,563.6 695.6,548.4 732,540C731.6,533.5 724.7,535.5 720,537C708.7,536.1 677.8,560.8 702,565C714.1,569.4 725.9,573.6 736,579Z" stroke="#4a91a3" stroke-width="0.75" stroke-linecap="round" fill="#4a91a3" stroke-linejoin="round"/>
<path d="M0,0M741,577C751.7,578.2 765.7,576.8 775,574C785.1,565.7 831.9,559.5 799,537L798,537C784.1,539.1 767.6,538.6 751,538C740.4,538.1 741.6,539.9 732,540C695.6,548.4 729.5,563.6 735,564C729.7,571.4 747.7,565.6 741,577Z" stroke="#156576" stroke-width="0.75" stroke-linecap="round" fill="#156576" stroke-linejoin="round"/>
<path d="M0,0M526,574C531.4,573.4 534,570 534,564C533.7,557.3 527.6,556.4 525,552C524,558.8 515.9,562.4 520,573C523.1,572.5 528.1,573.1 526,574Z" stroke="#186d80" stroke-width="0.75" stroke-linecap="round" fill="#186d80" stroke-linejoin="round"/>
<path d="M0,0M1020,570L1021,570C1024.3,549.4 1003.7,527.3 1002,513C1000.2,512.2 1000.8,505.5 999,507C985.2,512.9 1003.8,528.3 1005,537C1011.8,546.2 1015.4,558.6 1020,570Z" stroke="#0c4850" stroke-width="0.75" stroke-linecap="round" fill="#0c4850" stroke-linejoin="round"/>
<path d="M0,0M877,567C879.9,568.6 880.1,562.2 882,561C879.7,555.2 867.8,555.6 865,552C859.3,547.4 848,560.5 858,561C861.4,563.5 872.7,563.7 877,567Z" stroke="#3a899e" stroke-width="0.75" stroke-linecap="round" fill="#3a899e" stroke-linejoin="round"/>
<path d="M0,0M535,565C537.3,565.9 541.9,563.5 541,559C536.9,556.1 533.6,546 522,547C520,551.6 527,550.2 525,552C527.6,556.4 533.7,557.3 534,564L535,565Z" stroke="#4a91a3" stroke-width="0.75" stroke-linecap="round" fill="#4a91a3" stroke-linejoin="round"/>
<path d="M0,0M883,562C888.1,564.9 886.1,557.5 886,558C886.2,552.3 876.6,555.9 876,550C869.8,552.8 868.3,544.9 861,546C859.4,548.5 863.9,550.5 865,552C867.8,555.6 879.7,555.2 882,561L883,562Z" stroke="#619aa6" stroke-width="0.75" stroke-linecap="round" fill="#619aa6" stroke-linejoin="round"/>
<path d="M0,0M409,549C420.7,551.2 418.5,534.6 430,535C431.6,530.6 445.2,538.2 444,531C441.2,530.7 440.1,525.3 439,525L438,525C421.9,516.3 429.8,481.3 430,457C429.3,449.3 432,445 432,438C431.2,409.7 449.8,437.8 451,406C460.6,387.6 467.2,366.2 477,348C485.5,328.5 494.6,309.6 507,294L505,294C503.1,284.5 513.2,284 513,279C512.4,277 509.1,274.2 508,274C503.5,278.6 498.5,286.1 493,288C480,297.9 471.3,314.9 459,324C450.4,337.4 444.3,353.3 438,369C430.9,383.9 426.6,401.6 421,418C416.1,435.1 413.7,454.7 411,474C410.7,494.1 408.8,517 408,538C408.3,539.6 406.9,548 409,549Z" stroke="#438da0" stroke-width="0.75" stroke-linecap="round" fill="#438da0" stroke-linejoin="round"/>
<path d="M0,0M477,540C479,536 490,541 492,537C490.3,537.3 486.4,534.2 481,535C476.2,534.3 471.3,536.9 469,537C467.1,540.2 477.2,536.7 477,540Z" stroke="#217a90" stroke-width="0.75" stroke-linecap="round" fill="#217a90" stroke-linejoin="round"/>
<path d="M0,0M732,540C741.6,539.9 740.4,538.1 751,538L751,535C748.2,535.2 739.8,536.6 741,534C739.1,525.1 720.3,531.1 720,537C724.7,535.5 731.6,533.5 732,540Z" stroke="#95b3b7" stroke-width="0.75" stroke-linecap="round" fill="#95b3b7" stroke-linejoin="round"/>
<path d="M0,0M1000,540C1002.6,539.9 1004.1,535.9 1005,537C1003.8,528.3 985.2,512.9 999,507C999.4,498.6 993,497 994,487C1000,472 994.1,434.5 1006,441C1016.5,426.8 995.6,399.7 982,391C976.6,400 994.7,417 979,421C983.8,450.1 977.3,480.4 979,502C983.3,504.8 984,513.7 985,516C991.4,523.1 995.8,531.7 1000,540Z" stroke="#217a8f" stroke-width="0.75" stroke-linecap="round" fill="#217a8f" stroke-linejoin="round"/>
<path d="M0,0M751,538C767.6,538.6 784.1,539.1 798,537C784.8,534.2 766.7,536.3 751,535L751,538Z" stroke="#77a4aa" stroke-width="0.75" stroke-linecap="round" fill="#77a4aa" stroke-linejoin="round"/>
<path d="M0,0M462,537L469,537C471.3,536.9 476.2,534.3 481,535L481,534L462,534L462,535L462,537Z" stroke="#95b3b7" stroke-width="0.75" stroke-linecap="round" fill="#95b3b7" stroke-linejoin="round"/>
<path d="M0,0M798,537L799,537C804.1,535.3 799.4,529 808,529C781.4,526.4 766.6,535.6 741,534C739.8,536.6 748.2,535.2 751,535C766.7,536.3 784.8,534.2 798,537Z" stroke="#95b3b7" stroke-width="0.75" stroke-linecap="round" fill="#95b3b7" stroke-linejoin="round"/>
<path d="M0,0M430,535C441.8,535.2 449.3,534.3 462,535L462,534L456,534C453.2,531.8 447.5,532.5 444,531C445.2,538.2 431.6,530.6 430,535Z" stroke="#72a1a9" stroke-width="0.75" stroke-linecap="round" fill="#72a1a9" stroke-linejoin="round"/>
<path d="M0,0M456,534L462,534L481,534C506.5,540 491.5,506 501,496C503.6,481.7 509.1,465.4 514,451C517.3,436.9 524.2,421.9 528,406C533.4,394.6 539.1,378.4 547,367C553.2,354.2 563.5,345.5 573,336C580.7,326.4 594.9,318.7 607,312C618.4,305.6 630.9,296.2 648,294C664.1,294.6 690.8,294.3 699,289C700.2,285.7 694.8,285 696,283L693,283C684,277.4 667.9,278.3 654,276C654,283.1 646.5,286.2 640,285C628.1,281.4 616.3,277.2 607,270C578.6,273.6 543.8,273.2 531,291C515,303.4 503.1,322.1 495,340C490.6,364.1 480.4,381.9 474,403C457.6,426.1 474.7,442 466,468C460.9,490.4 450.7,508.2 439,525C440.1,525.3 441.2,530.7 444,531C447.5,532.5 453.2,531.8 456,534Z" stroke="#9bb8b9" stroke-width="0.75" stroke-linecap="round" fill="#9bb8b9" stroke-linejoin="round"/>
<path d="M0,0M438,525L439,525C450.7,508.2 460.9,490.4 466,468C474.7,442 457.6,426.1 474,403C480.4,381.9 490.6,364.1 495,340C503.1,322.1 515,303.4 531,291C519.7,294 515.8,282 507,294C494.6,309.6 485.5,328.5 477,348C467.2,366.2 460.6,387.6 451,406C449.8,437.8 431.2,409.7 432,438C432,445 429.3,449.3 430,457C429.8,481.3 421.9,516.3 438,525Z" stroke="#7da7ac" stroke-width="0.75" stroke-linecap="round" fill="#7da7ac" stroke-linejoin="round"/>
<path d="M0,0M984,517L985,516C984,513.7 983.3,504.8 979,502C979.2,506.4 982.3,510.3 981,513C981.8,514.4 985.8,515.9 984,517Z" stroke="#91b0b4" stroke-width="0.75" stroke-linecap="round" fill="#91b0b4" stroke-linejoin="round"/>
<path d="M0,0M979,513L981,513C982.3,510.3 979.2,506.4 979,502C977.3,480.4 983.8,450.1 979,421L978,421C979.3,415.2 975.7,418 975,418C961.9,425.4 969.7,453.2 966,469C961.5,488.7 970,504 979,513Z" stroke="#84aaaf" stroke-width="0.75" stroke-linecap="round" fill="#84aaaf" stroke-linejoin="round"/>
<path d="M0,0M1002,513C1014.2,512.3 1013.4,468.9 1030,481C1034.1,477.2 1030.9,466 1029,460L1027,460C1027.2,453.4 1021.7,441.1 1033,442C1038.3,427.4 1012.1,412.5 1026,402L1014,390C997.6,379 970.9,372.7 940,376C918.1,381.9 964.4,378.8 969,384C973,382.2 974.5,386.2 973,387C978.2,386.4 978.9,393.2 982,391C995.6,399.7 1016.5,426.8 1006,441C994.1,434.5 1000,472 994,487C993,497 999.4,498.6 999,507C1000.8,505.5 1000.2,512.2 1002,513Z" stroke="#0d4c55" stroke-width="0.75" stroke-linecap="round" fill="#0d4c55" stroke-linejoin="round"/>
<path d="M0,0M376,493L378,493C380.3,491.5 380.3,480.5 378,478C374.8,478.2 377.3,489.2 376,493Z" stroke="#8aadb2" stroke-width="0.75" stroke-linecap="round" fill="#8aadb2" stroke-linejoin="round"/>
<path d="M0,0M1027,460L1029,460C1028.5,456 1036.2,447 1033,442C1021.7,441.1 1027.2,453.4 1027,460Z" stroke="#052922" stroke-width="0.75" stroke-linecap="round" fill="#052922" stroke-linejoin="round"/>
<path d="M0,0M1161,456L1162,456L1162,453L1162,409C1160.2,408 1161.1,415.5 1161,418L1161,439L1161,456Z" stroke="#16697b" stroke-width="0.75" stroke-linecap="round" fill="#16697b" stroke-linejoin="round"/>
<path d="M0,0M1162,453C1165.2,437.7 1163.2,417.7 1164,400C1161.7,399 1162.6,406.5 1162,409L1162,453Z" stroke="#8aadb2" stroke-width="0.75" stroke-linecap="round" fill="#8aadb2" stroke-linejoin="round"/>
<path d="M0,0M1159,439L1161,439L1161,418C1157.8,420.2 1160.4,433.3 1159,439Z" stroke="#062c2a" stroke-width="0.75" stroke-linecap="round" fill="#062c2a" stroke-linejoin="round"/>
<path d="M0,0M384,433L385,433C388.3,434.4 386.5,425.1 387,421L385,421L385,414C383.1,422.5 381.9,425.1 384,433Z" stroke="#91b0b5" stroke-width="0.75" stroke-linecap="round" fill="#91b0b5" stroke-linejoin="round"/>
<path d="M0,0M385,421L387,421C386.2,419.5 388.7,408.5 385,406L385,414L385,421Z" stroke="#196e80" stroke-width="0.75" stroke-linecap="round" fill="#196e80" stroke-linejoin="round"/>
<path d="M0,0M978,421L979,421C994.7,417 976.6,400 982,391C978.9,393.2 978.2,386.4 973,387L970,388C969.7,398.3 976.2,406.2 975,418C975.7,418 979.3,415.2 978,421Z" stroke="#4a91a3" stroke-width="0.75" stroke-linecap="round" fill="#4a91a3" stroke-linejoin="round"/>
<path d="M0,0M967,388L970,388L973,387C975.9,382.4 968.5,384.4 969,384L967,385L967,388Z" stroke="#438da0" stroke-width="0.75" stroke-linecap="round" fill="#438da0" stroke-linejoin="round"/>
<path d="M0,0M390,385C394.7,378.7 400.8,360.1 385,360C389.6,368.9 389.2,376.5 390,385Z" stroke="#0c464b" stroke-width="0.75" stroke-linecap="round" fill="#0c464b" stroke-linejoin="round"/>
<path d="M0,0M918,385C918.6,383.2 929,385.2 931,382C931.9,379.4 925.7,379.6 927,378C898,375 871.9,369.1 847,361L844,361C829.3,354.4 810.7,348.2 796,342L792,342C788.9,339.1 781.9,340.1 780,336C771.6,330.3 754.7,330 750,322L748,322C739.6,316.2 728,309.7 721,303C719.6,303.7 717.2,307.3 715,306C722.1,316.7 735.4,325.3 747,333C760,340 772.4,347.6 787,352C800.3,359.7 817.2,362.8 831,369C846.9,373.1 862.9,377.1 879,381C890.3,381.9 906.7,382.6 918,385Z" stroke="#3a899e" stroke-width="0.75" stroke-linecap="round" fill="#3a899e" stroke-linejoin="round"/>
<path d="M0,0M961,385L967,385L969,384C964.4,378.8 918.1,381.9 940,376C936.3,377.3 928.9,374.9 927,378C925.7,379.6 931.9,379.4 931,382C942.2,382.8 952.1,383.9 961,385Z" stroke="#105763" stroke-width="0.75" stroke-linecap="round" fill="#105763" stroke-linejoin="round"/>
<path d="M0,0M880,369C886.4,345.9 887.3,312.5 874,297C860.7,283.2 848.5,263.9 834,249C815.2,243.3 803.5,260.4 783,259C777.5,256.8 765.7,262.5 774,267C792,265.2 788.4,309.1 766,301C759.6,299.5 760,310.4 753,310C756.5,313.7 749.5,317.7 750,322C754.7,330 771.6,330.3 780,336C786.4,337.6 792.6,339.4 799,340C815.9,340.4 849.4,345.4 847,358C855.6,362.5 870.8,364.5 880,369Z" stroke="#062c2a" stroke-width="0.75" stroke-linecap="round" fill="#062c2a" stroke-linejoin="round"/>
<path d="M0,0M844,361L847,361L847,358C849.4,345.4 815.9,340.4 799,340L796,342C810.7,348.2 829.3,354.4 844,361Z" stroke="#0f525c" stroke-width="0.75" stroke-linecap="round" fill="#0f525c" stroke-linejoin="round"/>
<path d="M0,0M1177,360C1179.8,358.9 1179.8,349.1 1177,348C1173.2,351.1 1179.5,354.6 1177,360Z" stroke="#c0cecd" stroke-width="0.75" stroke-linecap="round" fill="#c0cecd" stroke-linejoin="round"/>
<path d="M0,0M967,358C999,342.6 958.6,301.2 946,333C967.2,342.7 946.4,354.9 967,358Z" stroke="#0a4348" stroke-width="0.75" stroke-linecap="round" fill="#0a4348" stroke-linejoin="round"/>
<path d="M0,0M967,358C946.4,354.9 967.2,342.7 946,333C938.1,336.7 945.7,349.4 952,351L967,358Z" stroke="#125c6a" stroke-width="0.75" stroke-linecap="round" fill="#125c6a" stroke-linejoin="round"/>
<path d="M0,0M792,342L796,342L799,340C792.6,339.4 786.4,337.6 780,336C781.9,340.1 788.9,339.1 792,342Z" stroke="#073330" stroke-width="0.75" stroke-linecap="round" fill="#073330" stroke-linejoin="round"/>
<path d="M0,0M459,324C471.3,314.9 480,297.9 493,288L493,286L489,288L484,286C473.1,296.1 466.1,310.1 459,324Z" stroke="#115864" stroke-width="0.75" stroke-linecap="round" fill="#115864" stroke-linejoin="round"/>
<path d="M0,0M748,322L750,322C749.5,317.7 756.5,313.7 753,310C737.8,300.2 724.1,284.3 706,274C687.8,266.9 680.2,241.9 660,240L654,240C647.8,237.2 639.4,236.6 630,237C634.2,242.3 623.3,250.2 633,252C642.9,256.3 655.9,260.5 663,265C667.6,264.5 670.4,268.7 672,268C688.9,271.6 700.2,280.3 709,291C711.8,292.2 715.4,295.7 715,297C719.5,296.6 721.9,301.2 721,303C728,309.7 739.6,316.2 748,322Z" stroke="#0e4d56" stroke-width="0.75" stroke-linecap="round" fill="#0e4d56" stroke-linejoin="round"/>
<path d="M0,0M381,321L382,321L382,303C377.1,302.2 379.7,317.2 381,321Z" stroke="#cad4d4" stroke-width="0.75" stroke-linecap="round" fill="#cad4d4" stroke-linejoin="round"/>
<path d="M0,0M1048,313C1068.1,311.7 1098.7,309.7 1095,294C1096.7,269.3 1065.4,269.1 1051,277C1025.5,257 1035.1,298.2 1008,282C1015.3,298.7 1036.6,301.4 1048,313Z" stroke="#062d2a" stroke-width="0.75" stroke-linecap="round" fill="#062d2a" stroke-linejoin="round"/>
<path d="M0,0M714,306L715,306C717.2,307.3 719.6,303.7 721,303C721.9,301.2 719.5,296.6 715,297C714.9,299 711.6,301.8 711,301C711.1,303.6 715.1,305.1 714,306Z" stroke="#37859a" stroke-width="0.75" stroke-linecap="round" fill="#37859a" stroke-linejoin="round"/>
<path d="M0,0M709,301L711,301C711.6,301.8 714.9,299 715,297C715.4,295.7 711.8,292.2 709,291C710.8,294.9 705.8,296 705,295C704.4,297 708.9,299 709,301Z" stroke="#37859a" stroke-width="0.75" stroke-linecap="round" fill="#37859a" stroke-linejoin="round"/>
<path d="M0,0M705,295C705.8,296 710.8,294.9 709,291C700.2,280.3 688.9,271.6 672,268C679.9,273 693.5,277.8 696,283C694.8,285 700.2,285.7 699,289C699.3,290.5 706.1,290.8 705,295Z" stroke="#186d80" stroke-width="0.75" stroke-linecap="round" fill="#186d80" stroke-linejoin="round"/>
<path d="M0,0M505,294L507,294C515.8,282 519.7,294 531,291C543.8,273.2 578.6,273.6 607,270L607,262C604.2,248.2 601,267.7 591,264C591.2,259.5 585.7,254 583,256C571.5,273.6 570.2,243.5 553,250C544.9,264.9 525.8,268.9 513,279C513.2,284 503.1,284.5 505,294Z" stroke="#5d97a5" stroke-width="0.75" stroke-linecap="round" fill="#5d97a5" stroke-linejoin="round"/>
<path d="M0,0M489,288L493,286C492.6,280.5 486.9,286.4 484,285L484,286L489,288Z" stroke="#105763" stroke-width="0.75" stroke-linecap="round" fill="#105763" stroke-linejoin="round"/>
<path d="M0,0M493,288C498.5,286.1 503.5,278.6 508,274C519.9,263.5 535,253.9 550,249C555.9,247.5 567,246.2 561,240C546.7,224.6 535.9,251.6 520,253C508.5,261.9 494.9,273.1 484,285C486.9,286.4 492.6,280.5 493,286L493,288Z" stroke="#0d4c56" stroke-width="0.75" stroke-linecap="round" fill="#0d4c56" stroke-linejoin="round"/>
<path d="M0,0M640,285C646.5,286.2 654,283.1 654,276C652.1,273.8 644.6,273.8 646,270C643.4,263.1 631.3,265.2 625,261C618.1,259.6 614.8,260.6 610,262C610.7,268.7 613.4,271.2 607,270C616.3,277.2 628.1,281.4 640,285Z" stroke="#8aadb2" stroke-width="0.75" stroke-linecap="round" fill="#8aadb2" stroke-linejoin="round"/>
<path d="M0,0M693,283L696,283C693.5,277.8 679.9,273 672,268C670.4,268.7 667.6,264.5 663,265C654.2,261.3 651.2,263.7 646,270C644.6,273.8 652.1,273.8 654,276C667.9,278.3 684,277.4 693,283Z" stroke="#37859a" stroke-width="0.75" stroke-linecap="round" fill="#37859a" stroke-linejoin="round"/>
<path d="M0,0M513,279C525.8,268.9 544.9,264.9 553,250L550,249C535,253.9 519.9,263.5 508,274C509.1,274.2 512.4,277 513,279Z" stroke="#1b758a" stroke-width="0.75" stroke-linecap="round" fill="#1b758a" stroke-linejoin="round"/>
<path d="M0,0M607,270C613.4,271.2 610.7,268.7 610,262L607,262L607,270Z" stroke="#619aa6" stroke-width="0.75" stroke-linecap="round" fill="#619aa6" stroke-linejoin="round"/>
<path d="M0,0M646,270C651.2,263.7 654.2,261.3 663,265C655.9,260.5 642.9,256.3 633,252C624.9,249 631.3,264 625,261C631.3,265.2 643.4,263.1 646,270Z" stroke="#217a90" stroke-width="0.75" stroke-linecap="round" fill="#217a90" stroke-linejoin="round"/>
<path d="M0,0M591,264C601,267.7 604.2,248.2 607,262L610,262C614.8,260.6 618.1,259.6 625,261C631.3,264 624.9,249 633,252C623.3,250.2 634.2,242.3 630,237C619.2,207.6 602.4,223.6 588,232C579.5,233 569.7,237.6 561,240C567,246.2 555.9,247.5 550,249L553,250C570.2,243.5 571.5,273.6 583,256C585.7,254 591.2,259.5 591,264Z" stroke="#186d80" stroke-width="0.75" stroke-linecap="round" fill="#186d80" stroke-linejoin="round"/>
<path d="M0,0M654,240L660,240C651,231.6 642.8,207.2 619,207C601.5,208.6 584.8,214.6 588,232C602.4,223.6 619.2,207.6 630,237C639.4,236.6 647.8,237.2 654,240Z" stroke="#073330" stroke-width="0.75" stroke-linecap="round" fill="#073330" stroke-linejoin="round"/>
<path d="M0,0M454,127C463.2,129.3 466.5,123.3 474,120C483.4,109.6 469.1,113 462,111L459,112C464.3,116.7 452.5,124.3 454,127Z" stroke="#0f525c" stroke-width="0.75" stroke-linecap="round" fill="#0f525c" stroke-linejoin="round"/>
<path d="M0,0M807,124C837.8,99.5 778.7,103.9 760,99C733,118.8 782.2,127.8 807,124Z" stroke="#072d2a" stroke-width="0.75" stroke-linecap="round" fill="#072d2a" stroke-linejoin="round"/>
<path d="M0,0M474,120C499.3,124.9 507.5,110.6 493,93C482.3,96.1 468.7,101.5 462,111C469.1,113 483.4,109.6 474,120Z" stroke="#0a4348" stroke-width="0.75" stroke-linecap="round" fill="#0a4348" stroke-linejoin="round"/>
<path d="M0,0M1050,111L1059,111C1054.1,107.9 1052.7,101.3 1045,100C1044.2,106.8 1047.4,108.6 1050,111Z" stroke="#13606f" stroke-width="0.75" stroke-linecap="round" fill="#13606f" stroke-linejoin="round"/>
<path d="M0,0M616,103C641.7,106.9 647,65 634,52C625.4,65.2 597.9,84.9 616,103Z" stroke="#093839" stroke-width="0.75" stroke-linecap="round" fill="#093839" stroke-linejoin="round"/>
<path d="M0,0M499,90C502.5,87 505.5,84 508,81C500.5,80.3 496.7,84.1 499,90Z" stroke="#f6f8f7" stroke-width="0.75" stroke-linecap="round" fill="#f6f8f7" stroke-linejoin="round"/>
<path d="M0,0M730,66C743,62.7 760.2,52.8 777,49C793.5,44 786.7,15.2 805,12L805,4L714,4C720.8,33.8 697.4,37.1 690,54C675.1,78.8 720,46.8 730,66Z" stroke="#062d2a" stroke-width="0.75" stroke-linecap="round" fill="#062d2a" stroke-linejoin="round"/>
<path d="M0,0M945,63C951,63.3 947,54.9 942,55C944.4,61 934.3,57.5 934,58C936.8,61.2 942.7,60.3 945,63Z" stroke="#083839" stroke-width="0.75" stroke-linecap="round" fill="#083839" stroke-linejoin="round"/>
<path d="M0,0M930,58L934,58C934.3,57.5 944.4,61 942,55L940,52C938.6,53.2 936.2,56.8 934,55C933.9,53.5 927.9,53.4 928,52C927.2,56 930.6,58 930,58Z" stroke="#093e40" stroke-width="0.75" stroke-linecap="round" fill="#093e40" stroke-linejoin="round"/>
<path d="M0,0M934,55C936.2,56.8 938.6,53.2 940,52C933.1,46.2 916.1,37 909,39C913.3,45.7 920.5,49.5 928,52C927.9,53.4 933.9,53.5 934,55Z" stroke="#186d80" stroke-width="0.75" stroke-linecap="round" fill="#186d80" stroke-linejoin="round"/>
<path d="M0,0M940,52C946.1,54.3 947,45.7 952,45C939.6,38.8 924.4,25.8 904,28C907.8,32.5 900.4,39 909,39C916.1,37 933.1,46.2 940,52Z" stroke="#0d4c55" stroke-width="0.75" stroke-linecap="round" fill="#0d4c55" stroke-linejoin="round"/>
<path d="M0,0M664,16C671.8,17.8 678.5,8.6 678,4L670,4L667,4C671,7.7 664,11.7 664,16Z" stroke="#105763" stroke-width="0.75" stroke-linecap="round" fill="#105763" stroke-linejoin="round"/>
<path d="M0,0M735,16C738.9,17.3 744.6,16.4 742,13L735,13L735,16Z" stroke="#0d4c56" stroke-width="0.75" stroke-linecap="round" fill="#0d4c56" stroke-linejoin="round"/>
<path d="M0,0M735,13L742,13L744,9L736,9L735,13Z" stroke="#0e4d56" stroke-width="0.75" stroke-linecap="round" fill="#0e4d56" stroke-linejoin="round"/>
<path d="M0,0M843,13C845.6,8.6 844,10 850,9C848.9,5.6 844.7,4.8 841,3C841.2,4.6 835.8,2.1 835,4C837.4,5.2 837.1,11.5 837,12C839.6,11.5 844.6,12.1 843,13Z" stroke="#0f525c" stroke-width="0.75" stroke-linecap="round" fill="#0f525c" stroke-linejoin="round"/>
<path d="M0,0M805,12L816,12C819.1,9.7 834.7,9.7 835,12L837,12C837.1,11.5 837.4,5.2 835,4L810,4L805,4L805,12Z" stroke="#13606f" stroke-width="0.75" stroke-linecap="round" fill="#13606f" stroke-linejoin="round"/>
<path d="M0,0M816,12L835,12C834.7,9.7 819.1,9.7 816,12Z" stroke="#0c4850" stroke-width="0.75" stroke-linecap="round" fill="#0c4850" stroke-linejoin="round"/>
<path d="M0,0M736,9L744,9C744.2,6 734.1,7.6 736,9Z" stroke="#000000" stroke-width="0.75" stroke-linecap="round" fill="#000000" stroke-linejoin="round"/>
<path d="M0,0M637,4L667,4L670,4C662.4,1.5 645.6,3.9 637,3L637,4Z" stroke="#1b758a" stroke-width="0.75" stroke-linecap="round" fill="#1b758a" stroke-linejoin="round"/>
<path d="M0,0M670,4L678,4L688,4C706.9,1.9 729.7,3.7 750,3C769.6,3.7 794.3,1.9 810,4L835,4C835.8,2.1 841.2,4.6 841,3L840,0L786,0L733,0L628,0L628,1C628.7,2.1 633.5,3.9 637,3C645.6,3.9 662.4,1.5 670,4Z" stroke="#96b3b7" stroke-width="0.75" stroke-linecap="round" fill="#96b3b7" stroke-linejoin="round"/>
<path d="M0,0M688,4L714,4L805,4L810,4C794.3,1.9 769.6,3.7 750,3C729.7,3.7 706.9,1.9 688,4Z" stroke="#277e93" stroke-width="0.75" stroke-linecap="round" fill="#277e93" stroke-linejoin="round"/>
</g>
<g id="layer1" opacity="0.8">
<path d="M0,0M1,1440L103,1440L205,1440L307,1440L408,1440C437.6,1435.6 484.9,1448.9 499,1429C509.7,1396.9 490.8,1373.6 481,1351C463.3,1332.8 469.9,1294.8 477,1269C484.4,1242.9 478.8,1202 492,1183C470.1,1195.6 453.8,1213.3 432,1225C409.6,1237.1 389.5,1251 364,1260C339.7,1269.2 314.6,1278.1 289,1287C265,1296 239.5,1305.8 217,1315C192.2,1324.2 170.4,1336.4 147,1347C123.9,1357.9 97.6,1365.6 69,1371C51.5,1385.4 11.9,1385.1 3,1401C13.8,1401.1 20,1403.9 9,1405C0.7,1403.3 3.4,1415.6 3,1419C26.2,1436.2 7.4,1423.7 1,1440M979,1440L1084,1440L1188,1440L1293,1440L1396,1440C1444,1460.2 1444.1,1403.7 1429,1383C1409,1369 1386.9,1354.8 1365,1344C1341.1,1332.9 1318.1,1320.9 1294,1309C1269.7,1299.8 1247,1286.2 1224,1276C1200.5,1265 1183.3,1247.2 1165,1230C1148.5,1212.5 1129.7,1195 1114,1177C1096.6,1160.4 1087.9,1134.1 1074,1113C1072.6,1105.4 1065.6,1103.4 1062,1098C1040.2,1062.4 1059.4,1099.5 1051,1119C1066,1143 1062.3,1176.3 1053,1204C1045.3,1231.3 1035.2,1257.5 1027,1282C1018.2,1308.2 1009.8,1334.8 1000,1360C994.4,1387.3 981.3,1414.7 979,1440M606,1438L630,1438C677.3,1435.2 630.6,1433.7 615,1434C591.2,1426.3 592.2,1391.9 579,1375C568.5,1354.5 558.5,1331.1 552,1308C539.4,1280.4 546.4,1264.9 538,1237C537.2,1207.4 524,1187.1 522,1159C516.2,1134.3 518.4,1101.1 516,1072C506.9,1050.1 493.2,1030.5 481,1012C469.2,993.8 457.1,974.9 447,954C436.7,932.9 427,909.1 426,880C417.5,858.1 418.4,826.1 412,801C409.5,774.4 400.6,744.7 403,718C408.9,690.3 394.2,663.5 402,633C403.6,603.1 403.4,569.5 406,543C409.4,514.9 410.3,484.8 412,456C416.1,428.2 424.4,403 432,381C439.8,357.8 448.6,335.5 460,316C470.8,295.3 488.3,279.5 507,268C524.7,261.8 533.8,239.9 562,240C569.8,222.7 547.9,196 523,196C491,195 481,216 456,222C471.2,205.7 491.5,192.6 519,190C542.5,178.7 471.3,196.6 463,183C451.3,176.4 517.3,174.4 531,180C547.2,194.8 561.3,211.7 574,229C603.9,268.7 580.9,221.4 567,211C552.4,195.1 541.6,174.9 514,171C507.5,167.3 504.3,169.8 495,169C456.5,180.4 476.3,165.5 502,166C527.6,160.1 549.3,179.2 561,195C562.7,201.3 567.6,204.4 571,208C572.7,211.8 577.1,221.2 576,210C578.2,188.1 580.6,216.3 586,225C599,254.8 578.8,193.2 577,180C571.1,159.6 545.5,134.5 570,114C583.2,96.2 614.1,96.1 619,70C624.3,67.3 624.6,59.6 630,57C641,27.5 650.7,38.9 634,60C632.8,66.3 627.1,68.6 627,76C614,110 634.5,70.5 639,61C660.1,16 642.6,82.8 633,90C584.7,96.3 661.3,105 651,72C658.2,52.5 682.5,9.3 669,61C666.6,67.1 664.4,72.9 661,78C657.9,55.4 650.9,103.3 636,100C595.3,91.7 586.7,116.8 588,141C569.3,159.7 600,179.1 603,201C612.8,213 587.1,269.8 600,256C604.7,253.2 606.7,247.2 606,238C599.2,206.6 619.2,225.1 616,216C616.2,216.6 606.6,206.2 615,202C646.1,176.4 604.3,234.7 630,210C667.7,174.4 632.9,230.9 639,231C661.9,234.8 684.8,248.2 694,267C719.9,291.9 674.2,246 655,258C630.2,263.5 678.5,270 693,276C714,286 721.3,309.7 741,321C761.6,331.8 785.3,341.6 810,346C833.8,353.7 848.6,369.9 879,370C904.4,375 931.6,385.9 960,381C991.5,380.5 984.1,418.9 997,436C1007.1,450.4 1013.9,500.3 1005,502C1001.6,499.9 1004,482.6 999,490C1003.2,532.3 989.6,490.7 978,493C985.6,517.3 1009.6,526.7 1014,552C1023.4,573.5 1028.5,599.5 1036,622C1046.3,636.7 1064.5,691.8 1041,649C1037.3,638.9 1019.4,577.7 1020,610C1026.7,635.2 1035.8,659.6 1042,682C1050.6,707.3 1056,736.1 1039,754C1030.9,792.3 1043.7,794.4 1038,826C1030.7,845.7 1043.2,884.9 1026,901C1016.7,923.7 1016.3,956.6 1017,987C1009.6,1020.6 1023,1040.2 1024,1069C1027.8,1104.3 1013.6,1123.5 1002,1141C990.8,1161.7 974.9,1179.3 966,1200C956.3,1221.7 936.9,1235.7 925,1254C923.1,1276.2 903.8,1293.1 895,1314C883.9,1333.8 871.5,1354.9 861,1374C847.6,1391.6 845.7,1420.7 828,1434C823.2,1437.2 812.6,1434.6 805,1435C763.2,1438.4 834.1,1442 835,1434C846,1413.5 854.7,1391.2 867,1372C878.5,1352.5 890.5,1331.1 901,1312C912.6,1292.6 924.8,1273.8 937,1255C950.2,1236.7 962.5,1215.7 975,1198C985.8,1178.3 999.7,1161.2 1011,1141C1022.2,1121.2 1033.3,1099 1035,1071C1037.8,1043 1014.2,1031.1 1023,993C1022.6,961.1 1022.3,927.4 1032,907C1048.9,894.3 1041.2,852.2 1074,859C1095,849.1 1108.4,829.1 1123,814C1138.5,798.5 1152.5,781.5 1161,759C1172.6,739.1 1180.5,713.6 1189,693C1203.5,676.5 1199.4,635.7 1191,616C1164.6,581.9 1169.1,604.3 1188,627C1199.6,650.9 1192.5,683.4 1182,702C1171.5,723 1163.4,748.3 1152,766C1143.1,788.6 1126.7,803.2 1113,820C1095.9,834.8 1085.6,858 1054,856C1026.2,851.2 1056.7,811.8 1047,792C1052.1,765.6 1057,737.1 1060,711C1063.9,683.4 1068.1,656.6 1083,640C1088.2,641 1080.1,651.2 1078,654C1070.1,692.2 1082.7,679.2 1086,654C1089,626 1121.2,627.2 1129,604C1161.1,605.6 1166.9,587.9 1167,553C1177.1,525.4 1149.6,508.6 1161,475C1166.2,449.2 1157.3,406.9 1167,387C1183,371.8 1177.6,332.5 1171,310C1166.2,284.3 1156.8,260.4 1144,243C1133.4,223.1 1127,198.5 1110,184C1097.1,166 1086.9,142.7 1072,127C1059.2,109.8 1044.9,93.1 1023,84C1002.8,72.8 978.4,63.8 961,51C942.6,38.9 925.4,25.1 894,25C863.3,24.8 855.8,-1.1 822,3C790.5,1.1 759.6,5.7 732,3C704.8,2 670.4,5.5 643,3C616.7,7.2 590.7,12.2 576,28C561.2,45.1 539.2,56.5 522,69C510.3,88.3 486.5,95.6 465,105C448.5,120 432.6,137.5 423,157C411.8,177.2 405.6,202.1 399,226C394.3,253.2 389.5,281.8 381,303C381,332.9 386.8,360.9 388,385C382.1,413.7 390.2,446.8 379,468C373.1,494.1 384.6,521.5 384,550C394.4,571.6 390.6,608.7 396,633C385.8,662.1 402.4,687.2 397,715C393.9,744.2 402.6,774.2 406,798C409.4,826.1 411.5,855 417,880C420.7,908.3 429.1,933.3 438,954C448.8,974.2 460.4,993.6 472,1012C487.3,1029.2 498,1051.9 508,1071C515.3,1098.4 506.6,1130 514,1155C514.4,1186.6 521.5,1212.9 526,1237C530.5,1264.5 536.8,1289.2 546,1311C553.6,1334.9 564.3,1357.5 574,1377C585.6,1396.9 590.4,1423.1 606,1438M729,1438C744.6,1438.9 763.9,1433.8 738,1434C725.1,1432.8 707,1432.8 729,1438M526,1333C527.6,1319.8 514.1,1311.4 502,1306C508.8,1312.7 520.5,1323 526,1333M625,1191C664.6,1189.8 652.9,1187 625,1183C606.9,1180.1 591.5,1173.5 577,1165C564.1,1156.6 557.1,1138.8 550,1125C542.8,1110.7 537,1094.5 531,1078C526,1061.2 520.6,1041.9 513,1029C506.8,1013.2 499.4,998.6 484,991C475.2,978.5 466,962.9 459,949C449.4,937.1 443.7,920.8 438,904C432.4,864.1 425.7,897.6 435,915C440.8,931.2 449,945 456,960C464.9,973.4 474,989.1 484,999C497.4,1008 502.1,1025.4 510,1039C517.6,1054.2 523.1,1073.4 526,1090C532.3,1106.7 540.3,1120.7 547,1135C556.2,1149.1 564.2,1165.9 577,1173C591.8,1180.7 608,1186.5 625,1191M718,1183C726,1180 734.3,1177.3 741,1173C731.5,1174.5 723.5,1177.5 718,1183M787,1158C798.7,1150.9 809.9,1141.2 819,1134C805.4,1138.7 793.9,1148.1 787,1158M909,1060C922.6,1055.1 933.5,1047 945,1039C956.7,1032.2 965,1021.5 973,1011C982.2,1000.7 985.3,984.8 994,975C1000.5,969.3 1009.3,938.5 1003,940C998.7,954.7 992.2,967.2 984,978C978.4,991.4 971,1003 963,1014C953.2,1023.2 945.1,1034.1 933,1041C929.4,1035.4 915.2,1052.6 909,1060M568,970C576.5,966.9 561.9,959.8 561,958C551.3,963.8 570.5,966.2 568,970M607,954C640.6,955.1 669.3,951.8 696,946C700.8,943.3 711.4,945.9 718,945C763.4,938.9 705.6,964.9 747,946C752.4,934.9 825.5,923.8 769,924C744.9,930.9 717.6,937 690,939C664.8,944 631.3,947.8 601,943C574.5,939.5 545.9,940.2 531,921C530,914 524.4,911.6 519,909C486.7,910 533.6,924 534,936C547.8,956.9 583.2,946.4 607,954M622,934C654.2,930.7 679.4,920.7 715,927C763.6,920.3 674.1,919.3 660,922C634,940.6 603.5,914.6 574,925C521.7,935.3 612.2,925.8 622,934M583,870C599.4,863.6 628.5,867.9 631,850C607.2,864.7 641.2,833.5 648,832C665.1,824.2 690,831.8 703,823C708.6,823.9 671.4,816 657,820C635.9,821.7 624.2,834.8 616,847C599.8,857.9 578.4,844.5 573,832C565.3,808.7 546.6,825.8 546,801C552.2,778.3 558.3,763.1 556,799C565.5,826.5 575.9,822.9 562,798C557.7,776 564.9,755 571,742C579,727.7 585.2,709.1 586,690C600.3,662.2 588,660.3 582,687C578.2,705.5 574,726.1 567,739C562.1,756.9 554.1,773.7 546,786C534.2,802.6 549.2,819.3 553,834C566,843.5 571.4,860.1 583,870M673,841C694,840 710.1,834.1 712,814C708.7,832.6 686.2,832.2 673,841M754,832C753.4,821.1 741.6,810.9 736,799C731.2,787.5 718.3,780.5 709,774C713,783 726,792 733,801C742.2,809.6 747.2,824.5 754,832M1062,828C1054.5,795.9 1082.9,784.3 1081,757C1072.3,776.8 1052.5,798.7 1062,828M1018,813C1031.7,797.7 1028.7,775.2 1032,753C1037.1,737.1 1040.9,703.5 1030,690C1024.3,711.8 1029.4,735.9 1020,753C1020.7,774.6 1002.4,800.4 1018,813M1110,805C1121.8,796.3 1137.3,790.8 1144,777C1153.4,765.6 1156.2,745.6 1161,732C1161.4,711.4 1167.7,696.7 1168,676C1173.3,636.6 1161,665.2 1164,685C1159.4,724 1159.4,646.2 1158,667C1151.8,681.6 1157.8,710.4 1153,724C1150.9,742.9 1148,761 1140,774C1132.5,786.8 1114.2,791.3 1110,805M558,739C564.2,731.5 564.6,714.8 565,703C559.8,711.9 557.9,727.3 558,739M1102,712C1107.5,698.2 1105.2,674 1113,664C1120.2,652.7 1126.3,639.8 1141,636C1147.9,626.4 1177,619.9 1180,634C1188.9,662.2 1190.2,644.4 1182,627C1179.3,608.3 1147.5,618.3 1143,625C1133.3,634.8 1118.3,638.8 1113,652C1105.3,663.4 1099.5,669.3 1096,688C1096.9,722.4 1103,681.1 1102,712M466,684L493,684C503.3,678.1 446.6,685.4 445,669C428.8,613.6 432.8,700.4 466,684M925,661C931.9,657.1 931.5,647.4 930,639C921.4,634.2 927.3,655.1 925,661M588,657C612.2,653.6 598.9,590.6 592,612C603.5,662.9 582.9,607.3 570,601C566,597.5 562.8,592.7 555,592C529.2,588.5 573.6,606.6 574,613C594.3,645.9 552.7,603.7 537,606C514.7,598.3 474.5,600.4 457,609C453.4,612.1 444.2,613.3 444,618C423.9,642.6 457.2,612.3 466,612C488.3,602.2 525.6,605.8 544,613C560.2,626.1 595.2,626.2 588,657M871,657C880.5,655.4 905.1,660 903,654C893.7,652 875.2,650.9 871,657M493,649C516.4,650.2 494.3,647.9 493,642C483.2,628.7 489.7,646.6 493,649M576,649C573.5,638.1 555.6,630.3 546,624C533.4,617.6 519.5,612.5 499,613C480.2,613.5 464.8,619.9 454,627C436.4,628.6 435.2,658.7 457,642C463.2,629.2 478.3,619.2 495,624C512.2,619.5 530.4,625.5 544,628C545.2,637.7 587.6,648.9 559,645C523.8,646.8 571.3,648.1 576,649M516,648C526.6,647.6 532.1,642.1 532,631C529.9,639.9 522.3,643.3 516,648M705,648C720.4,644.4 727.5,632.5 739,625C751.6,617.7 769.4,616.1 786,621C802.3,623.7 814,631 828,636C836,641.7 859.4,652.9 867,642C859.9,630.1 850.3,620.7 835,616C825.2,607.8 807.8,606.2 792,603C774.9,602.5 756.5,597.4 739,601C723.9,604.9 716,616 705,624C711.7,628.8 726.1,611.3 738,609C752,605.5 774.4,605 790,607C808.6,608.4 822.2,613.8 834,621C845.3,625.7 861.9,635.9 862,643C848.8,638.2 836.7,631.2 825,624C811.2,618.8 799.9,611.1 780,612C763.2,608.8 745.2,613.7 735,621C725.5,630.5 711.8,635.8 705,648M777,646C786,647 773.6,635 775,631C768.2,629.2 775.7,646.1 777,646M793,643C819.7,644.7 823.3,636.9 802,633C782.7,619.9 769.6,643.3 793,643M499,640C512.7,645.4 540.3,630.9 516,631C498.3,627.7 486.7,625.1 499,640M421,621C413.5,623.2 437.1,578.1 433,577C431.3,572.2 444.6,581.3 447,576C427.3,555.8 416.2,593.2 417,585C421.7,554.6 449.5,564.8 468,574C487.3,582.3 521.7,583.2 534,568C527.9,559 538.6,558.1 538,565C553.7,594.2 547.7,555.7 534,552C516.2,542.4 496.6,529.2 471,540C446.8,537.4 415.6,521.6 414,553C409.6,584.6 414.1,603.4 421,621M1092,621C1090.7,602.3 1079.2,593.8 1077,576C1059.7,552.6 1081.1,562.5 1075,549C1085.9,548 1085.9,575.5 1089,589C1093,609.1 1112,610.9 1092,621M1107,606C1090.2,593.8 1094.9,560.1 1087,538C1101.7,553.3 1093.4,590.7 1107,606M885,588C895.2,584.7 873.7,581.6 867,582C857,585 880.8,585.9 885,588M1071,580C1056.9,575 1059.5,543.6 1051,538C1072.4,541.4 1060.2,568.9 1071,580M739,579C764.8,582 777.4,569.8 793,565C798.5,554.3 855,570.6 820,559C800.4,551.6 781.3,562.6 766,567C761.5,582.4 712.7,563.4 739,579M789,576C804.5,576.1 824.6,575.1 832,571C818.6,569.1 797.3,568.8 789,576M891,573C901.2,558.8 870.9,553.1 856,549C838.3,542.6 826.3,528.8 811,532C809,542.3 855.9,542.1 844,555C847.3,565.4 883.1,562.1 891,573M510,570C498.7,564.7 480.4,555.9 499,550C510.1,539.5 545.7,574.4 510,570M696,567C697.1,549.6 715.6,544.3 721,535C708.5,540.7 690.7,548 696,567M745,567C754,567.2 783.4,554.6 760,556C754.5,561.7 720.5,563.6 745,567M708,565C728.5,559 745.8,549.3 774,550C796.4,549.3 846.9,558.6 804,544C796.4,543.4 795.1,536.8 804,541C808.5,533.9 771.7,538.1 757,537C731.7,537 708.5,543.9 708,565M487,562C458.8,570 435.1,535.3 423,558C434.6,535.2 468.8,561.5 487,562M1084,541C1076.2,540.5 1063.8,505.8 1054,492C1064,491.8 1079.3,523.7 1084,541M1063,519C1057,506.3 1041,500.3 1035,489C1024.9,479.8 1016.5,466.4 1011,454C1005.1,441.1 998.3,426 994,412C987.7,401.7 986.2,380.4 975,378C1000.2,375.1 989.3,400.2 1000,408C1007.9,419.8 1017.5,432.2 1021,445C1025.4,460.9 1033.8,474.3 1041,484C1051.3,493.2 1059.8,503.7 1063,519M1111,499C1102.7,490.3 1092.5,482.4 1086,471C1064.3,457.4 1073.5,466.7 1081,480C1092.8,509.6 1060.9,450.3 1042,453C1020,440.5 1014.3,411.2 999,391C1014.2,387 1024.6,435.9 1042,435C1046.1,442.8 1064,461.1 1063,456C1056.5,445.8 1048.1,434.2 1042,424C1032,419.4 986.9,373.2 1014,387C1026.8,409.2 1050.9,420.1 1062,444C1080.8,460.2 1103.3,472.7 1111,499M994,489C999.9,482 1003.2,466.5 1000,456C998.1,461.8 996.5,478.7 994,489M1086,454C1065.7,462.3 1060.8,428.5 1072,448C1079.1,449 1104.5,439.4 1086,454M1053,412C1033.6,410.9 1029,394.5 1020,382C992.8,371.8 1032.7,371.6 1036,364C1048.5,373.5 1066.1,376.9 1083,381C1112.6,389.6 1098.1,393.7 1074,388C1063.2,388.2 1029.4,365.4 1047,388C1070.1,403.6 1054,409.4 1041,393C1032.9,375.2 1014.5,368.7 1033,391C1029.7,410.9 1076.5,405.2 1053,412M1116,388C1105.7,383.6 1093.1,378 1087,370C1097.5,375.7 1109.7,381.7 1116,388M1071,372C1052.4,371.6 1048.2,356.8 1030,355C998.4,355.1 1030.4,345.1 1006,337C1004.6,328.8 1031.5,343.6 1039,346C1047.8,357.2 1061.1,362.9 1071,372M1150,370C1145,351.5 1139.7,338.2 1129,333C1122.2,319.3 1111.2,309.3 1102,297C1092,286.2 1077.3,277.1 1066,268C1051.7,255.9 1091.2,263 1092,276C1101.3,281.3 1117.8,307.3 1119,301C1114.4,295 1089,263.7 1110,283C1119.3,295.5 1129.3,309.3 1135,322C1143.3,335.7 1150,350 1150,370M828,367C830.5,355.7 787.7,351.3 774,342C753.9,331.7 731.4,321.7 718,306C716.4,317.4 747.2,333.8 763,340C782.2,352.2 805.9,361 828,367M1137,366C1127,357 1123.5,341.5 1114,331C1105.7,322 1094.3,312.5 1087,303C1078,294.2 1068.5,282.8 1059,276C1040.6,265 1040.5,258.6 1062,268C1072.9,276.6 1082.2,286.3 1093,294C1102,303.8 1114.8,311.9 1119,324C1099.7,306.5 1105.4,319.2 1116,331C1124.3,341.5 1132.7,354 1137,366M940,364C914.5,366.2 914.9,355.6 937,357C958.1,356.6 962.5,362.4 940,364M985,358C964.3,360.4 951.7,351.2 945,340C936.4,332.9 945.8,299.4 948,300C955.5,321.3 934.9,330.9 954,340C958.3,354.8 994.3,344.5 985,358M840,351C828.2,349.6 816.5,345.1 810,340C821,342.7 836.4,343.5 840,351M933,349C923.6,348 930.7,331.7 930,325C933.1,329.3 931.1,340.6 933,349M918,345C906.2,339.3 885.4,337.2 871,337C857.3,345.1 837.5,335 828,331C835.5,332.2 860.4,334 877,333C891.4,332.1 915.6,331.7 918,345M982,345C949.7,343.4 951.6,322.3 963,307C955.5,315.9 990.1,342.1 982,345M1158,337C1150.7,324.8 1146.4,309.1 1138,297C1130.9,284.6 1122.6,272.9 1117,258C1112.4,243.1 1105,230.5 1096,219C1087.8,208.4 1076.6,197.7 1071,186C1083.3,193.7 1093.3,203.7 1101,216C1111.7,225.3 1117.6,239.4 1123,253C1125.7,271.3 1136.8,280.2 1144,292C1151.9,304.4 1158,320.2 1158,337M1101,331C1084.5,323 1077,305.5 1060,297C1041.6,292.1 1033.5,271.9 1017,268C1038.8,266.7 1054.1,279.7 1066,291C1078.5,304 1093.1,314.4 1101,331M784,330C760.6,323.9 737.6,316.9 729,295C747.2,307.3 762.2,322.3 784,330M1023,330C1007.4,327.4 1001.9,311.9 996,301C1007.1,308.7 1011.7,325 1023,330M819,324C792.2,317.8 767.6,309.4 750,294C765.1,295.1 794,313.5 817,313C846.4,318.4 881,316.3 906,321C878.6,328.4 841.6,318 819,324M1075,322C1054.9,320.1 1041.2,310.8 1029,300C1013.5,293.1 997.7,284.2 990,271C1003.1,281.4 1024.4,283.1 1035,295C1047.5,305.4 1062,315.5 1075,322M883,316C863.5,315.5 846.5,311.5 826,310C816,310 773.3,297.1 804,301C818.5,308 840.6,304.2 858,303C888.8,293.5 838.4,294.4 831,298C817.4,301 788.3,293 789,289C808.2,293.7 828.8,287.7 847,289C866,291.3 882.3,297.9 900,298C935.1,306 880.8,303.8 883,316M1074,316C1064.6,310.9 1055.2,305.3 1048,297C1060,300.5 1066.5,309 1074,316M960,309C958.8,290.2 946.5,282.5 946,262C935.8,228 951.5,299.6 942,274C933.7,262.8 937.8,238.7 924,232C920.4,222.4 889.8,214.3 904,205C918.4,210.2 923.6,228.7 937,229C927.9,219.9 921.5,204.4 906,202C892.8,195.7 878.7,189.8 867,181C853,176.2 835.5,171.8 819,171C802.2,167.8 784.8,165.2 763,166C743.2,162.5 790.6,160.8 799,162C820.2,161.3 837.5,164 852,169C867.5,173.2 885.1,177.6 895,184C873.3,175.3 889.7,195.6 906,198C921.4,195.1 928.9,208.9 937,219C952,224.5 954.7,241.9 958,258C951.4,274 959.1,294.2 960,309M421,282C422.8,270.6 439.5,257.4 453,250C463.3,245.6 491.3,226.3 496,243C516.3,251.5 466.7,238.7 460,252C446.7,261.2 432.7,270.2 421,282M877,282C869.2,277.5 837.9,284.4 840,277C851,277.3 874.1,268.3 877,282M940,280C934.3,268.1 902.3,227.2 907,241C930.5,278.3 894.1,221 870,232C859.1,236.2 784,239.6 814,229C826.3,226.3 897.7,230.3 861,220C847.5,209.1 791.5,210.1 798,199C829.1,195.1 864.1,198.3 882,210C893.2,213.5 870,209.5 870,208C839.4,210.7 895.9,216.7 900,223C921.9,234.1 930.5,259.9 940,280M1144,280C1133.2,260.3 1124.1,236.1 1119,211C1128.7,233.2 1143.9,251.4 1144,280M832,273C800.5,274.7 762.5,269.1 751,261C784.6,261.8 820.6,257 831,244C835.6,241 851.1,244.9 853,241C895.9,236 844.1,255.8 834,256C824.8,256.7 822.5,263.9 814,259C786.5,266.5 878.7,265 832,273M429,259C426.8,249.8 445.2,239.6 451,232C462,225 474.7,219.7 486,213C500.5,202 511.1,204.8 522,214C509.5,212.1 476.7,219.8 490,222C500.9,214.8 542,228.9 516,225C498.3,225.3 483.4,228.4 471,234C464,239.9 436.1,257.7 456,241C452.3,238.5 435.4,252.8 429,259M616,255C630.7,251 630.5,229.8 634,217C626.5,227.8 617.3,239.5 616,255M748,244C762.1,237.9 787.1,218.4 816,216C808.2,226.7 778.7,244.2 748,244M1011,228C989.1,225.9 970.5,220.5 960,207C974.5,216.5 997.8,217.2 1011,228M595,223C605.3,209.2 587.8,188.3 585,175C580.9,185.5 595.5,207.5 595,223M1113,217C1100.5,204 1089.6,188.9 1075,177C1092.4,186.1 1106.2,198.3 1113,217M954,213C934.2,201.3 930.1,172 924,148C910.8,131.8 897.4,111.3 894,88C906.4,107.6 914.5,132.8 930,147C938.2,168.1 945.5,196.4 954,213M1008,211C982.6,212.5 964.4,204.1 955,190C941.3,165.5 946.3,153.4 957,184C957.7,198.2 1001.9,208.7 994,202C974.5,195.6 954.5,176.5 987,193C1011.5,205.2 1029.4,202.7 994,193C980.8,190.5 945.5,164.7 979,180C996.7,187.2 1017.5,193 1035,198C1060.3,207.6 1022.7,205.4 1008,211M463,207C459.2,202.7 473.4,195.4 480,193C483.3,196.8 466,200.9 463,207M922,192C906.6,178.9 888.9,167.6 871,156C896.4,160.1 910.1,175.4 922,192M576,190C569.3,173.2 555.2,163.3 540,154C530,142.5 492.3,151.1 484,142C506.7,139.3 533.3,140 546,150C560.2,159.1 573.8,171.2 576,190M570,189C561,177.7 547,168.8 534,163C521.5,153.1 499.8,163.1 486,154C501.3,153.2 528.5,153.8 538,160C550,169 566.7,172.3 570,189M789,187C775.6,178.4 811.7,178 822,175C831.2,180.3 798.4,184.5 789,187M1041,187C1027.2,181 1007.3,178.1 999,168C1015.2,172.1 1032,178.1 1041,187M1050,180C1029,167.5 997,164.2 981,148C1005.7,157.3 1036.8,161.5 1050,180M990,168C967.6,160 945,150.1 936,130C928.6,107.9 920.7,85.8 903,73C889.6,56.9 865,51.5 840,46C822.7,46 755.2,58.3 802,45C848.7,37.9 767.3,36.8 768,51C757.7,55.1 709.1,81 721,64C741.3,54.3 764.1,47.1 784,37C794.7,33.6 853.1,22.2 840,36C856,37.2 900.1,62.8 894,49C904.3,47.9 926.9,70.3 943,78C953.2,98.3 979.3,102.2 1008,103C1028.6,106.2 959.5,114.3 957,100C943.4,84.7 926.9,66 904,64C922.3,76.7 938.1,90.9 948,111C950.5,115.6 952.5,124.1 954,127C957.3,146.8 931.6,85.2 945,123C950.9,147.1 973.4,154.6 990,168M1075,163C1061.9,150.7 1047.7,136.4 1020,139C999.6,135.2 977.6,127.9 969,115C989.8,117.3 1015.9,120.1 1032,129C1053,134 1068.3,144.7 1075,163M433,162C437.8,143.8 451.7,125 465,114C475.1,108.4 514.2,89.3 510,99C532.9,106.9 491.4,119.3 472,120C455.1,129.6 444.1,145.6 433,162M1047,162C1035.5,154.2 1017.6,150.2 1003,147C991.9,141.1 972.1,138 969,127C986.7,129.1 999.3,138.3 1012,142C1024.5,148.1 1048.6,147.5 1047,162M574,151C574.5,143.2 579.8,110.3 573,117C567.1,126.4 563.5,144.9 574,151M873,150C845.8,152.8 826.3,145.7 805,144C784.8,142 760.8,138.6 747,133C766.5,132.3 792.2,138.1 813,138C831.2,143.8 857.2,141.8 873,150M898,150C877.9,136.6 842.3,138.2 819,127C793.1,120.4 751.5,125.4 736,111C761.1,115.8 803.8,109.8 823,123C848.2,132.3 886.5,128 898,150M937,147C923.7,133.4 911.3,116.3 907,94C918.6,110.8 929.4,129.5 937,147M601,144C599.1,132.4 601,114.9 610,111C610.4,120.2 603.7,132.8 601,144M847,118C822.2,118.5 802.1,111 778,111C758,106.5 739.7,99.8 723,91C749.7,90.2 764.7,102.8 789,102C807.8,108.2 834,107 847,118M630,109C611.1,108.2 651.5,103.7 654,97C668.8,94.6 640.3,111.1 630,109M760,85C749.5,85.4 734,86.5 729,82C738.6,84.1 757.5,79.5 760,85M670,81C664.2,93.2 680,53.7 684,40C705.5,23.2 664.7,72.4 678,72C688.7,56.3 699.7,38.7 717,31C726.9,31.8 715.1,37.9 714,40C699.6,53.3 734.3,32.5 739,31C749.1,21.9 802.8,15.5 766,31C748.2,39.6 735.8,55.7 718,63C698.4,75.9 757.1,26.4 720,51C702.7,60.1 691.7,77.7 670,81M964,70C952.2,64.8 938.1,60.9 927,54C917.5,46.2 905.3,38.5 894,34C912,34.5 923.3,41.2 934,48C947.6,52.2 955.6,64.1 964,70M655,33C640.2,27.5 646,0.4 667,12C686.2,8.2 654.5,23.7 655,33M790,28C776.6,19.8 813.2,17.4 823,18C831.8,21.1 795.4,23.7 790,28M726,18C695,10.1 700.7,11.1 730,9C771.3,9.3 745.4,14.2 726,18M786,18C757.6,13.6 816.9,3.8 835,7C862.7,16.7 792.8,4.6 786,18Z" fill="#2c0515"/>
</g>
</svg>
