<?xml version="1.0" encoding="UTF-8"?>
<svg xmlns="http://www.w3.org/2000/svg" xmlns:xlink="http://www.w3.org/1999/xlink" viewBox="0 0 500 500" width="500px" height="500px">
<g id="surface254151296">
<path style=" stroke:none;fill-rule:nonzero;fill:rgb(34.509805%,39.607844%,94.901961%);fill-opacity:1;" d="M 189.0625 70 C 189.0625 70 125.390625 74.375 83.75 107.8125 C 83.554688 107.890625 83.320312 108.007812 83.125 108.125 C 75.898438 114.804688 70.46875 125.15625 63.75 140 C 57.03125 154.84375 49.921875 173.945312 43.4375 195.3125 C 30.507812 238.085938 20 290.585938 20 340 C 19.960938 341.757812 20.390625 343.476562 21.25 345 C 35.859375 370.664062 62.734375 386.171875 87.8125 395.9375 C 112.890625 405.703125 136.054688 409.609375 147.8125 410 C 151.132812 410.117188 154.296875 408.59375 156.25 405.9375 L 180.625 372.1875 C 200.273438 376.835938 223.320312 380 250 380 C 276.679688 380 299.726562 376.835938 319.375 372.1875 L 343.75 405.9375 C 345.703125 408.59375 348.867188 410.117188 352.1875 410 C 363.945312 409.609375 387.109375 405.703125 412.1875 395.9375 C 437.265625 386.171875 464.140625 370.664062 478.75 345 C 479.609375 343.476562 480.039062 341.757812 480 340 C 480 290.585938 469.492188 238.085938 456.5625 195.3125 C 450.078125 173.945312 442.96875 154.84375 436.25 140 C 429.53125 125.15625 424.101562 114.804688 416.875 108.125 C 416.679688 108.007812 416.445312 107.890625 416.25 107.8125 C 374.609375 74.375 310.9375 70 310.9375 70 C 310.195312 69.921875 309.492188 69.921875 308.75 70 C 305.273438 70.46875 302.34375 72.734375 300.9375 75.9375 C 300.9375 75.9375 297.539062 83.398438 295.3125 94.0625 C 275.820312 90.9375 259.414062 90 250 90 C 240.585938 90 224.179688 90.9375 204.6875 94.0625 C 202.460938 83.398438 199.0625 75.9375 199.0625 75.9375 C 197.34375 72.03125 193.320312 69.648438 189.0625 70 Z M 182.8125 91.5625 C 183.554688 93.59375 184.0625 95.507812 184.6875 97.8125 C 162.148438 103.046875 137.460938 111.601562 114.375 125.9375 C 110.742188 127.460938 108.359375 130.976562 108.242188 134.921875 C 108.164062 138.828125 110.390625 142.460938 113.90625 144.179688 C 117.460938 145.859375 121.679688 145.351562 124.6875 142.8125 C 171.015625 114.101562 229.960938 110 250 110 C 270.039062 110 328.984375 114.101562 375.3125 142.8125 C 378.320312 145.351562 382.539062 145.859375 386.09375 144.179688 C 389.609375 142.460938 391.835938 138.828125 391.757812 134.921875 C 391.640625 130.976562 389.257812 127.460938 385.625 125.9375 C 362.539062 111.601562 337.851562 103.046875 315.3125 97.8125 C 315.9375 95.507812 316.445312 93.59375 317.1875 91.5625 C 328.59375 92.96875 372.929688 98.945312 403.125 122.8125 C 405.078125 124.609375 411.875 134.609375 418.125 148.4375 C 424.375 162.265625 430.9375 180.273438 437.1875 200.9375 C 449.375 241.25 459.21875 290.976562 459.6875 336.5625 C 448.320312 354.960938 426.992188 368.632812 405 377.1875 C 385 384.960938 366.328125 388.4375 356.5625 389.375 L 339.6875 366.5625 C 348.28125 363.789062 356.015625 360.78125 362.8125 357.8125 C 388.046875 346.71875 401.5625 335 401.5625 335 C 405.703125 331.289062 406.054688 324.921875 402.34375 320.78125 C 398.632812 316.640625 392.265625 316.289062 388.125 320 C 388.125 320 377.65625 329.570312 354.6875 339.6875 C 346.25 343.398438 336.015625 347.070312 324.375 350.3125 C 321.679688 350 318.984375 350.78125 316.875 352.5 C 298.242188 357.03125 276.09375 360 250 360 C 223.710938 360 201.523438 356.757812 182.8125 352.1875 C 180.703125 350.78125 178.125 350.195312 175.625 350.625 C 163.945312 347.382812 153.789062 343.398438 145.3125 339.6875 C 122.34375 329.570312 111.875 320 111.875 320 C 109.609375 317.890625 106.484375 316.992188 103.4375 317.5 C 99.570312 318.085938 96.367188 320.859375 95.3125 324.648438 C 94.21875 328.398438 95.46875 332.460938 98.4375 335 C 98.4375 335 111.953125 346.71875 137.1875 357.8125 C 143.984375 360.78125 151.71875 363.789062 160.3125 366.5625 L 143.4375 389.375 C 133.671875 388.4375 115 384.960938 95 377.1875 C 73.007812 368.632812 51.679688 354.960938 40.3125 336.5625 C 40.78125 290.976562 50.625 241.25 62.8125 200.9375 C 69.0625 180.273438 75.625 162.265625 81.875 148.4375 C 88.125 134.609375 94.921875 124.609375 96.875 122.8125 C 127.070312 98.945312 171.40625 92.96875 182.8125 91.5625 Z M 185 210 C 159.492188 210 140 233.164062 140 260 C 140 286.835938 159.492188 310 185 310 C 210.507812 310 230 286.835938 230 260 C 230 233.164062 210.507812 210 185 210 Z M 315 210 C 289.492188 210 270 233.164062 270 260 C 270 286.835938 289.492188 310 315 310 C 340.507812 310 360 286.835938 360 260 C 360 233.164062 340.507812 210 315 210 Z M 185 230 C 198.164062 230 210 242.65625 210 260 C 210 277.34375 198.164062 290 185 290 C 171.835938 290 160 277.34375 160 260 C 160 242.65625 171.835938 230 185 230 Z M 315 230 C 328.164062 230 340 242.65625 340 260 C 340 277.34375 328.164062 290 315 290 C 301.835938 290 290 277.34375 290 260 C 290 242.65625 301.835938 230 315 230 Z M 315 230 "/>
</g>
</svg>
