<?xml version="1.0" encoding="UTF-8" standalone="no"?>
<!-- Generator: Adobe Illustrator 16.0.0, SVG Export Plug-In . SVG Version: 6.00 Build 0)  -->

<svg
   version="1.1"
   id="Layer_12"
   x="0px"
   y="0px"
   width="512px"
   height="512px"
   viewBox="0 0 512 512"
   enable-background="new 0 0 512 512"
   xml:space="preserve"
   sodipodi:docname="Insignificon-Reddit.svg"
   inkscape:version="1.1 (c68e22c387, 2021-05-23)"
   xmlns:inkscape="http://www.inkscape.org/namespaces/inkscape"
   xmlns:sodipodi="http://sodipodi.sourceforge.net/DTD/sodipodi-0.dtd"
   xmlns="http://www.w3.org/2000/svg"
   xmlns:svg="http://www.w3.org/2000/svg"><defs
   id="defs8920" /><sodipodi:namedview
   id="namedview8918"
   pagecolor="#ffffff"
   bordercolor="#cccccc"
   borderopacity="1"
   inkscape:pageshadow="0"
   inkscape:pageopacity="1"
   inkscape:pagecheckerboard="0"
   showgrid="false"
   inkscape:zoom="0.859375"
   inkscape:cx="27.345455"
   inkscape:cy="256"
   inkscape:window-width="1280"
   inkscape:window-height="668"
   inkscape:window-x="-6"
   inkscape:window-y="24"
   inkscape:window-maximized="1"
   inkscape:current-layer="g8915" />
<g
   id="g8915">
	<path
   fill-rule="evenodd"
   clip-rule="evenodd"
   d="M311.992,165.258c1.727,0,3.375,0.348,4.922,0.852   c35.555,7.176,67.453,20.461,93.484,38.168C420.969,196.578,433.922,192,448,192c35.336,0,64,28.645,64,64   c0,23.93-13.148,44.758-32.578,55.734c0.195,2.758,0.578,5.477,0.578,8.266c0,88.359-100.305,160-224,160   c-123.711,0-224-71.641-224-160c0-2.789,0.391-5.508,0.586-8.266C13.148,300.758,0,279.93,0,256c0-35.355,28.648-64,64-64   c14.062,0,27.039,4.578,37.609,12.277c32.734-22.305,74.859-37.449,121.773-42.34c0.172-0.133,0.328-0.309,0.617-0.328   c12.297-1.164,23.141-9.484,27.25-21.703l17.32-64.641c8.109-22.457,31.531-35.547,55.039-30.504l26.453,7.098   c0.023,0.02-0.023,0.078,0.023,0.078C369.57,56.961,384,74.668,384,95.746c0,0.039,0.023,0.059,0.023,0.098   c0,0.059-0.023,0.098-0.023,0.156c0,17.668,14.312,32,32,32c17.672,0,32-14.332,32-32c0-5.875-1.688-11.309-4.461-16.039   l0.117-0.059c-1.336-2.348-2.172-5.023-2.172-7.914c0-8.824,7.18-15.996,16-15.996c5.859,0,10.898,3.16,13.695,7.852l0.078-0.039   C476.781,73.27,480,84.246,480,96c0,35.355-28.664,64-64,64c-35.352,0-64-28.645-64-64c0-5.934-3.758-10.938-9-12.918   l-25.672-6.883c-8.055-1.844-16.141,2.715-18.719,10.551l-16.68,62.312c-7.68,24.551-28.836,41.348-53.078,44.371   C135.719,202.258,64,255.477,64,320c0,70.688,85.953,128,192,128c106.031,0,192-57.312,192-128   c0-58.359-58.625-107.48-138.703-122.898l0.016-0.117c-7.562-1.262-13.32-7.816-13.32-15.73   C295.992,172.414,303.148,165.258,311.992,165.258L311.992,165.258z M74.961,226.055C71.523,224.797,67.859,224,64,224   c-17.688,0-32,14.332-32,32c0,8.227,3.18,15.648,8.305,21.336C47.555,258.617,59.383,241.336,74.961,226.055L74.961,226.055z    M471.703,277.336C476.82,271.648,480,264.227,480,256c0-17.668-14.328-32-32-32c-3.875,0-7.539,0.797-10.977,2.055   C452.602,241.336,464.445,258.617,471.703,277.336L471.703,277.336z M305.125,288c0-17.047,13.812-30.875,30.875-30.875   c17.047,0,30.859,13.828,30.859,30.875S353.047,318.875,336,318.875C318.938,318.875,305.125,305.047,305.125,288L305.125,288z    M145.125,288c0-17.047,13.812-30.875,30.875-30.875c17.047,0,30.859,13.828,30.859,30.875S193.047,318.875,176,318.875   C158.938,318.875,145.125,305.047,145.125,288L145.125,288z M315.133,366.523l0.039,0.023c2.914-3.938,7.547-6.539,12.82-6.539   c8.844,0,16,7.156,16,16c0,0.023,0,0.039,0,0.062c0,0.172-0.055,0.344-0.055,0.523c-0.039,0.945-0.117,1.898-0.312,2.789   C339.82,399.906,302.086,416,256,416c-44.953,0-81.883-15.344-87.172-35.125c-0.508-1.547-0.836-3.156-0.836-4.867   c0-8.844,7.156-16,16-16c5.82,0,10.82,3.141,13.633,7.758l0.156-0.055C206.023,377.172,228.945,384,256,384   C284.164,384,307.844,376.594,315.133,366.523L315.133,366.523z M416,64c-8.844,0-16-7.156-16-16s7.156-16,16-16   c8.828,0,16,7.156,16,16S424.828,64,416,64L416,64z"
   id="path8911"
   style="fill:#ffffff;fill-opacity:1" />
	<path
   fill="#FF3322"
   d="M176,320c-17.688,0-32-14.336-32-32s14.312-32,32-32c17.672,0,32,14.336,32,32S193.672,320,176,320L176,320   z M336,320c-17.688,0-32-14.336-32-32s14.312-32,32-32c17.672,0,32,14.336,32,32S353.672,320,336,320L336,320z"
   id="path8913" />
</g>
</svg>
