<?xml version="1.0" encoding="UTF-8"?>
<svg width="822px" height="118px" viewBox="0 0 822 118" version="1.1" xmlns="http://www.w3.org/2000/svg" xmlns:xlink="http://www.w3.org/1999/xlink">
    <title>Archethic Foundation - Gradient</title>
    <defs>
        <linearGradient x1="50%" y1="0%" x2="50%" y2="100%" id="linearGradient-1">
            <stop stop-color="#00A4DB" offset="0%"></stop>
            <stop stop-color="#CC00FF" offset="100%"></stop>
        </linearGradient>
        <path d="M2.79805814,44.1648962 C3.57700473,44.1648962 4.24320905,43.8881046 4.7966711,43.3345215 C5.35013315,42.8014414 5.62686418,42.1453429 5.62686418,41.3662259 L5.62686418,24.9125049 L22.8764314,24.9125049 C23.6348794,24.9125049 24.2908344,24.6357134 24.8442965,24.0821302 C25.3977585,23.5285471 25.6744896,22.8724486 25.6744896,22.1138346 C25.6744896,21.3347176 25.3977585,20.6683676 24.8442965,20.1147844 C24.2908344,19.5612013 23.6348794,19.2844097 22.8764314,19.2844097 L5.62686418,19.2844097 L5.62686418,5.66011371 L29.2719929,5.66011371 C30.0509395,5.66011371 30.7171438,5.38332214 31.2706058,4.829739 C31.8240679,4.27615587 32.1007989,3.6098058 32.1007989,2.8306888 C32.1007989,2.07207487 31.8240679,1.41597634 31.2706058,0.862393208 C30.7171438,0.308810074 30.0509395,0.032018507 29.2719929,0.032018507 L2.79805814,0.032018507 C2.01911155,0.032018507 1.36315653,0.308810074 0.830193076,0.862393208 C0.276731025,1.41597634 0,2.07207487 0,2.8306888 L0,41.3662259 C0,42.1453429 0.276731025,42.8014414 0.830193076,43.3345215 C1.36315653,43.8881046 2.01911155,44.1648962 2.79805814,44.1648962 Z" id="path-2"></path>
        <linearGradient x1="50%" y1="0%" x2="50%" y2="100%" id="linearGradient-3">
            <stop stop-color="#00A4DB" offset="0%"></stop>
            <stop stop-color="#CC00FF" offset="100%"></stop>
        </linearGradient>
        <path d="M72.6348953,5.66011371 C77.1855833,5.66011371 81.0598176,7.26960541 84.2575984,10.4885888 C87.4758777,13.6870692 89.0850174,17.5621511 89.0850174,22.1138346 C89.0850174,26.6450151 87.4758777,30.5200971 84.2575984,33.7390805 C81.0598176,36.9375608 77.1855833,38.536801 72.6348953,38.536801 C68.1047059,38.536801 64.2304716,36.9375608 61.0121922,33.7390805 C57.8144115,30.5200971 56.2155211,26.6450151 56.2155211,22.1138346 C56.2155211,17.5621511 57.8144115,13.6870692 61.0121922,10.4885888 C64.2304716,7.26960541 68.1047059,5.66011371 72.6348953,5.66011371 Z M72.6348953,44.1648962 C78.7434765,44.1648962 83.9501194,42.0120729 88.2548243,37.7064263 C92.5595291,33.4007797 94.7118815,28.2032491 94.7118815,22.1138346 C94.7118815,16.0039171 92.5595291,10.796135 88.2548243,6.49048841 C83.9501194,2.18484181 78.7434765,0.032018507 72.6348953,0.032018507 C66.5468128,0.032018507 61.3504191,2.18484181 57.0457142,6.49048841 C52.7410094,10.796135 50.588657,16.0039171 50.588657,22.1138346 C50.588657,28.2032491 52.7410094,33.4007797 57.0457142,37.7064263 C61.3504191,42.0120729 66.5468128,44.1648962 72.6348953,44.1648962 Z" id="path-4"></path>
        <linearGradient x1="50%" y1="0%" x2="50%" y2="100%" id="linearGradient-5">
            <stop stop-color="#00A4DB" offset="0%"></stop>
            <stop stop-color="#CC00FF" offset="100%"></stop>
        </linearGradient>
        <path d="M133.124373,44.1648962 C137.757056,44.1648962 141.723534,42.5143983 145.023807,39.2134026 C148.324081,35.9329099 149.974218,31.9655641 149.974218,27.3113652 L149.974218,2.8306888 C149.974218,2.07207487 149.697487,1.41597634 149.144025,0.862393208 C148.590563,0.308810074 147.924359,0.032018507 147.145412,0.032018507 C146.386964,0.032018507 145.731009,0.308810074 145.177547,0.862393208 C144.624085,1.41597634 144.347354,2.07207487 144.347354,2.8306888 L144.347354,27.3113652 C144.347354,30.4073301 143.250679,33.0522273 141.057329,35.2460568 C138.86398,37.4398862 136.219661,38.536801 133.124373,38.536801 C130.029086,38.536801 127.384767,37.4398862 125.191417,35.2460568 C122.998068,33.0522273 121.901393,30.4073301 121.901393,27.3113652 L121.901393,2.8306888 C121.901393,2.07207487 121.624662,1.41597634 121.0712,0.862393208 C120.517738,0.308810074 119.851533,0.032018507 119.072587,0.032018507 C118.29364,0.032018507 117.637685,0.308810074 117.104722,0.862393208 C116.55126,1.41597634 116.274529,2.07207487 116.274529,2.8306888 L116.274529,27.3113652 C116.274529,31.9655641 117.924666,35.9329099 121.224939,39.2134026 C124.504714,42.5143983 128.471192,44.1648962 133.124373,44.1648962 Z" id="path-6"></path>
        <linearGradient x1="50%" y1="0%" x2="50%" y2="100%" id="linearGradient-7">
            <stop stop-color="#00A4DB" offset="0%"></stop>
            <stop stop-color="#CC00FF" offset="100%"></stop>
        </linearGradient>
        <path d="M174.334923,44.1648962 C175.11387,44.1648962 175.780074,43.8881046 176.333536,43.3345215 C176.886998,42.8014414 177.163729,42.1453429 177.163729,41.3662259 L177.163729,11.0729266 L201.792791,43.0577299 C202.366751,43.7958407 203.11495,44.1648962 204.037387,44.1648962 C204.344866,44.1648962 204.642095,44.1136385 204.929076,44.0111231 C206.199988,43.5805584 206.835445,42.698926 206.835445,41.3662259 L206.835445,2.8306888 C206.835445,2.07207487 206.558714,1.41597634 206.005252,0.862393208 C205.45179,0.308810074 204.795835,0.032018507 204.037387,0.032018507 C203.25844,0.032018507 202.592236,0.308810074 202.038774,0.862393208 C201.485312,1.41597634 201.208581,2.07207487 201.208581,2.8306888 L201.208581,33.1239881 L176.579519,1.13918478 C175.759576,0.0730246651 174.714147,-0.24477306 173.443235,0.1857916 C172.172322,0.61635626 171.536865,1.49798866 171.536865,2.8306888 L171.536865,41.3662259 C171.536865,42.1453429 171.813596,42.8014414 172.367058,43.3345215 C172.900022,43.8881046 173.555977,44.1648962 174.334923,44.1648962 Z" id="path-8"></path>
        <linearGradient x1="50%" y1="0%" x2="50%" y2="100%" id="linearGradient-9">
            <stop stop-color="#00A4DB" offset="0%"></stop>
            <stop stop-color="#CC00FF" offset="100%"></stop>
        </linearGradient>
        <path d="M262.897227,22.1138346 C262.897227,16.0039171 260.744874,10.796135 256.440169,6.49048841 C252.135465,2.18484181 246.928822,0.032018507 240.82024,0.032018507 L231.19615,0.032018507 C230.417204,0.032018507 229.761249,0.308810074 229.228285,0.862393208 C228.674823,1.41597634 228.398092,2.07207487 228.398092,2.8306888 C228.398092,3.6098058 228.674823,4.27615587 229.228285,4.829739 C229.761249,5.38332214 230.417204,5.66011371 231.19615,5.66011371 L240.82024,5.66011371 C245.370928,5.66011371 249.245163,7.26960541 252.442943,10.4885888 C255.661223,13.6870692 257.270362,17.5621511 257.270362,22.1138346 C257.270362,26.6450151 255.661223,30.5200971 252.442943,33.7390805 C249.245163,36.9375608 245.370928,38.536801 240.82024,38.536801 L231.19615,38.536801 C230.417204,38.536801 229.761249,38.8135925 229.228285,39.3671757 C228.674823,39.9207588 228.398092,40.5871089 228.398092,41.3662259 C228.398092,42.1453429 228.674823,42.8014414 229.228285,43.3345215 C229.761249,43.8881046 230.417204,44.1648962 231.19615,44.1648962 L240.82024,44.1648962 C246.928822,44.1648962 252.135465,42.0120729 256.440169,37.7064263 C260.744874,33.4007797 262.897227,28.2032491 262.897227,22.1138346 Z" id="path-10"></path>
        <linearGradient x1="50%" y1="0%" x2="50%" y2="100%" id="linearGradient-11">
            <stop stop-color="#00A4DB" offset="0%"></stop>
            <stop stop-color="#CC00FF" offset="100%"></stop>
        </linearGradient>
        <path d="M318.92826,42.9039568 C319.481722,42.0428275 319.553468,41.1509435 319.143496,40.228305 L302.293651,1.72352253 C301.801685,0.595853181 300.940744,0.032018507 299.710828,0.032018507 C298.501411,0.032018507 297.650719,0.595853181 297.158753,1.72352253 L280.308908,40.228305 C280.00143,40.9459127 279.99118,41.6635205 280.278161,42.3811283 C280.544642,43.098736 281.036609,43.611313 281.754059,43.9188592 C282.123034,44.0828838 282.502258,44.1648962 282.891731,44.1648962 C284.101148,44.1648962 284.95184,43.6010615 285.443806,42.4733921 L299.710828,9.84274183 L312.286716,38.536801 L295.713602,38.536801 C294.934656,38.536801 294.268451,38.8135925 293.714989,39.3671757 C293.182026,39.9207588 292.915544,40.5871089 292.915544,41.3662259 C292.915544,42.1248398 293.182026,42.7809383 293.714989,43.3345215 C294.268451,43.8881046 294.934656,44.1648962 295.713602,44.1648962 L316.560673,44.1648962 C317.585602,44.1648962 318.374798,43.744583 318.92826,42.9039568 Z" id="path-12"></path>
        <linearGradient x1="50%" y1="0%" x2="50%" y2="100%" id="linearGradient-13">
            <stop stop-color="#00A4DB" offset="0%"></stop>
            <stop stop-color="#CC00FF" offset="100%"></stop>
        </linearGradient>
        <path d="M343.873176,5.66011371 L343.873176,41.3662259 C343.873176,42.1453429 344.139657,42.8014414 344.672621,43.3345215 C345.226083,43.8881046 345.892287,44.1648962 346.671234,44.1648962 C347.45018,44.1648962 348.116385,43.8881046 348.669847,43.3345215 C349.20281,42.8014414 349.469292,42.1453429 349.469292,41.3662259 L349.469292,5.66011371 L361.522466,5.66011371 C362.280914,5.66011371 362.936869,5.38332214 363.490331,4.829739 C364.043793,4.27615587 364.320524,3.6098058 364.320524,2.8306888 C364.320524,2.07207487 364.043793,1.41597634 363.490331,0.862393208 C362.936869,0.308810074 362.280914,0.032018507 361.522466,0.032018507 L331.820002,0.032018507 C331.041056,0.032018507 330.385101,0.308810074 329.852137,0.862393208 C329.298675,1.41597634 329.021944,2.07207487 329.021944,2.8306888 C329.021944,3.6098058 329.298675,4.27615587 329.852137,4.829739 C330.385101,5.38332214 331.041056,5.66011371 331.820002,5.66011371 L343.873176,5.66011371 Z" id="path-14"></path>
        <linearGradient x1="50%" y1="0%" x2="50%" y2="100%" id="linearGradient-15">
            <stop stop-color="#00A4DB" offset="0%"></stop>
            <stop stop-color="#CC00FF" offset="100%"></stop>
        </linearGradient>
        <path d="M388.681229,44.1648962 C389.460176,44.1648962 390.12638,43.8881046 390.679842,43.3345215 C391.233304,42.8014414 391.510035,42.1453429 391.510035,41.3662259 L391.510035,2.8306888 C391.510035,2.07207487 391.233304,1.41597634 390.679842,0.862393208 C390.12638,0.308810074 389.460176,0.032018507 388.681229,0.032018507 C387.902282,0.032018507 387.246327,0.308810074 386.713364,0.862393208 C386.159902,1.41597634 385.883171,2.07207487 385.883171,2.8306888 L385.883171,41.3662259 C385.883171,42.1453429 386.159902,42.8014414 386.713364,43.3345215 C387.246327,43.8881046 387.902282,44.1648962 388.681229,44.1648962 Z" id="path-16"></path>
        <path d="M435.118921,5.66011371 C439.669609,5.66011371 443.543843,7.26960541 446.741624,10.4885888 C449.959903,13.6870692 451.569043,17.5621511 451.569043,22.1138346 C451.569043,26.6450151 449.959903,30.5200971 446.741624,33.7390805 C443.543843,36.9375608 439.669609,38.536801 435.118921,38.536801 C430.588731,38.536801 426.714497,36.9375608 423.496218,33.7390805 C420.298437,30.5200971 418.699546,26.6450151 418.699546,22.1138346 C418.699546,17.5621511 420.298437,13.6870692 423.496218,10.4885888 C426.714497,7.26960541 430.588731,5.66011371 435.118921,5.66011371 Z M435.118921,44.1648962 C441.227502,44.1648962 446.434145,42.0120729 450.73885,37.7064263 C455.043554,33.4007797 457.195907,28.2032491 457.195907,22.1138346 C457.195907,16.0039171 455.043554,10.796135 450.73885,6.49048841 C446.434145,2.18484181 441.227502,0.032018507 435.118921,0.032018507 C429.030838,0.032018507 423.834444,2.18484181 419.52974,6.49048841 C415.225035,10.796135 413.072682,16.0039171 413.072682,22.1138346 C413.072682,28.2032491 415.225035,33.4007797 419.52974,37.7064263 C423.834444,42.0120729 429.030838,44.1648962 435.118921,44.1648962 Z" id="path-17"></path>
        <path d="M481.556612,44.1648962 C482.335559,44.1648962 483.001763,43.8881046 483.555225,43.3345215 C484.108687,42.8014414 484.385418,42.1453429 484.385418,41.3662259 L484.385418,11.0729266 L509.014479,43.0577299 C509.58844,43.7958407 510.336639,44.1648962 511.259076,44.1648962 C511.566554,44.1648962 511.863784,44.1136385 512.150764,44.0111231 C513.421677,43.5805584 514.057134,42.698926 514.057134,41.3662259 L514.057134,2.8306888 C514.057134,2.07207487 513.780403,1.41597634 513.226941,0.862393208 C512.673479,0.308810074 512.017524,0.032018507 511.259076,0.032018507 C510.480129,0.032018507 509.813925,0.308810074 509.260463,0.862393208 C508.707001,1.41597634 508.43027,2.07207487 508.43027,2.8306888 L508.43027,33.1239881 L483.801208,1.13918478 C482.981265,0.0730246651 481.935836,-0.24477306 480.664923,0.1857916 C479.39401,0.61635626 478.758554,1.49798866 478.758554,2.8306888 L478.758554,41.3662259 C478.758554,42.1453429 479.035285,42.8014414 479.588747,43.3345215 C480.121711,43.8881046 480.777666,44.1648962 481.556612,44.1648962 Z" id="path-18"></path>
        <linearGradient x1="50%" y1="0%" x2="50%" y2="100%" id="linearGradient-19">
            <stop stop-color="#00A4DB" offset="0%"></stop>
            <stop stop-color="#CC00FF" offset="100%"></stop>
        </linearGradient>
        <path d="M53.6607159,59.2046174 C54.4250176,58.0154285 54.5240937,56.7837686 53.9579443,55.5096377 L30.6892031,2.33590671 C30.0098238,0.778635571 28.82091,0 27.1224618,0 C25.452321,0 24.2775609,0.778635571 23.5981816,2.33590671 L0.329440396,55.5096377 C-0.0951716699,56.5006284 -0.109325405,57.4916192 0.286979189,58.4826099 C0.654976313,59.4736006 1.33435562,60.1814511 2.32511711,60.6061614 C2.83465158,60.8326736 3.3583398,60.9459297 3.89618175,60.9459297 C5.56632254,60.9459297 6.74108259,60.1672941 7.4204619,58.610023 L27.1224618,13.5482589 L44.4890953,53.173731 L21.6025049,53.173731 C20.526821,53.173731 19.6068282,53.5559703 18.8425265,54.3204488 C18.1065322,55.0849274 17.7385351,56.0051331 17.7385351,57.0810659 C17.7385351,58.1286846 18.1065322,59.0347333 18.8425265,59.7992119 C19.6068282,60.5636904 20.526821,60.9459297 21.6025049,60.9459297 L50.391203,60.9459297 C51.8065765,60.9459297 52.8964142,60.3654923 53.6607159,59.2046174 Z" id="path-20"></path>
        <linearGradient x1="50%" y1="0%" x2="50%" y2="100%" id="linearGradient-21">
            <stop stop-color="#00A4DB" offset="0%"></stop>
            <stop stop-color="#CC00FF" offset="100%"></stop>
        </linearGradient>
        <path d="M72.9607496,60.9459297 C74.0364335,60.9459297 74.9564264,60.5636904 75.7207281,59.7992119 C76.4850298,59.0630473 76.8671806,58.1569986 76.8671806,57.0810659 L76.8671806,39.7528852 L88.7987797,39.7528852 L107.184482,59.7142698 C107.948784,60.5353764 108.897084,60.9459297 110.029383,60.9459297 C111.048452,60.9459297 111.925984,60.6061614 112.661978,59.9266249 C113.454587,59.1904604 113.879199,58.2844117 113.935814,57.208479 C113.964121,56.1608602 113.610278,55.2406545 112.874284,54.4478619 L98.6922408,39.0308776 C102.938361,37.8700028 106.42018,35.5340961 109.137698,32.0231575 C111.91183,28.4555909 113.298896,24.4066859 113.298896,19.8764426 C113.298896,14.4118366 111.359834,9.72586613 107.481711,5.81853127 C103.603587,1.93951042 98.9187006,0 93.4270512,0 L72.9607496,0 C71.8850657,0 70.9792267,0.38223928 70.2432324,1.14671784 C69.4789307,1.9111964 69.0967798,2.81724507 69.0967798,3.86486383 C69.0967798,4.94079662 69.4789307,5.8610023 70.2432324,6.62548086 C70.9792267,7.38995942 71.8850657,7.7721987 72.9607496,7.7721987 L93.4270512,7.7721987 C96.7673328,7.7721987 99.6263874,8.94723056 102.004215,11.2972943 C104.353735,13.675672 105.528495,16.5353881 105.528495,19.8764426 C105.528495,23.217497 104.353735,26.0772131 102.004215,28.4555909 C99.6263874,30.8056546 96.7673328,31.9806865 93.4270512,31.9806865 L72.9607496,31.9806865 C71.8850657,31.9806865 70.9792267,32.3629257 70.2432324,33.1274043 C69.4789307,33.8918829 69.0967798,34.8120885 69.0967798,35.8880213 L69.0967798,57.0810659 C69.0967798,58.1569986 69.4789307,59.0630473 70.2432324,59.7992119 C70.9792267,60.5636904 71.8850657,60.9459297 72.9607496,60.9459297 Z" id="path-22"></path>
        <linearGradient x1="50%" y1="0%" x2="50%" y2="100%" id="linearGradient-23">
            <stop stop-color="#00A4DB" offset="0%"></stop>
            <stop stop-color="#CC00FF" offset="100%"></stop>
        </linearGradient>
        <path d="M158.712572,60.9459297 C167.148198,60.9459297 174.338296,57.9729575 180.282865,52.0270132 C181.047166,51.2625346 181.429317,50.3423289 181.429317,49.2663961 C181.429317,48.1904633 181.047166,47.2844147 180.282865,46.5482501 C179.518563,45.7837716 178.59857,45.4015323 177.522886,45.4015323 C176.447202,45.4015323 175.541363,45.7837716 174.805369,46.5482501 C170.361096,50.9652374 164.99683,53.173731 158.712572,53.173731 C152.456621,53.173731 147.106509,50.9652374 142.662236,46.5482501 C138.24627,42.1029489 136.038287,36.751599 136.038287,30.4942004 C136.038287,24.2084878 138.24627,18.8429808 142.662236,14.3976796 C147.106509,9.98069232 152.456621,7.7721987 158.712572,7.7721987 C164.99683,7.7721987 170.361096,9.98069232 174.805369,14.3976796 C175.541363,15.1621581 176.447202,15.5443974 177.522886,15.5443974 C178.59857,15.5443974 179.518563,15.1621581 180.282865,14.3976796 C181.047166,13.661515 181.429317,12.7554664 181.429317,11.6795336 C181.429317,10.6036008 181.047166,9.6833951 180.282865,8.91891654 C174.338296,2.97297218 167.148198,0 158.712572,0 C150.305253,0 143.129309,2.97297218 137.18474,8.91891654 C131.240171,14.8648609 128.267887,22.0566222 128.267887,30.4942004 C128.267887,38.9034645 131.240171,46.0810688 137.18474,52.0270132 C143.129309,57.9729575 150.305253,60.9459297 158.712572,60.9459297 Z" id="path-24"></path>
        <linearGradient x1="50%" y1="0%" x2="50%" y2="100%" id="linearGradient-25">
            <stop stop-color="#00A4DB" offset="0%"></stop>
            <stop stop-color="#CC00FF" offset="100%"></stop>
        </linearGradient>
        <path d="M199.582898,60.9459297 C200.658582,60.9459297 201.578575,60.5636904 202.342877,59.7992119 C203.107179,59.0630473 203.489329,58.1569986 203.489329,57.0810659 L203.489329,34.3590642 L234.48601,34.3590642 L234.48601,57.0810659 C234.48601,58.1569986 234.868161,59.0630473 235.632463,59.7992119 C236.396765,60.5636904 237.302604,60.9459297 238.34998,60.9459297 C239.425664,60.9459297 240.345657,60.5636904 241.109958,59.7992119 C241.87426,59.0630473 242.256411,58.1569986 242.256411,57.0810659 L242.256411,3.86486383 C242.256411,2.81724507 241.87426,1.9111964 241.109958,1.14671784 C240.345657,0.38223928 239.425664,0 238.34998,0 C237.302604,0 236.396765,0.38223928 235.632463,1.14671784 C234.868161,1.9111964 234.48601,2.81724507 234.48601,3.86486383 L234.48601,26.5868655 L203.489329,26.5868655 L203.489329,3.86486383 C203.489329,2.81724507 203.107179,1.9111964 202.342877,1.14671784 C201.578575,0.38223928 200.658582,0 199.582898,0 C198.507215,0 197.601375,0.38223928 196.865381,1.14671784 C196.10108,1.9111964 195.718929,2.81724507 195.718929,3.86486383 L195.718929,57.0810659 C195.718929,58.1569986 196.10108,59.0630473 196.865381,59.7992119 C197.601375,60.5636904 198.507215,60.9459297 199.582898,60.9459297 Z" id="path-26"></path>
        <linearGradient x1="50%" y1="0%" x2="50%" y2="100%" id="linearGradient-27">
            <stop stop-color="#00A4DB" offset="0%"></stop>
            <stop stop-color="#CC00FF" offset="100%"></stop>
        </linearGradient>
        <path d="M300.875522,57.0810659 C300.875522,56.0051331 300.493371,55.0849274 299.72907,54.3204488 C298.964768,53.5559703 298.044775,53.173731 296.969091,53.173731 L260.409992,53.173731 C259.334308,53.173731 258.428469,53.5559703 257.692475,54.3204488 C256.928173,55.0849274 256.546022,56.0051331 256.546022,57.0810659 C256.546022,58.1569986 256.928173,59.0630473 257.692475,59.7992119 C258.428469,60.5636904 259.334308,60.9459297 260.409992,60.9459297 L296.969091,60.9459297 C298.044775,60.9459297 298.964768,60.5636904 299.72907,59.7992119 C300.493371,59.0630473 300.875522,58.1569986 300.875522,57.0810659 Z M260.409992,0 C259.334308,0 258.428469,0.38223928 257.692475,1.14671784 C256.928173,1.9111964 256.546022,2.81724507 256.546022,3.86486383 C256.546022,4.94079662 256.928173,5.8610023 257.692475,6.62548086 C258.428469,7.38995942 259.334308,7.7721987 260.409992,7.7721987 L296.969091,7.7721987 C298.044775,7.7721987 298.964768,7.38995942 299.72907,6.62548086 C300.493371,5.8610023 300.875522,4.94079662 300.875522,3.86486383 C300.875522,2.81724507 300.493371,1.9111964 299.72907,1.14671784 C298.964768,0.38223928 298.044775,0 296.969091,0 L260.409992,0 Z M260.409992,26.5868655 C259.334308,26.5868655 258.428469,26.9691048 257.692475,27.7335833 C256.928173,28.4980619 256.546022,29.4182676 256.546022,30.4942004 C256.546022,31.5418191 256.928173,32.4478678 257.692475,33.2123464 C258.428469,33.9768249 259.334308,34.3590642 260.409992,34.3590642 L296.969091,34.3590642 C298.044775,34.3590642 298.964768,33.9768249 299.72907,33.2123464 C300.493371,32.4478678 300.875522,31.5418191 300.875522,30.4942004 C300.875522,29.4182676 300.493371,28.4980619 299.72907,27.7335833 C298.964768,26.9691048 298.044775,26.5868655 296.969091,26.5868655 L260.409992,26.5868655 Z" id="path-28"></path>
        <linearGradient x1="50%" y1="0%" x2="50%" y2="100%" id="linearGradient-29">
            <stop stop-color="#00A4DB" offset="0%"></stop>
            <stop stop-color="#CC00FF" offset="100%"></stop>
        </linearGradient>
        <path d="M335.673896,7.7721987 L335.673896,57.0810659 C335.673896,58.1569986 336.041893,59.0630473 336.777888,59.7992119 C337.542189,60.5636904 338.462182,60.9459297 339.537866,60.9459297 C340.61355,60.9459297 341.533543,60.5636904 342.297845,59.7992119 C343.033839,59.0630473 343.401836,58.1569986 343.401836,57.0810659 L343.401836,7.7721987 L360.046629,7.7721987 C361.094005,7.7721987 361.999844,7.38995942 362.764146,6.62548086 C363.528448,5.8610023 363.910599,4.94079662 363.910599,3.86486383 C363.910599,2.81724507 363.528448,1.9111964 362.764146,1.14671784 C361.999844,0.38223928 361.094005,0 360.046629,0 L319.029103,0 C317.953419,0 317.04758,0.38223928 316.311586,1.14671784 C315.547284,1.9111964 315.165134,2.81724507 315.165134,3.86486383 C315.165134,4.94079662 315.547284,5.8610023 316.311586,6.62548086 C317.04758,7.38995942 317.953419,7.7721987 319.029103,7.7721987 L335.673896,7.7721987 Z" id="path-30"></path>
        <path d="M382.06418,60.9459297 C383.139864,60.9459297 384.059857,60.5636904 384.824158,59.7992119 C385.58846,59.0630473 385.970611,58.1569986 385.970611,57.0810659 L385.970611,34.3590642 L416.967292,34.3590642 L416.967292,57.0810659 C416.967292,58.1569986 417.349443,59.0630473 418.113744,59.7992119 C418.878046,60.5636904 419.783885,60.9459297 420.831262,60.9459297 C421.906945,60.9459297 422.826938,60.5636904 423.59124,59.7992119 C424.355542,59.0630473 424.737693,58.1569986 424.737693,57.0810659 L424.737693,3.86486383 C424.737693,2.81724507 424.355542,1.9111964 423.59124,1.14671784 C422.826938,0.38223928 421.906945,0 420.831262,0 C419.783885,0 418.878046,0.38223928 418.113744,1.14671784 C417.349443,1.9111964 416.967292,2.81724507 416.967292,3.86486383 L416.967292,26.5868655 L385.970611,26.5868655 L385.970611,3.86486383 C385.970611,2.81724507 385.58846,1.9111964 384.824158,1.14671784 C384.059857,0.38223928 383.139864,0 382.06418,0 C380.988496,0 380.082657,0.38223928 379.346663,1.14671784 C378.582361,1.9111964 378.20021,2.81724507 378.20021,3.86486383 L378.20021,57.0810659 C378.20021,58.1569986 378.582361,59.0630473 379.346663,59.7992119 C380.082657,60.5636904 380.988496,60.9459297 382.06418,60.9459297 Z" id="path-31"></path>
        <linearGradient x1="50%" y1="0%" x2="50%" y2="100%" id="linearGradient-32">
            <stop stop-color="#00A4DB" offset="0%"></stop>
            <stop stop-color="#CC00FF" offset="100%"></stop>
        </linearGradient>
        <path d="M442.891274,60.9459297 C443.966958,60.9459297 444.88695,60.5636904 445.651252,59.7992119 C446.415554,59.0630473 446.797705,58.1569986 446.797705,57.0810659 L446.797705,3.86486383 C446.797705,2.81724507 446.415554,1.9111964 445.651252,1.14671784 C444.88695,0.38223928 443.966958,0 442.891274,0 C441.81559,0 440.909751,0.38223928 440.173756,1.14671784 C439.409455,1.9111964 439.027304,2.81724507 439.027304,3.86486383 L439.027304,57.0810659 C439.027304,58.1569986 439.409455,59.0630473 440.173756,59.7992119 C440.909751,60.5636904 441.81559,60.9459297 442.891274,60.9459297 Z" id="path-33"></path>
        <path d="M491.532001,60.9459297 C499.967628,60.9459297 507.157725,57.9729575 513.102294,52.0270132 C513.866596,51.2625346 514.248747,50.3423289 514.248747,49.2663961 C514.248747,48.1904633 513.866596,47.2844147 513.102294,46.5482501 C512.337992,45.7837716 511.418,45.4015323 510.342316,45.4015323 C509.266632,45.4015323 508.360793,45.7837716 507.624799,46.5482501 C503.180526,50.9652374 497.81626,53.173731 491.532001,53.173731 C485.27605,53.173731 479.925938,50.9652374 475.481665,46.5482501 C471.0657,42.1029489 468.857717,36.751599 468.857717,30.4942004 C468.857717,24.2084878 471.0657,18.8429808 475.481665,14.3976796 C479.925938,9.98069232 485.27605,7.7721987 491.532001,7.7721987 C497.81626,7.7721987 503.180526,9.98069232 507.624799,14.3976796 C508.360793,15.1621581 509.266632,15.5443974 510.342316,15.5443974 C511.418,15.5443974 512.337992,15.1621581 513.102294,14.3976796 C513.866596,13.661515 514.248747,12.7554664 514.248747,11.6795336 C514.248747,10.6036008 513.866596,9.6833951 513.102294,8.91891654 C507.157725,2.97297218 499.967628,0 491.532001,0 C483.124682,0 475.948738,2.97297218 470.004169,8.91891654 C464.059601,14.8648609 461.087316,22.0566222 461.087316,30.4942004 C461.087316,38.9034645 464.059601,46.0810688 470.004169,52.0270132 C475.948738,57.9729575 483.124682,60.9459297 491.532001,60.9459297 Z" id="path-34"></path>
        <linearGradient x1="3.94901683%" y1="70.2946817%" x2="62.7458568%" y2="19.3357929%" id="linearGradient-35">
            <stop stop-color="#00A4DB" offset="0%"></stop>
            <stop stop-color="#CC00FF" offset="100%"></stop>
        </linearGradient>
        <linearGradient x1="-8.15998999%" y1="50.3607943%" x2="66.0973524%" y2="49.4548585%" id="linearGradient-36">
            <stop stop-color="#00A4DB" offset="0%"></stop>
            <stop stop-color="#CC00FF" offset="100%"></stop>
        </linearGradient>
        <linearGradient x1="-8.15998999%" y1="50.7541644%" x2="66.0973524%" y2="48.8604969%" id="linearGradient-37">
            <stop stop-color="#00A4DB" offset="0%"></stop>
            <stop stop-color="#CC00FF" offset="100%"></stop>
        </linearGradient>
        <linearGradient x1="-8.15998999%" y1="51.0690023%" x2="66.0973524%" y2="48.3847932%" id="linearGradient-38">
            <stop stop-color="#00A4DB" offset="0%"></stop>
            <stop stop-color="#CC00FF" offset="100%"></stop>
        </linearGradient>
        <linearGradient x1="-8.15998999%" y1="58.450506%" x2="66.0973524%" y2="37.2317255%" id="linearGradient-39">
            <stop stop-color="#00A4DB" offset="0%"></stop>
            <stop stop-color="#CC00FF" offset="100%"></stop>
        </linearGradient>
        <linearGradient x1="13.7694298%" y1="70.2946817%" x2="60.0277915%" y2="19.3357929%" id="linearGradient-40">
            <stop stop-color="#00A4DB" offset="0%"></stop>
            <stop stop-color="#CC00FF" offset="100%"></stop>
        </linearGradient>
        <linearGradient x1="16.65189%" y1="70.2946817%" x2="59.2299926%" y2="19.3357929%" id="linearGradient-41">
            <stop stop-color="#00A4DB" offset="0%"></stop>
            <stop stop-color="#CC00FF" offset="100%"></stop>
        </linearGradient>
    </defs>
    <g id="Validated-logos" stroke="none" stroke-width="1" fill="none" fill-rule="evenodd">
        <g id="Validated-Logo" transform="translate(-1146.000000, -531.000000)">
            <g id="Archethic-Foundation---Gradient" transform="translate(1146.000000, 531.000000)">
                <g id="Label" transform="translate(307.746726, 0.012767)" fill-rule="nonzero">
                    <g id="FOUNDATION" transform="translate(0.000000, 73.795104)">
                        <g id="Path">
                            <use fill="#00A4DB" xlink:href="#path-2"></use>
                            <use fill="url(#linearGradient-1)" xlink:href="#path-2"></use>
                        </g>
                        <g id="Shape">
                            <use fill="#00A4DB" xlink:href="#path-4"></use>
                            <use fill="url(#linearGradient-3)" xlink:href="#path-4"></use>
                        </g>
                        <g id="Path">
                            <use fill="#00A4DB" xlink:href="#path-6"></use>
                            <use fill="url(#linearGradient-5)" xlink:href="#path-6"></use>
                        </g>
                        <g id="Path">
                            <use fill="#00A4DB" xlink:href="#path-8"></use>
                            <use fill="url(#linearGradient-7)" xlink:href="#path-8"></use>
                        </g>
                        <g id="Path">
                            <use fill="#00A4DB" xlink:href="#path-10"></use>
                            <use fill="url(#linearGradient-9)" xlink:href="#path-10"></use>
                        </g>
                        <g id="Path">
                            <use fill="#00A4DB" xlink:href="#path-12"></use>
                            <use fill="url(#linearGradient-11)" xlink:href="#path-12"></use>
                        </g>
                        <g id="Path">
                            <use fill="#00A4DB" xlink:href="#path-14"></use>
                            <use fill="url(#linearGradient-13)" xlink:href="#path-14"></use>
                        </g>
                        <g id="Path">
                            <use fill="#00A4DB" xlink:href="#path-16"></use>
                            <use fill="url(#linearGradient-15)" xlink:href="#path-16"></use>
                        </g>
                        <g id="Shape">
                            <use fill="#00A4DB" xlink:href="#path-17"></use>
                            <use fill="url(#linearGradient-3)" xlink:href="#path-17"></use>
                        </g>
                        <g id="Path">
                            <use fill="#00A4DB" xlink:href="#path-18"></use>
                            <use fill="url(#linearGradient-7)" xlink:href="#path-18"></use>
                        </g>
                    </g>
                    <g id="ARCHETHIC" transform="translate(0.004527, 0.000000)">
                        <g id="Path">
                            <use fill="#00A4DB" xlink:href="#path-20"></use>
                            <use fill="url(#linearGradient-19)" xlink:href="#path-20"></use>
                        </g>
                        <g id="Path">
                            <use fill="#00A4DB" xlink:href="#path-22"></use>
                            <use fill="url(#linearGradient-21)" xlink:href="#path-22"></use>
                        </g>
                        <g id="Path">
                            <use fill="#00A4DB" xlink:href="#path-24"></use>
                            <use fill="url(#linearGradient-23)" xlink:href="#path-24"></use>
                        </g>
                        <g id="Path">
                            <use fill="#00A4DB" xlink:href="#path-26"></use>
                            <use fill="url(#linearGradient-25)" xlink:href="#path-26"></use>
                        </g>
                        <g id="Shape">
                            <use fill="#00A4DB" xlink:href="#path-28"></use>
                            <use fill="url(#linearGradient-27)" xlink:href="#path-28"></use>
                        </g>
                        <g id="Path">
                            <use fill="#00A4DB" xlink:href="#path-30"></use>
                            <use fill="url(#linearGradient-29)" xlink:href="#path-30"></use>
                        </g>
                        <g id="Path">
                            <use fill="#00A4DB" xlink:href="#path-31"></use>
                            <use fill="url(#linearGradient-25)" xlink:href="#path-31"></use>
                        </g>
                        <g id="Path">
                            <use fill="#00A4DB" xlink:href="#path-33"></use>
                            <use fill="url(#linearGradient-32)" xlink:href="#path-33"></use>
                        </g>
                        <g id="Path">
                            <use fill="#00A4DB" xlink:href="#path-34"></use>
                            <use fill="url(#linearGradient-23)" xlink:href="#path-34"></use>
                        </g>
                    </g>
                </g>
                <g id="Archethic-Logo">
                    <g id="Path" transform="translate(103.000000, 0.000000)">
                        <path d="M97.4069019,118 C100.142839,118 102.24951,116.87619 103.726916,114.628571 C105.204322,112.326132 105.395838,109.941463 104.301463,107.474564 L59.3226599,4.52264808 C58.0094102,1.50754936 55.7112232,0 52.4280989,0 C49.1996933,0 46.9288656,1.50754936 45.6156159,4.52264808 L0.636812904,107.474564 C-0.183968172,109.393264 -0.211327542,111.311963 0.554734797,113.230662 C1.2660784,115.149361 2.57932812,116.519861 4.49448397,117.34216 C5.47942126,117.78072 6.49171792,118 7.53137395,118 C10.7597795,118 13.0306072,116.492451 14.3438569,113.477352 L52.4280989,26.2313589 L85.9980449,102.951916 L41.7579449,102.951916 C39.6786328,102.951916 37.9002738,103.691986 36.4228679,105.172125 C35.0001807,106.652265 34.2888371,108.433914 34.2888371,110.517073 C34.2888371,112.545412 35.0001807,114.299652 36.4228679,115.779791 C37.9002738,117.25993 39.6786328,118 41.7579449,118 L97.4069019,118 Z" fill="url(#linearGradient-35)"></path>
                        <path d="M176.747126,14 C179.295019,14 181.474138,13.3114754 183.284483,11.9344262 C185.094828,10.557377 186,8.89981785 186,6.96174863 C186,5.07468124 185.094828,3.44262295 183.284483,2.06557377 C181.474138,0.68852459 179.295019,0 176.747126,0 L90.1522989,0 C87.6044061,0 85.4588123,0.68852459 83.7155172,2.06557377 C81.9051724,3.44262295 81,5.07468124 81,6.96174863 C81,8.89981785 81.9051724,10.557377 83.7155172,11.9344262 C85.4588123,13.3114754 87.6044061,14 90.1522989,14 L176.747126,14 Z" fill="url(#linearGradient-36)"></path>
                        <path d="M177.685824,67 C179.699872,67 181.422414,66.2131148 182.853448,64.6393443 C184.284483,63.0655738 185,61.2003643 185,59.0437158 C185,56.8287796 184.284483,54.9344262 182.853448,53.3606557 C181.422414,51.7868852 179.699872,51 177.685824,51 L109.234674,51 C107.220626,51 105.524585,51.7868852 104.146552,53.3606557 C102.715517,54.9344262 102,56.8287796 102,59.0437158 C102,61.2003643 102.715517,63.0655738 104.146552,64.6393443 C105.524585,66.2131148 107.220626,67 109.234674,67 L177.685824,67 Z" fill="url(#linearGradient-37)"></path>
                        <path d="M179.624521,118 C181.104725,118 182.37069,117.311475 183.422414,115.934426 C184.474138,114.608379 185,112.976321 185,111.038251 C185,109.100182 184.474138,107.442623 183.422414,106.065574 C182.37069,104.688525 181.104725,104 179.624521,104 L129.31705,104 C127.836845,104 126.590358,104.688525 125.577586,106.065574 C124.525862,107.442623 124,109.100182 124,111.038251 C124,112.976321 124.525862,114.608379 125.577586,115.934426 C126.590358,117.311475 127.836845,118 129.31705,118 L179.624521,118 Z" fill="url(#linearGradient-38)"></path>
                    </g>
                    <g id="Logo" fill-rule="nonzero">
                        <path d="M30.2966327,16.3982085 C31.544474,16.1434428 35.4088723,15.4025483 40.3332198,15.4531317 C48.4079724,15.5361682 54.6631321,17.6957941 58.4960344,19.0539867 C62.9260972,20.6236275 72.7434109,24.6103964 82.6724319,33.5681363 C86.4195125,36.9485228 89.213299,40.162734 91.1129545,42.5474688 C91.9990099,40.7169618 92.7606497,38.8391799 93.3794566,36.9583756 C94.1928837,34.4858444 94.7925827,31.9298883 95.1616878,29.3622436 L95.745614,25.3018899 C93.3805905,22.9367925 90.20154,20.0188119 86.2013648,17.0113017 C84.2983741,15.5805957 78.2429032,11.1471907 70.4960167,7.57180031 C64.3532215,4.73668536 50.0613771,-1.859479 31.681762,0.500576706 C18.0405904,2.25218386 8.45160665,8.12804318 6.23727352,9.53194837 C4.62247088,10.5556389 3.05634175,11.6565471 1.5818421,12.8046279 L0.567436623,13.5943725 L0.416581549,14.9023147 C0.197682148,16.7990083 0.0633555425,18.7596644 0.0170561566,20.7285981 C-0.133794773,27.2091621 0.645338906,37.2267851 5.21436151,48.1468503 C6.53316341,51.2996219 8.11452713,54.3992871 9.91463833,57.3597996 C10.4133345,58.1798673 11.4130928,59.7557193 12.8969082,61.7830189 C12.7438474,60.6357235 12.6105477,59.4874209 12.4996953,58.3550587 C11.8504151,51.731927 11.8548841,44.9677901 12.5122395,38.2511501 C13.0562124,32.693955 13.9605212,28.2305559 14.6095303,25.4126792 C14.9045083,24.132208 15.1778398,23.0605083 15.3839281,22.2810605 C17.1439298,21.2043233 19.3745203,19.9987817 22.0470663,18.9045844 C23.6884072,18.2324593 26.5673085,17.1598076 30.2966327,16.3982085 Z" id="Path" fill="url(#linearGradient-39)"></path>
                        <path d="M73.4453905,94.9778803 C68.4679054,97.2611739 64.2327675,98.6753095 61.5193732,99.4979579 C60.286395,99.8719279 59.240962,100.160935 58.4770289,100.364604 C56.6726342,99.3215252 54.520431,97.9200117 52.2380329,96.0663873 C50.8362678,94.9278703 48.4672867,92.8779436 45.9298438,89.9095215 C45.0808045,88.9161722 42.4923094,85.8161404 40.0352107,81.3695543 C36.0064673,74.0784123 34.6581566,67.3851031 33.8613206,63.2664361 C32.9404027,58.5061184 31.3294492,47.7031274 33.8671172,34.3207499 C34.8248751,29.2705823 36.1257951,25.1591207 37.1789351,22.2641509 C35.1804979,22.3814732 33.2052891,22.634318 31.2999321,23.0167619 C28.7952842,23.5196026 26.3286815,24.2559722 23.9689917,25.2051111 L20.2374917,26.7059299 C19.4372653,30.0090173 18.5824293,34.3187996 18.0687871,39.4102051 C17.8244559,41.8323727 17.1478693,49.4803995 18.0558301,58.219113 C18.7757082,65.148413 20.4505584,81.2699848 31.7773932,96.5948424 C40.1840555,107.96894 50.0228175,113.647694 52.334566,114.935577 C54.0202923,115.874837 55.7469036,116.731875 57.4665173,117.483102 L58.6495857,118 L59.8326629,117.483102 C61.5483897,116.733544 63.2752765,115.876505 64.9645062,114.935969 C70.5235751,111.839285 78.6029307,106.143395 85.521837,96.5946208 C87.5195153,93.8380778 89.3390487,90.8723298 90.9297765,87.7796054 C91.370389,86.922788 92.1960916,85.2390636 93.1578947,82.8958807 C92.2649675,83.6054608 91.361206,84.298016 90.4594216,84.962168 C85.1858981,88.848413 79.4613115,92.2180928 73.4453905,94.9778803 Z" id="Path" fill="url(#linearGradient-40)"></path>
                        <path d="M117.985128,20.5735855 C117.939094,18.6165357 117.804116,16.6643878 117.583401,14.771142 L117.431647,13.4686146 L116.411099,12.6821395 C114.931038,11.5415453 113.355174,10.4449142 111.727905,9.42289821 C106.371129,6.06084695 97.5814951,1.77101052 86.1289034,0.429307098 C82.8226275,0.0415898301 79.4287218,-0.0844026292 76.041585,0.0549602999 C75.1031625,0.0936899446 73.2791704,0.205189616 70.8334393,0.525599778 C71.8721196,0.959737309 72.9018164,1.4119855 73.906752,1.87660511 C79.7856045,4.59243263 85.4535435,7.96440221 90.7534434,11.8981174 C95.1385327,15.1527884 98.4251962,18.1859099 100.460969,20.1707081 C101.385962,21.0726409 102.146951,21.8513702 102.696548,22.4241479 C102.713871,24.5379443 102.602414,27.1375403 102.175448,30.0779317 C101.913195,31.8838636 101.364242,34.998449 100.126682,38.7204138 C99.7125918,39.9659946 98.389824,43.7986216 95.8702237,48.1874843 C91.7388831,55.3840033 86.7821057,59.9154048 83.7155611,62.6748682 C80.1712974,65.8642344 71.890756,72.6790516 59.386955,77.1185647 C54.6682813,78.7939894 50.5685772,79.6979841 47.6140351,80.2132541 C48.7027164,81.9188801 49.8937548,83.5365797 51.1590014,85.0278369 C52.8226767,86.9879474 54.6635702,88.7981734 56.6302758,90.407617 L59.7404242,92.9528302 C62.9128634,92.0106073 66.9580784,90.6138491 71.4912444,88.5259094 C73.6480198,87.5325344 80.4105332,84.3120742 87.3046691,79.1484995 C92.7713401,75.0540242 105.489839,65.5278265 112.756833,47.8779448 C118.150321,34.778451 118.048121,23.2575407 117.985128,20.5735855 Z" id="Path" fill="url(#linearGradient-41)"></path>
                    </g>
                </g>
            </g>
        </g>
    </g>
</svg>