<svg xmlns="http://www.w3.org/2000/svg" viewBox="0 0 144.57 141.82"><defs><style>.cls-1{fill:#00a4db;}.cls-2{fill:#213970;}.cls-3{fill:#46a4db;}.cls-4{fill:#fff;}</style></defs><g id="Layer_2" data-name="Layer 2"><g id="Layer_1-2" data-name="Layer 1"><path class="cls-1" d="M89.71,6.89c.2-.54,1.05-.29,1.2-1.2a68.88,68.88,0,0,1-9.21-3.5V1.3a82.63,82.63,0,0,1,19.57,5.28A66.78,66.78,0,0,1,119.72,18,72.68,72.68,0,0,1,136,38.09,44.37,44.37,0,0,1,139.49,46c.58,1.84-.17,3.91.31,6,1.2,5,1.21,10.18,2.47,15.18a5.14,5.14,0,0,1-.3,2.8c-1.43-3-2.88-6-4.27-9-.34-.73-.33-1.69-1.4-.47-.61.7-.8-.32-1.16-.62-2-1.67-2.79-1.59-4.42.39-.05.06-.08.14-.13.2-1.62,1.91-6.92,2.62-9,1.13-.71-.51-1.34-.93-2-.13s-.09,1.31.38,1.86c1,1.11,2.24,1.87,3.22,3s2.57.58,3.12-.87c.19-.51,0-1.79.65-1.36,1,.65,3,.06,3.11,1.94a15,15,0,0,1-1.71,8.31,42.56,42.56,0,0,1-5.53,8c-1.15,1.3-1.66,1.28-2.12-.23-.85-2.8-3.2-4.44-4.79-6.64-2.11-2.92-5.08-5-7-8-1.92,1.74-.78,3.16.45,4.52a29.8,29.8,0,0,1,4.69,6.48,8.25,8.25,0,0,0,4.27,4.32,4,4,0,0,1,2.48,2.3c.48,1.28,1.34,1.54,2.49.42s2.7-2.31,4.33-3.67a23.63,23.63,0,0,1-4.42,14.37A61.49,61.49,0,0,0,118,105c-.75,1.45-.26,2.92.09,4.32.84,3.33,0,5.92-2.82,8-2,1.42-4.26,2.77-4.1,5.79a1.56,1.56,0,0,1-.54,1c-4.76,4.27-8.86,9.53-15.92,10.33a2.51,2.51,0,0,1-2.57-.87c-2.69-2.51-2.19-6.41-4.58-9-1-1.12.27-2.66,1-3.85.5-.86,1.82-1.59,1.38-2.56-1-2.2-.37-5.22-2.78-6.65s-2.74-3.39-2.1-5.9c.6-2.35-.64-3.59-3-3.14-.7.14-1.47.59-1.91-.18-1.77-3.09-4.26-1.34-6.37-.84-1.83.44-3.5,1.18-5.45.51a3.66,3.66,0,0,0-2.76.21c-1.64.81-2.92.11-4.31-.77-3.35-2.11-4.78-5.84-7.37-8.6a3.76,3.76,0,0,1-.27-4.57c1-1.39.9-3.12.8-4.77A10.76,10.76,0,0,1,60.07,74c1.56-.77,3-1.61,3-3.77,0-1.75,1.69-2.38,2.83-3.43S68,65,69.62,65.6a2.57,2.57,0,0,0,1.81-.23c3.21-1.66,6.75-1.61,10.18-2.19,2.15-.36,2.56.92,2.22,2.14-.52,1.92.85,2.62,1.81,2.53,2.48-.23,4.12,1.71,6.34,2,1.17.13,2.4.49,2.15-1.6-.15-1.24,1-1.85,2.1-1.49,3.55,1.18,6.88-.18,10.28-.66A1.65,1.65,0,0,0,108,64.41a10.6,10.6,0,0,0-.62-5.29c-.24-.5-.83-1.27-1.14-.79-1,1.5-2.75.82-3.88,1.71l-.38,0A10.75,10.75,0,0,0,100,55.77l0-.87c.23,0,.55,0,.68-.1a5.47,5.47,0,0,1,5.7-2,2.21,2.21,0,0,0,2.46-1.77c.23-1.36-1-1.62-2-1.82-2-.45-3.7-1.1-2.89-3.84-2.33.66-2.68,2.09-2,4.13-2.89-2.23-2.89-2.23-4.45,1a.67.67,0,0,1-.16.18c-2.62-4.3-4.9-8.82-8.08-12.77l-1-1.9a5.78,5.78,0,0,1,.61-.69c.51-.48,2.2.07,1.56-1.34s-1.55-.21-2.31.18a8.09,8.09,0,0,0-.79.5,4.57,4.57,0,0,1-1.9-3.22c.11-.86,1.33-1.5.51-2.52a1,1,0,0,0-.82-.29c-1,.15-1,1-1.1,1.79l-2.81-3.49c.66-1.93,2.61-3.49,3.75-2.78s2.24.54,3.39.6,2.75,0,2.92,1.29c.16,1.17-1.67.09-2.22,1,2,2.21,3.52,2.44,3.66.67a9.24,9.24,0,0,1,1.49-4.31c1-1.29,1.44-3.16,3.44-4.11,1.63-.77,2.09,1,3.21.5a2.77,2.77,0,0,0-1.89-2c-3.62-1.18-5.65-4.25-8.2-6.7-.52-.5-1.71-.77-1.38-1.68.46-1.27,1.49.18,2.22-.21a3.64,3.64,0,0,0,.53-.44,67.72,67.72,0,0,1,30.26,16.1A59.9,59.9,0,0,1,136.27,44a9.63,9.63,0,0,0,1.85,3.2c.86-1.21,0-2-.32-2.74a65.69,65.69,0,0,0-20.67-25.34A68.57,68.57,0,0,0,91.56,7.4Zm23.55,37a1.46,1.46,0,0,0-2-2c-1,.51-1.5,3.7-.76,4.6,1.62,2,4.4,2.84,5,5.91.21,1.11,2.19.87,3.33.25,1.43-.79.37-1.66-.06-2.52-.34-.7-1.39-.87-1.36-1.81,0-1.75-1-2.23-2.5-2.4A1.65,1.65,0,0,1,113.26,43.84Z"/><path class="cls-1" d="M6.5,71.79c.22.08.58.09.64.23,1.56,3.76,4.6,6.78,5.4,10.89a5,5,0,0,0,1.71,3A11,11,0,0,1,18,94.33c0,1.25,1.19,2,1.93,2.85,2.76,3.35,7.07,4.86,9.72,8.33a6.34,6.34,0,0,0,1.25,1c1.83,1.37,2.09,3.37.4,4.93a4.39,4.39,0,0,0-1.5,5c.72,2.61-.44,3.66-3.15,3.38-1.24-.13-2.05.11-1.51,1.68.24.71.52,1.72-.24,2.14s-1.13-.6-1.65-1c-6.08-4.82-10-11.26-13.34-18.11A74.05,74.05,0,0,1,3,83.75c-.58-3.56.41-6.87.84-10.28A3.42,3.42,0,0,0,4,71.88c-.45-1.32,1-1.55,1.45-1.67,1.13-.33,1,.8,1.06,1.55a1,1,0,0,0-.2,1.53C6.66,72.82,6.46,72.28,6.5,71.79Z"/><path class="cls-1" d="M38,22.86c.84-.54,1.76-2.21,2.49-1.4.94,1-.22,2.38-1.14,3.35-2.27,1.39.61,1.79.53,2.76-1.08,1.69-2.12,3.34-2.12,5.51a2.15,2.15,0,0,1-1.82,2.4c-1.25.09-2.64.59-3.62-.87s-2.41-1-4.29-.22c2.82.18,2.6,1.07,1.14,2.28a2.07,2.07,0,0,0-.64,1.7l-.89,0c-1.51-.62-3-.93-4.35.36-1,.92-2.24.22-3.41.7-.92.37-1.6.63-2,1.47-.68,1.63-1.56,2.8-3.61,2.72-.76,0-1.55.6-2.52,1-.28-2.12-.1-4.28-1.26-6.21-.4-.67.49-1.58.92-2.3a68.1,68.1,0,0,1,9.23-12.34A1.37,1.37,0,0,0,22,22.44h0l.5-.44.48-.46a4.14,4.14,0,0,0,3.3-2.81c1.95-.75,3.72-2.55,6.05-1h0a2.32,2.32,0,0,0,1.44,2.35,3.08,3.08,0,0,1,0,.43c-1.28,2.09-2.2,4.43-4.25,6a.84.84,0,0,0-.26,1.23c.32.41.81.14,1-.09,1.71-1.88,4.53-1.94,6.23-3.81a1,1,0,0,0,1-.45h0Zm-10.64,12s-.05-.13-.09-.14-.12,0-.19,0l.13.23Z"/><path class="cls-1" d="M88.75,59.07c-2.09-1.4-4.78-1.9-6.22-4.27-.21-.36-.94-.81-1.12-.71-1.6,1-4.14.63-5,1.87-1.23,1.72-3.44,2.69-3.77,5.28-.31,2.38-3.7,3-5.92,2.12C64,62.27,64.07,60.69,65,58.63c.51-1.13-.52-2.83.88-3.41,1.08-.45,2.4.23,3.62.46,2.23.41,3.43-1.3,2.57-3.58a4.36,4.36,0,0,0-2.85-2.51c3.49-.92,5.88-2.42,7.52-5,.2-.31.51-.72.83-.78,1.9-.4,2.47-1.34,1.52-3.11-.27-.5-.34-1.17.48-1.23.62,0,.58.55.66,1,.38,2,1.93,2.7,4,1.74.56-.27,1.07-.81,1.64-.87,1.81-.17,2.35-1,1.68-2.67-.14-.33.06-.59.34-.78l.8.07c2.48,5.07,5.76,9.67,8.55,14.55l1,2.7c-.37.68-1.06.48-1.65.62-1.61.38-2.55,1.16-1.6,3a3.34,3.34,0,0,1,.37,1.31,1.33,1.33,0,0,1-.33,1c-.39.29-.76-.1-.9-.44-.74-1.7-3-2.38-3.07-4.53,0-.57-.68-.81-1.17-1-1.31-.62-2.71-1-3.61-2.38-.33-.5-1.3-1.17-2-.33-.5.6-.17,1.35.42,1.86.81.7,1.39,1.64,2.48,2.06a2.35,2.35,0,0,1,1.61,2.75Z"/><path class="cls-1" d="M69,16.65a34.85,34.85,0,0,1-5.81,7.53C62,25.46,61,25.35,59.71,25.79c-3.29,1.17-7,1.3-9.68,4.06-.38.4-.85,1.27-1.49.7s-1.25-1.08-.89-2.19c.66-2,1.7-4,3.37-4.94,2.58-1.5,4-4,6.14-5.84a1.72,1.72,0,0,0,.76-2c-.39-1.36,1-2,1.78-1.83,2.06.37,4-.71,6-.26h0c0,.37-.07.91.59.45l1.76.5Z"/><path class="cls-1" d="M52,6.84c-1.9,1.67-4.63,2.4-5.57,5.19-.4,1.17-.51,1.74,1.24,1.46l.16.6L46,15.35a2,2,0,0,1-.19.22l.22-.19,2.49.15c-1.32.82-2.19,1.31-3.23,1.11-4.07-.81-7.9-.67-11.07,2.49l-1.84-1.42h0c.08-.84-2.21-1.25-.53-2.33C38.05,11.37,44.66,8.21,52,6.84Z"/><path class="cls-1" d="M83.58,31.77c-.43.78-.89,1.78-.16,2.39,1.8,1.49.31,3.21.55,4.79.1.69-.6,1.17-1.09,1.41-.83.41-.95-.59-1.29-1-.49-.59-.76-1.35-1.21-2-.23-.35-.59-.88-1.08-.29-.7.84-1.56,1.36-2.27.26s-1.08-2.85.08-3.89c1.8-1.63,2.52-3.7,3.19-5.87l.4,0a20.12,20.12,0,0,0,2.89,3.73C83.59,31.48,83.58,31.63,83.58,31.77Z"/><path class="cls-1" d="M68.05,14.43l-1.76-.5-.59-.45h0c-.28-.57-.88-.67-1.37-1-.7-1.27-2.06-1.65-3.2-2.32-1.92-.92-3.21-3-5.91-2.53C53.75,8,56,6.4,54.86,6.05c0-.34,0-.68,0-1L55.45,5c.49,0,1,.11,1.35-.4h0c1.65-.05,3.35.21,4.77-1h1.28c1.2.91,2.59.48,3.85.41,7.86-.46,15.47,1,23,2.86l1.86.51c0,.29,0,.58,0,.86C80.2,5.34,68.72,3.91,56.66,5.75c1.53,1.67,3.4,2.19,4.83,3.33,2.22,1.74,5,2.76,6.56,5.36Z"/><path class="cls-1" d="M20.69,22.86a14.68,14.68,0,0,1-.56-9.52c.32-1.2,1.14-2.31,2.45-2.14,1.84.25,2.4-.9,3.18-2.09C29.87,2.83,36.24,0,42.56,1.64c-.76,1-1.74.53-2.58.51C33.61,2.05,29.27,5.3,26,10.47c-.64,1-.46,1.56.63,2.15a6,6,0,0,1,2.86,2.32c-.13.15-.26.3-.4.44-1-.72-2-1.46-3-2.15-.57-.37-1.3-.88-1.66.2C23.53,16.24,21.9,18.85,22,22v.48h0Zm.61-3.45c.63-1.81,1.3-3.6,1.89-5.43.18-.57,1.12-1.27.2-1.78s-1.69.12-2.14.9C20.11,15.11,20.61,17.23,21.3,19.41Z"/><path class="cls-1" d="M29.12,15.38c.14-.14.27-.29.4-.44,2-.18,3.42-1.65,5.09-2.54C37,11.14,39,9.24,41.77,8.72a.69.69,0,0,0,.83-.35l.15-.1c2.56-.76,5.08-1.65,7.68-2.22,1.27-.27,1.75-.76,1.64-2h.48L54.9,5c0,.33,0,.67,0,1A7,7,0,0,0,52,6.84c-7.37,1.37-14,4.53-20.22,8.55-1.68,1.08.61,1.49.53,2.33-2.33-1.54-4.1.26-6.05,1-.06-.07-.12-.13-.17-.2C26.85,17.23,28.62,16.91,29.12,15.38Z"/><path class="cls-1" d="M42.33,23.45c-.44-1.61,1.54-2.43,1.09-4-.06-.23.65,0,1,.05a4.29,4.29,0,0,0,4.45-4.11c.08-1.59,1.44-1.89,2.57-2.24a.69.69,0,0,1,.78,1c-1.09,1.54-.77,3.89-2.83,4.89-.87.42-.67,1.54-1.17,2.18-.38.48-.95,2.12-1.63.12a.46.46,0,0,0-.87-.1C45.24,23.07,43.61,22.91,42.33,23.45Z"/><path class="cls-2" d="M126.53,108.55c-.84,3.79-2.68,6.58-4.38,9.42a10.88,10.88,0,0,1-1.71,2.21c-.5.49-1,1.64-1.79,1s.06-1.47.36-2.13A34.34,34.34,0,0,1,126.53,108.55Z"/><path class="cls-1" d="M69.36,47.22a5,5,0,0,1,.21-1.65c1.1-1.93,1.23-3.7-.33-5.5a1.2,1.2,0,0,1,.55-1.79c.67-.2,1.82.7,1.73,1-.54,2.09,1.14,3.16,1.92,4.6,1.12,2.07.86,2.72-1.47,2.94C71.14,46.92,70.32,47.08,69.36,47.22Z"/><path class="cls-2" d="M54.9,5l-2.35-1c4.16-1.16,8.11-3.5,12.69-2.17-.37,1.17-2.27.21-2.43,1.7H61.53c-1.82-.84-3.2.54-4.77,1h0c-.48,0-1-.12-1.35.4Z"/><path class="cls-1" d="M80.7,27.61l-.4,0c-2.56-3.66-6-6.54-9-9.7A4.44,4.44,0,0,0,69,16.65l-1-2.22h0c1.57-.75,1.78,1,2.4,1.55,3.68,3.39,7.57,6.61,10.32,10.9C80.75,27.13,80.72,27.37,80.7,27.61Z"/><path class="cls-2" d="M52.07,4.09c.11,1.2-.37,1.69-1.64,2-2.6.57-5.12,1.46-7.68,2.22,2.16-2,5.17-2.28,7.84-3.79a21.15,21.15,0,0,0-5.17-1.74c-.61-.18-1.27-.16-1.32-1l0,0C47,1.74,49.52,2.91,52.07,4.09Z"/><path class="cls-1" d="M61.14,10.22c1.14.67,2.5,1,3.2,2.32-2.54.78-5.11.36-7.75.16C58.38,12.29,59.42,10.64,61.14,10.22Zm.24,1.25a2.55,2.55,0,0,0-.54-.28c-.12,0-.26.07-.39.12a6.91,6.91,0,0,0,.62.44S61.23,11.61,61.38,11.47Z"/><path class="cls-1" d="M62,28.69a4.07,4.07,0,0,0,2.88.61c1.18-.31,1,.83.63,1.32-.66,1-1.86,1-2.89.92s-1.08-1-.89-1.93C61.76,29.34,61.51,29,62,28.69Z"/><path class="cls-2" d="M81.7,1.3v.89c-2.65-.51-5.36-.41-8-.94C76.36.18,79,.69,81.7,1.3Z"/><path class="cls-1" d="M83.58,31.77c0-.14,0-.29,0-.43l.61,0,1.2.14a4.57,4.57,0,0,0,1.9,3.22L88.23,36l1,1.9-.56,0-.8-.07A24.21,24.21,0,0,0,83.58,31.77Z"/><path class="cls-1" d="M34.67,37c-.14,1.26,1.93,2.79-.47,3.76h0c-.57-.82-2.12-1-1.75-2.39.26-1,1.3-1.19,2.22-1.36Z"/><path class="cls-1" d="M68.51,43.33c0,1.34-.92,1.78-1.94,2-.65.13-.67-.34-.57-.9.21-1.19.46-2.44,1.91-2.51C68.83,41.86,68.41,42.83,68.51,43.33Z"/><path class="cls-1" d="M101.93,60l.38,0,2.28,5.25-.55.29a17.1,17.1,0,0,1-2.59-5.11Z"/><path class="cls-1" d="M101,60c-2.32-.4-3.13-1.78-2.24-3.79l.73.08Z"/><path class="cls-1" d="M3.45,62.87c-.61-2.3.65-4,0-6.44C4.92,58.51,4.87,59.47,3.45,62.87Z"/><path class="cls-1" d="M4.29,54.86c.24-1.62-.18-3.55,2-4.28C6.26,52.13,6.26,52.13,4.29,54.86Z"/><path class="cls-1" d="M49.76,10.92c-.72.12-1-.16-.88-.6.28-1.13,1.29-1.43,2.23-1.7.34-.1,1-.15.92.62C51.86,10.76,50.16,10.07,49.76,10.92Z"/><path class="cls-1" d="M99.46,56.3l-.73-.08-.56-1-1-2.71.67-.06c1.14.43,1,2,2.08,2.44,0,.29,0,.58,0,.87Z"/><path class="cls-1" d="M99.46,56.3l.54-.53A10.75,10.75,0,0,1,101.93,60l-.48.48L101,60C100.46,58.77,100,57.54,99.46,56.3Z"/><path class="cls-1" d="M33.77,20.49a3.08,3.08,0,0,0,0-.43l.63,0A4.41,4.41,0,0,1,37,22.89h0l-.49.48A11,11,0,0,0,33.77,20.49Z"/><path class="cls-1" d="M27.62,38.4l.89,0c0,.83.89.92,1.47,1.49-1.4.81-2.34-.28-3.41-.12C26.6,38.87,27.45,38.94,27.62,38.4Z"/><path class="cls-1" d="M34.4,20l-.63,0a2.32,2.32,0,0,1-1.44-2.35l1.84,1.42C34.24,19.43,34.32,19.73,34.4,20Z"/><path class="cls-2" d="M20.69,22.86,22,22.44a1.37,1.37,0,0,1-1.36,1.38Z"/><path class="cls-2" d="M44.1,1.72l-.46-.07.11-.21.33.3Z"/><path class="cls-2" d="M42.6,8.37a.69.69,0,0,1-.83.35A.77.77,0,0,1,42.6,8.37Z"/><path class="cls-1" d="M34.2,40.74l-.15.6c-.43-.34,0-.42.17-.59Z"/><path class="cls-2" d="M88.73,59.09l.35.48c-.56.13-.24-.32-.33-.5Z"/><path class="cls-2" d="M34.69,37l.1-.2-.12.18Z"/><path class="cls-1" d="M38,22.86l-.48.5v-.47Z"/><path class="cls-1" d="M37.5,22.89v.47h0L37,22.89h.47Z"/><path class="cls-1" d="M92.1,8.7l-.52-.44c0-.28,0-.57,0-.86a68.57,68.57,0,0,1,25.57,11.76A65.69,65.69,0,0,1,137.8,44.5c.37.77,1.18,1.53.32,2.74a9.63,9.63,0,0,1-1.85-3.2A59.9,59.9,0,0,0,122.36,24.8,67.72,67.72,0,0,0,92.1,8.7Z"/><path class="cls-1" d="M97.3,50.69c.19.59.38,1.18.58,1.77l-.67.06C94.42,47.64,91.14,43,88.66,38l.56,0C92.4,41.87,94.68,46.39,97.3,50.69Z"/><path class="cls-1" d="M84,30.43l.21.88-.61,0a20.12,20.12,0,0,1-2.89-3.73c0-.24,0-.48.07-.72a.64.64,0,0,0,.41.05Z"/><path class="cls-2" d="M26.29,18.73A4.14,4.14,0,0,1,23,21.54l-.13-.14a11.07,11.07,0,0,1,3.26-2.87C26.17,18.6,26.23,18.66,26.29,18.73Z"/><path class="cls-1" d="M36.51,23.8l0-.43.49-.48.47.46A1,1,0,0,1,36.51,23.8Z"/><path class="cls-2" d="M23,21.54l-.48.46-.13-.16.48-.44Z"/><path class="cls-2" d="M22,22.44V22a1.6,1.6,0,0,1,.37-.12l.13.16Z"/><path class="cls-1" d="M97,18.46c-1.09.27-1.71-.22-2.74-1.17A2.79,2.79,0,0,1,97,18.46Z"/><path class="cls-1" d="M88.83,17.14a1.32,1.32,0,0,1-.4-1.75c0-.06.31-.1.36-.05A1.28,1.28,0,0,1,88.83,17.14Z"/><path class="cls-1" d="M91.43,19.6c.39,0,.74,0,.8.42,0,.09-.32.35-.43.31a4,4,0,0,1-.77-.44Z"/><path class="cls-1" d="M89.69,18.17c.36.06.73.1.71.6,0,.05-.1.14-.15.14-.5,0-.53-.36-.59-.71Z"/><path class="cls-2" d="M89.66,18.2,89.48,18l.21.19Z"/><path class="cls-1" d="M72.29,141.82C32.43,141.82,0,110,0,70.91S32.43,0,72.29,0s72.28,31.81,72.28,70.91S112.15,141.82,72.29,141.82Zm0-138.69C34.16,3.13,3.13,33.54,3.13,70.91s31,67.78,69.16,67.78,69.15-30.41,69.15-67.78S110.42,3.13,72.29,3.13Z"/><polygon class="cls-3" points="63.66 86.52 59.82 105.1 58.94 137.25 128.84 139.91 130.32 128.7 122.83 82.31 63.66 86.52"/><path class="cls-3" d="M56.87,86v9.82s-.1,5.89,6.48,6.19,8.05-7.27,8.05-7.27,1.28,7,8.06,6.78,7.46-7.47,7.46-7.47.19,7.66,7.85,8,6.48-7.86,6.48-7.86,1.67,8,8.55,8S116.38,94,116.38,94s.68,7.85,8.44,8,6.78-9.13,6.78-9.13V81.68l-9.72-15.61h-55L56.58,82.37Z"/><path d="M109.67,104.6a9.88,9.88,0,0,1-7.52-3.4,8.07,8.07,0,0,1-.58.73,8.44,8.44,0,0,1-6.89,2.57,10,10,0,0,1-8-3.86,9.42,9.42,0,0,1-7.2,3.37,9.78,9.78,0,0,1-8-3.53,9.44,9.44,0,0,1-8.25,4c-6.6-.3-8.92-5.38-8.86-8.72V86.1l-.29-3.53A2.49,2.49,0,0,1,54.47,81l10.31-16.3a2.5,2.5,0,0,1,2.11-1.16h55A2.47,2.47,0,0,1,124,64.75l9.72,15.62a2.44,2.44,0,0,1,.38,1.31v11c.09,1,.32,5.85-2.6,9.06a8.43,8.43,0,0,1-6.7,2.68,10.43,10.43,0,0,1-7.92-3.39,9.64,9.64,0,0,1-.82,1,8.57,8.57,0,0,1-6.22,2.57Zm-8.41-12.93a2.48,2.48,0,0,1,2.43,2c0,.23,1.35,6,6,6h.08a3.58,3.58,0,0,0,2.68-1c1.49-1.57,1.45-4.52,1.45-4.55a2.49,2.49,0,0,1,2.33-2.58,2.52,2.52,0,0,1,2.64,2.27c.09.92.83,5.61,6,5.68a3.79,3.79,0,0,0,3-1c1.37-1.48,1.42-4.36,1.32-5.34a2.09,2.09,0,0,1,0-.25V82.39l-8.62-13.83H68.26L59.12,83l.23,2.8a1.41,1.41,0,0,1,0,.2v9.82c0,1.07.43,3.54,4.1,3.7,4.27.16,5.39-4.71,5.5-5.27a2.42,2.42,0,0,1,2.47-2,2.47,2.47,0,0,1,2.42,2c.1.48,1.07,4.74,5.34,4.74h.19c4.38-.13,5-4.71,5.06-5.23a2.49,2.49,0,0,1,5,.19,5.47,5.47,0,0,0,5.46,5.53c2.07.08,2.76-.66,3-.91,1-1.16,1-3.36.93-4.12a2.49,2.49,0,0,1,2-2.78A2,2,0,0,1,101.26,91.67Z"/><path d="M131.79,85.84H56.87a2.49,2.49,0,1,1,0-5h74.92a2.49,2.49,0,1,1,0,5Z"/><path d="M129.14,140.93H58.64a2.49,2.49,0,0,1-2.49-2.49V100a2.49,2.49,0,0,1,5,0V136h65.52V100.44a2.49,2.49,0,0,1,5,0v38A2.49,2.49,0,0,1,129.14,140.93Z"/><path d="M122.17,129.14H66.59a2.49,2.49,0,0,1-2.49-2.48V101.12a2.49,2.49,0,1,1,5,0v23h50.6V100.93a2.49,2.49,0,1,1,5,0v25.73A2.48,2.48,0,0,1,122.17,129.14Z"/><path class="cls-4" d="M104.36,86.29a1.1,1.1,0,0,1-1.06-.82c-10.42-40-36-76.8-57-81.95-5.86-1.43-10.85-.78-14.83,1.95A19.28,19.28,0,0,0,25.68,12a22.93,22.93,0,0,1,3.63,1.36c10.79,5,54.34,40.22,54,71.8a1.11,1.11,0,0,1-1.1,1.09h0a1.11,1.11,0,0,1-1.09-1.11c.29-28.63-39.92-63.84-52.75-69.79a18.9,18.9,0,0,0-3.74-1.34,32.7,32.7,0,0,0-2.53,8.31,1.1,1.1,0,0,1-2.1.27c-.3-.72-2.8-7.12.05-9.84a4.47,4.47,0,0,1,3.28-1.11,22,22,0,0,1,6.86-8C34.73.56,40.32-.21,46.81,1.39c22.08,5.41,47.83,42.1,58.61,83.52a1.09,1.09,0,0,1-.78,1.34A1.35,1.35,0,0,1,104.36,86.29ZM22.25,14a1.63,1.63,0,0,0-.67.38c-.64.61-.75,1.85-.61,3.18A35.72,35.72,0,0,1,22.25,14Z"/><path class="cls-4" d="M119.7,68.74a1.1,1.1,0,0,1-1.07-.86c-.11-.48-11-47.68-41.13-59.22C62.34,2.86,44.75,7,25.21,20.9L25,21h0s-1.44.72-2.81,3.85a1.11,1.11,0,0,1-1.45.56A1.1,1.1,0,0,1,20.18,24c1.55-3.52,3.3-4.65,3.83-4.92C44.16,4.72,62.42.54,78.29,6.62c31.23,12,42,58.79,42.48,60.78a1.1,1.1,0,0,1-.83,1.31A1,1,0,0,1,119.7,68.74Z"/></g></g></svg>