<svg xmlns="http://www.w3.org/2000/svg" viewBox="0 0 123.36 114.34"><defs><style>.cls-1{fill:#00a4db;}</style></defs><g id="Layer_2" data-name="Layer 2"><g id="Layer_1-2" data-name="Layer 1"><path class="cls-1" d="M64.49,113.08a6.49,6.49,0,0,1-4.84-2c-1.22-1.28-3-4.29-1.09-9.95,3.06-9.16-3.27-17.38-6-20.36A54,54,0,0,1,37.67,88.3c-3.79,1.13-5.55-.41-6.26-1.43-3-4.29,2.08-14.39,6.5-20.66-2.5-1.68-9.1-1.88-14.09-2-8-.24-15-.45-15.84-5.15a1.81,1.81,0,0,1,0-.4,11.48,11.48,0,0,1,3.79-8.32c8-7.64,27-8,32-8a113.45,113.45,0,0,1,20.48-23C82,4.15,101.85-2.29,121.59.72a2,2,0,0,1,1.72,1.9c1.74,33.94-39.95,74.09-41.73,75.78a2,2,0,0,1-.82.48c.28,6-.94,12.23-2.6,19.35-2.1,9-7.25,13.42-11.36,14.53A8.62,8.62,0,0,1,64.49,113.08Zm-11.71-37a2,2,0,0,1,1.37.52c.53.48,12.91,11.9,8.27,25.84-.88,2.63-.81,4.83.18,5.88a3.09,3.09,0,0,0,3.14.55c2.85-.77,6.77-4.25,8.47-11.53,3.71-15.88,5-26.47-8.29-39.48a2,2,0,1,1,2.84-2.9c6.8,6.66,10.16,12.81,11.43,19.14,7.16-7.22,39.26-41.19,39.11-69.57-44-5.44-72.49,40.48-72.77,41a2.08,2.08,0,0,1-1.8,1c-.22,0-22.35-.64-30.2,6.82A7.48,7.48,0,0,0,12,58.43c.68,1.35,8.24,1.58,11.93,1.69,8.18.25,15.91.48,18.36,5a2,2,0,0,1-.17,2.19c-5.76,7.61-8.45,15.7-7.38,17.24.06.09.58.21,1.75-.14a51.5,51.5,0,0,0,15-7.92A2,2,0,0,1,52.78,76.05Z"/><path class="cls-1" d="M88.37,46.51A12.93,12.93,0,1,1,101.3,33.58,12.94,12.94,0,0,1,88.37,46.51Zm0-19.14a6.21,6.21,0,1,0,6.21,6.21A6.21,6.21,0,0,0,88.37,27.37Z"/><path class="cls-1" d="M28.41,114.34a3.36,3.36,0,0,1-2.28-5.82L53.29,83.3a3.36,3.36,0,1,1,4.57,4.92L30.7,113.45A3.36,3.36,0,0,1,28.41,114.34Z"/><path class="cls-1" d="M11.8,110.12a3.36,3.36,0,0,1-2.28-5.82l24.2-22.52A3.36,3.36,0,0,1,38.3,86.7L14.09,109.22A3.37,3.37,0,0,1,11.8,110.12Z"/><path class="cls-1" d="M3.36,100.27A3.36,3.36,0,0,1,1,94.48L32.93,64a3.36,3.36,0,0,1,4.64,4.86L5.68,99.34A3.36,3.36,0,0,1,3.36,100.27Z"/></g></g></svg>