<svg xmlns="http://www.w3.org/2000/svg" viewBox="0 0 95.74 92.39"><defs><style>.cls-1{fill:#00a4db;}.cls-2{fill:#eaffb9;}.cls-3{fill:#85c454;}</style></defs><g id="Layer_2" data-name="Layer 2"><g id="Layer_1-2" data-name="Layer 1"><path class="cls-1" d="M38.76,70.6A40.87,40.87,0,0,1,33.86,64,45.26,45.26,0,0,1,28.53,50a59.5,59.5,0,0,1-.62-22.68,60.6,60.6,0,0,1,2.39-9.52,35.8,35.8,0,0,0-4.69.72,33.77,33.77,0,0,0-5.82,1.88l-2.95,1.26a71.89,71.89,0,0,0-1.46,10,73.23,73.23,0,0,0,.39,14.74c.73,5.41,2.42,18,11.81,29.76A53.18,53.18,0,0,0,44.43,90.07,45.38,45.38,0,0,0,48.59,92l.95.38.94-.43a44.66,44.66,0,0,0,4.05-2.11A51.08,51.08,0,0,0,70.58,75a54,54,0,0,0,4.14-7c.33-.68,1-2,1.68-3.87-.7.57-1.41,1.14-2.12,1.68A77.73,77.73,0,0,1,60.88,74a75.21,75.21,0,0,1-9.44,3.8c-1,.32-1.81.57-2.42.75a39.61,39.61,0,0,1-5.08-3.23A38.14,38.14,0,0,1,38.76,70.6Z"/><path class="cls-1" d="M72.64,9.09a76.2,76.2,0,0,1,8,6.28c.76.68,1.4,1.28,1.85,1.72a38.41,38.41,0,0,1-.25,6,39.14,39.14,0,0,1-1.47,6.83,40.91,40.91,0,0,1-3.23,7.53,45.5,45.5,0,0,1-9.5,11.64A59.8,59.8,0,0,1,48.72,61a59.72,59.72,0,0,1-9.43,2.69,34.76,34.76,0,0,0,3,3.7,33.9,33.9,0,0,0,4.54,4.1l2.56,1.93a72.75,72.75,0,0,0,9.4-3.74A73.86,73.86,0,0,0,71.31,62c4.33-3.34,14.39-11.1,19.88-25.11a53.24,53.24,0,0,0,3.63-21.55c-.08-1.53-.23-3.06-.45-4.54l-.15-1-.85-.6c-1.21-.86-2.51-1.68-3.85-2.45A51.06,51.06,0,0,0,68.66.19,54,54,0,0,0,60.51.12c-.76.05-2.23.18-4.2.49.85.32,1.69.65,2.51,1A77.38,77.38,0,0,1,72.64,9.09Z"/><path class="cls-1" d="M4.81,9c-1.29.84-2.54,1.74-3.71,2.67l-.81.64-.09,1c-.14,1.49-.2,3-.2,4.57A51.17,51.17,0,0,0,4.81,39.22a53,53,0,0,0,4,7.09c.42.63,1.27,1.84,2.52,3.4-.15-.9-.28-1.79-.4-2.68a77.68,77.68,0,0,1-.42-15.71A75.44,75.44,0,0,1,12,21.24c.21-1,.41-1.85.56-2.47a39,39,0,0,1,12-4.93,41.7,41.7,0,0,1,8.14-1,45.19,45.19,0,0,1,14.83,2.41,59.72,59.72,0,0,1,27,17.63,34.77,34.77,0,0,0,1.72-4.42,34.09,34.09,0,0,0,1.29-6l.38-3.18a71.82,71.82,0,0,0-7.93-6.27A73.16,73.16,0,0,0,57,6C51.92,4,40.17-.87,25.29,1.39A53.32,53.32,0,0,0,4.81,9Z"/><circle class="cls-2" cx="69.81" cy="66.46" r="25.93"/><path class="cls-3" d="M62.3,79a33.47,33.47,0,0,1,.13-4.78c.81-8.67,5.33-25.48,28.7-18.65C87,64,83.74,78.34,64.05,80.81,67.46,75.33,73.34,65.32,78.82,64,75.48,62.78,64.2,75.56,62.3,79Z"/><path class="cls-3" d="M60.79,80.25a15.69,15.69,0,0,1-10.25-8.5,25,25,0,0,1-2.14-5.24s9.16-3.21,14,7.69L62.3,79l-.32.48s-2-6.2-6.2-7.63C59.12,75,60.79,80.25,60.79,80.25Z"/></g></g></svg>