<?xml version="1.0" encoding="UTF-8" standalone="no"?>
<!-- Created with Inkscape (http://www.inkscape.org/) -->

<svg
   width="38.893749mm"
   height="27.78126mm"
   viewBox="0 0 38.893749 27.78126"
   version="1.1"
   id="svg5"
   inkscape:version="1.1.1 (1:1.1+202109281949+c3084ef5ed)"
   sodipodi:docname="discord.svg"
   xmlns:inkscape="http://www.inkscape.org/namespaces/inkscape"
   xmlns:sodipodi="http://sodipodi.sourceforge.net/DTD/sodipodi-0.dtd"
   xmlns="http://www.w3.org/2000/svg"
   xmlns:svg="http://www.w3.org/2000/svg">
  <sodipodi:namedview
     id="namedview7"
     pagecolor="#505050"
     bordercolor="#eeeeee"
     borderopacity="1"
     inkscape:pageshadow="0"
     inkscape:pageopacity="0"
     inkscape:pagecheckerboard="0"
     inkscape:document-units="mm"
     showgrid="false"
     inkscape:zoom="0.71268238"
     inkscape:cx="249.05906"
     inkscape:cy="354.29528"
     inkscape:window-width="1920"
     inkscape:window-height="972"
     inkscape:window-x="0"
     inkscape:window-y="27"
     inkscape:window-maximized="1"
     inkscape:current-layer="layer1" />
  <defs
     id="defs2" />
  <g
     inkscape:label="Layer 1"
     inkscape:groupmode="layer"
     id="layer1"
     transform="translate(-39.017393,-55.06794)">
    <path
       d="m 67.721512,82.849191 c 0,0 -1.19878,-1.422122 -2.197762,-2.67888 4.362226,-1.223685 6.027198,-3.935637 6.027198,-3.935637 -1.365276,0.892958 -2.663954,1.521338 -3.829436,1.951281 -1.664973,0.694526 -3.263344,1.157541 -4.828418,1.422122 -3.196746,0.595307 -6.127097,0.429942 -8.624556,-0.03307 -1.898068,-0.363797 -3.529741,-0.892958 -4.895018,-1.42212 -0.765888,-0.297653 -1.598374,-0.661453 -2.43086,-1.124468 -0.0999,-0.06615 -0.199796,-0.09922 -0.299695,-0.165365 -0.0666,-0.03307 -0.0999,-0.06614 -0.133197,-0.09922 -0.59939,-0.330726 -0.932385,-0.562234 -0.932385,-0.562234 0,0 1.598373,2.645807 5.827403,3.902564 -0.998984,1.25676 -2.231063,2.745026 -2.231063,2.745026 -7.359177,-0.231508 -10.15633,-5.027033 -10.15633,-5.027033 0,-10.649373 4.79512,-19.28132 4.79512,-19.28132 4.795119,-3.57184 9.357143,-3.472622 9.357143,-3.472622 l 0.332995,0.396871 c -5.9939,1.719775 -8.757754,4.332509 -8.757754,4.332509 0,0 0.732588,-0.396871 1.964667,-0.959105 3.563041,-1.554412 6.393493,-1.984355 7.558974,-2.083573 0.199796,-0.03307 0.366294,-0.06614 0.56609,-0.06614 2.031265,-0.264581 4.328928,-0.330726 6.726487,-0.06614 3.163448,0.363798 6.559992,1.289831 10.023134,3.174968 0,0 -2.630657,-2.480444 -8.291563,-4.200219 l 0.466193,-0.529161 c 0,0 4.562023,-0.09922 9.357143,3.472622 0,0 4.79512,8.631947 4.79512,19.28132 0,0 -2.830451,4.795525 -10.18963,5.027033 z M 52.317429,67.966527 c -1.857432,0 -3.323826,1.549344 -3.323826,3.439549 0,1.890201 1.498981,3.439548 3.323826,3.439548 1.857433,0 3.323827,-1.549347 3.323827,-3.439548 0.03259,-1.890205 -1.466394,-3.439549 -3.323827,-3.439549 z m 11.894083,0 c -1.85743,0 -3.323825,1.549344 -3.323825,3.439549 0,1.890201 1.498981,3.439548 3.323825,3.439548 1.857434,0 3.323826,-1.549347 3.323826,-3.439548 0,-1.890205 -1.466392,-3.439549 -3.323826,-3.439549 z"
       fill="#f7f8f7"
       fill-rule="nonzero"
       id="Shape"
       style="stroke:none;stroke-width:0.264583" />
  </g>
</svg>
