<?xml version="1.0" encoding="UTF-8" standalone="no"?>
<!-- Created with Inkscape (http://www.inkscape.org/) -->

<svg
   width="7.9742475mm"
   height="9.6125774mm"
   viewBox="0 0 7.9742473 9.6125775"
   version="1.1"
   id="svg5"
   inkscape:version="1.1.1 (1:1.1+202109281949+c3084ef5ed)"
   sodipodi:docname="github.svg"
   xmlns:inkscape="http://www.inkscape.org/namespaces/inkscape"
   xmlns:sodipodi="http://sodipodi.sourceforge.net/DTD/sodipodi-0.dtd"
   xmlns="http://www.w3.org/2000/svg"
   xmlns:svg="http://www.w3.org/2000/svg">
  <sodipodi:namedview
     id="namedview7"
     pagecolor="#505050"
     bordercolor="#eeeeee"
     borderopacity="1"
     inkscape:pageshadow="0"
     inkscape:pageopacity="0"
     inkscape:pagecheckerboard="0"
     inkscape:document-units="mm"
     showgrid="false"
     inkscape:zoom="5.701459"
     inkscape:cx="50.250295"
     inkscape:cy="10.962106"
     inkscape:window-width="1920"
     inkscape:window-height="972"
     inkscape:window-x="0"
     inkscape:window-y="27"
     inkscape:window-maximized="1"
     inkscape:current-layer="layer1" />
  <defs
     id="defs2" />
  <g
     inkscape:label="Layer 1"
     inkscape:groupmode="layer"
     id="layer1"
     transform="translate(-76.857575,-73.832361)">
    <g
       id="Outline_Filled"
       transform="matrix(0.26458333,0,0,0.26458333,72.378414,70.171851)">
      <path
         d="m 38.592,50.166 h -4.84 -4.844 c 0,0 0.014,-2.874 0,-4.844 -6.629,1.428 -8.479,-3.633 -8.479,-3.633 -1.21,-2.423 -2.423,-3.633 -2.423,-3.633 -2.423,-1.438 0,-1.21 0,-1.21 2.423,0 3.633,2.423 3.633,2.423 2.126,3.609 5.908,3.028 7.266,2.423 0,-1.21 0.53,-3.042 1.21,-3.633 -5.29,-0.595 -9.693,-3.633 -9.693,-9.689 0,-6.056 1.216,-7.266 2.427,-8.479 -0.244,-0.597 -1.259,-2.805 0.037,-6.056 0,0 2.38,0 4.803,3.633 1.2,-1.2 4.844,-1.21 6.056,-1.21 1.208,0 4.854,0.01 6.054,1.21 2.423,-3.633 4.809,-3.633 4.809,-3.633 1.296,3.251 0.282,5.459 0.037,6.056 1.21,1.21 2.423,2.423 2.423,8.479 0,6.056 -4.397,9.092 -9.689,9.689 0.682,0.591 1.21,2.675 1.21,3.633 z"
         fill="#ffffff"
         id="Cat_3_" />
    </g>
  </g>
</svg>
