<?xml version="1.0" encoding="UTF-8" standalone="no"?>
<!-- Created with Inkscape (http://www.inkscape.org/) -->

<svg
   width="4.2732863mm"
   height="4.2732849mm"
   viewBox="0 0 4.2732863 4.2732849"
   version="1.1"
   id="svg5"
   inkscape:version="1.1.1 (1:1.1+202109281949+c3084ef5ed)"
   sodipodi:docname="instagram.svg"
   xmlns:inkscape="http://www.inkscape.org/namespaces/inkscape"
   xmlns:sodipodi="http://sodipodi.sourceforge.net/DTD/sodipodi-0.dtd"
   xmlns="http://www.w3.org/2000/svg"
   xmlns:svg="http://www.w3.org/2000/svg">
  <sodipodi:namedview
     id="namedview7"
     pagecolor="#505050"
     bordercolor="#eeeeee"
     borderopacity="1"
     inkscape:pageshadow="0"
     inkscape:pageopacity="0"
     inkscape:pagecheckerboard="0"
     inkscape:document-units="mm"
     showgrid="false"
     inkscape:zoom="5.701459"
     inkscape:cx="35.166437"
     inkscape:cy="32.00935"
     inkscape:window-width="1920"
     inkscape:window-height="972"
     inkscape:window-x="0"
     inkscape:window-y="27"
     inkscape:window-maximized="1"
     inkscape:current-layer="layer1" />
  <defs
     id="defs2" />
  <g
     inkscape:label="Layer 1"
     inkscape:groupmode="layer"
     id="layer1"
     transform="translate(-80.846425,-68.263111)">
    <path
       d="m 84.585782,68.263111 h -3.205163 c -0.301625,0 -0.534194,0.232569 -0.534194,0.534194 v 3.204897 c 0,0.301625 0.232569,0.534194 0.534194,0.534194 h 3.204898 c 0.301625,0 0.534194,-0.232569 0.534194,-0.534194 v -3.204897 c 2.64e-4,-0.30189 -0.232569,-0.534194 -0.533929,-0.534194 z m -1.599407,1.297252 c 0.473869,0 0.858044,0.372269 0.858044,0.831321 0,0.459052 -0.384175,0.831321 -0.858044,0.831321 -0.473604,0 -0.857779,-0.372534 -0.857779,-0.831321 0,-0.459317 0.384175,-0.831321 0.857779,-0.831321 z m 1.599407,2.308225 c 0,0.09366 -0.03995,0.133614 -0.133615,0.133614 h -2.937933 c -0.0934,0 -0.133615,-0.03995 -0.133615,-0.133614 v -1.869546 l 0.332846,0.0725 c -0.03572,0.116152 -0.05503,0.238919 -0.05503,0.366448 0,0.710141 0.594783,1.286669 1.327679,1.286669 0.733425,0 1.327943,-0.576263 1.327943,-1.286669 0,-0.127529 -0.01931,-0.250296 -0.05503,-0.366448 l 0.326496,-0.0725 v 1.869546 z m 0,-2.40374 c 0,0.07382 -0.0598,0.133615 -0.133615,0.133615 h -0.534194 c -0.07382,0 -0.133614,-0.0598 -0.133614,-0.133615 v -0.534193 c 0,-0.07382 0.0598,-0.133615 0.133614,-0.133615 h 0.534194 c 0.07382,0 0.133615,0.0598 0.133615,0.133615 z"
       fill="#ffffff"
       id="path797"
       style="stroke-width:0.264583" />
  </g>
</svg>
