<?xml version="1.0" encoding="utf-8"?>
<!-- Generator: Adobe Illustrator 26.0.1, SVG Export Plug-In . SVG Version: 6.00 Build 0)  -->
<svg version="1.1" id="Layer_1" xmlns="http://www.w3.org/2000/svg" xmlns:xlink="http://www.w3.org/1999/xlink" x="0px" y="0px"
	 viewBox="0 0 50 50" style="enable-background:new 0 0 50 50;" xml:space="preserve">
<style type="text/css">
	.st0{fill:#FFFFFF;}
</style>
<path class="st0" d="M18,41.6c0,0.9-0.5,1.4-1.2,1.4c-0.2,0-0.5-0.1-0.8-0.2L5.2,37.3C4.5,36.9,4,36.1,4,35.4V8.3
	c0-0.7,0.4-1.1,0.9-1.1c0.2,0,0.4,0.1,0.6,0.2l0.4,0.2h0l12,6.1c0,0,0,0,0.1,0V41.6z M30.6,8.9l0.7-1.2C31.6,7.2,32.1,7,32.6,7
	c0.1,0,0.2,0,0.3,0c0.1,0,0.2,0.1,0.3,0.1l12.7,6.4c0,0,0,0,0,0l0,0c0,0,0,0,0,0c0.1,0.1,0.1,0.1,0,0.2L33.3,34.6L32,36.7l-8.4-16.4
	L30.6,8.9z M20,30.6v-13l9,17.6l-8.1-4.1L20,30.6z M46,41.6c0,0.8-0.5,1.3-1.2,1.3c-0.3,0-0.7-0.1-1.1-0.3l-1.8-0.9l-8.1-4.1
	L46,17.5V41.6z"/>
</svg>
