<?xml version="1.0" encoding="UTF-8" standalone="no"?>
<!-- Created with Inkscape (http://www.inkscape.org/) -->

<svg
   width="5.6411829mm"
   height="4.7828732mm"
   viewBox="0 0 5.6411829 4.7828732"
   version="1.1"
   id="svg5"
   inkscape:version="1.1.1 (1:1.1+202109281949+c3084ef5ed)"
   sodipodi:docname="reddit.svg"
   xmlns:inkscape="http://www.inkscape.org/namespaces/inkscape"
   xmlns:sodipodi="http://sodipodi.sourceforge.net/DTD/sodipodi-0.dtd"
   xmlns="http://www.w3.org/2000/svg"
   xmlns:svg="http://www.w3.org/2000/svg">
  <sodipodi:namedview
     id="namedview7"
     pagecolor="#505050"
     bordercolor="#eeeeee"
     borderopacity="1"
     inkscape:pageshadow="0"
     inkscape:pageopacity="0"
     inkscape:pagecheckerboard="0"
     inkscape:document-units="mm"
     showgrid="false"
     inkscape:zoom="5.701459"
     inkscape:cx="7.7173228"
     inkscape:cy="4.6479331"
     inkscape:window-width="1920"
     inkscape:window-height="972"
     inkscape:window-x="0"
     inkscape:window-y="27"
     inkscape:window-maximized="1"
     inkscape:current-layer="layer1" />
  <defs
     id="defs2" />
  <g
     inkscape:label="Layer 1"
     inkscape:groupmode="layer"
     id="layer1"
     transform="translate(-76.548205,-75.519716)">
    <g
       id="slices"
       transform="matrix(0.26458333,0,0,0.26458333,-26.443539,8.9928635)"
       style="fill:none;fill-rule:evenodd;stroke:none;stroke-width:1" />
    <path
       d="m 78.578882,78.739431 c -0.252941,0 -0.458523,-0.205581 -0.458523,-0.458259 0,-0.252677 0.205582,-0.458258 0.458523,-0.458258 0.252677,0 0.458259,0.205581 0.458259,0.458258 0,0.252678 -0.205582,0.458259 -0.458259,0.458259 z m 3.316817,-0.319617 c 0.0069,0.05239 0.01058,0.103981 0.01058,0.154252 0,0.953029 -1.140089,1.728523 -2.541852,1.728523 -1.401762,0 -2.541852,-0.775494 -2.541852,-1.728523 0,-0.05212 0.004,-0.106098 0.01138,-0.160866 -0.179652,-0.132557 -0.28575,-0.340255 -0.28575,-0.563828 0,-0.387614 0.315384,-0.702733 0.702734,-0.702733 0.151077,0 0.298185,0.04921 0.4191,0.139171 0.435768,-0.264848 0.991129,-0.419365 1.575064,-0.437885 l 0.447675,-1.272382 1.072886,0.256382 c 0.10107,-0.191294 0.298714,-0.312209 0.518054,-0.312209 0.323321,0 0.586581,0.263261 0.586581,0.586581 0,0.323321 -0.26326,0.586582 -0.586581,0.586582 -0.304271,0 -0.555625,-0.233363 -0.583936,-0.53049 l -0.79031,-0.188912 -0.309563,0.879475 c 0.542396,0.0344 1.057011,0.187325 1.463411,0.435768 0.121708,-0.09207 0.270139,-0.142345 0.423333,-0.142345 0.387615,0 0.702733,0.315383 0.702733,0.702733 5.3e-4,0.2286 -0.108743,0.438414 -0.293687,0.570706 z M 76.88502,77.849372 c 0,0.07038 0.02064,0.138642 0.05847,0.197115 0.0926,-0.196321 0.237596,-0.381265 0.426243,-0.543719 -0.03784,-0.01296 -0.07779,-0.01958 -0.118533,-0.01958 -0.202142,2.65e-4 -0.366183,0.164306 -0.366183,0.366183 z m 4.684183,0.724694 c 0,-0.767556 -0.989277,-1.391708 -2.205037,-1.391708 -1.215761,0 -2.205038,0.624417 -2.205038,1.391708 0,0.767292 0.989277,1.391709 2.205038,1.391709 1.216025,0 2.205037,-0.624153 2.205037,-1.391709 z M 81.36177,77.505414 c 0.189706,0.164042 0.335227,0.351367 0.427037,0.549804 0.04154,-0.06032 0.06429,-0.131762 0.06429,-0.205846 0,-0.201877 -0.164306,-0.366183 -0.365919,-0.366183 -0.04339,2.65e-4 -0.08546,0.0077 -0.125412,0.02223 z m -0.327554,-1.398587 c 0,0.137848 0.112183,0.249766 0.249766,0.249766 0.137584,0 0.249767,-0.112183 0.249767,-0.249766 0,-0.137848 -0.112183,-0.249767 -0.249767,-0.249767 -0.137583,0 -0.249766,0.111919 -0.249766,0.249767 z m -0.823648,2.991114 c -0.04551,0 -0.08837,0.01799 -0.119063,0.04921 -0.009,0.009 -0.229394,0.216164 -0.731837,0.216164 -0.496359,0 -0.696384,-0.207433 -0.696913,-0.207962 -0.03201,-0.03678 -0.07832,-0.05768 -0.127,-0.05768 -0.03995,0 -0.07885,0.01429 -0.109273,0.04022 -0.03413,0.0291 -0.05503,0.07012 -0.05847,0.114829 -0.0034,0.04498 0.01085,0.08837 0.03995,0.122503 0.0079,0.0093 0.08123,0.09234 0.236538,0.17145 0.199231,0.1016 0.439737,0.153193 0.715169,0.153193 0.273579,0 0.51726,-0.0508 0.7239,-0.150548 0.160337,-0.07752 0.239977,-0.15822 0.248708,-0.167216 0.06324,-0.06615 0.06138,-0.172509 -0.0045,-0.236802 -0.03148,-0.03043 -0.07303,-0.04736 -0.11721,-0.04736 z m -0.0053,-1.275291 c -0.252942,0 -0.458523,0.205581 -0.458523,0.458258 0,0.252677 0.205581,0.458258 0.458523,0.458258 0.252677,0 0.458258,-0.205581 0.458258,-0.458258 0,-0.252677 -0.205581,-0.458258 -0.458258,-0.458258 z"
       fill="#ffffff"
       id="path1325"
       style="stroke-width:0.264583" />
  </g>
</svg>
