<?xml version="1.0" encoding="UTF-8" standalone="no"?>
<!-- Created with Inkscape (http://www.inkscape.org/) -->

<svg
   width="3.9533768mm"
   height="3.3029299mm"
   viewBox="0 0 3.9533768 3.3029299"
   version="1.1"
   id="svg5"
   inkscape:version="1.1.1 (1:1.1+202109281949+c3084ef5ed)"
   sodipodi:docname="telegram.svg"
   xmlns:inkscape="http://www.inkscape.org/namespaces/inkscape"
   xmlns:sodipodi="http://sodipodi.sourceforge.net/DTD/sodipodi-0.dtd"
   xmlns="http://www.w3.org/2000/svg"
   xmlns:svg="http://www.w3.org/2000/svg">
  <sodipodi:namedview
     id="namedview7"
     pagecolor="#505050"
     bordercolor="#eeeeee"
     borderopacity="1"
     inkscape:pageshadow="0"
     inkscape:pageopacity="0"
     inkscape:pagecheckerboard="0"
     inkscape:document-units="mm"
     showgrid="false"
     inkscape:zoom="5.701459"
     inkscape:cx="23.590453"
     inkscape:cy="30.781595"
     inkscape:window-width="1920"
     inkscape:window-height="972"
     inkscape:window-x="0"
     inkscape:window-y="27"
     inkscape:window-maximized="1"
     inkscape:current-layer="layer1" />
  <defs
     id="defs2" />
  <g
     inkscape:label="Layer 1"
     inkscape:groupmode="layer"
     id="layer1"
     transform="translate(-83.94854,-68.627233)">
    <g
       id="slices"
       transform="matrix(0.26458333,0,0,0.26458333,-26.443539,8.9928635)"
       style="fill:none;fill-rule:evenodd;stroke:none;stroke-width:1" />
    <path
       style="fill:#ffffff;stroke-width:0.0116016"
       d="m 87.079658,71.927042 c -0.06531,-0.01143 -0.117012,-0.0457 -0.584144,-0.387204 l -0.439921,-0.321607 -0.05895,0.05624 c -0.03242,0.03093 -0.147089,0.141377 -0.25482,0.245438 -0.10773,0.104062 -0.213282,0.196477 -0.234559,0.205367 -0.06015,0.02513 -0.104255,0.02027 -0.142961,-0.01574 -0.02973,-0.02766 -0.0586,-0.106748 -0.217063,-0.59458 -0.100527,-0.309472 -0.183986,-0.564463 -0.185464,-0.566648 -0.0015,-0.0022 -0.192325,-0.06347 -0.424106,-0.136193 -0.495875,-0.155584 -0.510617,-0.160852 -0.555295,-0.198446 -0.06499,-0.05468 -0.03498,-0.12622 0.07819,-0.186369 0.03701,-0.01967 0.383143,-0.15834 0.769185,-0.308152 1.439564,-0.558653 1.654931,-0.642408 2.2217,-0.864002 0.568671,-0.222338 0.58183,-0.226817 0.669197,-0.227762 0.08293,-8.97e-4 0.09153,0.0013 0.12389,0.03232 0.04161,0.03983 0.06573,0.126518 0.05472,0.196662 -0.0147,0.09366 -0.622918,2.903085 -0.639931,2.955917 -0.02869,0.08909 -0.09271,0.129984 -0.179669,0.114764 z m -1.617283,-0.777287 c 0.02435,-0.254292 0.036,-0.335705 0.05046,-0.35256 0.01034,-0.01206 0.144389,-0.134741 0.297879,-0.272637 0.15349,-0.137896 0.528085,-0.47434 0.832433,-0.747652 0.367212,-0.329766 0.555833,-0.506783 0.56071,-0.526216 0.01388,-0.05532 -0.04427,-0.0658 -0.12458,-0.02245 -0.02807,0.01515 -0.484353,0.302548 -1.013964,0.638664 -0.835621,0.530322 -0.96251,0.614493 -0.959752,0.636644 0.0023,0.01849 0.243554,0.770962 0.310935,0.969814 0.003,0.0089 0.0074,0.01411 0.0098,0.0116 0.0024,-0.0025 0.01862,-0.153351 0.03603,-0.335206 z"
       id="path601" />
  </g>
</svg>
