<?xml version="1.0" encoding="UTF-8" standalone="no"?>
<!-- Created with Inkscape (http://www.inkscape.org/) -->

<svg
   width="4.6586738mm"
   height="3.8557301mm"
   viewBox="0 0 4.6586738 3.8557301"
   version="1.1"
   id="svg5"
   inkscape:version="1.1.1 (1:1.1+202109281949+c3084ef5ed)"
   sodipodi:docname="twitter.svg"
   xmlns:inkscape="http://www.inkscape.org/namespaces/inkscape"
   xmlns:sodipodi="http://sodipodi.sourceforge.net/DTD/sodipodi-0.dtd"
   xmlns="http://www.w3.org/2000/svg"
   xmlns:svg="http://www.w3.org/2000/svg">
  <sodipodi:namedview
     id="namedview7"
     pagecolor="#505050"
     bordercolor="#eeeeee"
     borderopacity="1"
     inkscape:pageshadow="0"
     inkscape:pageopacity="0"
     inkscape:pagecheckerboard="0"
     inkscape:document-units="mm"
     showgrid="false"
     inkscape:zoom="5.701459"
     inkscape:cx="56.038287"
     inkscape:cy="-8.8573819"
     inkscape:window-width="1920"
     inkscape:window-height="972"
     inkscape:window-x="0"
     inkscape:window-y="27"
     inkscape:window-maximized="1"
     inkscape:current-layer="layer1" />
  <defs
     id="defs2" />
  <g
     inkscape:label="Layer 1"
     inkscape:groupmode="layer"
     id="layer1"
     transform="translate(-75.35431,-79.136295)">
    <g
       id="slices"
       transform="matrix(0.26458333,0,0,0.26458333,-26.443539,8.9928635)"
       style="fill:none;fill-rule:evenodd;stroke:none;stroke-width:1" />
    <path
       d="m 78.272659,79.181862 c -0.420688,0.153194 -0.686594,0.547953 -0.656431,0.980017 l 0.01005,0.166688 -0.168275,-0.02037 C 76.845496,80.229877 76.310244,79.9645 75.85569,79.518677 l -0.22225,-0.221192 -0.05688,0.163248 c -0.12118,0.364067 -0.04366,0.748771 0.208756,1.007534 0.134673,0.142875 0.104246,0.163248 -0.127794,0.07832 -0.0807,-0.02725 -0.151606,-0.04762 -0.158221,-0.03731 -0.02355,0.02381 0.05715,0.333375 0.121179,0.456142 0.08758,0.170391 0.265907,0.336814 0.461169,0.435768 l 0.1651,0.07832 -0.195527,0.0029 c -0.188383,0 -0.195262,0.0034 -0.174889,0.07514 0.0672,0.221192 0.33311,0.456142 0.629443,0.558271 l 0.208757,0.07144 -0.181769,0.109008 c -0.269346,0.156898 -0.585788,0.245269 -0.902229,0.251619 -0.151607,0.0034 -0.276225,0.01693 -0.276225,0.02725 0,0.03387 0.410898,0.224366 0.649552,0.299508 0.717021,0.221192 1.568714,0.125677 2.208212,-0.251883 0.454554,-0.268817 0.908844,-0.803275 1.12104,-1.3208 0.114564,-0.275432 0.228864,-0.779198 0.228864,-1.020763 0,-0.156633 0.01006,-0.177006 0.198438,-0.364066 0.111125,-0.109009 0.215371,-0.228071 0.235744,-0.261938 0.03387,-0.06482 0.03016,-0.06482 -0.141288,-0.0069 -0.286014,0.102129 -0.326496,0.08863 -0.184944,-0.06456 0.104246,-0.109009 0.228865,-0.306388 0.228865,-0.364067 0,-0.01005 -0.05053,0.0069 -0.107685,0.03731 -0.06059,0.03413 -0.195263,0.0852 -0.296334,0.115623 L 79.313,79.430571 79.148165,79.317858 c -0.09102,-0.06112 -0.218546,-0.129381 -0.286015,-0.149754 -0.171979,-0.04762 -0.434445,-0.04075 -0.589491,0.01376 z"
       fill="#ffffff"
       id="path1723"
       style="stroke-width:0.264583" />
  </g>
</svg>
