<?xml version="1.0" encoding="UTF-8" standalone="no"?>
<!-- Created with Inkscape (http://www.inkscape.org/) -->

<svg
   width="4.1494603mm"
   height="5.130271mm"
   viewBox="0 0 4.1494603 5.130271"
   version="1.1"
   id="svg5"
   inkscape:version="1.1.1 (1:1.1+202109281949+c3084ef5ed)"
   sodipodi:docname="youtube.svg"
   xmlns:inkscape="http://www.inkscape.org/namespaces/inkscape"
   xmlns:sodipodi="http://sodipodi.sourceforge.net/DTD/sodipodi-0.dtd"
   xmlns="http://www.w3.org/2000/svg"
   xmlns:svg="http://www.w3.org/2000/svg">
  <sodipodi:namedview
     id="namedview7"
     pagecolor="#505050"
     bordercolor="#eeeeee"
     borderopacity="1"
     inkscape:pageshadow="0"
     inkscape:pageopacity="0"
     inkscape:pagecheckerboard="0"
     inkscape:document-units="mm"
     showgrid="false"
     inkscape:zoom="5.701459"
     inkscape:cx="64.281791"
     inkscape:cy="33.237106"
     inkscape:window-width="1920"
     inkscape:window-height="972"
     inkscape:window-x="0"
     inkscape:window-y="27"
     inkscape:window-maximized="1"
     inkscape:current-layer="g1941" />
  <defs
     id="defs2" />
  <g
     inkscape:label="Layer 1"
     inkscape:groupmode="layer"
     id="layer1"
     transform="translate(-73.186899,-67.987326)">
    <g
       id="slices"
       transform="matrix(0.26458333,0,0,0.26458333,-26.443539,8.9928635)"
       style="fill:none;fill-rule:evenodd;stroke:none;stroke-width:1" />
    <g
       id="g1941"
       transform="matrix(0.26458333,0,0,0.26458333,71.028164,66.319128)">
      <path
         d="m 15.997,15.202 c 0,-10e-4 6.331,0.009 7.082,0.76 0.754,0.752 0.763,4.462 0.763,4.483 0,0 -0.006,3.73 -0.763,4.484 -0.752,0.749 -7.082,0.766 -7.082,0.766 0,0 -6.33,-0.016 -7.083,-0.766 -0.754,-0.752 -0.755,-4.456 -0.755,-4.484 0,-0.021 0.002,-3.731 0.755,-4.483 0.753,-0.75 7.083,-0.76 7.083,-0.76 z"
         fill="#ffffff"
         id="path1925" />
      <path
         d="m 22.491,21.325 v -1.186 c 0,-0.441 -0.112,-0.779 -0.336,-1.014 -0.225,-0.235 -0.547,-0.353 -0.966,-0.353 -0.41,0 -0.743,0.127 -1.002,0.381 -0.258,0.254 -0.389,0.584 -0.389,0.986 v 2.089 c 0,0.449 0.12,0.801 0.354,1.055 0.235,0.256 0.559,0.383 0.968,0.383 0.455,0 0.798,-0.12 1.026,-0.36 0.231,-0.243 0.344,-0.602 0.344,-1.079 V 21.988 H 21.55 V 22.2 c 0,0.275 -0.032,0.451 -0.092,0.531 -0.06,0.08 -0.166,0.12 -0.318,0.12 -0.146,0 -0.248,-0.046 -0.31,-0.141 -0.059,-0.095 -0.089,-0.265 -0.089,-0.51 v -0.875 z m -1.75,-0.726 v -0.47 c 0,-0.195 0.031,-0.335 0.094,-0.417 0.064,-0.087 0.169,-0.128 0.314,-0.128 0.139,0 0.242,0.041 0.303,0.128 0.064,0.082 0.097,0.222 0.097,0.417 v 0.47 z"
         fill="#333333"
         id="path1927" />
      <path
         d="m 19.09,19.126 c -0.152,-0.197 -0.373,-0.296 -0.663,-0.296 -0.142,0 -0.282,0.036 -0.422,0.111 -0.138,0.073 -0.268,0.182 -0.392,0.323 v -2.031 h -0.924 v 6.306 h 0.924 v -0.357 c 0.119,0.144 0.251,0.247 0.391,0.315 0.139,0.068 0.298,0.101 0.478,0.101 0.271,0 0.48,-0.086 0.622,-0.263 0.144,-0.176 0.215,-0.428 0.215,-0.757 v -2.582 c 0,-0.381 -0.075,-0.672 -0.229,-0.87 z m -0.712,3.323 c 0,0.15 -0.028,0.255 -0.08,0.32 -0.052,0.067 -0.134,0.099 -0.246,0.099 -0.078,0 -0.15,-0.017 -0.221,-0.05 -0.071,-0.032 -0.144,-0.09 -0.218,-0.164 v -2.899 c 0.062,-0.064 0.125,-0.112 0.189,-0.142 0.063,-0.031 0.128,-0.045 0.194,-0.045 0.123,0 0.219,0.04 0.285,0.121 0.064,0.081 0.097,0.201 0.097,0.357 z"
         fill="#333333"
         id="path1929" />
      <path
         d="m 15.087,23.538 v -0.511 c -0.17,0.189 -0.345,0.333 -0.529,0.431 -0.183,0.1 -0.36,0.148 -0.531,0.148 -0.212,0 -0.369,-0.068 -0.478,-0.208 -0.105,-0.139 -0.16,-0.345 -0.16,-0.623 v -3.89 h 0.914 v 3.568 c 0,0.111 0.019,0.19 0.056,0.24 0.04,0.05 0.103,0.074 0.188,0.074 0.067,0 0.153,-0.032 0.256,-0.099 C 14.906,22.602 15,22.52 15.087,22.419 V 18.885 H 16 v 4.653 z"
         fill="#333333"
         id="path1931" />
      <polygon
         fill="#333333"
         points="12.987,17.233 12.987,18.149 11.921,18.149 11.921,23.538 10.889,23.538 10.889,18.149 9.823,18.149 9.823,17.233 "
         id="polygon1933" />
      <path
         d="m 21.146,13.251 h -1.03 v -0.566 c -0.188,0.208 -0.386,0.368 -0.592,0.476 -0.205,0.109 -0.404,0.164 -0.597,0.164 -0.24,0 -0.418,-0.077 -0.538,-0.229 -0.12,-0.153 -0.181,-0.381 -0.181,-0.687 V 8.126 h 1.028 v 3.929 c 0,0.121 0.024,0.209 0.067,0.263 0.042,0.055 0.113,0.082 0.209,0.082 0.075,0 0.171,-0.036 0.287,-0.108 0.115,-0.072 0.222,-0.164 0.317,-0.276 v -3.89 h 1.03 z"
         fill="#ffffff"
         id="path1935" />
      <path
         d="M 16.965,8.369 C 16.692,8.121 16.342,7.996 15.916,7.996 c -0.467,0 -0.841,0.118 -1.117,0.353 -0.278,0.235 -0.417,0.551 -0.416,0.949 v 2.656 c 0,0.436 0.136,0.782 0.405,1.04 0.271,0.257 0.632,0.386 1.082,0.386 0.469,0 0.835,-0.125 1.104,-0.374 0.266,-0.25 0.399,-0.593 0.399,-1.031 V 9.327 C 17.372,8.937 17.236,8.617 16.965,8.369 Z m -0.642,3.683 c 0,0.136 -0.041,0.244 -0.123,0.324 -0.083,0.078 -0.193,0.117 -0.332,0.117 -0.137,0 -0.242,-0.038 -0.314,-0.115 C 15.481,12.3 15.443,12.192 15.443,12.052 V 9.26 c 0,-0.112 0.04,-0.203 0.118,-0.272 0.079,-0.069 0.181,-0.103 0.307,-0.103 0.135,0 0.245,0.034 0.329,0.103 0.084,0.069 0.126,0.16 0.126,0.272 z"
         fill="#ffffff"
         id="path1937" />
      <polygon
         fill="#ffffff"
         points="14.299,6.305 13.12,6.305 12.404,9.081 12.331,9.081 11.578,6.305 10.41,6.305 11.79,10.499 11.79,13.251 12.95,13.251 12.95,10.369 "
         id="polygon1939" />
    </g>
  </g>
</svg>
