<svg xmlns="http://www.w3.org/2000/svg" width="213" height="35" viewBox="0 0 213 35" fill="none">
<path d="M66.7932 4.70605H62.0065L52.5919 29.4591L52.5125 29.684H55.9769L58.3834 23.3766H70.35L72.7565 29.684H76.2606L66.8327 4.81184L66.7932 4.70605ZM59.428 20.5734L64.3734 7.56218L69.2922 20.5734H59.428Z" fill="white"/>
<path d="M81.8856 15.0611V10.8298H78.6328V29.6987H81.9253V22.7171C81.9253 18.8957 82.56 16.595 83.9615 15.2329C84.993 14.228 86.4474 13.7785 88.3912 13.8446H89.3697V10.5918H88.5367C85.4822 10.5918 83.1947 12.1388 81.8856 15.0876V15.0611Z" fill="white"/>
<path d="M105.646 22.4125C105.262 25.7183 103.173 27.5298 99.775 27.5298C95.676 27.5298 93.6793 25.1496 93.6793 20.244C93.6793 15.3384 95.7157 12.9583 99.894 12.9583C103.081 12.9583 105.011 14.6244 105.474 17.7845L105.501 17.93H108.595V17.7581C108.251 12.9715 105.051 10.2344 99.7883 10.2344C94.0627 10.2344 90.3604 14.1747 90.3604 20.2573C90.3604 26.3397 93.9702 30.2801 99.7883 30.2801C105.024 30.2801 108.568 27.2124 108.806 22.4522V22.2803H105.672V22.4258L105.646 22.4125Z" fill="white"/>
<path d="M121.966 10.2219C118.699 10.2219 116.386 11.8086 115.05 14.9424V3.41211H111.758V29.6858H115.05V22.4397C115.05 16.1985 117.113 13.0383 121.185 13.0383C124.147 13.0383 125.469 14.5721 125.469 18.0233V29.6725H128.762V17.6795C128.762 12.6548 126.541 10.2086 121.966 10.2086V10.2219Z" fill="white"/>
<path d="M149.772 20.9448C149.851 20.482 149.851 20.0986 149.851 19.6226C149.851 13.9103 146.374 10.2344 140.979 10.2344C135.2 10.2344 131.617 14.0557 131.617 20.2176C131.617 26.3794 135.12 30.2801 140.979 30.2801C148.397 30.2801 149.613 25.3481 149.811 23.8406L149.838 23.6555H146.81L146.783 23.7878C146.161 26.3794 144.244 27.7016 141.084 27.7016C137.157 27.7016 135.12 25.5464 134.883 21.1035H149.745L149.772 20.9713V20.9448ZM134.962 18.525C135.372 14.6772 137.356 12.8129 141.005 12.8129C144.654 12.8129 146.427 14.7301 146.611 18.525H134.962Z" fill="white"/>
<path d="M157.257 6.70463H155.381L154.256 10.5921L150.527 11.4913L150.395 11.5177V13.4879H153.951V25.1769C153.951 27.9537 154.719 29.6726 158.566 29.6726H163.102V26.9355H157.245V13.4747H163.353V10.8037H157.245V6.69141L157.257 6.70463Z" fill="white"/>
<path d="M176.67 10.2219C173.404 10.2219 171.09 11.8086 169.755 14.9424V3.41211H166.461V29.6858H169.755V22.4397C169.755 16.1985 171.817 13.0383 175.89 13.0383C178.852 13.0383 180.174 14.5721 180.174 18.0233V29.6725H183.466V17.6795C183.466 12.6548 181.245 10.2086 176.67 10.2086V10.2219Z" fill="white"/>
<path d="M190.73 10.8164H187.437V29.6854H190.73V10.8164Z" fill="white"/>
<path d="M191.133 4.70605H186.981V8.11754H191.133V4.70605Z" fill="white"/>
<path d="M209.05 22.2671V22.4126C208.639 25.7182 206.564 27.5298 203.152 27.5298C199.053 27.5298 197.056 25.1497 197.056 20.244C197.056 15.3384 199.093 12.9583 203.271 12.9583C206.458 12.9583 208.389 14.6243 208.851 17.7846L208.878 17.93H211.972V17.7582C211.628 12.9715 208.428 10.2344 203.152 10.2344C197.426 10.2344 193.725 14.1748 193.725 20.2572C193.725 26.3397 197.334 30.2801 203.152 30.2801C208.389 30.2801 211.932 27.2124 212.17 22.4523V22.2803H209.036L209.05 22.2671Z" fill="white"/>
<path d="M16.026 0.462798L0.925595 15.5104C0.33057 16.1053 0 16.912 0 17.7582V21.9234C0 22.7697 0.33057 23.5762 0.925595 24.1713L3.21313 26.4456C3.95361 27.186 5.19655 27.0141 5.71224 26.1017L19.1994 2.36688C19.7945 1.30906 19.0408 0 17.8243 0H17.1499C16.7268 0 16.3302 0.171896 16.026 0.462798Z" fill="white"/>
<path d="M40.1516 15.5104L25.0512 0.462798C24.7603 0.171896 24.3505 0 23.9405 0H23.2662C22.0496 0 21.2827 1.30906 21.891 2.36688L35.3782 26.1018C35.8939 27.0142 37.1368 27.1729 37.8773 26.4456L40.1649 24.1713C40.7599 23.5762 41.0905 22.7697 41.0905 21.9234V17.7582C41.0905 16.912 40.7599 16.1053 40.1649 15.5104H40.1516Z" fill="white"/>
<path d="M10.8695 34.074C11.4645 34.669 12.2711 34.9995 13.1041 34.9995H27.9666C28.7996 34.9995 29.6061 34.669 30.2012 34.074L33.6656 30.6228C34.6705 29.6311 33.9565 27.9121 32.5416 27.9121H8.52906C7.11422 27.9121 6.41341 29.6179 7.40512 30.6228L10.8695 34.074Z" fill="white"/>
<path d="M4.68262 27.9126H4.69378L4.68262 27.9014V27.9126Z" fill="white"/>
</svg>