<?xml version="1.0" standalone="no"?>
<!DOCTYPE svg PUBLIC "-//W3C//DTD SVG 20010904//EN"
 "http://www.w3.org/TR/2001/REC-SVG-20010904/DTD/svg10.dtd">
<svg version="1.0" xmlns="http://www.w3.org/2000/svg"
 width="905.000000pt" height="905.000000pt" viewBox="0 0 905.000000 905.000000"
 preserveAspectRatio="xMidYMid meet">
<metadata>
Created by potrace 1.14, written by Peter Selinger 2001-2017
</metadata>
<g transform="translate(0.000000,905.000000) scale(0.100000,-0.100000)"
fill="#000000" stroke="none">
<path d="M3878 7725 c-3 -3 -18 -8 -34 -11 -16 -3 -31 -10 -35 -15 -3 -6 -9
-10 -13 -10 -21 2 -78 -40 -120 -87 -40 -46 -110 -112 -119 -112 -6 0 -8 -3
-4 -6 8 -8 -16 -33 -25 -27 -5 2 -8 0 -8 -5 0 -5 -76 -87 -169 -182 -93 -94
-170 -174 -170 -176 -1 -2 -3 -4 -6 -4 -9 0 -45 -40 -45 -49 0 -5 -9 -13 -20
-16 -11 -4 -18 -11 -15 -16 4 -5 -1 -9 -9 -9 -9 0 -16 -7 -16 -15 0 -8 -7 -15
-17 -15 -9 0 -14 -3 -10 -6 7 -7 -98 -114 -113 -114 -5 0 -9 -4 -7 -9 3 -13
-60 -71 -69 -63 -4 4 -4 2 -1 -4 4 -6 -17 -33 -46 -60 -28 -26 -51 -52 -50
-56 2 -4 -1 -8 -5 -8 -14 0 -80 -68 -74 -76 4 -4 -1 -4 -11 -1 -10 4 -16 3
-13 -1 7 -11 -63 -86 -88 -95 -10 -4 -16 -10 -13 -13 8 -8 -18 -34 -32 -34 -6
0 -11 -5 -11 -10 0 -6 -30 -41 -67 -77 -38 -37 -67 -70 -65 -75 1 -4 -3 -8 -8
-8 -13 0 -90 -79 -90 -92 0 -5 -3 -7 -7 -5 -5 2 -18 -7 -30 -20 -12 -13 -19
-23 -16 -23 4 0 -8 -11 -27 -25 -19 -14 -32 -25 -29 -25 3 0 -17 -24 -45 -53
-28 -29 -54 -52 -58 -50 -5 2 -8 0 -8 -6 0 -11 -57 -70 -68 -71 -4 0 -7 -3 -7
-7 0 -13 -147 -158 -157 -155 -5 1 -7 -2 -4 -7 7 -11 -18 -33 -27 -24 -4 3 -7
0 -7 -8 0 -8 -22 -36 -50 -62 -27 -26 -47 -47 -43 -47 3 0 -10 -13 -30 -29
-20 -15 -33 -32 -29 -36 4 -5 -1 -5 -11 -2 -10 4 -16 3 -13 -2 3 -5 -61 -76
-143 -159 -82 -83 -146 -154 -142 -158 3 -4 -2 -4 -12 -1 -10 4 -16 3 -13 -1
2 -4 -22 -34 -55 -66 -32 -32 -59 -62 -59 -66 0 -5 -8 -11 -17 -14 -10 -4 -31
-24 -47 -46 -16 -21 -33 -37 -37 -34 -4 2 -10 -4 -13 -14 -4 -11 -23 -31 -44
-46 -20 -14 -35 -27 -32 -29 4 -2 -20 -34 -52 -68 -9 -9 -14 -19 -12 -22 2 -2
-7 -21 -21 -41 -14 -21 -20 -34 -13 -30 7 4 4 -2 -6 -14 -11 -12 -16 -22 -11
-22 4 0 3 -6 -3 -12 -6 -7 -11 -16 -11 -20 -1 -5 -1 -9 -2 -10 -7 -22 -11 -78
-13 -194 -1 -77 -5 -145 -9 -151 -4 -5 -3 -13 0 -17 12 -12 10 -340 -2 -348
-6 -5 -6 -8 0 -8 12 0 12 -220 0 -240 -5 -9 -4 -11 4 -6 8 5 10 0 7 -18 -9
-48 57 -241 87 -254 4 -2 7 -10 7 -18 0 -8 5 -14 10 -14 6 0 10 -5 10 -11 0
-6 34 -45 75 -85 42 -41 73 -74 70 -74 -3 0 9 -12 26 -27 16 -16 49 -48 72
-72 205 -213 282 -281 318 -281 11 0 19 -4 19 -8 0 -12 123 -12 138 0 8 7 12
7 12 -1 0 -9 6 -8 23 1 12 7 25 11 30 10 4 -1 7 3 7 8 0 6 6 10 13 10 8 0 24
11 37 25 13 14 30 23 38 20 7 -3 10 0 7 6 -4 5 5 28 19 49 14 22 26 42 26 45
0 4 7 13 15 22 8 8 13 19 10 24 -4 5 -2 9 3 9 5 0 15 13 22 30 7 17 17 30 23
30 6 0 7 3 4 6 -4 4 3 20 14 35 11 16 17 29 12 29 -4 0 0 7 10 14 10 8 17 16
16 18 -6 10 14 47 23 42 7 -5 9 -2 6 7 -3 9 3 26 13 40 10 13 19 30 19 37 0 6
4 12 8 12 4 0 14 16 21 35 7 19 17 33 22 30 5 -3 6 1 3 9 -3 9 -1 16 6 16 6 0
8 5 5 10 -3 5 -1 10 4 10 6 0 11 4 11 10 0 14 122 234 134 242 6 4 7 8 3 8 -5
0 -1 7 7 16 9 8 14 20 11 25 -4 5 -1 9 4 9 6 0 11 7 11 15 0 8 4 15 10 15 5 0
9 6 7 13 -1 6 4 11 11 9 8 -1 11 2 8 7 -8 12 19 63 28 54 4 -4 4 0 0 10 -3 10
-1 17 5 17 6 0 11 7 11 15 0 8 4 15 10 15 5 0 9 3 9 8 -4 23 3 34 17 28 14 -5
15 -4 5 7 -9 11 -8 17 4 27 8 7 15 17 15 23 0 13 80 150 93 158 5 3 9 9 9 12
0 19 12 47 20 47 5 0 7 4 3 9 -3 6 2 14 11 19 9 5 15 11 14 13 -3 8 20 59 44
98 24 38 87 151 110 198 6 13 15 23 19 23 5 0 5 5 2 10 -3 6 1 13 9 16 9 3 13
10 10 15 -3 5 0 9 6 9 6 0 9 4 5 9 -3 5 2 17 11 25 8 9 13 16 9 16 -3 0 6 17
20 37 14 21 25 43 25 50 0 7 5 13 10 13 6 0 10 7 10 15 0 8 5 15 11 15 5 0 8
4 4 9 -3 5 2 17 11 25 8 9 13 16 10 16 -4 0 5 18 19 40 14 22 25 44 25 49 0 5
3 11 8 13 4 2 15 20 25 41 16 35 20 37 35 25 15 -12 16 -11 4 4 -12 15 -8 28
29 95 23 43 46 80 51 81 4 2 6 8 2 13 -3 5 0 9 5 9 6 0 11 6 11 14 0 7 9 25
21 40 11 14 17 26 13 26 -4 0 -1 8 7 18 8 9 28 42 44 72 15 30 33 58 38 61 5
3 8 9 8 13 -3 20 0 26 11 20 6 -4 8 -3 4 4 -3 6 -1 16 6 24 7 7 14 20 16 28 2
8 8 18 14 21 5 3 10 10 10 15 1 17 31 73 38 69 3 -2 7 6 7 18 1 12 9 27 18 33
9 7 16 15 17 18 0 22 12 45 19 40 5 -3 8 -2 7 3 -4 12 23 73 32 73 4 0 11 11
14 25 4 14 11 25 17 25 6 0 8 4 5 9 -3 5 3 20 14 33 11 14 16 28 13 32 -3 3 0
6 7 6 7 0 10 3 7 6 -4 4 2 19 13 34 11 16 20 32 20 37 0 5 10 20 23 33 12 14
21 26 20 27 -9 9 -1 23 10 17 6 -4 9 -4 5 1 -4 4 -2 17 4 29 7 11 11 24 10 29
-1 4 2 7 7 7 5 0 14 13 21 30 7 16 16 27 21 24 5 -3 6 2 3 10 -3 8 4 24 15 35
12 12 18 21 15 21 -4 0 1 11 10 25 9 14 13 25 9 25 -4 0 2 7 13 15 10 8 15 15
10 15 -5 0 -4 6 2 13 9 11 45 75 89 159 8 15 19 30 24 33 5 4 7 11 4 16 -4 5
-1 9 4 9 6 0 11 5 11 10 0 6 11 28 24 49 14 21 22 42 19 45 -4 3 -1 6 5 6 7 0
12 7 12 15 0 8 4 15 8 15 4 0 14 16 21 35 7 19 18 40 24 47 15 16 41 70 39 81
-1 4 2 7 8 7 6 0 10 7 10 16 0 8 4 12 10 9 6 -3 7 1 4 9 -3 9 -1 16 5 16 6 0
11 4 11 9 0 5 15 36 34 69 19 33 32 63 28 66 -3 3 0 6 6 6 6 0 20 19 31 43 11
23 32 62 46 87 14 25 25 53 25 62 0 10 4 18 8 18 13 0 8 110 -7 155 -21 62
-59 117 -104 150 -54 39 -90 58 -81 43 5 -7 3 -8 -7 -2 -8 5 -33 9 -55 10 -23
1 -46 4 -51 7 -5 3 -15 2 -22 -2 -7 -5 -28 -5 -47 -1 -22 5 -35 4 -38 -4 -3
-8 -7 -7 -13 2 -5 7 -12 10 -15 7z m-1354 -2233 c3 -5 -1 -9 -9 -9 -8 0 -12 4
-9 9 3 4 7 8 9 8 2 0 6 -4 9 -8z m-639 -791 c3 -5 2 -12 -3 -15 -5 -3 -9 1 -9
9 0 17 3 19 12 6z m-65 -87 c0 -8 -19 -13 -24 -6 -3 5 1 9 9 9 8 0 15 -2 15
-3z"/>
<path d="M5080 7723 c0 -4 -29 -7 -64 -5 -54 3 -75 -1 -125 -24 -34 -14 -61
-30 -61 -34 0 -4 -10 -10 -21 -13 -14 -4 -20 -11 -16 -21 5 -14 -18 -31 -36
-27 -5 1 -6 -3 -3 -8 8 -12 -14 -62 -34 -79 -8 -8 -10 -11 -5 -8 7 3 11 -22
12 -72 0 -42 2 -84 5 -92 11 -35 43 -100 50 -100 5 0 8 -9 8 -19 0 -10 7 -22
16 -25 8 -3 13 -10 10 -15 -4 -5 -3 -11 1 -13 5 -1 20 -27 35 -56 44 -86 62
-117 73 -124 6 -4 6 -8 1 -8 -5 0 -3 -8 5 -17 16 -20 36 -55 57 -98 9 -16 24
-42 34 -57 11 -16 16 -28 11 -28 -4 0 -3 -4 2 -8 18 -13 36 -53 29 -64 -4 -6
-3 -8 3 -5 6 4 23 -17 38 -46 16 -29 37 -68 48 -87 40 -71 46 -84 40 -93 -3
-6 -1 -7 4 -4 11 7 40 -50 35 -66 -1 -5 2 -6 8 -2 5 3 10 -1 10 -9 0 -9 5 -16
12 -16 6 0 9 -3 5 -6 -3 -3 5 -24 19 -45 13 -21 21 -39 17 -39 -5 0 -3 -4 3
-8 20 -14 55 -82 48 -93 -4 -7 -3 -9 3 -6 9 5 38 -41 33 -52 -1 -2 2 -7 8 -10
5 -3 27 -40 49 -81 22 -41 50 -91 61 -110 28 -45 46 -83 44 -92 -1 -5 2 -8 8
-8 5 0 10 -7 10 -15 0 -8 3 -15 8 -15 4 0 16 -19 27 -43 10 -23 27 -54 38 -69
10 -16 15 -33 11 -39 -4 -7 -3 -9 3 -6 5 3 22 -17 36 -46 31 -58 71 -130 93
-165 8 -12 12 -28 8 -35 -4 -7 -4 -9 1 -5 8 8 11 3 63 -92 16 -30 39 -73 52
-95 12 -22 32 -58 43 -80 12 -22 24 -42 27 -45 12 -11 55 -105 52 -113 -1 -5
2 -6 7 -3 5 3 18 -16 30 -42 22 -47 31 -64 64 -114 10 -15 16 -32 13 -37 -3
-5 1 -11 9 -15 8 -3 15 -12 15 -20 0 -8 4 -16 9 -18 5 -1 11 -10 13 -18 2 -8
6 -17 9 -20 6 -5 13 -17 59 -107 14 -26 29 -51 35 -55 7 -5 7 -8 0 -8 -6 0 -6
-3 1 -8 6 -4 25 -34 43 -67 18 -33 37 -64 42 -70 5 -5 9 -17 9 -27 0 -10 4
-18 8 -18 12 0 36 -52 33 -70 -2 -8 1 -12 5 -7 4 4 20 -17 35 -47 14 -31 29
-52 33 -49 3 4 6 -3 6 -15 0 -11 5 -24 11 -27 6 -4 8 -14 5 -22 -3 -8 -2 -11
4 -8 12 8 33 -32 24 -48 -4 -6 -4 -9 1 -5 10 9 37 -40 29 -53 -3 -5 0 -8 8 -7
7 2 14 -7 16 -19 2 -13 7 -23 11 -23 4 0 19 -21 32 -47 13 -27 41 -77 62 -111
21 -35 36 -70 33 -78 -3 -7 0 -16 6 -20 7 -5 8 -2 3 6 -5 9 -4 11 3 6 7 -4 12
-14 12 -22 0 -8 4 -14 8 -14 4 0 13 -12 19 -27 7 -16 32 -64 57 -108 25 -44
53 -96 62 -115 10 -19 20 -37 23 -40 4 -3 17 -25 31 -50 13 -25 37 -67 52 -95
16 -27 31 -58 34 -67 4 -10 11 -18 17 -18 6 0 7 -3 4 -6 -4 -4 2 -19 13 -34
11 -15 17 -30 13 -34 -3 -3 -1 -6 6 -6 7 0 9 -4 6 -10 -3 -5 -3 -10 2 -10 4 0
19 -21 33 -47 13 -27 36 -59 50 -72 14 -14 24 -27 23 -30 -1 -3 22 -17 50 -31
29 -14 54 -28 57 -31 12 -13 154 -7 177 8 13 8 23 12 23 8 0 -4 7 -2 15 5 8 7
15 9 15 6 0 -4 11 5 24 19 15 16 30 24 37 19 7 -4 9 -3 6 3 -10 16 38 67 53
58 8 -5 11 -4 7 2 -4 6 68 87 159 180 91 92 182 188 202 212 20 24 45 52 55
62 9 11 16 20 16 22 -5 7 14 47 22 47 6 0 8 4 5 9 -3 4 1 16 8 27 8 10 12 24
9 31 -3 7 0 13 7 13 6 0 8 5 5 10 -3 5 -3 16 2 23 12 19 12 33 12 522 0 515 0
515 -29 580 -5 11 -16 36 -24 55 -20 48 -48 93 -64 103 -7 5 -10 12 -7 18 4 5
1 9 -5 9 -13 0 -76 71 -73 82 2 4 -1 7 -6 5 -13 -3 -197 186 -193 198 2 5 1 7
-3 3 -9 -8 -35 16 -35 32 0 6 -4 9 -10 5 -5 -3 -16 7 -24 22 -8 15 -15 25 -16
21 0 -10 -60 53 -60 63 0 4 -9 11 -20 14 -11 3 -20 13 -20 21 0 8 -6 14 -13
14 -7 0 -18 10 -26 21 -11 18 -11 23 1 30 9 6 9 9 1 9 -6 0 -15 -5 -18 -11 -5
-6 -13 -2 -23 13 -9 13 -29 34 -44 46 -16 13 -28 31 -28 40 0 8 -3 12 -7 9 -8
-8 -153 139 -153 155 0 6 -3 9 -6 5 -3 -3 -21 10 -40 30 -29 30 -33 38 -22 52
11 14 11 14 -3 3 -14 -11 -22 -7 -53 23 -20 19 -36 37 -36 41 0 11 -28 33 -34
27 -3 -4 -6 1 -6 10 0 10 -4 17 -10 17 -13 0 -76 70 -72 81 1 5 -2 8 -7 7 -12
-4 -231 219 -223 226 3 3 -1 6 -8 6 -18 0 -51 40 -43 53 3 5 1 7 -4 4 -12 -8
-103 77 -103 95 0 6 -3 9 -6 5 -3 -3 -25 16 -49 43 -24 27 -46 46 -49 43 -3
-4 -6 -1 -6 5 0 7 -25 36 -55 66 -30 29 -51 56 -47 60 4 4 0 6 -8 4 -8 -1 -14
3 -12 10 1 6 -4 11 -10 10 -7 -2 -12 3 -10 10 1 6 -4 11 -10 10 -7 -2 -12 3
-10 10 1 6 -3 12 -8 12 -12 0 -90 79 -90 91 0 5 -4 9 -9 9 -13 0 -100 88 -93
95 3 3 0 5 -6 5 -6 0 -22 11 -36 25 -14 14 -23 25 -20 25 2 0 -11 14 -31 31
-19 17 -32 35 -29 40 3 5 1 8 -4 7 -12 -3 -312 298 -312 313 0 5 -4 8 -9 7 -5
-2 -21 12 -35 31 -14 19 -26 31 -26 27 0 -4 -7 -1 -15 8 -8 8 -15 19 -15 24 0
5 -11 15 -25 22 -14 7 -25 16 -25 20 0 7 -248 260 -256 260 -3 0 -14 9 -26 20
-12 11 -30 20 -40 20 -10 0 -18 3 -18 8 0 4 -27 8 -60 9 -33 1 -64 5 -70 8 -5
3 -10 3 -10 -2z"/>
<path d="M4433 6845 c0 -8 4 -12 9 -9 5 3 6 10 3 15 -9 13 -12 11 -12 -6z"/>
<path d="M1995 6090 c3 -5 8 -10 11 -10 2 0 4 5 4 10 0 6 -5 10 -11 10 -5 0
-7 -4 -4 -10z"/>
<path d="M1667 5889 c7 -7 15 -10 18 -7 3 3 -2 9 -12 12 -14 6 -15 5 -6 -5z"/>
<path d="M3710 5770 c0 -5 5 -10 11 -10 5 0 7 5 4 10 -3 6 -8 10 -11 10 -2 0
-4 -4 -4 -10z"/>
<path d="M5320 5770 c-9 -6 -10 -10 -3 -10 6 0 15 5 18 10 8 12 4 12 -15 0z"/>
<path d="M7585 5530 c-3 -6 1 -7 9 -4 18 7 21 14 7 14 -6 0 -13 -4 -16 -10z"/>
<path d="M7710 5491 c0 -6 4 -13 10 -16 6 -3 7 1 4 9 -7 18 -14 21 -14 7z"/>
<path d="M5906 5048 c3 -5 10 -6 15 -3 13 9 11 12 -6 12 -8 0 -12 -4 -9 -9z"/>
<path d="M6390 4206 c0 -2 8 -10 18 -17 15 -13 16 -12 3 4 -13 16 -21 21 -21
13z"/>
<path d="M795 4190 c-3 -5 -1 -10 4 -10 6 0 11 5 11 10 0 6 -2 10 -4 10 -3 0
-8 -4 -11 -10z"/>
<path d="M2556 4063 c-6 -14 -5 -15 5 -6 7 7 10 15 7 18 -3 3 -9 -2 -12 -12z"/>
<path d="M6350 3976 c0 -2 7 -7 16 -10 8 -3 12 -2 9 4 -6 10 -25 14 -25 6z"/>
<path d="M2079 3203 c-13 -16 -12 -17 4 -4 9 7 17 15 17 17 0 8 -8 3 -21 -13z"/>
<path d="M905 3170 c-3 -6 1 -7 9 -4 18 7 21 14 7 14 -6 0 -13 -4 -16 -10z"/>
<path d="M7955 3021 c-3 -5 -2 -12 3 -15 5 -3 9 1 9 9 0 17 -3 19 -12 6z"/>
<path d="M3940 2856 c0 -2 8 -10 18 -17 15 -13 16 -12 3 4 -13 16 -21 21 -21
13z"/>
<path d="M4039 2843 c-13 -16 -12 -17 4 -4 9 7 17 15 17 17 0 8 -8 3 -21 -13z"/>
<path d="M4580 2856 c0 -2 8 -10 18 -17 15 -13 16 -12 3 4 -13 16 -21 21 -21
13z"/>
<path d="M4679 2843 c-13 -16 -12 -17 4 -4 16 13 21 21 13 21 -2 0 -10 -8 -17
-17z"/>
<path d="M5220 2856 c0 -2 8 -10 18 -17 15 -13 16 -12 3 4 -13 16 -21 21 -21
13z"/>
<path d="M5319 2843 c-13 -16 -12 -17 4 -4 16 13 21 21 13 21 -2 0 -10 -8 -17
-17z"/>
<path d="M2430 2632 c0 -10 -12 -12 -45 -9 -25 2 -45 1 -45 -3 0 -4 -10 -6
-22 -5 -13 1 -33 -5 -45 -13 -13 -8 -23 -11 -23 -7 0 5 -8 1 -18 -8 -10 -10
-22 -14 -27 -10 -4 5 -5 2 -1 -5 5 -8 -1 -16 -16 -21 -13 -6 -20 -10 -16 -10
4 -1 0 -10 -9 -20 -9 -11 -19 -18 -23 -16 -3 2 -7 -6 -7 -17 -1 -12 -7 -24
-13 -28 -7 -4 -11 -11 -11 -16 0 -5 -4 -26 -10 -48 -18 -65 -3 -168 30 -215
12 -16 21 -33 22 -38 0 -4 18 -23 41 -40 22 -18 38 -33 35 -33 -3 0 11 -17 32
-38 20 -21 39 -36 44 -34 4 2 7 -1 7 -6 0 -5 38 -48 85 -96 49 -50 83 -92 79
-98 -4 -7 -3 -8 4 -4 11 7 112 -88 112 -105 0 -5 6 -9 14 -9 8 0 18 -9 21 -20
3 -11 13 -20 21 -20 8 0 13 -4 10 -8 -3 -5 6 -15 19 -22 14 -7 25 -17 25 -20
0 -9 120 -130 129 -130 4 0 13 -9 21 -20 8 -11 20 -20 27 -20 7 0 13 -5 13
-11 0 -5 4 -8 9 -4 5 3 15 -1 23 -8 18 -18 80 -46 117 -53 19 -4 28 -11 24
-18 -4 -6 1 -5 10 3 10 7 17 9 17 3 0 -6 8 -9 18 -8 9 2 20 -2 24 -8 5 -6 8
-7 8 -1 0 6 26 9 62 7 77 -3 72 -3 133 1 28 1 58 -1 69 -6 11 -6 16 -5 12 1
-3 6 13 8 42 5 58 -5 59 -5 100 0 17 2 37 0 43 -4 7 -4 25 -3 40 1 19 6 29 5
29 -2 0 -6 5 -7 13 -2 15 12 67 11 86 0 8 -5 12 -5 8 0 -7 11 214 11 233 -1 7
-5 11 -4 7 1 -7 11 214 11 233 -1 8 -5 11 -4 7 2 -5 7 6 10 31 7 41 -5 101 -7
117 -4 31 7 72 4 84 -5 10 -6 13 -6 9 0 -7 12 212 12 232 0 8 -5 11 -4 7 2 -7
11 48 11 59 0 3 -3 13 -3 21 0 26 10 138 9 152 -2 10 -7 13 -7 9 1 -8 12 133
11 153 -2 7 -4 10 -3 6 2 -6 11 295 10 313 -1 7 -5 11 -4 8 1 -4 5 7 9 23 9
16 0 29 -4 29 -9 0 -5 6 -4 13 1 6 5 23 8 37 6 14 -2 31 -3 38 -3 27 0 83 0
95 -1 6 0 36 1 65 4 29 2 55 0 58 -5 3 -5 10 -6 15 -2 6 3 34 7 62 9 63 3 144
23 174 43 12 7 28 10 34 6 8 -5 9 -3 4 6 -5 8 -3 11 5 8 7 -2 25 6 38 19 14
13 31 22 38 19 8 -3 11 1 7 10 -3 7 0 14 6 14 7 0 55 44 108 98 53 53 100 96
105 94 5 -1 7 1 4 6 -2 4 31 43 74 86 43 42 79 79 79 82 2 11 37 40 44 37 4
-2 7 0 7 5 0 15 127 142 141 142 7 0 10 3 7 6 -8 7 97 114 111 114 6 0 10 3 9
8 -2 6 29 59 42 72 3 3 6 10 7 17 2 7 7 29 11 50 15 64 0 156 -34 210 -8 13
-13 24 -12 25 7 7 -71 72 -107 90 -46 24 -155 40 -155 24 0 -6 -5 -4 -10 4 -9
13 -11 13 -20 0 -8 -13 -10 -12 -10 4 0 20 0 20 -15 0 -8 -10 -15 -14 -15 -9
0 6 -37 9 -92 8 -58 0 -99 3 -107 10 -10 8 -13 9 -8 1 8 -14 -91 -14 -112 0
-10 6 -12 6 -7 -2 5 -8 -1 -12 -14 -12 -13 0 -19 4 -14 12 5 7 3 8 -7 2 -20
-12 -360 -13 -352 -1 4 6 1 7 -8 1 -20 -13 -2059 -12 -2059 1 0 6 -3 6 -8 -1
-9 -13 -105 -13 -114 0 -5 8 -8 8 -8 0 0 -14 -110 -14 -110 1 0 7 -3 7 -8 -1
-9 -13 -105 -13 -114 0 -5 8 -8 8 -8 0 0 -14 -110 -14 -110 1 0 7 -3 7 -8 -1
-9 -13 -105 -13 -114 0 -5 8 -8 8 -8 0 0 -14 -110 -14 -110 1 0 7 -3 7 -8 0
-9 -14 -112 -15 -112 -1 0 8 -2 8 -8 0 -9 -13 -105 -13 -114 0 -5 8 -8 7 -8
-1 0 -12 -77 -13 -97 0 -6 4 -14 3 -18 -3 -8 -13 -55 -9 -55 5 0 5 -5 3 -10
-5 -8 -12 -13 -13 -29 -3 -11 7 -23 9 -26 3 -7 -12 -138 -9 -147 4 -5 7 -8 6
-8 -2z m1033 -297 c-3 -9 -8 -14 -10 -11 -3 3 -2 9 2 15 9 16 15 13 8 -4z
m2682 -5 c3 -5 1 -10 -4 -10 -6 0 -11 5 -11 10 0 6 2 10 4 10 3 0 8 -4 11 -10z"/>
<path d="M6916 2528 c3 -5 10 -6 15 -3 13 9 11 12 -6 12 -8 0 -12 -4 -9 -9z"/>
<path d="M3233 1175 c0 -8 4 -12 9 -9 5 3 6 10 3 15 -9 13 -12 11 -12 -6z"/>
</g>
</svg>
