<svg width="74" height="73" fill="none" xmlns="http://www.w3.org/2000/svg"><path d="M28.064 48.67v23.313h12.5v-4.937l8-10.875-.687-2.313h-1.813l-4.562 4.75V46.671l-1.375-1.875-1.938.812v-3.125l-1.624-1.187-2 .812v3.5l-1.438-.812-1.375.812-.375 2.75-1.5-.625-1.813.938zm18.188-25.106V.252h-12.5v4.937l-8 10.875.688 2.313h1.812l4.563-4.75v11.937l1.375 1.875 1.937-.812v3.125l1.625 1.187 2-.812v-3.5l1.438.812 1.375-.812.375-2.75 1.5.625 1.812-.938z" fill="#E9C5BB"/><path d="M48.99 44.604h23.313v-12.5h-4.938l-10.875-8-2.312.688v1.812l4.75 4.563H46.99l-1.875 1.374.813 1.938h-3.125l-1.188 1.625.813 2h3.5l-.813 1.438.813 1.374 2.75.376-.625 1.5.937 1.812zM23.313 26.858H0v12.5h4.938l10.875 8 2.312-.687v-1.813l-4.75-4.562h11.938l1.875-1.375-.813-1.938H29.5l1.188-1.625-.813-2h-3.5l.813-1.437-.813-1.375-2.75-.375.625-1.5-.938-1.813z" fill="#C09E96"/><path d="M29.649 37.794h-12.33a.853.853 0 01-.613-.261.908.908 0 01-.254-.632c0-.237.091-.465.254-.632.162-.168.383-.2.613-.2h12.33c.208 0 .407-.147.554-.299a.82.82 0 00.23-.57.82.82 0 00-.23-.572.771.771 0 00-.554-.236l-12.33-.073c-.23 0-.45-.022-.613-.19a.908.908 0 01-.254-.631c0-.237.091-.464.254-.632a.853.853 0 01.613-.262h12.33a2.46 2.46 0 011.054.105c.34.111.655.295.921.54.267.245.48.546.626.882a2.681 2.681 0 010 2.137c-.146.336-.36.636-.626.881a2.494 2.494 0 01-1.975.645z" fill="#000"/><path d="M26.183 34.337H15.186a.867.867 0 010-1.733h10.997a.783.783 0 100-1.567h-12.33a.867.867 0 010-1.734h12.33a2.532 2.532 0 011.975 4.409 2.531 2.531 0 01-1.975.625z" fill="#000"/><path d="M23.184 30.935h-8.465c-.23 0-.45.01-.612-.152a.867.867 0 01.612-1.48h8.465a.783.783 0 000-1.567H6.154a.866.866 0 010-1.733h17.03a2.533 2.533 0 011.054 4.932c-.34.108-.7.041-1.054 0z" fill="#000"/><path d="M17.285 48.172c-.6.018-1.188-.17-1.666-.533l-9.264-7a1.833 1.833 0 00-1.1-.368h-4.2a.866.866 0 01-.866-.866V26.87a.867.867 0 01.867-.867h5.099a.866.866 0 010 1.734H1.922v10.768h3.333a3.565 3.565 0 012.133.7l9.364 7.2a.9.9 0 001.067 0 .9.9 0 000-1.333l-4.4-4.2a.867.867 0 01.6-1.5h12.064a.783.783 0 000-1.568H15.02a.867.867 0 010-1.733h11.164a2.532 2.532 0 012.533 2.534 2.534 2.534 0 01-2.533 2.533h-9.997l2.766 2.5a2.634 2.634 0 01-1.667 4.534zM37.83 31.97a2.46 2.46 0 01-1.757-.742 2.56 2.56 0 01-.727-1.791V17.102c0-.23.09-.45.248-.613a.842.842 0 011.202 0c.16.163.249.383.249.613v12.335c0 .207.08.407.225.554a.76.76 0 001.086 0 .792.792 0 00.225-.554V17.102c0-.23.09-.45.248-.613a.841.841 0 011.202 0c.16.163.249.383.249.613v12.335a2.56 2.56 0 01-.716 1.78 2.46 2.46 0 01-1.735.753z" fill="#000"/><path d="M41.08 28.503a2.532 2.532 0 01-1.791-.742c-.475-.475-.709-1.12-.709-1.791V14.968c0-.23.058-.45.22-.613a.866.866 0 011.48.613V25.97a.783.783 0 101.566 0V13.635a.867.867 0 011.733 0V25.97a2.534 2.534 0 01-2.5 2.533z" fill="#000"/><path d="M44.38 25.503a2.532 2.532 0 01-2.5-2.434v-8.534a.867.867 0 011.479-.613c.163.163.222.383.222.613v8.534c0 .208.114.407.261.554a.783.783 0 001.337-.554V5.967a.867.867 0 111.733 0V23.07a2.534 2.534 0 01-2.533 2.434z" fill="#000"/><path d="M34.482 28.503a2.532 2.532 0 01-2.533-2.533V15.969l-2.7 2.833a2.634 2.634 0 01-3.965-.2 2.634 2.634 0 010-3.334l6.998-9.1c.238-.318.367-.704.367-1.1V.866A.866.866 0 0133.515 0h12.53a.867.867 0 01.867.867v5.1a.867.867 0 11-1.733 0V1.734H34.382v3.333a3.567 3.567 0 01-.7 2.134l-7.032 9.2a.9.9 0 000 1.068.866.866 0 00.667.333.9.9 0 00.666-.267l4.3-4.233a.866.866 0 011.499.6V25.97a.784.784 0 101.566 0V14.802a.867.867 0 011.48-.613c.162.162.221.383.221.613V25.97c0 .338-.035.673-.167.985a2.532 2.532 0 01-2.4 1.548zm3.632 27.904a.867.867 0 01-.613-.254c-.163-.163-.218-.383-.218-.613V43.072c0-.217-.122-.425-.275-.578a.816.816 0 00-1.394.578v12.334a.866.866 0 01-1.479.613c-.08-.08-.04-.176-.083-.28a.866.866 0 01-.066-.333V43.072c0-.672.162-1.317.637-1.792a2.533 2.533 0 014.324 1.792v12.334a.868.868 0 01-.833 1z" fill="#000"/><path d="M31.515 59.74a.866.866 0 01-.867-.867V46.54a2.534 2.534 0 014.324-1.792c.475.475.639 1.12.639 1.792v11c0 .23.012.45-.15.613a.866.866 0 01-1.48-.613V46.539a.783.783 0 10-1.566 0v12.334a.867.867 0 01-.9.867z" fill="#000"/><path d="M28.286 67.541a.976.976 0 01-.662-.254.835.835 0 01-.274-.613V49.74c-.006-.38-.006-.748-.006-1.13.09-.373.27-.722.526-1.022.256-.299.582-.54.954-.707a2.919 2.919 0 011.19-.252c.413 0 .82.086 1.192.252.37.167.697.408.953.707.256.3-.084.648.006 1.021.09.373.088.76-.006 1.131v8.468c0 .23-.099.45-.274.613-.176.162.107.254-.142.254a.976.976 0 01-.662-.254.835.835 0 01-.274-.613V49.74a.771.771 0 00-.253-.566.9.9 0 00-.611-.234.9.9 0 00-.612.234.77.77 0 00-.253.566v17.035a.84.84 0 01-.254.51.964.964 0 01-.538.257z" fill="#000"/><path d="M40.746 72.642h-12.53a.867.867 0 01-.866-.867v-5.1a.867.867 0 011.732 0v4.233h10.765v-3.334a3.568 3.568 0 01.7-2.133l7.064-9.368a.901.901 0 000-1.067.867.867 0 00-.666-.333.832.832 0 00-.667.267l-4.199 4.4a.866.866 0 01-1.5-.6v-12.1a.784.784 0 10-1.566 0v11.168a.868.868 0 01-1.198.8.868.868 0 01-.534-.8V46.639a2.534 2.534 0 014.323-1.792 2.536 2.536 0 01.742 1.792v10l2.7-2.833a2.6 2.6 0 012.032-.8 2.633 2.633 0 011.866 4.1l-6.965 9.302a1.834 1.834 0 00-.366 1.1v4.2a.867.867 0 01-.867.934zm15.33-33.752h-12.33a2.575 2.575 0 01-1.791-.719 2.414 2.414 0 01-.742-1.734c0-.651.267-1.275.742-1.735a2.575 2.575 0 011.79-.719h12.331c.23 0 .45.089.613.246a.826.826 0 010 1.187.881.881 0 01-.613.246h-12.33a.797.797 0 00-.554.222.747.747 0 00-.23.536c0 .202.083.395.23.537a.797.797 0 00.554.222h12.33c.234 0 .459.09.624.25.166.16.26.378.26.605a.842.842 0 01-.26.605.898.898 0 01-.624.25z" fill="#000"/><path d="M59.542 42.238h-12.33a2.532 2.532 0 010-5.067h10.997a.866.866 0 110 1.733H47.21a.782.782 0 100 1.567h12.33a.883.883 0 110 1.767z" fill="#000"/><path d="M67.206 45.572H50.21a2.533 2.533 0 010-5.067h8.465a.866.866 0 110 1.733H50.21a.783.783 0 000 1.567h17.03a.883.883 0 11-.034 1.767z" fill="#000"/><path d="M72.272 45.572h-5.065a.866.866 0 01-.613-1.48c.162-.162.383-.288.613-.288h4.232V33.07h-3.333a3.566 3.566 0 01-2.132-.7l-9.365-7.035a.899.899 0 00-1.066 0 .867.867 0 000 1.334l4.399 4.2a.866.866 0 01-.6 1.5h-12.13a.783.783 0 100 1.567h11.163a.867.867 0 010 1.734H47.211a2.533 2.533 0 010-5.067h9.998l-2.833-2.7a2.634 2.634 0 013.333-4.001l9.364 7.034c.318.238.703.367 1.1.367h4.099a.866.866 0 01.866.866v12.535a.866.866 0 01-.866.867zM50.81 1.734H28.05a.866.866 0 010-1.734h22.793a.866.866 0 11-.033 1.734z" fill="#000"/><path d="M72.272 50.34a.866.866 0 01-.867-.868V26.67a.867.867 0 111.733 0v22.802a.867.867 0 01-.866.867zm-26.06 22.302H23.45a.866.866 0 110-1.734h22.795a.866.866 0 11-.033 1.734zM1.056 45.739a.867.867 0 01-.867-.867V22.069a.867.867 0 111.733 0v22.803a.867.867 0 01-.866.867z" fill="#000"/></svg>