<?xml version="1.0" encoding="utf-8"?>
<!-- Generator: Adobe Illustrator 22.0.1, SVG Export Plug-In . SVG Version: 6.00 Build 0)  -->
<svg version="1.1" id="Layer_1_copy" xmlns="http://www.w3.org/2000/svg" xmlns:xlink="http://www.w3.org/1999/xlink" x="0px"
	 y="0px" viewBox="0 0 128 128" style="enable-background:new 0 0 128 128;" xml:space="preserve">
<g>
	<linearGradient id="SVGID_1_" gradientUnits="userSpaceOnUse" x1="3.5147" y1="124.4853" x2="124.4853" y2="3.5147">
		<stop  offset="0" style="stop-color:#F50000"/>
		<stop  offset="1" style="stop-color:#FAC212"/>
	</linearGradient>
	<path style="fill:url(#SVGID_1_);" d="M116,128H12c-6.63,0-12-5.37-12-12V12C0,5.37,5.37,0,12,0h104c6.63,0,12,5.37,12,12v104
		C128,122.63,122.63,128,116,128z"/>
</g>
<g style="opacity:0.2;">
	<g>
		<path d="M83.28,60.38L83.28,60.38L48.75,40.44l0,0c3.59-6.22,11.54-8.35,17.76-4.76l12.01,6.94
			C84.74,46.21,86.87,54.16,83.28,60.38z"/>
	</g>
	<g>
		<path d="M83.28,84.63L83.28,84.63l-33.78-19.5c-6.22-3.59-8.35-11.54-4.76-17.76l0,0l33.77,19.5
			C84.74,70.46,86.87,78.41,83.28,84.63z"/>
	</g>
	<g>
		<path d="M79.29,91.56L79.29,91.56c-3.59,6.22-11.54,8.35-17.76,4.76l-12.05-6.96c-6.22-3.59-8.35-11.54-4.76-17.76l0,0
			L79.29,91.56z"/>
	</g>
</g>
<g>
	<g>
		<path style="fill:#FFFFFF;" d="M83.28,58.38L83.28,58.38L48.75,38.44l0,0c3.59-6.22,11.54-8.35,17.76-4.76l12.01,6.94
			C84.74,44.21,86.87,52.16,83.28,58.38z"/>
	</g>
	<g>
		<path style="fill:#FFFFFF;" d="M83.28,82.63L83.28,82.63l-33.78-19.5c-6.22-3.59-8.35-11.54-4.76-17.76l0,0l33.77,19.5
			C84.74,68.46,86.87,76.41,83.28,82.63z"/>
	</g>
	<g>
		<path style="fill:#FFFFFF;" d="M79.29,89.56L79.29,89.56c-3.59,6.22-11.54,8.35-17.76,4.76l-12.05-6.96
			c-6.22-3.59-8.35-11.54-4.76-17.76l0,0L79.29,89.56z"/>
	</g>
</g>
</svg>
