<svg xmlns="http://www.w3.org/2000/svg" width="65" height="65"><g transform="translate(.5 .5)"><path d="M31.5 4.298C17.411 4.298 6 18.411 6 32.5 6 46.589 17.411 58 31.5 58s27.428-11.411 27.428-25.5S45.588 4.298 31.5 4.298z" opacity=".3"/><circle cx="21" cy="24" r="5"/><path d="M31.968 0C14.304 0 0 14.336 0 32s14.304 32 31.968 32C49.664 64 64 49.664 64 32S49.664 0 31.968 0zM32 57.6C17.856 57.6 6.4 46.144 6.4 32 6.4 17.856 17.856 6.4 32 6.4c14.144 0 25.6 11.456 25.6 25.6 0 14.144-11.456 25.6-25.6 25.6z"/><circle cx="43" cy="24" r="5"/><path d="M31.5 50c7.523 0 13.917-4.589 16.5-11H15c2.583 6.411 8.977 11 16.5 11z"/></g></svg>