<svg xmlns="http://www.w3.org/2000/svg" width="62" height="65"><path d="M30.976 24.881h6.095v-9.143h9.143V9.643h-9.143V.5h-6.095v9.143h-9.143v6.095h9.143v9.143zM18.786 52.31c-3.353 0-6.065 2.742-6.065 6.095 0 3.352 2.712 6.095 6.065 6.095 3.352 0 6.095-2.743 6.095-6.095 0-3.353-2.743-6.095-6.095-6.095zm30.476 0c-3.352 0-6.065 2.742-6.065 6.095 0 3.352 2.713 6.095 6.065 6.095 3.352 0 6.095-2.743 6.095-6.095 0-3.353-2.743-6.095-6.095-6.095zM22.138 37.07h22.705a6.066 6.066 0 005.333-3.139L61.94 12.57l-5.333-2.926-11.764 21.333H23.449L10.466 3.548H.5v6.095h6.095l10.972 23.131-4.115 7.436c-2.224 4.084.701 9.052 5.334 9.052h36.571v-6.095H18.786l3.352-6.096z"/></svg>