<svg xmlns="http://www.w3.org/2000/svg" xmlns:xlink="http://www.w3.org/1999/xlink" viewBox="0 0 157.1 157.2"><style>.st0{fill:#66bb6a}</style><g id="Layer_1"><circle class="st0" cx="-199.4" cy="136.1" r="16.6"/><path d="M-348.4 52.6v-4.9h1.9c1.5 0 2.6 1 2.6 2.5s-1.1 2.5-2.6 2.5h-1.9zm3.5-2.5c0-.9-.5-1.5-1.5-1.5h-.9v3.1h.9c.9 0 1.5-.7 1.5-1.6zm2.3 2.5v-4.9h3.5v.9h-2.4v1h2.4v.9h-2.4v1.1h2.4v.9h-3.5zm9.1 0v-3.4l-1.4 3.4h-.5l-1.4-3.4v3.4h-1v-4.9h1.5l1.2 3 1.2-3h1.5v4.9h-1.1zm2.4-2.5c0-1.5 1.1-2.5 2.6-2.5s2.6 1.1 2.6 2.5c0 1.5-1.1 2.5-2.6 2.5-1.6.1-2.6-1-2.6-2.5zm4 0c0-.9-.6-1.6-1.5-1.6s-1.5.7-1.5 1.6c0 .9.6 1.6 1.5 1.6s1.5-.7 1.5-1.6zm2.1 0c0-1.5 1.1-2.5 2.6-2.5 1.1 0 1.7.6 2.1 1.2l-.9.4c-.2-.4-.6-.7-1.2-.7-.9 0-1.5.7-1.5 1.6 0 .9.6 1.6 1.5 1.6.5 0 .9-.3 1.2-.7l.9.4c-.4.6-1 1.2-2.1 1.2-1.4.1-2.6-1-2.6-2.5zm8.7 2.5l-1-1.7h-.8v1.7h-1v-4.9h2.3c1 0 1.6.7 1.6 1.6 0 .9-.5 1.3-1.1 1.5l1.1 1.9h-1.1zm.1-3.4c0-.4-.3-.7-.7-.7h-1.1v1.3h1.1c.3.1.7-.1.7-.6zm5.8 3.4l-.3-.8h-2.1l-.3.8h-1.2l1.9-4.9h1.3l1.9 4.9h-1.2zm-1.4-3.9l-.8 2.1h1.5l-.7-2.1zm4.2 3.9v-4h-1.4v-.9h3.9v.9h-1.4v4h-1.1zm3.7 0v-4.9h1v4.9h-1zm2.4 0v-.8l2.3-3.1h-2.3v-.9h3.7v.8l-2.3 3.2h2.4v.9h-3.8zm5.1 0v-4.9h1v4.9h-1zm5.9 0l-2.3-3.2v3.2h-1v-4.9h1.1l2.3 3.1v-3.1h1v4.9h-1.1zm2.3-2.5c0-1.6 1.2-2.5 2.6-2.5 1 0 1.7.5 2 1.1l-.9.5c-.2-.3-.6-.6-1.2-.6-.9 0-1.5.7-1.5 1.6 0 .9.6 1.6 1.5 1.6.4 0 .8-.2 1-.4v-.6h-1.3v-.9h2.3v1.9c-.5.6-1.2.9-2.1.9-1.2 0-2.4-1-2.4-2.6zm8.3 0c0-1.6 1.2-2.5 2.6-2.5 1 0 1.7.5 2 1.1l-.9.5c-.2-.3-.6-.6-1.2-.6-.9 0-1.5.7-1.5 1.6 0 .9.6 1.6 1.5 1.6.4 0 .8-.2 1-.4v-.6h-1.3v-.9h2.3v1.9c-.5.6-1.2.9-2.1.9-1.2 0-2.4-1-2.4-2.6zm6.1 2.5v-4.9h3.5v.9h-2.4v1h2.4v.9h-2.4v1.1h2.4v.9h-3.5zm8.2 0l-2.3-3.2v3.2h-1v-4.9h1.1l2.3 3.1v-3.1h1v4.9h-1.1zm2.6 0v-4.9h3.5v.9h-2.4v1h2.4v.9h-2.4v1.1h2.4v.9h-3.5zm7.6 0l-1-1.7h-.8v1.7h-1v-4.9h2.3c1 0 1.6.7 1.6 1.6 0 .9-.5 1.3-1.1 1.5l1.1 1.9h-1.1zm.1-3.4c0-.4-.3-.7-.7-.7h-1.1v1.3h1.1c.4.1.7-.1.7-.6zm2.2.9c0-1.5 1.1-2.5 2.6-2.5s2.6 1.1 2.6 2.5c0 1.5-1.1 2.5-2.6 2.5-1.6.1-2.6-1-2.6-2.5zm4 0c0-.9-.6-1.6-1.5-1.6s-1.5.7-1.5 1.6c0 .9.6 1.6 1.5 1.6s1.5-.7 1.5-1.6zm2 1.8l.6-.8c.3.4.9.7 1.6.7.6 0 .9-.3.9-.5 0-.9-2.8-.3-2.8-2.1 0-.8.7-1.5 1.9-1.5.8 0 1.4.2 1.9.7l-.6.8c-.4-.4-.9-.5-1.4-.5-.4 0-.7.2-.7.5 0 .8 2.8.3 2.8 2.1 0 .9-.6 1.6-2 1.6-1-.2-1.7-.6-2.2-1zm5.3.7v-4.9h1v4.9h-1zm3.7 0v-4h-1.4v-.9h3.9v.9h-1.4v4h-1.1zm5.1 0v-2l-1.9-2.9h1.2l1.2 2 1.2-2h1.2l-1.9 2.9v2h-1z" fill="#546e7a"/><path class="st0" d="M-230.3 17.4h-.5l.1.5c.8 3.9.1 9.7-2.9 13.3-1.7 2.1-3.9 3.2-6.6 3.2-4.3 0-5.9-5.1-6.1-10.9 7-1.7 11.7-6.1 11.7-11.2 0-3.7-1.1-9.8-8.4-9.8-6.9 0-10.4 10.3-11.1 17.5-3.5-.1-6.1-1.7-7.7-3.2.6-2.5.9-4.8.9-6.9 0-2.9-2-4.2-3.9-4.2-2.7 0-5.5 2.6-5.5 7.6 0 3 1.1 5.5 3.4 7.3-2 4.7-5.4 8.7-6.5 10-.9-1.9-3.8-8.8-4.7-16.3 1.1-3 1.7-5.5 1.7-6.7 0-1.9-1.2-3-3.2-3-2.7 0-7 1.7-7.1 1.8l-.2.1v.3c0 .1 1.3 6.1 2.6 12.7-2.5 4.1-6.9 10.9-9.1 10.9-4 0 2.6-20.5-.3-21.2-.1 0-.2 0-.3.1-1.4.9-17.1 9.6-38 9.6 0 0 0 .4.2.8.1.3.4.6.4.6 5.9.7 14.3-.1 20.7-1-3.7 7.9-10.2 13.1-16.2 13.1-11.3 0-20-13.7-20-13.7 3.5-3.1 9.2-13.1 17.6-13.1 8.3 0 11.9 4.6 11.9 4.6l.9-1.5s-3.9-13.6-14.9-13.6-22.7 18-29.5 22.2c0 0 9.4 22.2 29.9 22.2 17.2 0 21.6-16.5 22.4-20.5 4.2-.6 7.1-1.2 7.1-1.2s-1.1 8.4-1.1 11.9 3.9 7.2 7.1 7.2c2.7 0 8.2-5.6 12.2-12.4l.2.8c2.1 7.7 4.7 11.7 7.8 11.7 3.1 0 8.2-6.4 11.5-14.5 3.3 1.4 7.2 1.8 9.5 1.9.9 13.9 12.5 14.3 13.9 14.3 8.6 0 15.9-6.2 15.9-13.5.2-7.7-5.7-7.8-5.8-7.8zm-10.5-5.8s-.1 4.6-5.3 6.9c.5-6.1 2-11.6 3-11.6 1.1.1 2.3 1.8 2.3 4.7z"/><path class="st0" d="M-300.7 6.1c0 .2.1.3.3.4 4.1.6 6.8-.7 6.8-7.3 0-6.2-6.4-1.3-7.6-.4-.1.1-.1.2-.1.4 1.1 2.4.7 5.9.6 6.9z"/><linearGradient id="SVGID_1_" gradientUnits="userSpaceOnUse" x1="-289.584" y1="26.768" x2="-282.882" y2="24.534"><stop offset="0" stop-color="#66bb6a"/><stop offset="1" stop-color="#378f43"/></linearGradient><path d="M-284.2 19.4c-1.6 2.7-4 6.4-6.1 8.7.5 1.2 1.1 2.7 1.7 3.9 1.9-2.1 3.8-4.8 5.5-7.6l-1.1-5z" fill="url(#SVGID_1_)"/><linearGradient id="SVGID_2_" gradientUnits="userSpaceOnUse" x1="-269.019" y1="28.478" x2="-265.132" y2="21.642"><stop offset="0" stop-color="#66bb6a"/><stop offset="1" stop-color="#378f43"/></linearGradient><path d="M-265.2 21.5c-.8-.4-1.5-1-1.5-1-1.4 3.1-3.3 6-4.8 7.9.7 1 1.9 2.3 2.8 3.3 1.8-2.5 3.7-5.8 5.1-9.3.1-.1-.8-.4-1.6-.9z" fill="url(#SVGID_2_)"/><linearGradient id="SVGID_3_" gradientUnits="userSpaceOnUse" x1="-248.625" y1="31.615" x2="-249.43" y2="24.466"><stop offset="0" stop-color="#66bb6a"/><stop offset="1" stop-color="#378f43"/></linearGradient><path d="M-246.2 23.5s-2 .4-4 .6c-2 .2-3.9.1-3.9.1.3 4 1.4 6.8 2.9 8.9l7.3-.6c-1.5-2-2.2-5.4-2.3-9z" fill="url(#SVGID_3_)"/><linearGradient id="SVGID_4_" gradientUnits="userSpaceOnUse" x1="-249.727" y1="16.419" x2="-249.727" y2="23.624"><stop offset="0" stop-color="#66bb6a"/><stop offset="1" stop-color="#378f43"/></linearGradient><path d="M-252 11.3c-.2.6-.5 1.3-.7 2 0 .2-.1.3-.1.5-.4 1.3-.7 2.6-.9 3.9 0 .2-.1.3-.1.5-.1.6-.2 1.2-.2 1.8 4.7 0 7.9-1.4 7.9-1.4 0-.5.1-.9.1-1.4v-.3c0-.4.1-.7.1-1.1v-.3c.1-.9.3-1.8.4-2.6l-6.5-1.6zm-2.1 8.6z" fill="url(#SVGID_4_)"/><linearGradient id="SVGID_5_" gradientUnits="userSpaceOnUse" x1="-313.027" y1="28.228" x2="-313.027" y2="19.292"><stop offset="0" stop-color="#66bb6a"/><stop offset="1" stop-color="#378f43"/></linearGradient><path d="M-317.7 28.6l4.4 1.9c2.1-3 3.4-6.1 4.2-8.5l.8-3.2-2.1.3c-1.9 4-4.5 7.2-7.3 9.5z" fill="url(#SVGID_5_)"/><linearGradient id="SVGID_6_" gradientUnits="userSpaceOnUse" x1="-277.524" y1="9.788" x2="-278.646" y2="11.576"><stop offset="0" stop-color="#66bb6a"/><stop offset="1" stop-color="#378f43"/></linearGradient><path d="M-277.9 14.2c1.1-3 1.7-5.5 1.7-6.7v-.3l-2.6.8s.1 1.7.9 6.2z" fill="url(#SVGID_6_)"/><linearGradient id="SVGID_7_" gradientUnits="userSpaceOnUse" x1="-262.553" y1="13.525" x2="-263.187" y2="15.933"><stop offset="0" stop-color="#66bb6a"/><stop offset="1" stop-color="#378f43"/></linearGradient><path d="M-263.9 12s-.7 2.1 2.2 4.7c.5-2.1.8-4.2.9-6l-3.1 1.3z" fill="url(#SVGID_7_)"/><path class="st0" d="M-356.8 136.2h-.2v.2c.3 1.7 0 4.1-1.2 5.7-.7.9-1.7 1.4-2.8 1.4-1.8 0-2.5-2.2-2.6-4.6 3-.7 5-2.6 5-4.8 0-1.6-.5-4.2-3.6-4.2-2.9 0-4.4 4.4-4.7 7.4-1.5 0-2.6-.7-3.3-1.4.3-1.1.4-2 .4-2.9 0-1.2-.9-1.8-1.6-1.8-1.2 0-2.3 1.1-2.3 3.2 0 1.3.5 2.3 1.5 3.1-.9 2-2.3 3.7-2.8 4.2-.4-.8-1.6-3.8-2-6.9.5-1.3.7-2.3.7-2.8 0-.8-.5-1.3-1.4-1.3-1.2 0-3 .7-3 .8l-.1.1v.1s.5 2.6 1.1 5.4c-1.1 1.7-2.9 4.6-3.9 4.6-1.7 0 1.1-8.7-.1-9h-.1c-.6.4-7.3 4.1-16.1 4.1 0 0 0 .2.1.3l.2.2c2.5.3 6.1 0 8.8-.4-1.6 3.3-4.3 5.6-6.9 5.6-4.8 0-8.5-5.8-8.5-5.8 1.5-1.3 3.9-5.6 7.5-5.6 3.5 0 5.1 1.9 5.1 1.9l.4-.6s-1.7-5.8-6.3-5.8-9.6 7.7-12.5 9.4c0 0 4 9.5 12.7 9.5 7.3 0 9.2-7 9.5-8.7l3-.5s-.4 3.6-.4 5.1 1.6 3.1 3 3.1c1.2 0 3.5-2.4 5.2-5.3l.1.3c.9 3.3 2 5 3.3 5 1.3 0 3.5-2.7 4.9-6.1 1.4.6 3.1.8 4 .8.4 5.9 5.3 6.1 5.9 6.1 3.7 0 6.8-2.6 6.8-5.7-.3-3.3-2.8-3.4-2.8-3.4zm-4.4-2.5s0 2-2.3 3c.2-2.6.8-4.9 1.3-4.9.4 0 1 .7 1 1.9z"/><path class="st0" d="M-386.7 131.4c0 .1 0 .1.1.2 1.7.2 2.9-.3 2.9-3.1 0-2.6-2.7-.6-3.2-.2 0 0-.1.1 0 .2.4 1 .2 2.4.2 2.9z"/><linearGradient id="SVGID_8_" gradientUnits="userSpaceOnUse" x1="-381.999" y1="140.177" x2="-379.15" y2="139.227"><stop offset="0" stop-color="#66bb6a"/><stop offset="1" stop-color="#378f43"/></linearGradient><path d="M-379.7 137c-.7 1.1-1.7 2.7-2.6 3.7.2.5.5 1.1.7 1.7.8-.9 1.6-2 2.4-3.2l-.5-2.2z" fill="url(#SVGID_8_)"/><linearGradient id="SVGID_9_" gradientUnits="userSpaceOnUse" x1="-373.257" y1="140.904" x2="-371.605" y2="137.998"><stop offset="0" stop-color="#66bb6a"/><stop offset="1" stop-color="#378f43"/></linearGradient><path d="M-371.6 137.9l-.6-.4c-.6 1.3-1.4 2.5-2 3.4.3.4.8 1 1.2 1.4.8-1.1 1.6-2.4 2.2-4-.1 0-.5-.2-.8-.4z" fill="url(#SVGID_9_)"/><linearGradient id="SVGID_10_" gradientUnits="userSpaceOnUse" x1="-364.588" y1="142.237" x2="-364.93" y2="139.198"><stop offset="0" stop-color="#66bb6a"/><stop offset="1" stop-color="#378f43"/></linearGradient><path d="M-363.6 138.8s-.8.2-1.7.3c-.8.1-1.7 0-1.7 0 .1 1.7.6 2.9 1.2 3.8l3.1-.3c-.5-.8-.8-2.3-.9-3.8z" fill="url(#SVGID_10_)"/><linearGradient id="SVGID_11_" gradientUnits="userSpaceOnUse" x1="-365.057" y1="135.778" x2="-365.057" y2="138.84"><stop offset="0" stop-color="#66bb6a"/><stop offset="1" stop-color="#378f43"/></linearGradient><path d="M-366 133.6c-.1.3-.2.6-.3.8 0 .1 0 .1-.1.2-.2.6-.3 1.1-.4 1.7v.2c0 .3-.1.5-.1.8 2 0 3.4-.6 3.4-.6 0-.2 0-.4.1-.6v-.1c0-.2 0-.3.1-.4v-.1c.1-.4.1-.8.2-1.1l-2.9-.8zm-.9 3.7z" fill="url(#SVGID_11_)"/><linearGradient id="SVGID_12_" gradientUnits="userSpaceOnUse" x1="-391.964" y1="140.798" x2="-391.964" y2="136.999"><stop offset="0" stop-color="#66bb6a"/><stop offset="1" stop-color="#378f43"/></linearGradient><path d="M-394 141l1.9.8c.9-1.3 1.4-2.6 1.8-3.6l.3-1.4-.9.1c-.8 1.7-1.8 3.1-3.1 4.1z" fill="url(#SVGID_12_)"/><linearGradient id="SVGID_13_" gradientUnits="userSpaceOnUse" x1="-376.873" y1="132.959" x2="-377.35" y2="133.719"><stop offset="0" stop-color="#66bb6a"/><stop offset="1" stop-color="#378f43"/></linearGradient><path d="M-377 134.8c.5-1.3.7-2.3.7-2.8v-.1l-1.1.3s0 .7.4 2.6z" fill="url(#SVGID_13_)"/><linearGradient id="SVGID_14_" gradientUnits="userSpaceOnUse" x1="-370.509" y1="134.548" x2="-370.778" y2="135.571"><stop offset="0" stop-color="#66bb6a"/><stop offset="1" stop-color="#378f43"/></linearGradient><path d="M-371.1 133.9s-.3.9.9 2c.2-.9.4-1.8.4-2.6l-1.3.6z" fill="url(#SVGID_14_)"/><path fill="#fff" d="M-313.4 115.1h42v42h-42z"/><path class="st0" d="M-292.6 137.5c.1.2.2.3.2.3 3.4.4 8.3 0 12-.6-2.1 4.6-5.9 7.6-9.4 7.6-6.5 0-11.6-7.9-11.6-7.9 2-1.8 5.4-7.6 10.2-7.6s6.9 2.6 6.9 2.6l.5-.9s-2.3-7.9-8.6-7.9c-6.4 0-13.1 10.4-17.1 12.8 0 0 5.4 12.9 17.3 12.9 10 0 12.5-9.5 13-11.9 1.3-.2 2.4-.4 3.2-.5.2-.5.5-1.5.3-2.8-4 1.5-10 3.3-17.1 3.3.1.1.1.3.2.6z"/><linearGradient id="SVGID_15_" gradientUnits="userSpaceOnUse" x1="-281.796" y1="142.481" x2="-281.796" y2="137.349"><stop offset="0" stop-color="#66bb6a"/><stop offset="1" stop-color="#378f43"/></linearGradient><path d="M-279.1 137.1l-1.2.1c0 .1-.1.2-.2.3-.2.4-.4.7-.6 1.1-.1.2-.2.3-.3.5-.2.4-.5.8-.8 1.1l-.2.2c-.7.9-1.4 1.7-2.2 2.3l2.5 1.1c2-2.6 2.8-5.6 3-6.7z" fill="url(#SVGID_15_)"/><defs><circle id="SVGID_16_" cx="-199.4" cy="136.1" r="16.6"/></defs><clipPath id="SVGID_17_"><use xlink:href="#SVGID_16_" overflow="visible"/></clipPath><path d="M-197 137.3c.1.1.2.3.2.3 2.9.4 7.1 0 10.3-.5-1.8 3.9-5.1 6.5-8 6.5-5.6 0-9.9-6.8-9.9-6.8 1.7-1.5 4.6-6.5 8.7-6.5s5.9 2.3 5.9 2.3l.5-.7s-1.9-6.7-7.4-6.7-11.2 8.9-14.6 11c0 0 4.7 11 14.8 11 8.5 0 10.7-8.2 11.1-10.2 1.1-.2 2.1-.3 2.7-.4.2-.5.4-1.3.3-2.4-3.4 1.3-8.5 2.8-14.6 2.8-.1-.1-.1.1 0 .3z" clip-path="url(#SVGID_17_)" fill="#fff"/></g><path d="M144.3 82.5c-1.9 9.6-12.1 48.2-52.5 48.2-48.2 0-70.2-52.2-70.2-52.2 16.1-9.8 43.4-52 69.2-52s34.9 31.9 34.9 31.9l-2.2 3.5s-8.5-10.7-28-10.7S62.6 74.7 54.4 82c0 0 20.5 32.1 46.9 32.1 14.2 0 29.5-12.3 38.1-30.8-15 2.1-34.7 4-48.6 2.2 0 0-.7-.6-1-1.3-.4-.9-.5-1.8-.5-1.8 27.6 0 51.3-6.5 67.4-12.5C152.3 30.5 119 0 78.6 0 35.2 0 0 35.2 0 78.6c0 43.4 35.2 78.6 78.6 78.6 42.8 0 77.6-34.2 78.6-76.8-3 .5-7.5 1.3-12.9 2.1z" fill="#f1f2f2" id="Layer_2"/></svg>