<svg width="100%" height="100%" xmlns="http://www.w3.org/2000/svg" xmlns:xlink="http://www.w3.org/1999/xlink" viewBox="0 0 100 100" preserveAspectRatio="xMidYMid" class="lds-money" id="svg3229"><style id="style6589"/><defs id="defs691"><clipPath id="lds-money-cpid-51929356b3473"><path id="rect8119" d="M0 0h100v82.235H0z"/></clipPath></defs><path stroke-width="1" d="M85.529 75.177H14.471A4.471 4.471 0 0010 79.648h80a4.471 4.471 0 00-4.471-4.471z" stroke="#eaf9ed" fill="#eaf9ed" id="path4683"/><g clip-path="url(#lds-money-cpid-51929356b3473)" id="g973"><g transform="translate(0 75)" id="g7676"><animateTransform attributeName="transform" type="translate" calcMode="linear" values="0 0 ;0 150" keyTimes="0;1" dur="1s" begin="0s" repeatCount="indefinite" id="animateTransform6035"/><g id="Layer_2" transform="translate(0 -75)"><circle cx="50" cy="40" r="35" id="circle9981" fill="#66bb6a"/><defs id="defs9529"><circle id="SVGID_18_" cx="78.6" cy="78.6" r="78.6"/></defs><clipPath id="SVGID_1_"><use xlink:href="#SVGID_18_" overflow="visible" id="use7689"/></clipPath><path d="M89.8 84.2c.3.7 1 1.3 1 1.3 13.9 1.7 33.6-.2 48.6-2.2-8.6 18.5-24 30.8-38.1 30.8-26.5 0-46.9-32.1-46.9-32.1 8.2-7.2 21.7-30.8 41.2-30.8s28 10.7 28 10.7l2.2-3.5s-9.1-31.9-34.9-31.9-53.2 42.3-69.2 52c0 0 22 52.2 70.2 52.2 40.4 0 50.6-38.6 52.5-48.2 5.4-.8 9.9-1.6 12.8-2.1 1-2.2 2.1-6.1 1.3-11.3-16.1 6.2-40.5 13.2-69.1 13.2-.1 0 0 1 .4 1.9z" clip-path="url(#SVGID_1_)" fill="#fff" id="path9794" transform="matrix(.47328 0 0 .47575 10.465 2.048)"/></g></g></g><path stroke-width="1" d="M14.471 84.823h71.058A4.471 4.471 0 0090 80.352v-.704H10v.704a4.471 4.471 0 004.471 4.471z" stroke="#eaf9ed" fill="#eaf9ed" id="path7605"/></svg>