<svg xmlns="http://www.w3.org/2000/svg" xmlns:xlink="http://www.w3.org/1999/xlink" viewBox="100.1 0 400 400"><circle fill="#66BB6A" cx="-407.3" cy="346.3" r="42.2"/><path d="M-786.4 133.8v-12.5h4.8c3.8 0 6.6 2.5 6.6 6.4s-2.8 6.4-6.6 6.4h-4.8v-.3zm8.9-6.3c0-2.3-1.3-3.8-3.8-3.8h-2.3v7.9h2.3c2.3 0 3.8-1.8 3.8-4.1zm5.9 6.3v-12.5h8.9v2.3h-6.1v2.5h6.1v2.3h-6.1v2.8h6.1v2.3h-8.9v.3zm23.1 0v-8.7l-3.6 8.7h-1.3l-3.6-8.7v8.7h-2.5v-12.5h3.8l3.1 7.6 3.1-7.6h3.8v12.5h-2.8zm6.1-6.3c0-3.8 2.8-6.4 6.6-6.4s6.6 2.8 6.6 6.4c0 3.8-2.8 6.4-6.6 6.4-4 .2-6.6-2.6-6.6-6.4zm10.2 0c0-2.3-1.5-4.1-3.8-4.1s-3.8 1.8-3.8 4.1 1.5 4.1 3.8 4.1 3.8-1.8 3.8-4.1zm5.4 0c0-3.8 2.8-6.4 6.6-6.4 2.8 0 4.3 1.5 5.3 3.1l-2.3 1c-.5-1-1.5-1.8-3.1-1.8-2.3 0-3.8 1.8-3.8 4.1s1.5 4.1 3.8 4.1c1.3 0 2.3-.8 3.1-1.8l2.3 1c-1 1.5-2.5 3.1-5.3 3.1-3.6.2-6.6-2.6-6.6-6.4zm22.1 6.3l-2.5-4.3h-2v4.3h-2.5v-12.5h5.9c2.5 0 4.1 1.8 4.1 4.1s-1.3 3.3-2.8 3.8l2.8 4.8h-2.8v-.2zm.2-8.6c0-1-.8-1.8-1.8-1.8h-2.8v3.3h2.8c.8.3 1.8-.2 1.8-1.5zm14.8 8.6l-.8-2h-5.3l-.8 2h-3.1l4.8-12.5h3.3l4.8 12.5h-2.9zm-3.6-9.9l-2 5.3h3.8l-1.8-5.3zm10.7 9.9v-10.2h-3.6v-2.3h9.9v2.3h-3.6v10.2h-2.7zm9.4 0v-12.5h2.5v12.5h-2.5zm6.2 0v-2l5.9-7.9h-5.9v-2.3h9.4v2l-5.9 8.1h6.1v2.3h-9.7v-.2zm12.9 0v-12.5h2.5v12.5h-2.5zm15 0l-5.9-8.1v8.1h-2.5v-12.5h2.8l5.9 7.9v-7.9h2.5v12.5h-2.8zm5.9-6.3c0-4.1 3.1-6.4 6.6-6.4 2.5 0 4.3 1.3 5.1 2.8l-2.3 1.3c-.5-.8-1.5-1.5-3.1-1.5-2.3 0-3.8 1.8-3.8 4.1s1.5 4.1 3.8 4.1c1 0 2-.5 2.5-1v-1.5h-3.3V127h5.9v4.8c-1.3 1.5-3.1 2.3-5.3 2.3-3.1 0-6.1-2.5-6.1-6.6zm21.1 0c0-4.1 3.1-6.4 6.6-6.4 2.5 0 4.3 1.3 5.1 2.8l-2.3 1.3c-.5-.8-1.5-1.5-3.1-1.5-2.3 0-3.8 1.8-3.8 4.1s1.5 4.1 3.8 4.1c1 0 2-.5 2.5-1v-1.5h-3.3V127h5.9v4.8c-1.3 1.5-3.1 2.3-5.3 2.3-3 0-6.1-2.5-6.1-6.6zm15.5 6.3v-12.5h8.9v2.3h-6.1v2.5h6.1v2.3h-6.1v2.8h6.1v2.3h-8.9v.3zm20.9 0l-5.9-8.1v8.1h-2.5v-12.5h2.8l5.9 7.9v-7.9h2.5v12.5h-2.8zm6.6 0v-12.5h8.9v2.3h-6.1v2.5h6.1v2.3h-6.1v2.8h6.1v2.3h-8.9v.3zm19.4 0l-2.5-4.3h-2v4.3h-2.5v-12.5h5.9c2.5 0 4.1 1.8 4.1 4.1s-1.3 3.3-2.8 3.8l2.8 4.8h-2.8v-.2zm.2-8.6c0-1-.8-1.8-1.8-1.8h-2.8v3.3h2.8c1 .3 1.8-.2 1.8-1.5zm5.6 2.3c0-3.8 2.8-6.4 6.6-6.4s6.6 2.8 6.6 6.4c0 3.8-2.8 6.4-6.6 6.4-4 .2-6.6-2.6-6.6-6.4zm10.2 0c0-2.3-1.5-4.1-3.8-4.1s-3.8 1.8-3.8 4.1 1.5 4.1 3.8 4.1 3.8-1.8 3.8-4.1zm5.1 4.6l1.5-2c.8 1 2.3 1.8 4.1 1.8 1.5 0 2.3-.8 2.3-1.3 0-2.3-7.1-.8-7.1-5.3 0-2 1.8-3.8 4.8-3.8 2 0 3.6.5 4.8 1.8l-1.5 2c-1-1-2.3-1.3-3.6-1.3-1 0-1.8.5-1.8 1.3 0 2 7.1.8 7.1 5.3 0 2.3-1.5 4.1-5.1 4.1-2.5-.6-4.3-1.6-5.5-2.6zm13.5 1.7v-12.5h2.5v12.5h-2.5zm9.4 0v-10.2h-3.6v-2.3h9.9v2.3h-3.6v10.2h-2.7zm13 0v-5.1l-4.8-7.4h3.1l3.1 5.1 3.1-5.1h3.1l-4.8 7.4v5.1h-2.8z" fill="#546E7A"/><g fill="#66BB6A"><path d="M-485.9 44.3h-1.3l.3 1.3c2 9.9.3 24.7-7.4 33.8-4.3 5.3-9.9 8.1-16.8 8.1-10.9 0-15-13-15.5-27.7 17.8-4.3 29.8-15.5 29.8-28.5 0-9.4-2.8-24.9-21.4-24.9-17.6 0-26.5 26.2-28.2 44.5-8.9-.3-15.5-4.3-19.6-8.1 1.5-6.4 2.3-12.2 2.3-17.6 0-7.4-5.1-10.7-9.9-10.7-6.9 0-14 6.6-14 19.3 0 7.6 2.8 14 8.7 18.6-5.1 12-13.7 22.1-16.5 25.4-2.3-4.8-9.7-22.4-12-41.5 2.8-7.6 4.3-14 4.3-17 0-4.8-3.1-7.6-8.1-7.6-6.9 0-17.8 4.3-18.1 4.6l-.5.3v.8c0 .3 3.3 15.5 6.6 32.3-6.4 10.4-17.6 27.7-23.2 27.7-10.2 0 6.6-52.2-.8-53.9-.3 0-.5 0-.8.3-3.6 2.3-43.5 24.4-96.7 24.4 0 0 0 1 .5 2 .3.8 1 1.5 1 1.5 15 1.8 36.4-.3 52.7-2.5-9.4 20.1-26 33.3-41.2 33.3-28.8 0-50.9-34.9-50.9-34.9 8.9-7.9 23.4-33.3 44.8-33.3 21.1 0 30.3 11.7 30.3 11.7l2.3-3.8s-9.9-34.6-37.9-34.6-57.8 45.8-75.1 56.5c0 0 23.9 56.5 76.1 56.5 43.8 0 55-42 57-52.2 10.7-1.5 18.1-3.1 18.1-3.1s-2.8 21.4-2.8 30.3 9.9 18.3 18.1 18.3c6.9 0 20.9-14.2 31-31.6l.5 2c5.3 19.6 12 29.8 19.8 29.8 7.9 0 20.9-16.3 29.3-36.9 8.4 3.6 18.3 4.6 24.2 4.8 2.3 35.4 31.8 36.4 35.4 36.4 21.9 0 40.5-15.8 40.5-34.4.4-19.5-14.6-19.7-14.9-19.7zm-26.7-14.8s-.3 11.7-13.5 17.6c1.3-15.5 5.1-29.5 7.6-29.5 2.9.2 5.9 4.5 5.9 11.9z"/><path d="M-665 15.5c0 .5.3.8.8 1 10.4 1.5 17.3-1.8 17.3-18.6 0-15.8-16.3-3.3-19.3-1-.3.3-.3.5-.3 1 2.8 6.2 1.7 15.1 1.5 17.6z"/></g><linearGradient id="a" gradientUnits="userSpaceOnUse" x1="-289.586" y1="373.238" x2="-282.884" y2="375.472" gradientTransform="matrix(2.5445 0 0 -2.5445 100.127 1017.812)"><stop offset="0" stop-color="#66bb6a"/><stop offset="1" stop-color="#378f43"/></linearGradient><path fill="url(#a)" d="M-623 49.4c-4.1 6.9-10.2 16.3-15.5 22.1 1.3 3.1 2.8 6.9 4.3 9.9 4.8-5.3 9.7-12.2 14-19.3l-2.8-12.7z"/><linearGradient id="b" gradientUnits="userSpaceOnUse" x1="-269.058" y1="371.544" x2="-265.171" y2="378.38" gradientTransform="matrix(2.5445 0 0 -2.5445 100.127 1017.812)"><stop offset="0" stop-color="#66bb6a"/><stop offset="1" stop-color="#378f43"/></linearGradient><path fill="url(#b)" d="M-574.7 54.7c-2-1-3.8-2.5-3.8-2.5-3.6 7.9-8.4 15.3-12.2 20.1 1.8 2.5 4.8 5.9 7.1 8.4 4.6-6.4 9.4-14.8 13-23.7.2-.3-2-1-4.1-2.3z"/><linearGradient id="c" gradientUnits="userSpaceOnUse" x1="-248.642" y1="368.384" x2="-249.446" y2="375.532" gradientTransform="matrix(2.5445 0 0 -2.5445 100.127 1017.812)"><stop offset="0" stop-color="#66bb6a"/><stop offset="1" stop-color="#378f43"/></linearGradient><path fill="url(#c)" d="M-526.3 59.8s-5.1 1-10.2 1.5-9.9.3-9.9.3c.8 10.2 3.6 17.3 7.4 22.6l18.6-1.5c-3.9-5.1-5.7-13.7-5.9-22.9z"/><linearGradient id="d" gradientUnits="userSpaceOnUse" x1="-249.8" y1="383.581" x2="-249.8" y2="376.376" gradientTransform="matrix(2.5445 0 0 -2.5445 100.127 1017.812)"><stop offset="0" stop-color="#66bb6a"/><stop offset="1" stop-color="#378f43"/></linearGradient><path fill="url(#d)" d="M-541.1 28.8c-.5 1.5-1.3 3.3-1.8 5.1 0 .5-.3.8-.3 1.3-1 3.3-1.8 6.6-2.3 9.9 0 .5-.3.8-.3 1.3-.3 1.5-.5 3.1-.5 4.6 12 0 20.1-3.6 20.1-3.6 0-1.3.3-2.3.3-3.6V43c0-1 .3-1.8.3-2.8v-.8c.3-2.3.8-4.6 1-6.6l-16.5-4zm-5.3 21.8z"/><linearGradient id="e" gradientUnits="userSpaceOnUse" x1="-313" y1="371.772" x2="-313" y2="380.708" gradientTransform="matrix(2.5445 0 0 -2.5445 100.127 1017.812)"><stop offset="0" stop-color="#66bb6a"/><stop offset="1" stop-color="#378f43"/></linearGradient><path fill="url(#e)" d="M-708.3 72.8l11.2 4.8c5.3-7.6 8.7-15.5 10.7-21.6l2-8.1-5.3.8c-4.8 10.1-11.4 18.2-18.6 24.1z"/><linearGradient id="f" gradientUnits="userSpaceOnUse" x1="-277.526" y1="390.213" x2="-278.648" y2="388.425" gradientTransform="matrix(2.5445 0 0 -2.5445 100.127 1017.812)"><stop offset="0" stop-color="#66bb6a"/><stop offset="1" stop-color="#378f43"/></linearGradient><path fill="url(#f)" d="M-607 36.1c2.8-7.6 4.3-14 4.3-17v-.8l-6.6 2c0 .1.3 4.4 2.3 15.8z"/><linearGradient id="g" gradientUnits="userSpaceOnUse" x1="-262.581" y1="386.483" x2="-263.215" y2="384.075" gradientTransform="matrix(2.5445 0 0 -2.5445 100.127 1017.812)"><stop offset="0" stop-color="#66bb6a"/><stop offset="1" stop-color="#378f43"/></linearGradient><path fill="url(#g)" d="M-571.4 30.5s-1.8 5.3 5.6 12c1.3-5.3 2-10.7 2.3-15.3l-7.9 3.3z"/><g fill="#66BB6A"><path d="M-807.8 346.6h-.5v.5c.8 4.3 0 10.4-3.1 14.5-1.8 2.3-4.3 3.6-7.1 3.6-4.6 0-6.4-5.6-6.6-11.7 7.6-1.8 12.7-6.6 12.7-12.2 0-4.1-1.3-10.7-9.2-10.7-7.4 0-11.2 11.2-12 18.8-3.8 0-6.6-1.8-8.4-3.6.8-2.8 1-5.1 1-7.4 0-3.1-2.3-4.6-4.1-4.6-3.1 0-5.9 2.8-5.9 8.1 0 3.3 1.3 5.9 3.8 7.9-2.3 5.1-5.9 9.4-7.1 10.7-1-2-4.1-9.7-5.1-17.6 1.3-3.3 1.8-5.9 1.8-7.1 0-2-1.3-3.3-3.6-3.3-3.1 0-7.6 1.8-7.6 2l-.3.3v.3s1.3 6.6 2.8 13.7c-2.8 4.3-7.4 11.7-9.9 11.7-4.3 0 2.8-22.1-.3-22.9h-.3c-1.5 1-18.6 10.4-41 10.4 0 0 0 .5.3.8l.5.5c6.4.8 15.5 0 22.4-1-4.1 8.4-10.9 14.2-17.6 14.2-12.2 0-21.6-14.8-21.6-14.8 3.8-3.3 9.9-14.2 19.1-14.2 8.9 0 13 4.8 13 4.8l1-1.5s-4.3-14.8-16-14.8-24.4 19.6-31.8 23.9c0 0 10.2 24.2 32.3 24.2 18.6 0 23.4-17.8 24.2-22.1 4.6-.8 7.6-1.3 7.6-1.3s-1 9.2-1 13c0 3.8 4.1 7.9 7.6 7.9 3.1 0 8.9-6.1 13.2-13.5l.3.8c2.3 8.4 5.1 12.7 8.4 12.7s8.9-6.9 12.5-15.5c3.6 1.5 7.9 2 10.2 2 1 15 13.5 15.5 15 15.5 9.4 0 17.3-6.6 17.3-14.5-.5-8.3-6.9-8.5-6.9-8.5zm-11.2-6.4s0 5.1-5.9 7.6c.5-6.6 2-12.5 3.3-12.5 1.1.1 2.6 1.9 2.6 4.9z"/><path d="M-883.8 334.4c0 .3 0 .3.3.5 4.3.5 7.4-.8 7.4-7.9 0-6.6-6.9-1.5-8.1-.5 0 0-.3.3 0 .5.9 2.5.4 6.1.4 7.4z"/></g><linearGradient id="h" gradientUnits="userSpaceOnUse" x1="-382.007" y1="259.848" x2="-379.159" y2="260.797" gradientTransform="matrix(2.5445 0 0 -2.5445 100.127 1017.812)"><stop offset="0" stop-color="#66bb6a"/><stop offset="1" stop-color="#378f43"/></linearGradient><path fill="url(#h)" d="M-866 348.6c-1.8 2.8-4.3 6.9-6.6 9.4.5 1.3 1.3 2.8 1.8 4.3 2-2.3 4.1-5.1 6.1-8.1l-1.3-5.6z"/><linearGradient id="i" gradientUnits="userSpaceOnUse" x1="-373.163" y1="259.042" x2="-371.51" y2="261.948" gradientTransform="matrix(2.5445 0 0 -2.5445 100.127 1017.812)"><stop offset="0" stop-color="#66bb6a"/><stop offset="1" stop-color="#378f43"/></linearGradient><path fill="url(#i)" d="M-845.4 350.9c-.8-.5-1.5-1-1.5-1-1.5 3.3-3.6 6.4-5.1 8.7.8 1 2 2.5 3.1 3.6 2-2.8 4.1-6.1 5.6-10.2-.3-.1-1.4-.6-2.1-1.1z"/><linearGradient id="j" gradientUnits="userSpaceOnUse" x1="-364.7" y1="257.75" x2="-365.041" y2="260.789" gradientTransform="matrix(2.5445 0 0 -2.5445 100.127 1017.812)"><stop offset="0" stop-color="#66bb6a"/><stop offset="1" stop-color="#378f43"/></linearGradient><path fill="url(#j)" d="M-825.1 353.2s-2 .5-4.3.8c-2 .3-4.3 0-4.3 0 .3 4.3 1.5 7.4 3.1 9.7l7.9-.8c-1.3-2.1-2.1-5.9-2.4-9.7z"/><linearGradient id="k" gradientUnits="userSpaceOnUse" x1="-365" y1="264.222" x2="-365" y2="261.16" gradientTransform="matrix(2.5445 0 0 -2.5445 100.127 1017.812)"><stop offset="0" stop-color="#66bb6a"/><stop offset="1" stop-color="#378f43"/></linearGradient><path fill="url(#k)" d="M-831.2 339.9c-.3.8-.5 1.5-.8 2 0 .3 0 .3-.3.5-.5 1.5-.8 2.8-1 4.3v.5c0 .8-.3 1.3-.3 2 5.1 0 8.7-1.5 8.7-1.5 0-.5 0-1 .3-1.5v-.3c0-.5 0-.8.3-1v-.3c.3-1 .3-2 .5-2.8l-7.4-1.9zm-2.3 9.5z"/><linearGradient id="l" gradientUnits="userSpaceOnUse" x1="-392" y1="259.202" x2="-392" y2="263.001" gradientTransform="matrix(2.5445 0 0 -2.5445 100.127 1017.812)"><stop offset="0" stop-color="#66bb6a"/><stop offset="1" stop-color="#378f43"/></linearGradient><path fill="url(#l)" d="M-902.4 358.8l4.8 2c2.3-3.3 3.6-6.6 4.6-9.2l.8-3.6-2.3.3c-2.1 4.4-4.6 7.9-7.9 10.5z"/><linearGradient id="m" gradientUnits="userSpaceOnUse" x1="-376.864" y1="267.036" x2="-377.341" y2="266.276" gradientTransform="matrix(2.5445 0 0 -2.5445 100.127 1017.812)"><stop offset="0" stop-color="#66bb6a"/><stop offset="1" stop-color="#378f43"/></linearGradient><path fill="url(#m)" d="M-859.2 343c1.3-3.3 1.8-5.9 1.8-7.1v-.3l-2.8.8s0 1.8 1 6.6z"/><linearGradient id="n" gradientUnits="userSpaceOnUse" x1="-370.554" y1="265.464" x2="-370.824" y2="264.441" gradientTransform="matrix(2.5445 0 0 -2.5445 100.127 1017.812)"><stop offset="0" stop-color="#66bb6a"/><stop offset="1" stop-color="#378f43"/></linearGradient><path fill="url(#n)" d="M-844.1 340.7s-.8 2.3 2.3 5.1c.5-2.3 1-4.6 1-6.6l-3.3 1.5z"/><path fill="#FFF" d="M-697.3 292.9h106.9v106.9h-106.9z"/><path fill="#66BB6A" d="M-644.4 349.9c.3.5.5.8.5.8 8.7 1 21.1 0 30.5-1.5-5.3 11.7-15 19.3-23.9 19.3-16.5 0-29.5-20.1-29.5-20.1 5.1-4.6 13.7-19.3 26-19.3 12.2 0 17.6 6.6 17.6 6.6l1.3-2.3s-5.9-20.1-21.9-20.1c-16.3 0-33.3 26.5-43.5 32.6 0 0 13.7 32.8 44 32.8 25.4 0 31.8-24.2 33.1-30.3 3.3-.5 6.1-1 8.1-1.3.5-1.3 1.3-3.8.8-7.1-10.2 3.8-25.4 8.4-43.5 8.4.1.2.1.7.4 1.5z"/><linearGradient id="o" gradientUnits="userSpaceOnUse" x1="-281.85" y1="257.519" x2="-281.85" y2="262.651" gradientTransform="matrix(2.5445 0 0 -2.5445 100.127 1017.812)"><stop offset="0" stop-color="#66bb6a"/><stop offset="1" stop-color="#378f43"/></linearGradient><path fill="url(#o)" d="M-610.1 348.9l-3.1.3c0 .3-.3.5-.5.8-.5 1-1 1.8-1.5 2.8-.3.5-.5.8-.8 1.3-.5 1-1.3 2-2 2.8l-.5.5c-1.8 2.3-3.6 4.3-5.6 5.9l6.4 2.8c5.1-6.8 7.1-14.4 7.6-17.2z"/><defs><circle id="p" cx="-407.3" cy="346.3" r="42.2"/></defs><clipPath id="q"><use xlink:href="#p" overflow="visible"/></clipPath><path clip-path="url(#q)" fill="#FFF" d="M-401.1 349.4c.3.3.5.8.5.8 7.4 1 18.1 0 26.2-1.3-4.6 9.9-13 16.5-20.4 16.5-14.2 0-25.2-17.3-25.2-17.3 4.3-3.8 11.7-16.5 22.1-16.5s15 5.9 15 5.9l1.3-1.8s-4.8-17-18.8-17-28.5 22.6-37.2 28c0 0 12 28 37.7 28 21.6 0 27.2-20.9 28.2-26 2.8-.5 5.3-.8 6.9-1 .5-1.3 1-3.3.8-6.1-8.7 3.3-21.6 7.1-37.2 7.1-.2-.4-.2.2.1.7z"/><path fill="#888" d="M467.3 209.9c-4.8 24.4-30.8 122.6-133.6 122.6-122.6 0-178.6-132.8-178.6-132.8 41-24.9 110.4-132.3 176.1-132.3s88.8 81.2 88.8 81.2l-5.6 8.9s-21.6-27.2-71.2-27.2-83.7 59.8-104.6 78.4c0 0 52.2 81.7 119.3 81.7 36.1 0 75.1-31.3 96.9-78.4-38.2 5.3-88.3 10.2-123.7 5.6 0 0-1.8-1.5-2.5-3.3-1-2.3-1.3-4.6-1.3-4.6 70.2 0 130.5-16.5 171.5-31.8C487.7 77.6 402.9 0 300.1 0c-110.4 0-200 89.6-200 200s89.6 200 200 200c108.9 0 197.5-87 200-195.4-7.6 1.3-19.1 3.3-32.8 5.3z"/></svg>