<?xml version="1.0" encoding="utf-8"?>
<!-- Generator: Adobe Illustrator 26.0.1, SVG Export Plug-In . SVG Version: 6.00 Build 0)  -->
<svg version="1.1" id="Layer_1" xmlns="http://www.w3.org/2000/svg" xmlns:xlink="http://www.w3.org/1999/xlink" x="0px" y="0px"
	 viewBox="0 0 123 123.5" style="enable-background:new 0 0 123 123.5;" xml:space="preserve">
<style type="text/css">
	.st0{fill:url(#SVGID_1_);}
	.st1{fill:url(#SVGID_00000111193509215236557460000007547783858630466736_);}
	.st2{fill:url(#SVGID_00000016766896269054267970000014049870204542035384_);}
	.st3{fill:url(#SVGID_00000008843437831671014110000017619520884128793736_);}
	.st4{fill:url(#SVGID_00000176009505384482427780000001839551755442294184_);}
	.st5{fill:url(#SVGID_00000152968004920979917240000001960961374555837314_);}
	.st6{fill:url(#SVGID_00000047745906055076102210000012743650362891948181_);}
	.st7{fill:url(#SVGID_00000062870484275086476220000013769131479699222417_);}
	.st8{fill:url(#SVGID_00000002381139477740064310000012573008663173927300_);}
	.st9{fill:url(#SVGID_00000152256985473055133730000012736411115364143488_);}
</style>
<g id="Layer_2_00000174569981532429916480000001216001349736097208_">
	<g id="Layer_1-2">
		
			<linearGradient id="SVGID_1_" gradientUnits="userSpaceOnUse" x1="4.0473" y1="101.0673" x2="19.2812" y2="127.4533" gradientTransform="matrix(1 0 0 -1 0 126)">
			<stop  offset="5.327789e-09" style="stop-color:#CC00FF"/>
			<stop  offset="1" style="stop-color:#00A4DB"/>
		</linearGradient>
		<path class="st0" d="M1.9,0h19.6c1,0,1.9,0.8,1.9,1.9v19.6c0,1-0.8,1.9-1.9,1.9H1.9c-1,0-1.9-0.8-1.9-1.9V1.9C0,0.8,0.8,0,1.9,0z"
			/>
		
			<linearGradient id="SVGID_00000095327719819303438590000001702789089790694543_" gradientUnits="userSpaceOnUse" x1="103.6402" y1="101.0069" x2="118.9561" y2="127.5348" gradientTransform="matrix(1 0 0 -1 0 126)">
			<stop  offset="5.327789e-09" style="stop-color:#CC00FF"/>
			<stop  offset="1" style="stop-color:#00A4DB"/>
		</linearGradient>
		<path style="fill:url(#SVGID_00000095327719819303438590000001702789089790694543_);" d="M101.5,0h19.6c1,0,1.9,0.8,1.9,1.8
			c0,0,0,0,0,0.1v19.6c0,1-0.8,1.9-1.8,1.9l0,0h-19.7c-1,0-1.8-0.8-1.8-1.9l0,0V1.9C99.6,0.8,100.5,0,101.5,0z"/>
		
			<linearGradient id="SVGID_00000150079138754283726260000004891902994665643676_" gradientUnits="userSpaceOnUse" x1="4.1081" y1="1.0282" x2="19.2592" y2="27.2707" gradientTransform="matrix(1 0 0 -1 0 126)">
			<stop  offset="5.327789e-09" style="stop-color:#CC00FF"/>
			<stop  offset="1" style="stop-color:#00A4DB"/>
		</linearGradient>
		<path style="fill:url(#SVGID_00000150079138754283726260000004891902994665643676_);" d="M1.9,100.2h19.6c1,0,1.9,0.8,1.9,1.8
			v19.6c0,1-0.8,1.8-1.9,1.8H1.9c-1,0-1.9-0.8-1.9-1.8V102C0,101.1,0.8,100.2,1.9,100.2z"/>
		
			<linearGradient id="SVGID_00000021826746864899870850000006819286068436715660_" gradientUnits="userSpaceOnUse" x1="103.6529" y1="0.8336" x2="118.9278" y2="27.2905" gradientTransform="matrix(1 0 0 -1 0 126)">
			<stop  offset="5.327789e-09" style="stop-color:#CC00FF"/>
			<stop  offset="1" style="stop-color:#00A4DB"/>
		</linearGradient>
		<path style="fill:url(#SVGID_00000021826746864899870850000006819286068436715660_);" d="M101.5,100.2h19.6c1,0,1.9,0.8,1.9,1.8
			l0,0v19.6c0,1-0.8,1.9-1.8,1.9l0,0h-19.6c-1,0-1.8-0.8-1.8-1.8l0,0v-19.6C99.6,101.1,100.5,100.2,101.5,100.2z"/>
		
			<linearGradient id="SVGID_00000126297471833286339410000012813165264382161566_" gradientUnits="userSpaceOnUse" x1="52.3696" y1="98.1527" x2="70.5432" y2="129.6303" gradientTransform="matrix(1 0 0 -1 0 126)">
			<stop  offset="5.327789e-09" style="stop-color:#CC00FF"/>
			<stop  offset="1" style="stop-color:#00A4DB"/>
		</linearGradient>
		<path style="fill:url(#SVGID_00000126297471833286339410000012813165264382161566_);" d="M32.2,14.4h18.3c4.7,0,8.5,3.8,8.5,8.5
			l0,0v7.2c0,1.5,1.2,2.8,2.8,2.8c1.5,0,2.8-1.2,2.8-2.8v-7.2c0-4.7,3.8-8.5,8.4-8.5h18.3c1.5,0,2.8-1.2,2.8-2.8s-1.2-2.8-2.8-2.8
			H73c-4.4,0-8.6,2.1-11.2,5.7c-2.6-3.6-6.8-5.7-11.2-5.7H32.2c-1.5,0-2.8,1.2-2.8,2.8S30.7,14.4,32.2,14.4z"/>
		
			<linearGradient id="SVGID_00000044147376856555260440000005765945212086142869_" gradientUnits="userSpaceOnUse" x1="52.9428" y1="-1.0678" x2="71.1323" y2="30.4372" gradientTransform="matrix(1 0 0 -1 0 126)">
			<stop  offset="5.327789e-09" style="stop-color:#CC00FF"/>
			<stop  offset="1" style="stop-color:#00A4DB"/>
		</linearGradient>
		<path style="fill:url(#SVGID_00000044147376856555260440000005765945212086142869_);" d="M91.3,109.1H73c-4.7,0-8.5-3.8-8.5-8.5
			l0,0v-7.2c0-1.5-1.2-2.8-2.8-2.8c-1.5,0-2.8,1.2-2.8,2.8v7.2c0,4.7-3.8,8.5-8.5,8.5H32.2c-1.5,0-2.8,1.2-2.8,2.8l0,0l0,0
			c0,1.5,1.2,2.8,2.8,2.8l0,0h18.3c4.4,0,8.6-2.1,11.2-5.7c2.6,3.6,6.8,5.7,11.2,5.7h18.3c1.5,0,2.8-1.2,2.8-2.8l0,0
			C94.1,110.3,92.8,109.1,91.3,109.1z"/>
		
			<linearGradient id="SVGID_00000000906535141944422420000013868702124219244458_" gradientUnits="userSpaceOnUse" x1="15.8383" y1="54.8279" x2="26.232" y2="72.8302" gradientTransform="matrix(1 0 0 -1 0 126)">
			<stop  offset="5.327789e-09" style="stop-color:#CC00FF"/>
			<stop  offset="1" style="stop-color:#00A4DB"/>
		</linearGradient>
		<path style="fill:url(#SVGID_00000000906535141944422420000013868702124219244458_);" d="M17,51.7l-8.8,8.8
			c-0.7,0.7-0.7,1.9,0,2.6l0,0l8.8,8.8c0.2,0.2,0.6,0.2,0.9,0c0.1-0.1,0.2-0.3,0.2-0.4v-4.3H32c-0.6-3.5-0.6-7.1,0-10.7H18.1v-4.3
			c0-0.3-0.3-0.6-0.6-0.6C17.3,51.5,17.2,51.6,17,51.7z"/>
		
			<linearGradient id="SVGID_00000077295762345486318510000012849897726109599662_" gradientUnits="userSpaceOnUse" x1="97.3305" y1="55.6915" x2="107.7206" y2="73.6875" gradientTransform="matrix(1 0 0 -1 0 126)">
			<stop  offset="5.327789e-09" style="stop-color:#CC00FF"/>
			<stop  offset="1" style="stop-color:#00A4DB"/>
		</linearGradient>
		<path style="fill:url(#SVGID_00000077295762345486318510000012849897726109599662_);" d="M106.5,71.8l8.8-8.8
			c0.7-0.7,0.7-1.9,0-2.6l0,0l-8.8-8.8c-0.2-0.2-0.6-0.2-0.9,0c-0.1,0.1-0.2,0.3-0.2,0.4v4.3H91.6c0.6,3.5,0.6,7.1,0,10.7h13.9v4.3
			c0,0.3,0.3,0.6,0.6,0.6l0,0C106.2,72,106.4,71.9,106.5,71.8z"/>
		
			<linearGradient id="SVGID_00000142169791279635658960000010348319086543417520_" gradientUnits="userSpaceOnUse" x1="52.599" y1="44.6116" x2="70.5012" y2="75.6192" gradientTransform="matrix(1 0 0 -1 0 126)">
			<stop  offset="5.327789e-09" style="stop-color:#CC00FF"/>
			<stop  offset="1" style="stop-color:#00A4DB"/>
		</linearGradient>
		<path style="fill:url(#SVGID_00000142169791279635658960000010348319086543417520_);" d="M81.1,56.5L61.8,66.8L42.4,56.5v17.3
			c0.1,1.7,1.5,3.1,3.2,3l0,0h32.3c1.7,0.1,3.2-1.3,3.2-3V56.5z"/>
		
			<linearGradient id="SVGID_00000052800010710215820690000011699431879344162735_" gradientUnits="userSpaceOnUse" x1="56.7662" y1="64.7057" x2="67.1772" y2="82.7382" gradientTransform="matrix(1 0 0 -1 0 126)">
			<stop  offset="5.327789e-09" style="stop-color:#CC00FF"/>
			<stop  offset="1" style="stop-color:#00A4DB"/>
		</linearGradient>
		<path style="fill:url(#SVGID_00000052800010710215820690000011699431879344162735_);" d="M42.4,53l19.4,10.4L81.1,53
			c-0.1-1.7-1.5-3.1-3.2-3H45.7C43.9,50,42.5,51.3,42.4,53L42.4,53z"/>
	</g>
</g>
</svg>
