<svg xmlns="http://www.w3.org/2000/svg" viewBox="0 0 122.96 123.54"><defs><style>.cls-1{fill:#00a4db;}</style></defs><g id="Layer_2" data-name="Layer 2"><g id="Layer_1-2" data-name="Layer 1"><rect class="cls-1" width="23.32" height="23.32" rx="1.85"/><path class="cls-1" d="M101.49,0H121.1A1.85,1.85,0,0,1,123,1.85V21.47a1.85,1.85,0,0,1-1.86,1.85H101.49a1.85,1.85,0,0,1-1.85-1.85h0V1.85A1.85,1.85,0,0,1,101.49,0Z"/><rect class="cls-1" y="100.23" width="23.32" height="23.32" rx="1.85"/><path class="cls-1" d="M101.49,100.23H121.1a1.85,1.85,0,0,1,1.86,1.85v19.61a1.85,1.85,0,0,1-1.86,1.85H101.49a1.85,1.85,0,0,1-1.85-1.85h0V102.08a1.85,1.85,0,0,1,1.85-1.85Z"/><path class="cls-1" d="M32.25,14.44H50.52A8.47,8.47,0,0,1,59,22.91v7.16a2.78,2.78,0,0,0,5.56,0V22.91A8.47,8.47,0,0,1,73,14.44H91.3a2.78,2.78,0,0,0,0-5.56H73a14,14,0,0,0-11.25,5.66A14,14,0,0,0,50.52,8.88H32.25a2.78,2.78,0,0,0,0,5.56Z"/><path class="cls-1" d="M91.3,109.11H73a8.48,8.48,0,0,1-8.47-8.48h0V93.48a2.78,2.78,0,1,0-5.56,0v7.15a8.48,8.48,0,0,1-8.47,8.48H32.25a2.77,2.77,0,0,0-2.78,2.77h0a2.77,2.77,0,0,0,2.78,2.78H50.52A14,14,0,0,0,61.77,109,14,14,0,0,0,73,114.66H91.3a2.78,2.78,0,0,0,2.78-2.78h0A2.78,2.78,0,0,0,91.3,109.11Z"/><path class="cls-1" d="M17.05,51.71,8.29,60.46a1.86,1.86,0,0,0,0,2.62h0l8.76,8.75a.62.62,0,0,0,.87,0,.58.58,0,0,0,.18-.43V67.1H32a30.3,30.3,0,0,1,0-10.66H18.1V52.15a.62.62,0,0,0-.62-.62A.58.58,0,0,0,17.05,51.71Z"/><path class="cls-1" d="M106.49,71.83l8.76-8.75a1.86,1.86,0,0,0,0-2.62h0l-8.76-8.75a.62.62,0,0,0-.87,0,.65.65,0,0,0-.18.44v4.29H91.59a30.06,30.06,0,0,1,0,10.66h13.86v4.3a.61.61,0,0,0,.62.61A.58.58,0,0,0,106.49,71.83Z"/><path class="cls-1" d="M81.13,56.47,61.77,66.82,42.42,56.47V73.75a3.11,3.11,0,0,0,3.23,3H77.9a3.12,3.12,0,0,0,3.23-3Z"/><path class="cls-1" d="M42.42,53.05,61.77,63.4,81.13,53.05a3.12,3.12,0,0,0-3.23-3H45.65A3.11,3.11,0,0,0,42.42,53.05Z"/></g></g></svg>