<svg xmlns="http://www.w3.org/2000/svg" viewBox="0 0 62 61.98"><defs><style>.cls-1{fill:#00a4db;}</style></defs><g id="Layer_2" data-name="Layer 2"><g id="Layer_1-2" data-name="Layer 1"><path class="cls-1" d="M32,4l1.2,1.6,1.6-1.2-3-4A1,1,0,0,0,30.34.24a.93.93,0,0,0-.14.14l-3,4,1.6,1.2L30,4v7h2Z"/><path class="cls-1" d="M32,58V51H30v7l-1.2-1.6-1.6,1.2,3,4a1,1,0,0,0,1.4.2,1.26,1.26,0,0,0,.2-.2l3-4-1.6-1.2Z"/><path class="cls-1" d="M16.15,44.41,5.54,55l.29-2-2-.28-.71,5A1,1,0,0,0,4,58.84h.28l5-.71-.28-2-2,.28,10.61-10.6Z"/><path class="cls-1" d="M58.15,9.2l.71-4.95A1,1,0,0,0,58,3.12a.66.66,0,0,0-.28,0l-4.95.7.28,2,2-.28L44.44,16.13l1.41,1.41L56.46,6.94l-.29,2Z"/><path class="cls-1" d="M17.57,16.13,7,5.52l2,.28.28-2-5-.7A1,1,0,0,0,3.14,4a1.31,1.31,0,0,0,0,.28L3.85,9.2l2-.28-.29-2,10.61,10.6Z"/><path class="cls-1" d="M56.17,53l.29,2L48,46.53,46.56,48,55,56.43l-2-.28-.28,2,4.95.71h.14a1,1,0,0,0,1-1,.61.61,0,0,0,0-.14l-.71-5Z"/><path class="cls-1" d="M57.6,27.18l-1.2,1.6L58,30H51v2h7l-1.6,1.2,1.2,1.6,4-3a1,1,0,0,0,.2-1.4.76.76,0,0,0-.2-.2Z"/><path class="cls-1" d="M5.6,33.18,4,32h7V30H4l1.6-1.2-1.2-1.6-4,3a1,1,0,0,0-.2,1.4,1.26,1.26,0,0,0,.2.2l4,3Z"/><path class="cls-1" d="M39.75,31.73a8,8,0,1,0,8,8A8,8,0,0,0,39.75,31.73Zm3.5,12.86a5.94,5.94,0,0,1-7,0V40.73a2,2,0,0,1,2-2h1.5a2,2,0,1,1,2-2,2,2,0,0,1-2,2h1.5a2,2,0,0,1,2,2Z"/><path class="cls-1" d="M48.73,30.23A17.61,17.61,0,0,0,45.66,21a31.41,31.41,0,0,1-5.14,1.37,32.75,32.75,0,0,1,1.08,7.88Z"/><path class="cls-1" d="M25.94,14a17.77,17.77,0,0,0-8.65,5.75,30.5,30.5,0,0,0,4.63,1.18A17.12,17.12,0,0,1,25.94,14Z"/><path class="cls-1" d="M20.4,30.23a32.67,32.67,0,0,1,1.08-7.87A30.47,30.47,0,0,1,16.34,21a17.61,17.61,0,0,0-3.07,9.25Z"/><path class="cls-1" d="M36.06,14a17.25,17.25,0,0,1,4,6.93,30.68,30.68,0,0,0,4.62-1.18A17.77,17.77,0,0,0,36.06,14Z"/><path class="cls-1" d="M39,22.61a54,54,0,0,1-7.29.56v7.06H40.1A31.54,31.54,0,0,0,39,22.61Z"/><path class="cls-1" d="M31.75,21.68a54,54,0,0,0,6.84-.52c-1.5-4.39-4-7.4-6.84-7.85Z"/><path class="cls-1" d="M30.25,23.18A55.66,55.66,0,0,1,23,22.61a31.61,31.61,0,0,0-1.06,7.62h8.35Z"/><path class="cls-1" d="M30.25,13.3c-2.85.46-5.33,3.46-6.84,7.85a50.55,50.55,0,0,0,6.84.52Z"/><path class="cls-1" d="M21.48,39.6a32.67,32.67,0,0,1-1.08-7.87H13.27A17.57,17.57,0,0,0,16.34,41,31.41,31.41,0,0,1,21.48,39.6Z"/><path class="cls-1" d="M23,39.35a55.66,55.66,0,0,1,7.29-.57v-7H21.9A31.68,31.68,0,0,0,23,39.35Z"/><path class="cls-1" d="M30.25,40.28a54,54,0,0,0-6.84.52c1.51,4.39,4,7.4,6.84,7.85Z"/><path class="cls-1" d="M17.29,42.22A17.79,17.79,0,0,0,25.94,48a17.12,17.12,0,0,1-4-6.93A30.47,30.47,0,0,0,17.29,42.22Z"/></g></g></svg>