<?xml version="1.0" encoding="utf-8"?>
<!-- Generator: Adobe Illustrator 26.0.1, SVG Export Plug-In . SVG Version: 6.00 Build 0)  -->
<svg version="1.1" id="Layer_1" xmlns="http://www.w3.org/2000/svg" xmlns:xlink="http://www.w3.org/1999/xlink" x="0px" y="0px"
	 viewBox="0 0 62 62" style="enable-background:new 0 0 62 62;" xml:space="preserve">
<style type="text/css">
	.st0{fill:url(#SVGID_1_);}
	.st1{fill:url(#SVGID_00000127765843293921526920000015697552620374852233_);}
	.st2{fill:url(#SVGID_00000000218780696672595380000014755382487944653708_);}
	.st3{fill:url(#SVGID_00000052812548739492289490000002005558153790911626_);}
	.st4{fill:url(#SVGID_00000083779911263902130560000000068833144837815181_);}
	.st5{fill:url(#SVGID_00000096022586558787954870000017399316866361157769_);}
	.st6{fill:url(#SVGID_00000069384479108264532050000006726215051611324073_);}
	.st7{fill:url(#SVGID_00000155862033888511344240000007215262499454934675_);}
	.st8{fill:url(#SVGID_00000000187647953173787560000014335806018254830259_);}
	.st9{fill:url(#SVGID_00000116235370414822827780000013645504248659274666_);}
	.st10{fill:url(#SVGID_00000052817199265115574350000005898358827495928761_);}
	.st11{fill:url(#SVGID_00000098902955084471318720000006212907607990624391_);}
	.st12{fill:url(#SVGID_00000056390578772590509760000017969581799360728462_);}
	.st13{fill:url(#SVGID_00000047762544871848229000000016267826000503702935_);}
	.st14{fill:url(#SVGID_00000163777381079613513280000011958012058073659825_);}
	.st15{fill:url(#SVGID_00000064329563698627426050000008289846154404880817_);}
	.st16{fill:url(#SVGID_00000101783151500839619180000017700644941011378102_);}
	.st17{fill:url(#SVGID_00000044164417205302792250000003502000341862780835_);}
	.st18{fill:url(#SVGID_00000154413757664353487840000002628441932979700399_);}
	.st19{fill:url(#SVGID_00000116196994404364246180000011320347125653626811_);}
	.st20{fill:url(#SVGID_00000002351718029129268810000006498233064605005710_);}
</style>
<g id="Layer_2_00000139287745166738876200000012570592291875162250_">
	<g id="Layer_1-2">
		<linearGradient id="SVGID_1_" gradientUnits="userSpaceOnUse" x1="28.2667" y1="9.9993" x2="33.3483" y2="1.1978">
			<stop  offset="0" style="stop-color:#CC00FF"/>
			<stop  offset="1" style="stop-color:#00A4DB"/>
		</linearGradient>
		<path class="st0" d="M32,4l1.2,1.6l1.6-1.2l-3-4c-0.3-0.4-1-0.5-1.4-0.2c0,0,0,0-0.1,0c-0.1,0-0.1,0.1-0.1,0.1l-3,4l1.6,1.2L30,4
			v7h2V4z"/>
		
			<linearGradient id="SVGID_00000031894962339000029310000016547746828774491790_" gradientUnits="userSpaceOnUse" x1="28.6487" y1="60.7975" x2="33.7289" y2="51.9982">
			<stop  offset="0" style="stop-color:#CC00FF"/>
			<stop  offset="1" style="stop-color:#00A4DB"/>
		</linearGradient>
		<path style="fill:url(#SVGID_00000031894962339000029310000016547746828774491790_);" d="M32,58v-7h-2v7l-1.2-1.6l-1.6,1.2l3,4
			c0.3,0.4,1,0.5,1.4,0.2c0.1-0.1,0.1-0.1,0.2-0.2l3-4l-1.6-1.2L32,58z"/>
		
			<linearGradient id="SVGID_00000132780894689541377320000011612453058765294770_" gradientUnits="userSpaceOnUse" x1="4.8521" y1="59.4286" x2="14.1798" y2="43.2725">
			<stop  offset="0" style="stop-color:#CC00FF"/>
			<stop  offset="1" style="stop-color:#00A4DB"/>
		</linearGradient>
		<path style="fill:url(#SVGID_00000132780894689541377320000011612453058765294770_);" d="M16.1,44.4L5.5,55l0.3-2l-2-0.3l-0.7,5
			c-0.1,0.5,0.3,1,0.9,1.1c0,0,0,0,0,0h0.3l5-0.7l-0.3-2l-2,0.3l10.6-10.6L16.1,44.4z"/>
		
			<linearGradient id="SVGID_00000052823677717190971550000016414472750658464408_" gradientUnits="userSpaceOnUse" x1="47.8228" y1="18.679" x2="57.1426" y2="2.5367">
			<stop  offset="0" style="stop-color:#CC00FF"/>
			<stop  offset="1" style="stop-color:#00A4DB"/>
		</linearGradient>
		<path style="fill:url(#SVGID_00000052823677717190971550000016414472750658464408_);" d="M58.2,9.2l0.7-4.9
			c0.1-0.5-0.3-1.1-0.9-1.1c0,0,0,0,0,0c-0.1,0-0.2,0-0.3,0l-5,0.7l0.3,2l2-0.3L44.4,16.1l1.4,1.4L56.5,6.9l-0.3,2L58.2,9.2z"/>
		
			<linearGradient id="SVGID_00000062894859104806173850000015329832239649620641_" gradientUnits="userSpaceOnUse" x1="8.5404" y1="13.115" x2="12.7588" y2="5.8085">
			<stop  offset="0" style="stop-color:#CC00FF"/>
			<stop  offset="1" style="stop-color:#00A4DB"/>
		</linearGradient>
		<path style="fill:url(#SVGID_00000062894859104806173850000015329832239649620641_);" d="M17.6,16.1L7,5.5l2,0.3l0.3-2l-5-0.7
			C3.7,3,3.2,3.4,3.1,3.9c0,0,0,0,0,0.1c0,0.1,0,0.2,0,0.3l0.7,4.9l2-0.3l-0.3-2l10.6,10.6L17.6,16.1z"/>
		
			<linearGradient id="SVGID_00000106142674998476715740000014948240428048979390_" gradientUnits="userSpaceOnUse" x1="50.4915" y1="56.8634" x2="54.3431" y2="50.1922">
			<stop  offset="0" style="stop-color:#CC00FF"/>
			<stop  offset="1" style="stop-color:#00A4DB"/>
		</linearGradient>
		<path style="fill:url(#SVGID_00000106142674998476715740000014948240428048979390_);" d="M56.2,53l0.3,2L48,46.5L46.6,48l8.4,8.4
			l-2-0.3l-0.3,2l5,0.7h0.1c0.6,0,1-0.4,1-1c0,0,0-0.1,0-0.1l-0.7-5L56.2,53z"/>
		
			<linearGradient id="SVGID_00000075861625458493212240000001194273097403614092_" gradientUnits="userSpaceOnUse" x1="54.5336" y1="34.0401" x2="58.2707" y2="27.5672">
			<stop  offset="0" style="stop-color:#CC00FF"/>
			<stop  offset="1" style="stop-color:#00A4DB"/>
		</linearGradient>
		<path style="fill:url(#SVGID_00000075861625458493212240000001194273097403614092_);" d="M57.6,27.2l-1.2,1.6L58,30h-7v2h7
			l-1.6,1.2l1.2,1.6l4-3c0.4-0.3,0.5-1,0.2-1.4c-0.1-0.1-0.1-0.1-0.2-0.2L57.6,27.2z"/>
		
			<linearGradient id="SVGID_00000123408364065505752130000018011952718757081525_" gradientUnits="userSpaceOnUse" x1="3.7379" y1="34.4178" x2="7.4664" y2="27.9599">
			<stop  offset="0" style="stop-color:#CC00FF"/>
			<stop  offset="1" style="stop-color:#00A4DB"/>
		</linearGradient>
		<path style="fill:url(#SVGID_00000123408364065505752130000018011952718757081525_);" d="M5.6,33.2L4,32h7v-2H4l1.6-1.2l-1.2-1.6
			l-4,3c-0.4,0.3-0.5,1-0.2,1.4c0.1,0.1,0.1,0.1,0.2,0.2l4,3L5.6,33.2z"/>
		
			<linearGradient id="SVGID_00000178900027481216384980000016951094983494659757_" gradientUnits="userSpaceOnUse" x1="35.7493" y1="46.6594" x2="43.7507" y2="32.8006">
			<stop  offset="0" style="stop-color:#CC00FF"/>
			<stop  offset="1" style="stop-color:#00A4DB"/>
		</linearGradient>
		<path style="fill:url(#SVGID_00000178900027481216384980000016951094983494659757_);" d="M39.8,31.7c-4.4,0-8,3.6-8,8s3.6,8,8,8
			s8-3.6,8-8S44.2,31.7,39.8,31.7z M43.2,44.6c-2.1,1.5-4.9,1.5-7,0v-3.9c0-1.1,0.9-2,2-2h1.5c-1.1,0-2-0.9-2-2s0.9-2,2-2s2,0.9,2,2
			s-0.9,2-2,2h1.5c1.1,0,2,0.9,2,2V44.6z"/>
		
			<linearGradient id="SVGID_00000060019715981892816020000010713617323554478763_" gradientUnits="userSpaceOnUse" x1="42.1584" y1="30.5724" x2="47.1787" y2="21.8768">
			<stop  offset="0" style="stop-color:#CC00FF"/>
			<stop  offset="1" style="stop-color:#00A4DB"/>
		</linearGradient>
		<path style="fill:url(#SVGID_00000060019715981892816020000010713617323554478763_);" d="M48.7,30.2c-0.1-3.3-1.2-6.5-3.1-9.2
			c-1.7,0.6-3.4,1.1-5.1,1.4c0.7,2.6,1,5.2,1.1,7.9L48.7,30.2z"/>
		
			<linearGradient id="SVGID_00000138547845786289216240000011143404057575985034_" gradientUnits="userSpaceOnUse" x1="19.2888" y1="20.904" x2="23.9412" y2="12.846">
			<stop  offset="0" style="stop-color:#CC00FF"/>
			<stop  offset="1" style="stop-color:#00A4DB"/>
		</linearGradient>
		<path style="fill:url(#SVGID_00000138547845786289216240000011143404057575985034_);" d="M25.9,14c-3.4,1-6.4,3-8.6,5.8
			c1.5,0.5,3.1,0.9,4.6,1.2C22.7,18.3,24.1,16,25.9,14z"/>
		
			<linearGradient id="SVGID_00000067945855619875184380000012478528978290582443_" gradientUnits="userSpaceOnUse" x1="15.0653" y1="31.2865" x2="20.5342" y2="21.814">
			<stop  offset="0" style="stop-color:#CC00FF"/>
			<stop  offset="1" style="stop-color:#00A4DB"/>
		</linearGradient>
		<path style="fill:url(#SVGID_00000067945855619875184380000012478528978290582443_);" d="M20.4,30.2c0-2.7,0.4-5.3,1.1-7.9
			c-1.7-0.3-3.5-0.8-5.1-1.4c-1.9,2.7-2.9,5.9-3.1,9.2L20.4,30.2z"/>
		
			<linearGradient id="SVGID_00000095321380007073437260000013558285569500671674_" gradientUnits="userSpaceOnUse" x1="38.5366" y1="20.0505" x2="40.7738" y2="16.1756">
			<stop  offset="0" style="stop-color:#CC00FF"/>
			<stop  offset="1" style="stop-color:#00A4DB"/>
		</linearGradient>
		<path style="fill:url(#SVGID_00000095321380007073437260000013558285569500671674_);" d="M36.1,14c1.9,2,3.2,4.3,4,6.9
			c1.6-0.3,3.1-0.7,4.6-1.2C42.4,17,39.4,15,36.1,14z"/>
		
			<linearGradient id="SVGID_00000074416459818433914400000001642273763760653465_" gradientUnits="userSpaceOnUse" x1="33.3277" y1="31.164" x2="38.4498" y2="22.2923">
			<stop  offset="0" style="stop-color:#CC00FF"/>
			<stop  offset="1" style="stop-color:#00A4DB"/>
		</linearGradient>
		<path style="fill:url(#SVGID_00000074416459818433914400000001642273763760653465_);" d="M39,22.6c-2.4,0.4-4.9,0.5-7.3,0.6v7.1
			h8.4C40,27.7,39.7,25.1,39,22.6z"/>
		
			<linearGradient id="SVGID_00000029753060788223554300000007163682167463508405_" gradientUnits="userSpaceOnUse" x1="32.3903" y1="22.0497" x2="36.185" y2="15.477">
			<stop  offset="0" style="stop-color:#CC00FF"/>
			<stop  offset="1" style="stop-color:#00A4DB"/>
		</linearGradient>
		<path style="fill:url(#SVGID_00000029753060788223554300000007163682167463508405_);" d="M31.8,21.7c2.3,0,4.6-0.2,6.8-0.5
			c-1.5-4.4-4-7.4-6.8-7.9V21.7z"/>
		
			<linearGradient id="SVGID_00000151524500535813676740000009475782255049001856_" gradientUnits="userSpaceOnUse" x1="23.819" y1="31.3148" x2="28.9492" y2="22.429">
			<stop  offset="0" style="stop-color:#CC00FF"/>
			<stop  offset="1" style="stop-color:#00A4DB"/>
		</linearGradient>
		<path style="fill:url(#SVGID_00000151524500535813676740000009475782255049001856_);" d="M30.2,23.2c-2.4,0-4.8-0.2-7.2-0.6
			c-0.7,2.5-1,5-1.1,7.6h8.4L30.2,23.2z"/>
		
			<linearGradient id="SVGID_00000106827209606714074490000003460685193929263496_" gradientUnits="userSpaceOnUse" x1="25.9216" y1="22.6001" x2="31.0307" y2="13.7508">
			<stop  offset="0" style="stop-color:#CC00FF"/>
			<stop  offset="1" style="stop-color:#00A4DB"/>
		</linearGradient>
		<path style="fill:url(#SVGID_00000106827209606714074490000003460685193929263496_);" d="M30.2,13.3c-2.9,0.5-5.3,3.5-6.8,7.8
			c2.3,0.3,4.6,0.5,6.8,0.5V13.3z"/>
		
			<linearGradient id="SVGID_00000151516055174536197280000015462840429964623750_" gradientUnits="userSpaceOnUse" x1="14.8061" y1="40.1144" x2="19.8352" y2="31.4039">
			<stop  offset="0" style="stop-color:#CC00FF"/>
			<stop  offset="1" style="stop-color:#00A4DB"/>
		</linearGradient>
		<path style="fill:url(#SVGID_00000151516055174536197280000015462840429964623750_);" d="M21.5,39.6c-0.7-2.6-1-5.2-1.1-7.9h-7.1
			c0.1,3.3,1.2,6.5,3.1,9.3C18,40.4,19.7,39.9,21.5,39.6z"/>
		
			<linearGradient id="SVGID_00000046321763560985422600000007969483525027708072_" gradientUnits="userSpaceOnUse" x1="23.5589" y1="39.6727" x2="28.6593" y2="30.8385">
			<stop  offset="0" style="stop-color:#CC00FF"/>
			<stop  offset="1" style="stop-color:#00A4DB"/>
		</linearGradient>
		<path style="fill:url(#SVGID_00000046321763560985422600000007969483525027708072_);" d="M23,39.3c2.4-0.3,4.9-0.5,7.3-0.6v-7
			h-8.4C22,34.3,22.3,36.9,23,39.3z"/>
		
			<linearGradient id="SVGID_00000147219214877644910670000014091138816914669452_" gradientUnits="userSpaceOnUse" x1="25.8153" y1="46.4825" x2="29.6097" y2="39.9103">
			<stop  offset="0" style="stop-color:#CC00FF"/>
			<stop  offset="1" style="stop-color:#00A4DB"/>
		</linearGradient>
		<path style="fill:url(#SVGID_00000147219214877644910670000014091138816914669452_);" d="M30.2,40.3c-2.3,0-4.6,0.2-6.8,0.5
			c1.5,4.4,4,7.4,6.8,7.8V40.3z"/>
		
			<linearGradient id="SVGID_00000010272978521194550680000013562967499061683342_" gradientUnits="userSpaceOnUse" x1="21.208" y1="45.8149" x2="23.4456" y2="41.9393">
			<stop  offset="0" style="stop-color:#CC00FF"/>
			<stop  offset="1" style="stop-color:#00A4DB"/>
		</linearGradient>
		<path style="fill:url(#SVGID_00000010272978521194550680000013562967499061683342_);" d="M17.3,42.2c2.2,2.7,5.3,4.8,8.6,5.8
			c-1.9-2-3.2-4.3-4-6.9C20.4,41.3,18.8,41.7,17.3,42.2z"/>
	</g>
</g>
</svg>
