<svg xmlns="http://www.w3.org/2000/svg" viewBox="0 0 108.31 108.31"><defs><style>.cls-1{fill:#00a4db;}</style></defs><g id="Layer_2" data-name="Layer 2"><g id="Layer_1-2" data-name="Layer 1"><path class="cls-1" d="M54.15,108.31a54.16,54.16,0,1,1,54.16-54.16,53.61,53.61,0,0,1-11,32.67,4.41,4.41,0,1,1-7-5.32A45.34,45.34,0,0,0,54.15,8.82,45.33,45.33,0,1,0,79.49,91.74a4.42,4.42,0,0,1,4.94,7.32A53.88,53.88,0,0,1,54.15,108.31Z"/><path class="cls-1" d="M53.56,46.44A14.87,14.87,0,1,1,68.42,31.57,14.89,14.89,0,0,1,53.56,46.44Zm0-20.91a6,6,0,1,0,6,6A6,6,0,0,0,53.56,25.53Z"/><path class="cls-1" d="M95.38,86.31a4.42,4.42,0,0,1-4.23-3.17A33.86,33.86,0,0,0,58.83,59H49.47a33.63,33.63,0,0,0-32,23.09,4.41,4.41,0,1,1-8.37-2.78A42.43,42.43,0,0,1,49.47,50.16h9.36A42.74,42.74,0,0,1,99.61,80.65a4.41,4.41,0,0,1-3,5.48A4.55,4.55,0,0,1,95.38,86.31Z"/></g></g></svg>