<?xml version="1.0" encoding="utf-8"?>
<!-- Generator: Adobe Illustrator 26.0.1, SVG Export Plug-In . SVG Version: 6.00 Build 0)  -->
<svg version="1.1" id="Layer_1" xmlns="http://www.w3.org/2000/svg" xmlns:xlink="http://www.w3.org/1999/xlink" x="0px" y="0px"
	 viewBox="0 0 108.3 108.3" style="enable-background:new 0 0 108.3 108.3;" xml:space="preserve">
<style type="text/css">
	.st0{fill:url(#SVGID_1_);}
	.st1{fill:url(#SVGID_00000134969664238106304250000000853407558844334983_);}
	.st2{fill:url(#SVGID_00000035501691130562197560000008245026419669548185_);}
</style>
<g id="Layer_2_00000127026005822272413580000014481955960175050643_">
	<g id="Layer_1-2">
		<linearGradient id="SVGID_1_" gradientUnits="userSpaceOnUse" x1="27.0593" y1="101.0582" x2="81.2283" y2="7.2347">
			<stop  offset="0" style="stop-color:#CC00FF"/>
			<stop  offset="1" style="stop-color:#00A4DB"/>
		</linearGradient>
		<path class="st0" d="M54.2,108.3C24.2,108.3,0,84.1,0,54.2S24.2,0,54.1,0s54.2,24.2,54.2,54.2v0c0,11.8-3.8,23.3-11,32.7
			c-1.3,2-4,2.6-6.1,1.3c-2-1.3-2.6-4-1.3-6.1c0.1-0.2,0.3-0.4,0.4-0.6c15.1-20,11.1-48.4-8.8-63.5C73.6,12,64,8.8,54.2,8.8
			c-25,0-45.3,20.3-45.3,45.3c0,25,20.3,45.3,45.3,45.3c9,0,17.8-2.7,25.3-7.7c2.1-1.3,4.8-0.6,6.1,1.5c1.2,2,0.7,4.5-1.1,5.9
			C75.5,105.1,64.9,108.3,54.2,108.3z"/>
		
			<linearGradient id="SVGID_00000116199131380249903480000007547539990745503115_" gradientUnits="userSpaceOnUse" x1="46.1106" y1="44.4481" x2="60.9831" y2="18.6882">
			<stop  offset="0" style="stop-color:#CC00FF"/>
			<stop  offset="1" style="stop-color:#00A4DB"/>
		</linearGradient>
		<path style="fill:url(#SVGID_00000116199131380249903480000007547539990745503115_);" d="M53.6,46.4c-8.2,0-14.9-6.6-14.9-14.9
			c0-8.2,6.6-14.9,14.9-14.9c8.2,0,14.9,6.6,14.9,14.9c0,0,0,0,0,0C68.4,39.8,61.8,46.4,53.6,46.4z M53.6,25.5c-3.3,0-6,2.7-6,6
			s2.7,6,6,6s6-2.7,6-6S56.9,25.5,53.6,25.5z"/>
		
			<linearGradient id="SVGID_00000091723095419545767550000007488935643832901521_" gradientUnits="userSpaceOnUse" x1="41.7555" y1="102.2784" x2="71.4138" y2="50.9086">
			<stop  offset="0" style="stop-color:#CC00FF"/>
			<stop  offset="1" style="stop-color:#00A4DB"/>
		</linearGradient>
		<path style="fill:url(#SVGID_00000091723095419545767550000007488935643832901521_);" d="M95.4,86.3c-2,0-3.7-1.3-4.2-3.2
			C86.9,68.9,73.7,59.1,58.8,59h-9.4c-14.5,0-27.4,9.3-32,23.1c-0.7,2.3-3.2,3.6-5.5,2.8c-2.3-0.7-3.6-3.2-2.8-5.5c0,0,0-0.1,0-0.1
			c5.7-17.4,22-29.2,40.4-29.1h9.4c18.8,0.1,35.4,12.5,40.8,30.5c0.7,2.3-0.6,4.8-3,5.5c0,0,0,0,0,0C96.2,86.2,95.8,86.3,95.4,86.3z
			"/>
	</g>
</g>
</svg>
