<?xml version="1.0" encoding="UTF-8" standalone="no"?>
<!-- Created with Inkscape (http://www.inkscape.org/) -->

<svg
   width="5.3034463mm"
   height="4.2451129mm"
   viewBox="0 0 5.3034463 4.2451129"
   version="1.1"
   id="svg5"
   inkscape:version="1.1.1 (1:1.1+202109281949+c3084ef5ed)"
   sodipodi:docname="down_arrow.svg"
   xmlns:inkscape="http://www.inkscape.org/namespaces/inkscape"
   xmlns:sodipodi="http://sodipodi.sourceforge.net/DTD/sodipodi-0.dtd"
   xmlns:xlink="http://www.w3.org/1999/xlink"
   xmlns="http://www.w3.org/2000/svg"
   xmlns:svg="http://www.w3.org/2000/svg">
  <sodipodi:namedview
     id="namedview7"
     pagecolor="#505050"
     bordercolor="#eeeeee"
     borderopacity="1"
     inkscape:pageshadow="0"
     inkscape:pageopacity="0"
     inkscape:pagecheckerboard="0"
     inkscape:document-units="mm"
     showgrid="false"
     inkscape:zoom="22.627417"
     inkscape:cx="12.661631"
     inkscape:cy="9.1039998"
     inkscape:window-width="1712"
     inkscape:window-height="855"
     inkscape:window-x="0"
     inkscape:window-y="27"
     inkscape:window-maximized="1"
     inkscape:current-layer="g31" />
  <defs
     id="defs2">
    <linearGradient
       inkscape:collect="always"
       id="linearGradient1191">
      <stop
         style="stop-color:#000000;stop-opacity:1;"
         offset="0"
         id="stop1187" />
      <stop
         style="stop-color:#000000;stop-opacity:0;"
         offset="1"
         id="stop1189" />
    </linearGradient>
    <filter
       inkscape:collect="always"
       style="color-interpolation-filters:sRGB"
       id="filter1053"
       x="-0.001534979"
       y="-0.0013928576"
       width="1.00307"
       height="1.0027857">
      <feGaussianBlur
         inkscape:collect="always"
         stdDeviation="0.0092752708"
         id="feGaussianBlur1055" />
    </filter>
    <filter
       inkscape:collect="always"
       style="color-interpolation-filters:sRGB"
       id="filter1057"
       x="-0.0043774936"
       y="-0.0022075218"
       width="1.008755"
       height="1.004415">
      <feGaussianBlur
         inkscape:collect="always"
         stdDeviation="0.0092752708"
         id="feGaussianBlur1059" />
    </filter>
    <linearGradient
       inkscape:collect="always"
       xlink:href="#linearGradient1191"
       id="linearGradient1199"
       x1="1.9777395"
       y1="9.0419998"
       x2="7.1075106"
       y2="9.0419998"
       gradientUnits="userSpaceOnUse" />
  </defs>
  <g
     inkscape:label="Layer 1"
     inkscape:groupmode="layer"
     id="layer1"
     transform="translate(-115.62646,-121.80865)">
    <g
       id="g31"
       transform="matrix(0.26458333,0,0,0.26458333,115.10318,120.75621)">
      <g
         id="g11">
	<path
   fill="#ca86ff"
   d="m 12,20 c -0.256,0 -0.512,-0.098 -0.707,-0.293 L 7.791,16.205 C 7.4,15.814 7.4,15.182 7.791,14.791 8.182,14.4 8.814,14.4 9.205,14.791 L 12,17.586 20,9.603 V 7.428 l -7.293,7.28 c -0.391,0.39 -1.023,0.389 -1.414,-10e-4 L 4,7.414 v 2.172 l 2.792,2.792 c 0.391,0.391 0.391,1.023 0,1.414 -0.391,0.391 -1.023,0.391 -1.414,0 L 2.294,10.708 C 2.105,10.52 2,10.265 2,10 V 5 C 2,4.596 2.244,4.231 2.617,4.076 2.992,3.921 3.421,4.007 3.707,4.293 L 12,12.586 20.293,4.309 C 20.581,4.024 21.01,3.94 21.383,4.093 21.756,4.249 22,4.613 22,5.018 v 5 c 0,0.266 -0.105,0.52 -0.293,0.708 l -9,8.982 C 12.511,19.903 12.255,20 12,20 Z"
   id="path9" />

</g>
      <g
         id="g15"
         style="fill:#00a4db;fill-opacity:1;filter:url(#filter1057)">
	<path
   fill="#523cbd"
   d="m 6.084,14.084 c -0.256,0 -0.512,-0.098 -0.707,-0.293 L 2.293,10.707 C 2.105,10.52 2,10.265 2,10 V 5 C 2,4.448 2.448,4 3,4 3.552,4 4,4.448 4,5 v 4.586 l 2.792,2.792 c 0.391,0.391 0.391,1.023 0,1.414 -0.196,0.195 -0.452,0.292 -0.708,0.292 z"
   id="path13"
   style="fill:#00a4db;fill-opacity:1" />

</g>
      <g
         id="Angle-down">
	<path
   fill="#523cbd"
   d="m 12,20 c -0.256,0 -0.512,-0.098 -0.707,-0.293 L 7.791,16.205 C 7.4,15.814 7.4,15.182 7.791,14.791 8.182,14.4 8.814,14.4 9.205,14.791 L 12,17.586 20,9.603 V 5.018 c 0,-0.552 0.448,-1 1,-1 0.552,0 1,0.448 1,1 v 5 c 0,0.266 -0.105,0.52 -0.293,0.708 l -9,8.982 C 12.511,19.903 12.255,20 12,20 Z"
   id="path17"
   style="fill:#00a4db;fill-opacity:1;filter:url(#filter1053)" />

</g>
      <path
         style="fill:#00a4db;fill-opacity:1;stroke-width:0.0513598"
         d="m 446.70182,471.32321 c -0.13912,-0.0414 -1.02414,-0.89724 -3.91489,-3.78601 l -3.73512,-3.73257 -0.0141,-1.39951 -0.0141,-1.39952 4.00624,4.00608 4.00624,4.00608 2.18261,-2.18617 c 1.20044,-1.20239 3.00309,-2.99077 4.00589,-3.97417 l 1.82328,-1.788 -0.0145,1.36761 -0.0145,1.3676 -3.6577,3.66166 c -2.01173,2.01391 -3.73121,3.70776 -3.82107,3.7641 -0.19588,0.12283 -0.59027,0.16651 -0.83814,0.0928 z"
         id="path1423"
         transform="translate(-435.03565,-456.40143)" />
      <path
         style="fill:#00a4db;fill-opacity:1;stroke-width:0.0181584"
         d="m 446.8232,471.33932 c -0.0506,-0.008 -0.11193,-0.0248 -0.13619,-0.0376 -0.18821,-0.0992 -0.91734,-0.80931 -4.37732,-4.26331 l -3.2437,-3.23811 -0.0111,-0.76604 c -0.006,-0.42132 -0.0135,-1.04622 -0.0165,-1.38868 l -0.005,-0.62264 4.00467,4.00373 4.00466,4.00373 2.12454,-2.12663 c 1.16849,-1.16964 2.83544,-2.82571 3.70432,-3.68016 0.86888,-0.85444 1.7126,-1.68423 1.87492,-1.84396 l 0.29515,-0.29042 -0.01,0.97991 c -0.005,0.53894 -0.0144,1.15317 -0.0202,1.36494 l -0.0106,0.38505 -2.99885,2.99242 c -3.27044,3.26344 -4.40934,4.38223 -4.51681,4.43706 -0.14445,0.0737 -0.47806,0.1194 -0.66203,0.0907 z"
         id="path1462"
         transform="translate(-435.03565,-456.40143)" />
      <path
         style="fill:#00a4db;fill-opacity:1;stroke-width:0.0181584"
         d=""
         id="path1501"
         transform="translate(-435.03565,-456.40143)" />
      <path
         style="fill:#00a4db;fill-opacity:1;stroke-width:0.0181584"
         d=""
         id="path1540"
         transform="translate(-435.03565,-456.40143)" />
      <path
         style="opacity:0.43939;fill:#00a4db;fill-opacity:1;stroke-width:0.0181584"
         d=""
         id="path1579"
         transform="translate(-435.03565,-456.40143)" />
      <path
         style="opacity:0.43939;fill:#00a4db;fill-opacity:1;stroke-width:0.0363169"
         d="m 446.79972,471.33174 c -0.18065,-0.0247 -0.69674,-0.51784 -4.37796,-4.1837 l -3.36909,-3.35503 v -1.3661 -1.3661 l 3.99243,3.9923 3.99242,3.9923 3.98821,-3.97176 3.9882,-3.97175 0.0121,0.26993 c 0.007,0.14846 7.4e-4,0.76218 -0.0131,1.36383 l -0.0252,1.0939 -2.61984,2.61174 c -4.36493,4.35146 -4.82224,4.79529 -4.98436,4.83746 -0.1896,0.0493 -0.44247,0.0722 -0.58374,0.053 z"
         id="path2506"
         transform="translate(-435.03565,-456.40143)" />
      <path
         style="opacity:0.43939;fill:#00a4db;fill-opacity:1;stroke-width:0.0363169"
         d="m 446.79972,471.33174 c -0.18118,-0.0247 -0.70267,-0.52306 -4.37828,-4.18392 l -3.36877,-3.35525 v -1.36588 -1.36588 l 3.99243,3.9923 3.99242,3.9923 3.98821,-3.9717 3.9882,-3.9717 0.0119,0.34251 c 0.007,0.18838 6.6e-4,0.80216 -0.0131,1.36396 l -0.025,1.02146 -2.6925,2.68468 c -4.24369,4.23137 -4.74963,4.722 -4.91318,4.76452 -0.18833,0.049 -0.44144,0.0718 -0.58232,0.0526 z"
         id="path2545"
         transform="translate(-435.03565,-456.40143)" />
      <path
         style="opacity:0.43939;fill:#00a4db;fill-opacity:1;stroke-width:0.0441942"
         d="m 446.64842,476.29895 c -0.2047,-0.0881 -3.86181,-3.73245 -3.98766,-3.97372 -0.1852,-0.35506 -0.0924,-0.84291 0.21606,-1.13565 0.26108,-0.2478 0.6879,-0.32657 1.02193,-0.1886 0.11056,0.0457 0.64328,0.54625 1.62842,1.53017 0.80527,0.80426 1.48462,1.45486 1.50967,1.44578 0.0251,-0.009 1.83721,-1.80159 4.02701,-3.98334 l 3.98146,-3.96683 -0.0101,-2.02148 c -0.006,-1.11182 -0.0159,-1.61175 -0.023,-1.11097 l -0.0129,0.91052 -3.7262,3.71472 c -4.03987,4.02743 -3.79526,3.81052 -4.2977,3.81107 -0.18281,2.2e-4 -0.26213,-0.0262 -0.41985,-0.13956 -0.10695,-0.0769 -1.49708,-1.43646 -3.08917,-3.02126 -1.5921,-1.58481 -3.23818,-3.21729 -3.65796,-3.62775 l -0.76324,-0.74629 8.9e-4,-1.36993 8.9e-4,-1.36993 3.99656,3.99637 3.99655,3.99638 3.50541,-3.48957 c 4.58155,-4.56087 4.49903,-4.48121 4.50273,-4.34614 0.002,0.0807 0.0172,0.0624 0.0594,-0.0724 0.13048,-0.41674 0.49144,-0.68148 0.92914,-0.68148 0.38169,0 0.68414,0.18991 0.87975,0.55242 0.0947,0.17559 0.0954,0.19489 0.0954,2.87262 0,2.1572 -0.012,2.73117 -0.0601,2.87263 -0.0857,0.25187 -9.15261,9.33741 -9.48345,9.50289 -0.25395,0.12702 -0.57989,0.14264 -0.81996,0.0393 z"
         id="path2695"
         transform="translate(-435.03565,-456.40143)" />
      <path
         style="opacity:0.43939;fill:#00a4db;fill-opacity:1;stroke-width:0.0441942"
         d="m 455.01562,462.33735 c 1.9e-4,-0.17015 0.008,-0.23434 0.0177,-0.14265 0.01,0.0917 0.009,0.23091 -3.6e-4,0.30936 -0.01,0.0785 -0.0176,0.003 -0.0174,-0.16671 z"
         id="path2734"
         transform="translate(-435.03565,-456.40143)" />
      <path
         style="opacity:0.43939;fill:#00a4db;fill-opacity:1;stroke-width:0.0441942"
         d="m 440.70339,470.36137 c -0.1085,-0.0552 -0.83258,-0.74871 -1.85968,-1.7812 -1.42477,-1.43225 -1.6899,-1.71864 -1.73371,-1.87273 -0.0702,-0.24701 -0.0728,-5.35175 -0.003,-5.60753 0.0312,-0.11411 0.12355,-0.24971 0.26045,-0.38253 0.3853,-0.37379 0.90951,-0.38999 1.29763,-0.0401 0.34749,0.31327 0.33555,0.20972 0.33664,2.91984 l 9.7e-4,2.40884 1.46295,1.45815 c 0.95539,0.95227 1.4917,1.51949 1.54582,1.63494 0.18465,0.39382 0.0277,0.9312 -0.34797,1.19163 -0.254,0.17607 -0.68992,0.20816 -0.96023,0.0707 z"
         id="path2773"
         transform="translate(-435.03565,-456.40143)" />
      <path
         style="opacity:0.43939;fill:#00a4db;fill-opacity:1;stroke-width:0.0441942"
         d="m 446.64842,476.29895 c -0.2047,-0.0881 -3.86181,-3.73245 -3.98766,-3.97372 -0.1852,-0.35506 -0.0924,-0.84291 0.21606,-1.13565 0.26108,-0.2478 0.6879,-0.32657 1.02193,-0.1886 0.11056,0.0457 0.64328,0.54625 1.62842,1.53017 0.80527,0.80426 1.48482,1.45486 1.51012,1.44578 0.0253,-0.009 1.83745,-1.80216 4.02701,-3.98461 l 3.98101,-3.9681 -0.01,-1.86553 c -0.005,-1.02605 -0.0159,-1.52535 -0.0231,-1.10956 l -0.0132,0.75598 -3.72606,3.71458 c -4.03972,4.02728 -3.79512,3.81038 -4.29756,3.81093 -0.18289,2.2e-4 -0.26206,-0.0261 -0.41985,-0.13968 -0.10695,-0.077 -1.14905,-1.08969 -2.31578,-2.25051 -1.16672,-1.16081 -2.8127,-2.79325 -3.65773,-3.62762 l -1.53642,-1.51705 6.7e-4,-1.36993 6.7e-4,-1.36993 3.99309,3.99291 3.9931,3.99292 1.21492,-1.20878 c 6.62354,-6.58999 6.77095,-6.73355 6.7983,-6.62062 0.0244,0.10061 0.0286,0.0973 0.0577,-0.045 0.0812,-0.39768 0.49019,-0.7082 0.93271,-0.7082 0.38169,0 0.68414,0.18991 0.87975,0.55242 0.0948,0.17568 0.0954,0.19381 0.0954,2.91682 v 2.74004 l -0.11866,0.19887 c -0.0682,0.11431 -2.06022,2.1384 -4.68458,4.75999 -3.55033,3.5466 -4.61016,4.581 -4.7648,4.65047 -0.23633,0.10618 -0.57706,0.11528 -0.79549,0.0212 z"
         id="path2812"
         transform="translate(-435.03565,-456.40143)" />
      <path
         style="opacity:0.43939;fill:#00a4db;fill-opacity:1;stroke-width:0.0441942"
         d="m 446.64842,476.29895 c -0.2047,-0.0881 -3.86181,-3.73245 -3.98766,-3.97372 -0.1852,-0.35506 -0.0924,-0.84291 0.21606,-1.13565 0.26641,-0.25285 0.71346,-0.32914 1.04289,-0.17797 0.10323,0.0474 0.71572,0.62543 1.61976,1.52869 0.79956,0.79887 1.47516,1.44521 1.50133,1.43631 0.0262,-0.009 1.83789,-1.80497 4.02605,-3.99126 l 3.97846,-3.97506 -0.01,-1.74808 c -0.005,-0.96145 -0.0158,-1.45755 -0.0233,-1.10246 l -0.0135,0.64562 -3.72593,3.71445 c -4.03597,4.02353 -3.79607,3.81061 -4.29302,3.81051 -0.13613,-3e-5 -0.26562,-0.0296 -0.33727,-0.0771 -0.1959,-0.12978 -0.60329,-0.52623 -4.15948,-4.04778 l -3.4361,-3.40263 v -1.37346 -1.37346 l 3.98906,3.98888 3.98907,3.98889 1.39157,-1.38242 c 5.93582,-5.89673 6.60011,-6.54414 6.62931,-6.4609 0.0244,0.0696 0.0344,0.0618 0.0612,-0.0479 0.0943,-0.38518 0.49989,-0.68339 0.92958,-0.68339 0.38169,0 0.68414,0.18991 0.87975,0.55242 0.0948,0.17568 0.0954,0.19381 0.0954,2.91682 v 2.74004 l -0.11866,0.19887 c -0.0682,0.11431 -2.06022,2.1384 -4.68458,4.75999 -3.55033,3.5466 -4.61016,4.581 -4.7648,4.65047 -0.23633,0.10618 -0.57706,0.11528 -0.79549,0.0212 z"
         id="path2851"
         transform="translate(-435.03565,-456.40143)" />
      <path
         style="opacity:0.43939;fill:#00a4db;fill-opacity:1;stroke-width:0.0441942"
         d="M 1.656373,9.9022743 C 1.5478712,9.8470904 0.82378625,9.153564 -0.20330756,8.1210781 -1.6280811,6.6888244 -1.8932118,6.4024343 -1.9370203,6.2483482 c -0.070229,-0.2470128 -0.072836,-5.35175881 -0.00286,-5.60753268 0.092804,-0.33923381 0.564283,-0.68500969 0.9340378,-0.68500969 0.331513,0 0.72496122,0.26745161 0.87768993,0.59662134 0.07669306,0.16529342 0.08208418,0.33325293 0.0829917,2.58561023 l 9.706e-4,2.4088335 1.46294397,1.4581567 C 2.3741459,7.9572971 2.9104484,8.5245143 2.9645752,8.639961 3.1492176,9.0337819 2.9922934,9.5711662 2.6166,9.8315932 2.3625975,10.007665 1.9266803,10.039753 1.656373,9.9022743 Z"
         id="path2890"
         transform="translate(4.0110615,4.0576252)" />
    </g>
  </g>
</svg>
