<svg id="svg5" xmlns="http://www.w3.org/2000/svg" xmlns:xlink="http://www.w3.org/1999/xlink" viewBox="0 0 14.99 12.03"><defs><style>.cls-1{fill:url(#linear-gradient);}.cls-2{fill:url(#linear-gradient-4);}.cls-3{fill:url(#linear-gradient-5);}</style><linearGradient id="linear-gradient" x1="-450.89" y1="-344.45" x2="-450.89" y2="-344.45" gradientUnits="userSpaceOnUse"><stop offset="0" stop-color="#c0f"/><stop offset="1" stop-color="#00a4db"/></linearGradient><linearGradient id="linear-gradient-4" x1="-195.36" y1="-66.55" x2="-180.38" y2="-66.55" gradientTransform="translate(-376.08 -132.16) rotate(179.71)" xlink:href="#linear-gradient"/><linearGradient id="linear-gradient-5" x1="-195.33" y1="-66.56" x2="-180.38" y2="-66.56" gradientTransform="translate(-376.08 -132.16) rotate(179.71)" xlink:href="#linear-gradient"/></defs><g id="layer1"><g id="g31"><path id="path1501" class="cls-1" d="M-450.89-344.45" transform="translate(195.39 72.57)"/><path id="path1540" class="cls-1" d="M-450.89-344.45" transform="translate(195.39 72.57)"/><path id="path1579" class="cls-1" d="M-450.89-344.45" transform="translate(195.39 72.57)"/><g id="Angle-up"><g id="g3059"><path id="path3057" class="cls-2" d="M-194.68-72.53a.78.78,0,0,1,.53.21l6.28,6.21,6.19-6.25a.78.78,0,0,1,.82-.16.8.8,0,0,1,.45.69l0,3.75a.73.73,0,0,1-.21.53l-6.71,6.78a.75.75,0,0,1-1.06,0L-191-63.37a.74.74,0,0,1,0-1.05.75.75,0,0,1,1.06,0l2.1,2.08,5.95-6V-70l-5.42,5.51a.75.75,0,0,1-1.06,0L-193.9-70v1.64l2.1,2.08a.75.75,0,0,1,0,1.06.75.75,0,0,1-1.06,0l-2.31-2.29a.77.77,0,0,1-.22-.53l0-3.76a.77.77,0,0,1,.45-.69A.52.52,0,0,1-194.68-72.53Z" transform="translate(195.39 72.57)"/></g><g id="g3063"><path id="path6891" class="cls-3" d="M-194.6-72.5a.54.54,0,0,1,.19,0,40.68,40.68,0,0,1,3.32,3.18c1.76,1.74,3.19,3.16,3.22,3.16l3.16-3.16c2.55-2.58,3.16-3.17,3.24-3.22a.81.81,0,0,1,.61,0,.88.88,0,0,1,.37.37l.05.1v2.07a10,10,0,0,1,0,2.17,30.23,30.23,0,0,1-2.5,2.6l-3.48,3.51c-.94.93-1,1-1.15,1.07a.89.89,0,0,1-.51,0c-.1,0-.21-.13-1.57-1.45a17.6,17.6,0,0,1-1.48-1.53.49.49,0,0,1-.06-.31.6.6,0,0,1,.05-.32.74.74,0,0,1,1-.35c.05,0,.42.37,1.2,1.13.61.61,1.11,1.11,1.14,1.11s1.37-1.36,3-3l3-3.06V-70l-2.4,2.42c-3.24,3.25-3.18,3.19-3.32,3.25a.85.85,0,0,1-.5,0A26.7,26.7,0,0,1-191-67.18c-1.6-1.52-2.88-2.79-2.88-2.79s0,.37,0,.82v.82l1.11,1.11c1.23,1.21,1.2,1.18,1.23,1.5a.78.78,0,0,1-.5.72.84.84,0,0,1-.56,0c-.08,0-.42-.37-1.38-1.32-1.12-1.1-1.28-1.26-1.3-1.37s-.06-.21-.07-2.14v-2l0-.13a.88.88,0,0,1,.37-.37A1,1,0,0,1-194.6-72.5Z" transform="translate(195.39 72.57)"/></g></g></g></g></svg>