<svg xmlns="http://www.w3.org/2000/svg" viewBox="0 0 108.71 108.71"><defs><style>.cls-1{fill:#00a4db;}</style></defs><g id="Layer_2" data-name="Layer 2"><g id="Layer_1-2" data-name="Layer 1"><path class="cls-1" d="M54.35,108.71a54.36,54.36,0,1,1,54.36-54.36A54.42,54.42,0,0,1,54.35,108.71Zm0-103.14a48.79,48.79,0,1,0,48.79,48.78A48.83,48.83,0,0,0,54.35,5.57Z"/><path class="cls-1" d="M47.09,65.63a32.75,32.75,0,0,1,.14-4.78c.81-8.67,5.33-25.48,28.7-18.65C71.8,50.62,68.54,65,48.84,67.46,52.26,62,58.13,52,63.61,50.62,60.28,49.43,49,62.22,47.09,65.63Z"/><path class="cls-1" d="M45.58,66.9a15.66,15.66,0,0,1-10.24-8.5,24.86,24.86,0,0,1-2.15-5.24s9.17-3.21,14,7.69l-.14,4.78-.32.48s-2-6.2-6.19-7.63C43.92,61.66,45.58,66.9,45.58,66.9Z"/></g></g></svg>