<?xml version="1.0" encoding="utf-8"?>
<!-- Generator: Adobe Illustrator 26.0.1, SVG Export Plug-In . SVG Version: 6.00 Build 0)  -->
<svg version="1.1" id="Layer_1" xmlns="http://www.w3.org/2000/svg" xmlns:xlink="http://www.w3.org/1999/xlink" x="0px" y="0px"
	 viewBox="0 0 108.7 108.7" style="enable-background:new 0 0 108.7 108.7;" xml:space="preserve">
<style type="text/css">
	.st0{fill:url(#SVGID_1_);}
	.st1{fill:url(#SVGID_00000073002914221758142830000015149425457495425158_);}
	.st2{fill:url(#SVGID_00000048493614553891967200000003479840595375555973_);}
</style>
<g id="Layer_2_00000021094878216473516650000017405467611072654977_">
	<g id="Layer_1-2">
		<linearGradient id="SVGID_1_" gradientUnits="userSpaceOnUse" x1="27.1559" y1="101.4295" x2="81.525" y2="7.2595">
			<stop  offset="0" style="stop-color:#CC00FF"/>
			<stop  offset="1" style="stop-color:#00A4DB"/>
		</linearGradient>
		<path class="st0" d="M54.3,108.7C24.3,108.7,0,84.4,0,54.3S24.3,0,54.3,0s54.4,24.3,54.4,54.4l0,0
			C108.7,84.4,84.4,108.7,54.3,108.7z M54.3,5.6C27.4,5.6,5.6,27.4,5.6,54.4s21.8,48.8,48.8,48.8s48.8-21.8,48.8-48.8c0,0,0,0,0,0
			C103.1,27.4,81.3,5.6,54.3,5.6z"/>
		
			<linearGradient id="SVGID_00000121253516048264500770000010311475242718338987_" gradientUnits="userSpaceOnUse" x1="50.6737" y1="68.5187" x2="68.3841" y2="37.8434">
			<stop  offset="0" style="stop-color:#CC00FF"/>
			<stop  offset="1" style="stop-color:#00A4DB"/>
		</linearGradient>
		<path style="fill:url(#SVGID_00000121253516048264500770000010311475242718338987_);" d="M47.1,65.6c-0.1-1.6,0-3.2,0.1-4.8
			c0.8-8.7,5.3-25.5,28.7-18.7c-4.1,8.4-7.4,22.8-27.1,25.3C52.3,62,58.1,52,63.6,50.6C60.3,49.4,49,62.2,47.1,65.6z"/>
		
			<linearGradient id="SVGID_00000070119244003798673990000013045183327542987954_" gradientUnits="userSpaceOnUse" x1="37.9523" y1="63.1496" x2="42.7756" y2="54.7954">
			<stop  offset="0" style="stop-color:#CC00FF"/>
			<stop  offset="1" style="stop-color:#00A4DB"/>
		</linearGradient>
		<path style="fill:url(#SVGID_00000070119244003798673990000013045183327542987954_);" d="M45.6,66.9c-4.5-1.2-8.3-4.3-10.2-8.5
			c-0.9-1.7-1.6-3.4-2.2-5.2c0,0,9.2-3.2,14,7.7l-0.1,4.8l-0.3,0.5c0,0-2-6.2-6.2-7.6C43.9,61.7,45.6,66.9,45.6,66.9z"/>
	</g>
</g>
</svg>
