<?xml version="1.0" encoding="utf-8"?>
<!-- Generator: Adobe Illustrator 26.0.1, SVG Export Plug-In . SVG Version: 6.00 Build 0)  -->
<svg version="1.1" id="Layer_1" xmlns="http://www.w3.org/2000/svg" xmlns:xlink="http://www.w3.org/1999/xlink" x="0px" y="0px"
	 viewBox="0 0 448.8 448.8" style="enable-background:new 0 0 448.8 448.8;" xml:space="preserve">
<style type="text/css">
	.st0{fill:url(#SVGID_1_);}
</style>
<g id="Layer_2_00000145770889414479666170000005502167045312791476_">
	<g id="Blockchain">
		<linearGradient id="SVGID_1_" gradientUnits="userSpaceOnUse" x1="90.6783" y1="455.9726" x2="358.0956" y2="-7.2077">
			<stop  offset="0" style="stop-color:#CC00FF"/>
			<stop  offset="1" style="stop-color:#00A4DB"/>
		</linearGradient>
		<path class="st0" d="M442.2,305.4L442.2,305.4l-62-35.8v-90.4l62-35.8c4.1-2.4,6.6-6.7,6.6-11.4V52.8c0-4.7-2.5-9.1-6.6-11.4
			c0,0-0.1,0-0.1,0L373.6,1.8c-4.1-2.4-9.1-2.4-13.2,0l-68.6,39.6c-4.1,2.4-6.6,6.7-6.6,11.4c0,0,0,0.1,0,0.1v15.7H163.6V52.8l0,0
			c0-4.7-2.5-9.1-6.6-11.4h-0.1L88.4,1.8c-4.1-2.4-9.1-2.4-13.2,0L6.6,41.4C2.5,43.7,0,48.1,0,52.8c0,0,0,0.1,0,0.1V132
			c0,4.7,2.5,9.1,6.6,11.4l62,35.8v90.4l-62,35.8c-4.1,2.4-6.6,6.7-6.6,11.4c0,0,0,0.1,0,0.1V396c0,4.7,2.5,9.1,6.6,11.4L75.2,447
			c4.1,2.4,9.1,2.4,13.2,0l0,0l68.6-39.6c4.1-2.4,6.6-6.7,6.6-11.4v-15.8h121.6V396c0,4.7,2.5,9.1,6.6,11.4l68.6,39.6
			c4.1,2.4,9.1,2.4,13.2,0l0.1-0.1l68.5-39.6c4.1-2.4,6.6-6.7,6.6-11.4v-79.2C448.8,312,446.3,307.7,442.2,305.4z M320.7,80.9
			l33.1,19.1v48.7l-42.2-24.4V75.7L320.7,80.9z M367,292.4l42.2,24.4l-2.7,1.6L367,341.1l-27.4-15.8l-14.8-8.6L367,292.4z
			 M422.4,124.4l-42.2,24.4V100l42.2-24.4L422.4,124.4z M367,28.4l42.2,24.4l-2.7,1.6L367,77.1l-27.4-15.8l-14.8-8.6L367,28.4z
			 M103.7,328.5l-21.9,12.6l-27.4-15.8l-14.8-8.6l42.2-24.4l42.2,24.4L103.7,328.5z M95,100l26-15l16.2-9.4v48.7L95,148.7V100z
			 M81.8,28.4L124,52.8l-20.3,11.7L81.8,77.1L54.5,61.3l-14.8-8.6L81.8,28.4z M26.4,75.7l32.8,18.9l9.4,5.4v48.7l-42.2-24.4V75.7z
			 M26.4,339.7l32.8,18.9l9.4,5.4v48.7l-42.2-24.4V339.7z M95,412.7V364l26-15l16.2-9.4v48.7L95,412.7z M163.6,353.8v-37l0,0
			c0-4.7-2.5-9.1-6.6-11.4h-0.1L95,269.6v-90.4l62-35.8c4.1-2.4,6.6-6.7,6.6-11.4V95h121.6v37c0,4.7,2.5,9.1,6.6,11.4l62,35.8v90.4
			l-62,35.8c-4.1,2.4-6.6,6.7-6.6,11.4c0,0,0,0.1,0,0.1v36.9H163.6z M311.6,367L311.6,367L311.6,367v-27.3l9,5.2l33.2,19.1v48.7
			l-42.2-24.4L311.6,367z M422.4,388.4l-42.2,24.4V364l42.2-24.4L422.4,388.4z"/>
	</g>
</g>
</svg>
