<svg xmlns="http://www.w3.org/2000/svg" viewBox="0 0 448.8 448.8"><defs><style>.cls-1{fill:#00a4db;}</style></defs><g id="Layer_2" data-name="Layer 2"><g id="Blockchain"><path class="cls-1" d="M442.2,305.35l-.08,0L380.2,269.57V179.21l62-35.8a13.2,13.2,0,0,0,6.6-11.43V52.78a13.19,13.19,0,0,0-6.6-11.43s-.06,0-.08,0L373.6,1.77a13.19,13.19,0,0,0-13.2,0L291.8,41.36a13.19,13.19,0,0,0-6.6,11.43s0,.08,0,.13V68.6H163.59V52.79h0A13.19,13.19,0,0,0,157,41.35l-.05,0L88.4,1.77a13.19,13.19,0,0,0-13.2,0L6.6,41.36A13.19,13.19,0,0,0,0,52.79s0,.08,0,.13V132a13.2,13.2,0,0,0,6.6,11.43l62,35.79v90.36l-62,35.79A13.19,13.19,0,0,0,0,316.79s0,.08,0,.13V396a13.2,13.2,0,0,0,6.6,11.43L75.2,447a13.19,13.19,0,0,0,13.2,0l0,0L157,407.41a13.2,13.2,0,0,0,6.6-11.43V380.2H285.22V396a13.18,13.18,0,0,0,6.6,11.43L360.41,447a13.19,13.19,0,0,0,13.2,0l.07-.06,68.51-39.56a13.2,13.2,0,0,0,6.6-11.43v-79.2A13.19,13.19,0,0,0,442.2,305.35ZM320.66,80.87,353.8,100v48.71l-42.17-24.36V75.66ZM367,292.43l42.19,24.36-2.73,1.57L367,341.14l-27.35-15.79-14.84-8.57Zm55.39-168.07-42.18,24.35V100l42.2-24.36ZM367,28.43l42.19,24.36-2.73,1.57L367,77.14,339.65,61.35l-14.84-8.57ZM103.68,328.51,81.8,341.14,54.45,325.35l-14.84-8.57L81.8,292.43,124,316.78ZM95,100l26-15,16.23-9.37v48.71L95,148.72ZM81.8,28.43,124,52.78,103.68,64.51,81.8,77.14,54.45,61.35,39.61,52.78ZM26.42,75.66,59.23,94.59,68.6,100v48.72L26.42,124.36Zm0,264,32.81,18.93L68.6,364v48.72L26.42,388.36ZM95,412.72V364l26-15,16.23-9.37v48.71Zm68.59-58.92v-37h0a13.19,13.19,0,0,0-6.6-11.43l-.05,0L95,269.58V179.21l62-35.8a13.2,13.2,0,0,0,6.6-11.43V95H285.22v37a13.18,13.18,0,0,0,6.6,11.43l62,35.78v90.38l-62,35.78a13.19,13.19,0,0,0-6.6,11.43s0,.08,0,.13V353.8Zm148,13.24s0,0,0,0,0,0,0,0v-27.3l9,5.21L353.8,364v48.71l-42.17-24.36Zm110.77,21.32-42.18,24.35V364l42.2-24.36Z"/></g></g></svg>