<?xml version="1.0" encoding="utf-8"?>
<!-- Generator: Adobe Illustrator 26.0.1, SVG Export Plug-In . SVG Version: 6.00 Build 0)  -->
<svg version="1.1" id="Layer_1" xmlns="http://www.w3.org/2000/svg" xmlns:xlink="http://www.w3.org/1999/xlink" x="0px" y="0px"
	 viewBox="0 0 144.6 141.8" style="enable-background:new 0 0 144.6 141.8;" xml:space="preserve">
<style type="text/css">
	.st0{fill:url(#SVGID_1_);}
	.st1{fill:url(#SVGID_00000095328169915612240380000007338538806011791769_);}
	.st2{fill:url(#SVGID_00000168115440512067303240000013750612803614186674_);}
	.st3{fill:url(#SVGID_00000166647435502245769820000012704372383421990805_);}
	.st4{fill:url(#SVGID_00000174583020034605515040000013801936827277188018_);}
	.st5{fill:url(#SVGID_00000161599587191674609240000014022553873325091724_);}
	.st6{fill:url(#SVGID_00000150086998213431914220000002383695331359640235_);}
	.st7{fill:url(#SVGID_00000099646709750966871860000014085115701043230123_);}
	.st8{fill:url(#SVGID_00000006697082355890214000000011646777197288107404_);}
	.st9{fill:url(#SVGID_00000114789673582407800080000011065150442581877907_);}
	.st10{fill:url(#SVGID_00000140731296779038985900000010521165548677895071_);}
	.st11{fill:url(#SVGID_00000176723248070642511380000007415221035990226866_);}
	.st12{fill:url(#SVGID_00000064319532233633081650000000799527667012742842_);}
	.st13{fill:url(#SVGID_00000107579060671474833820000008405179010347883912_);}
	.st14{fill:url(#SVGID_00000178194572019938546570000017018857166298039715_);}
	.st15{fill:url(#SVGID_00000103949630111153168620000018003562818441852605_);}
	.st16{fill:url(#SVGID_00000049185282280392937040000007437592073413996186_);}
	.st17{fill:url(#SVGID_00000142876696065153400040000004646737889681406126_);}
	.st18{fill:url(#SVGID_00000139988888830389259780000010621401694894601906_);}
	.st19{fill:url(#SVGID_00000083786877346222346690000000441852115044205216_);}
	.st20{fill:url(#SVGID_00000062907416476138464800000012809514902785476529_);}
	.st21{fill:url(#SVGID_00000001665675971451900280000000380708772249894312_);}
	.st22{fill:url(#SVGID_00000111169677430757978980000000664151172416416915_);}
	.st23{fill:url(#SVGID_00000021102995289257325130000013124714952438151089_);}
	.st24{fill:url(#SVGID_00000075864441111693395630000007178053066152890024_);}
	.st25{fill:url(#SVGID_00000163034207375007686080000013565701828841840797_);}
	.st26{fill:url(#SVGID_00000129186686070906026050000002743482061849187237_);}
	.st27{fill:url(#SVGID_00000049904672676532386390000013826775931573277606_);}
	.st28{fill:url(#SVGID_00000085238412151269205820000012421184624477778110_);}
	.st29{fill:url(#SVGID_00000083071330937025105690000017663163753669558407_);}
	.st30{fill:url(#SVGID_00000114073829057404173070000010822209167750396546_);}
	.st31{fill:url(#SVGID_00000032639759872518116280000004491117618190417599_);}
	.st32{fill:url(#SVGID_00000013886856999499157790000002208869059034885554_);}
	.st33{fill:url(#SVGID_00000108991265009306264640000016958965712608405691_);}
	.st34{fill:url(#SVGID_00000035522910384243925380000000184128334554934152_);}
	.st35{fill:url(#SVGID_00000054985345301269184050000007719387107333152187_);}
	.st36{fill:url(#SVGID_00000116954708027597529970000012628471609661375404_);}
	.st37{fill:url(#SVGID_00000053513448652344314450000010380152664598484159_);}
	.st38{fill:url(#SVGID_00000097466452787713728870000007103658473563444640_);}
	.st39{fill:url(#SVGID_00000150792900532434749630000018435872053713853578_);}
	.st40{fill:url(#SVGID_00000067927075562359620870000005941920390148076209_);}
	.st41{fill:url(#SVGID_00000150818022297768956400000005322297245303201928_);}
	.st42{fill:url(#SVGID_00000002383220337467153790000013395909933674339518_);}
	.st43{fill:url(#SVGID_00000138542609228150433250000017044687874758788006_);}
	.st44{fill:url(#SVGID_00000001664855222373020970000011346189996084753829_);}
	.st45{fill:url(#SVGID_00000183940417705294246300000010471577471872357001_);}
	.st46{fill:url(#SVGID_00000130641645286228787750000003817113153143809977_);}
	.st47{fill:url(#SVGID_00000006701236918824869030000004746259172056288433_);}
	.st48{fill:url(#SVGID_00000052071408143305969650000001125814719604735893_);}
	.st49{fill:url(#SVGID_00000103971497239554440800000003750638602701185981_);}
	.st50{fill:url(#SVGID_00000183944841004850199970000016362525091197550513_);}
	.st51{fill:url(#SVGID_00000149380214844451851010000010151929825302065284_);}
	.st52{fill:url(#SVGID_00000183961905412510324110000017541244822959356583_);}
	.st53{fill:url(#SVGID_00000010280341544066037270000018015899251289456772_);}
	.st54{fill:url(#SVGID_00000107585141270708108930000015914223434600802185_);}
	.st55{fill:url(#SVGID_00000055682783051101368780000006939960665775606413_);}
	.st56{fill:url(#SVGID_00000033356853141921844470000001655927874048243598_);}
	.st57{fill:url(#SVGID_00000015327743032664004150000017815840136508253346_);}
	.st58{fill:url(#SVGID_00000121255042598717229900000017453335764785309885_);}
	.st59{fill:url(#SVGID_00000044149684512222591000000007332173968157646000_);}
	.st60{fill:url(#SVGID_00000111883197322322025440000008459809429131452080_);}
</style>
<g id="Layer_2_00000165936415644615523920000015980088419032777624_">
	<g id="Layer_1-2">
		<linearGradient id="SVGID_1_" gradientUnits="userSpaceOnUse" x1="64.9836" y1="118.0915" x2="122.6339" y2="18.2382">
			<stop  offset="0" style="stop-color:#CC00FF"/>
			<stop  offset="1" style="stop-color:#00A4DB"/>
		</linearGradient>
		<path class="st0" d="M89.7,6.9c0.2-0.5,1.1-0.3,1.2-1.2c-3.1-0.9-6.2-2.1-9.2-3.5V1.3c6.7,1,13.3,2.7,19.6,5.3
			c6.7,2.8,13,6.6,18.5,11.4c6.6,5.7,12.1,12.5,16.3,20.1c1.4,2.5,2.6,5.2,3.5,7.9c0.6,1.8-0.2,3.9,0.3,6c1.2,5,1.2,10.2,2.5,15.2
			c0.2,0.9,0.1,1.9-0.3,2.8c-1.4-3-2.9-6-4.3-9c-0.3-0.7-0.3-1.7-1.4-0.5c-0.6,0.7-0.8-0.3-1.2-0.6c-2-1.7-2.8-1.6-4.4,0.4
			c-0.1,0.1-0.1,0.1-0.1,0.2c-1.6,1.9-6.9,2.6-9,1.1c-0.7-0.5-1.3-0.9-2-0.1s-0.1,1.3,0.4,1.9c1,1.1,2.2,1.9,3.2,3s2.6,0.6,3.1-0.9
			c0.2-0.5,0-1.8,0.7-1.4c1,0.7,3,0.1,3.1,1.9c0.2,2.9-0.4,5.8-1.7,8.3c-1.5,2.9-3.4,5.6-5.5,8c-1.2,1.3-1.7,1.3-2.1-0.2
			c-0.8-2.8-3.2-4.4-4.8-6.6c-2.1-2.9-5.1-5-7-8c-1.9,1.7-0.8,3.2,0.4,4.5c1.8,1.9,3.4,4.1,4.7,6.5c0.8,1.9,2.3,3.5,4.3,4.3
			c1.1,0.4,2,1.2,2.5,2.3c0.5,1.3,1.3,1.5,2.5,0.4s2.7-2.3,4.3-3.7c0.1,5.1-1.4,10.2-4.4,14.4c-2,2.8-3.7,5.7-5.2,8.8
			c-0.8,1.4-0.3,2.9,0.1,4.3c0.8,3.3,0,5.9-2.8,8c-2,1.4-4.3,2.8-4.1,5.8c0,0.4-0.2,0.7-0.5,1c-4.8,4.3-8.9,9.5-15.9,10.3
			c-1,0.2-2-0.1-2.6-0.9c-2.7-2.5-2.2-6.4-4.6-9c-1-1.1,0.3-2.7,1-3.8c0.5-0.9,1.8-1.6,1.4-2.6c-1-2.2-0.4-5.2-2.8-6.7
			s-2.7-3.4-2.1-5.9c0.6-2.3-0.6-3.6-3-3.1c-0.7,0.1-1.5,0.6-1.9-0.2c-1.8-3.1-4.3-1.3-6.4-0.8c-1.8,0.4-3.5,1.2-5.4,0.5
			c-0.9-0.3-1.9-0.2-2.8,0.2c-1.6,0.8-2.9,0.1-4.3-0.8c-3.3-2.1-4.8-5.8-7.4-8.6c-1.1-1.3-1.2-3.2-0.3-4.6c1-1.4,0.9-3.1,0.8-4.8
			c0-4,2.2-7.6,5.7-9.5c1.6-0.8,3-1.6,3-3.8c0-1.8,1.7-2.4,2.8-3.4s2.1-1.8,3.7-1.2c0.6,0.1,1.3,0.1,1.8-0.2
			c3.2-1.7,6.8-1.6,10.2-2.2c2.2-0.4,2.6,0.9,2.2,2.1c-0.5,1.9,0.8,2.6,1.8,2.5c2.5-0.2,4.1,1.7,6.3,2c1.2,0.1,2.4,0.5,2.2-1.6
			c-0.2-1.2,1-1.8,2.1-1.5c3.6,1.2,6.9-0.2,10.3-0.7c0.9-0.1,1.5-0.8,1.5-1.7c0.2-1.8,0-3.6-0.6-5.3c-0.2-0.5-0.8-1.3-1.1-0.8
			c-1,1.5-2.8,0.8-3.9,1.7H102c-0.3-1.6-1-3-2-4.3v-0.9c0.2,0,0.6,0,0.7-0.1c1.3-1.8,3.6-2.5,5.7-2c1.2,0.2,2.2-0.6,2.5-1.8
			c0.2-1.4-1-1.6-2-1.8c-2-0.5-3.7-1.1-2.9-3.8c-2.3,0.7-2.7,2.1-2,4.1c-2.9-2.2-2.9-2.2-4.4,1c0,0.1-0.1,0.1-0.2,0.2
			c-2.6-4.3-4.9-8.8-8.1-12.8l-1-1.9c0.2-0.2,0.4-0.5,0.6-0.7c0.5-0.5,2.2,0.1,1.6-1.3s-1.6-0.2-2.3,0.2c-0.3,0.2-0.5,0.3-0.8,0.5
			c-1.1-0.8-1.8-1.9-1.9-3.2c0.1-0.9,1.3-1.5,0.5-2.5c-0.2-0.2-0.5-0.3-0.8-0.3c-1,0.1-1,1-1.1,1.8l-2.8-3.5
			c0.7-1.9,2.6-3.5,3.8-2.8s2.2,0.5,3.4,0.6s2.8,0,2.9,1.3c0.2,1.2-1.7,0.1-2.2,1c2,2.2,3.5,2.4,3.7,0.7c0.1-1.5,0.6-3,1.5-4.3
			c1-1.3,1.4-3.2,3.4-4.1c1.6-0.8,2.1,1,3.2,0.5c-0.2-1-0.9-1.7-1.9-2c-3.6-1.2-5.7-4.2-8.2-6.7c-0.5-0.5-1.7-0.8-1.4-1.7
			c0.5-1.3,1.5,0.2,2.2-0.2c0.2-0.1,0.4-0.3,0.5-0.4c11.3,2.7,21.7,8.2,30.3,16.1c5.9,5.4,10.6,11.9,13.9,19.1
			c0.4,1.2,1,2.3,1.9,3.2c0.9-1.2,0-2-0.3-2.7c-4.6-10.1-11.8-18.8-20.7-25.3c-7.6-5.6-16.3-9.6-25.6-11.7L89.7,6.9z M113.3,43.9
			c0.4-0.7,0.2-1.6-0.5-2c-0.5-0.3-1-0.3-1.5,0c-1,0.5-1.5,3.7-0.8,4.6c1.6,2,4.4,2.8,5,5.9c0.2,1.1,2.2,0.9,3.3,0.2
			c1.4-0.8,0.4-1.7-0.1-2.5c-0.3-0.7-1.4-0.9-1.4-1.8c0-1.8-1-2.2-2.5-2.4c-0.9,0-1.7-0.7-1.7-1.6C113.2,44.2,113.2,44,113.3,43.9
			L113.3,43.9z"/>
		
			<linearGradient id="SVGID_00000060738287726469837110000010482838403572737457_" gradientUnits="userSpaceOnUse" x1="6.2904" y1="113.2874" x2="24.8936" y2="81.0657">
			<stop  offset="0" style="stop-color:#CC00FF"/>
			<stop  offset="1" style="stop-color:#00A4DB"/>
		</linearGradient>
		<path style="fill:url(#SVGID_00000060738287726469837110000010482838403572737457_);" d="M6.5,71.8c0.2,0.1,0.6,0.1,0.6,0.2
			c1.6,3.8,4.6,6.8,5.4,10.9c0.2,1.2,0.8,2.2,1.7,3c2.4,2.1,3.8,5.2,3.8,8.4c0,1.2,1.2,2,1.9,2.8c2.8,3.3,7.1,4.9,9.7,8.3
			c0.4,0.4,0.8,0.7,1.2,1c1.8,1.4,2.1,3.4,0.4,4.9c-1.5,1.2-2.2,3.2-1.5,5c0.7,2.6-0.4,3.7-3.1,3.4c-1.2-0.1-2,0.1-1.5,1.7
			c0.2,0.7,0.5,1.7-0.2,2.1s-1.1-0.6-1.6-1c-6.1-4.8-10-11.3-13.3-18.1C6.6,98,4.3,91,3,83.8c-0.6-3.6,0.4-6.9,0.8-10.3
			C4,73,4.1,72.4,4,71.9c-0.5-1.3,1-1.6,1.4-1.7C6.6,69.9,6.4,71,6.5,71.8c-0.5,0.3-0.6,0.9-0.3,1.3c0,0.1,0.1,0.1,0.1,0.2
			C6.7,72.8,6.5,72.3,6.5,71.8z"/>
		
			<linearGradient id="SVGID_00000053517883205517096390000006668917588733403065_" gradientUnits="userSpaceOnUse" x1="17.1894" y1="47.7604" x2="34.4227" y2="17.9116">
			<stop  offset="0" style="stop-color:#CC00FF"/>
			<stop  offset="1" style="stop-color:#00A4DB"/>
		</linearGradient>
		<path style="fill:url(#SVGID_00000053517883205517096390000006668917588733403065_);" d="M38,22.9c0.8-0.5,1.8-2.2,2.5-1.4
			c0.9,1-0.2,2.4-1.1,3.4c-2.3,1.4,0.6,1.8,0.5,2.8c-1.1,1.7-2.1,3.3-2.1,5.5c0.1,1.2-0.7,2.2-1.8,2.4c-1.2,0.1-2.6,0.6-3.6-0.9
			s-2.4-1-4.3-0.2c2.8,0.2,2.6,1.1,1.1,2.3c-0.5,0.4-0.7,1.1-0.6,1.7h-0.9c-1.5-0.6-3-0.9-4.4,0.4c-1,0.9-2.2,0.2-3.4,0.7
			c-0.9,0.4-1.6,0.6-2,1.5c-0.7,1.6-1.6,2.8-3.6,2.7c-0.8,0-1.6,0.6-2.5,1c-0.3-2.1-0.1-4.3-1.3-6.2c-0.4-0.7,0.5-1.6,0.9-2.3
			c2.6-4.4,5.7-8.6,9.2-12.3c0.7,0,1.3-0.6,1.4-1.3l0,0l0.5-0.4l0.5-0.5c1.5-0.2,2.8-1.3,3.3-2.8c2-0.8,3.7-2.5,6-1l0,0
			c-0.1,1,0.5,2,1.4,2.4c0,0.1,0,0.3,0,0.4c-1.3,2.1-2.2,4.4-4.2,6c-0.4,0.2-0.5,0.7-0.3,1.1c0,0,0,0.1,0.1,0.1
			c0.3,0.4,0.8,0.1,1-0.1c1.7-1.9,4.5-1.9,6.2-3.8c0.4,0.1,0.8-0.1,1-0.5l0,0L38,22.9z M27.4,34.9c0,0,0-0.1-0.1-0.1s-0.1,0-0.2,0
			l0.1,0.2L27.4,34.9z"/>
		
			<linearGradient id="SVGID_00000161613152528334123570000008455915134175299248_" gradientUnits="userSpaceOnUse" x1="74.6374" y1="68.0152" x2="91.1648" y2="39.3888">
			<stop  offset="0" style="stop-color:#CC00FF"/>
			<stop  offset="1" style="stop-color:#00A4DB"/>
		</linearGradient>
		<path style="fill:url(#SVGID_00000161613152528334123570000008455915134175299248_);" d="M88.8,59.1c-2.1-1.4-4.8-1.9-6.2-4.3
			c-0.2-0.4-0.9-0.8-1.1-0.7c-1.6,1-4.1,0.6-5,1.9c-1.2,1.7-3.4,2.7-3.8,5.3c-0.3,2.4-3.7,3-5.9,2.1c-2.7-1.1-2.7-2.7-1.7-4.7
			c0.5-1.1-0.5-2.8,0.9-3.4c1.1-0.5,2.4,0.2,3.6,0.5c2.2,0.4,3.4-1.3,2.6-3.6c-0.5-1.2-1.6-2.2-2.8-2.5c3.5-0.9,5.9-2.4,7.5-5
			c0.2-0.3,0.5-0.7,0.8-0.8c1.9-0.4,2.5-1.3,1.5-3.1c-0.3-0.5-0.3-1.2,0.5-1.2c0.6,0,0.6,0.5,0.7,1c0.4,2,1.9,2.7,4,1.7
			c0.6-0.3,1.1-0.8,1.6-0.9c1.8-0.2,2.3-1,1.7-2.7c-0.1-0.3,0.1-0.6,0.3-0.8l0.8,0.1c2.5,5.1,5.8,9.7,8.6,14.5l1,2.7
			c-0.4,0.7-1.1,0.5-1.7,0.6C95,56.2,94,57,95,58.8c0.2,0.4,0.3,0.9,0.4,1.3c0,0.4-0.1,0.7-0.3,1c-0.4,0.3-0.8-0.1-0.9-0.4
			c-0.7-1.7-3-2.4-3.1-4.5c0-0.6-0.7-0.8-1.2-1c-1.3-0.6-2.7-1-3.6-2.4c-0.3-0.5-1.3-1.2-2-0.3c-0.5,0.6-0.2,1.3,0.4,1.9
			c0.8,0.7,1.4,1.6,2.5,2.1C88.4,56.7,89.1,57.9,88.8,59.1L88.8,59.1z"/>
		
			<linearGradient id="SVGID_00000150813303818725942750000014977596701187083185_" gradientUnits="userSpaceOnUse" x1="52.2506" y1="32.7156" x2="64.114" y2="12.1675">
			<stop  offset="0" style="stop-color:#CC00FF"/>
			<stop  offset="1" style="stop-color:#00A4DB"/>
		</linearGradient>
		<path style="fill:url(#SVGID_00000150813303818725942750000014977596701187083185_);" d="M69,16.6c-1.6,2.8-3.5,5.3-5.8,7.5
			c-1.2,1.3-2.2,1.2-3.5,1.6c-3.3,1.2-7,1.3-9.7,4.1c-0.4,0.4-0.8,1.3-1.5,0.7s-1.2-1.1-0.9-2.2c0.7-2,1.7-4,3.4-4.9
			c2.6-1.5,4-4,6.1-5.8c0.7-0.4,1-1.2,0.8-2c-0.4-1.4,1-2,1.8-1.8c2.1,0.4,4-0.7,6-0.3l0,0c0,0.4-0.1,0.9,0.6,0.4l1.8,0.5L69,16.6z"
			/>
		
			<linearGradient id="SVGID_00000179642971744952998920000003089244809389465761_" gradientUnits="userSpaceOnUse" x1="37.0064" y1="20.7387" x2="46.7731" y2="3.8222">
			<stop  offset="0" style="stop-color:#CC00FF"/>
			<stop  offset="1" style="stop-color:#00A4DB"/>
		</linearGradient>
		<path style="fill:url(#SVGID_00000179642971744952998920000003089244809389465761_);" d="M52,6.8c-1.9,1.7-4.6,2.4-5.6,5.2
			c-0.4,1.2-0.5,1.7,1.2,1.5l0.2,0.6L46,15.4c-0.1,0.1-0.1,0.2-0.2,0.2l0.2-0.2l2.5,0.1c-1.3,0.8-2.2,1.3-3.2,1.1
			c-4.1-0.8-7.9-0.7-11.1,2.5l-1.8-1.4l0,0c0.1-0.8-2.2-1.2-0.5-2.3C38,11.4,44.7,8.2,52,6.8z"/>
		
			<linearGradient id="SVGID_00000034784341240396280260000013488227944897826966_" gradientUnits="userSpaceOnUse" x1="79.0852" y1="38.74" x2="84.3256" y2="29.6633">
			<stop  offset="0" style="stop-color:#CC00FF"/>
			<stop  offset="1" style="stop-color:#00A4DB"/>
		</linearGradient>
		<path style="fill:url(#SVGID_00000034784341240396280260000013488227944897826966_);" d="M83.6,31.8c-0.4,0.8-0.9,1.8-0.2,2.4
			c1.8,1.5,0.3,3.2,0.6,4.8c0.1,0.7-0.6,1.2-1.1,1.4c-0.8,0.4-0.9-0.6-1.3-1c-0.5-0.6-0.8-1.3-1.2-2c-0.2-0.3-0.6-0.9-1.1-0.3
			c-0.7,0.8-1.6,1.4-2.3,0.3s-1.1-2.8,0.1-3.9c1.8-1.6,2.5-3.7,3.2-5.9h0.4c0.8,1.4,1.8,2.6,2.9,3.7C83.6,31.5,83.6,31.6,83.6,31.8z
			"/>
		
			<linearGradient id="SVGID_00000137851651982498022530000005043506283632685214_" gradientUnits="userSpaceOnUse" x1="68.1557" y1="15.3992" x2="77.4792" y2="-0.7495">
			<stop  offset="0" style="stop-color:#CC00FF"/>
			<stop  offset="1" style="stop-color:#00A4DB"/>
		</linearGradient>
		<path style="fill:url(#SVGID_00000137851651982498022530000005043506283632685214_);" d="M68.1,14.4l-1.8-0.5l-0.6-0.4l0,0
			c-0.3-0.6-0.9-0.7-1.4-1c-0.7-1.3-2.1-1.6-3.2-2.3c-1.9-0.9-3.2-3-5.9-2.5C53.8,8,56,6.4,54.9,6.1c0-0.3,0-0.7,0-1L55.5,5
			c0.5,0,1,0.1,1.3-0.4l0,0c1.7-0.1,3.3,0.2,4.8-1h1.3C64,4.5,65.4,4.1,66.7,4c7.9-0.5,15.5,1,23,2.9l1.9,0.5c0,0.3,0,0.6,0,0.9
			C80.2,5.3,68.7,3.9,56.7,5.8c1.5,1.7,3.4,2.2,4.8,3.3C63.7,10.8,66.5,11.8,68.1,14.4L68.1,14.4z"/>
		
			<linearGradient id="SVGID_00000062909156958233773090000009278494750368433029_" gradientUnits="userSpaceOnUse" x1="21.9626" y1="23.5947" x2="36.6187" y2="-1.7902">
			<stop  offset="0" style="stop-color:#CC00FF"/>
			<stop  offset="1" style="stop-color:#00A4DB"/>
		</linearGradient>
		<path style="fill:url(#SVGID_00000062909156958233773090000009278494750368433029_);" d="M20.7,22.9c-1.2-3-1.4-6.4-0.6-9.5
			c0.3-1.2,1.1-2.3,2.5-2.1c1.8,0.2,2.4-0.9,3.2-2.1C29.9,2.8,36.2,0,42.6,1.6c-0.8,1-1.7,0.5-2.6,0.5C33.6,2,29.3,5.3,26,10.5
			c-0.6,1-0.5,1.6,0.6,2.2c1.2,0.5,2.2,1.3,2.9,2.3c-0.1,0.1-0.3,0.3-0.4,0.4c-1-0.7-2-1.5-3-2.2c-0.6-0.4-1.3-0.9-1.7,0.2
			c-0.9,2.8-2.5,5.4-2.4,8.6v0.5l0,0L20.7,22.9z M21.3,19.4c0.6-1.8,1.3-3.6,1.9-5.4c0.2-0.6,1.1-1.3,0.2-1.8s-1.7,0.1-2.1,0.9
			C20.1,15.1,20.6,17.2,21.3,19.4z"/>
		
			<linearGradient id="SVGID_00000039113005561111879030000007704725154425738625_" gradientUnits="userSpaceOnUse" x1="34.139" y1="23.2689" x2="47.2399" y2="0.5775">
			<stop  offset="0" style="stop-color:#CC00FF"/>
			<stop  offset="1" style="stop-color:#00A4DB"/>
		</linearGradient>
		<path style="fill:url(#SVGID_00000039113005561111879030000007704725154425738625_);" d="M29.1,15.4c0.1-0.1,0.3-0.3,0.4-0.4
			c2-0.2,3.4-1.6,5.1-2.5c2.4-1.3,4.4-3.2,7.2-3.7c0.3,0.1,0.7,0,0.8-0.4l0.2-0.1c2.6-0.8,5.1-1.7,7.7-2.2c1.3-0.3,1.8-0.8,1.6-2
			h0.5l2.3,1c0,0.3,0,0.7,0,1c-1,0.1-2,0.4-2.9,0.8c-7.4,1.4-14,4.5-20.2,8.6c-1.7,1.1,0.6,1.5,0.5,2.3c-2.3-1.5-4.1,0.3-6,1
			c-0.1-0.1-0.1-0.1-0.2-0.2C26.9,17.2,28.6,16.9,29.1,15.4z"/>
		
			<linearGradient id="SVGID_00000039104107997504400630000013800836742941209011_" gradientUnits="userSpaceOnUse" x1="43.7866" y1="24.291" x2="50.6241" y2="12.4482">
			<stop  offset="0" style="stop-color:#CC00FF"/>
			<stop  offset="1" style="stop-color:#00A4DB"/>
		</linearGradient>
		<path style="fill:url(#SVGID_00000039104107997504400630000013800836742941209011_);" d="M42.3,23.5c-0.4-1.6,1.5-2.4,1.1-4
			c-0.1-0.2,0.7,0,1,0c2.4,0.1,4.4-1.7,4.5-4.1c0.1-1.6,1.4-1.9,2.6-2.2c0.4-0.1,0.7,0.1,0.8,0.5c0,0.2,0,0.4-0.1,0.5
			c-1.1,1.5-0.8,3.9-2.8,4.9c-0.9,0.4-0.7,1.5-1.2,2.2c-0.4,0.5-1,2.1-1.6,0.1c0-0.2-0.3-0.4-0.5-0.4c-0.1,0-0.3,0.1-0.3,0.3
			C45.2,23.1,43.6,22.9,42.3,23.5z"/>
		
			<linearGradient id="SVGID_00000090276279141166144180000010183720130443829403_" gradientUnits="userSpaceOnUse" x1="118.8923" y1="121.336" x2="126.3382" y2="108.4393">
			<stop  offset="0" style="stop-color:#CC00FF"/>
			<stop  offset="1" style="stop-color:#00A4DB"/>
		</linearGradient>
		<path style="fill:url(#SVGID_00000090276279141166144180000010183720130443829403_);" d="M126.5,108.6c-0.8,3.8-2.7,6.6-4.4,9.4
			c-0.5,0.8-1,1.5-1.7,2.2c-0.5,0.5-1,1.6-1.8,1s0.1-1.5,0.4-2.1C120.8,115.1,123.4,111.5,126.5,108.6z"/>
		
			<linearGradient id="SVGID_00000066487178584693666080000003821326759057940396_" gradientUnits="userSpaceOnUse" x1="68.9592" y1="46.9886" x2="73.0923" y2="39.8297">
			<stop  offset="0" style="stop-color:#CC00FF"/>
			<stop  offset="1" style="stop-color:#00A4DB"/>
		</linearGradient>
		<path style="fill:url(#SVGID_00000066487178584693666080000003821326759057940396_);" d="M69.4,47.2c0-0.6,0-1.1,0.2-1.7
			c1.1-1.9,1.2-3.7-0.3-5.5c-0.4-0.5-0.2-1.3,0.3-1.7c0.1,0,0.2-0.1,0.2-0.1c0.7-0.2,1.8,0.7,1.7,1c-0.5,2.1,1.1,3.2,1.9,4.6
			c1.1,2.1,0.9,2.7-1.5,2.9C71.1,46.9,70.3,47.1,69.4,47.2z"/>
		
			<linearGradient id="SVGID_00000093147527621307790370000009071646664937536404_" gradientUnits="userSpaceOnUse" x1="56.8489" y1="6.4819" x2="60.961" y2="-0.6405">
			<stop  offset="0" style="stop-color:#CC00FF"/>
			<stop  offset="1" style="stop-color:#00A4DB"/>
		</linearGradient>
		<path style="fill:url(#SVGID_00000093147527621307790370000009071646664937536404_);" d="M54.9,5l-2.3-1c4.2-1.2,8.1-3.5,12.7-2.2
			C64.9,3,63,2,62.8,3.5h-1.3c-1.8-0.8-3.2,0.5-4.8,1l0,0c-0.5,0-1-0.1-1.3,0.4L54.9,5z"/>
		
			<linearGradient id="SVGID_00000026165383753730848570000015495388715322177169_" gradientUnits="userSpaceOnUse" x1="72.9839" y1="23.3861" x2="75.9349" y2="18.2749">
			<stop  offset="0" style="stop-color:#CC00FF"/>
			<stop  offset="1" style="stop-color:#00A4DB"/>
		</linearGradient>
		<path style="fill:url(#SVGID_00000026165383753730848570000015495388715322177169_);" d="M80.7,27.6h-0.4c-2.6-3.7-6-6.5-9-9.7
			c-0.6-0.6-1.4-1.1-2.3-1.3l-1-2.2l0,0c1.6-0.8,1.8,1,2.4,1.6c3.7,3.4,7.6,6.6,10.3,10.9C80.8,27.1,80.7,27.4,80.7,27.6z"/>
		
			<linearGradient id="SVGID_00000065772429621715800610000004871323417848980155_" gradientUnits="userSpaceOnUse" x1="44.6077" y1="9.3826" x2="48.7651" y2="2.1819">
			<stop  offset="0" style="stop-color:#CC00FF"/>
			<stop  offset="1" style="stop-color:#00A4DB"/>
		</linearGradient>
		<path style="fill:url(#SVGID_00000065772429621715800610000004871323417848980155_);" d="M52.1,4.1c0.1,1.2-0.4,1.7-1.6,2
			c-2.6,0.6-5.1,1.5-7.7,2.2c2.2-2,5.2-2.3,7.8-3.8c-1.6-0.8-3.4-1.4-5.2-1.7c-0.6-0.2-1.3-0.2-1.3-1l0,0C47,1.7,49.5,2.9,52.1,4.1z
			"/>
		
			<linearGradient id="SVGID_00000002361878237768539100000008284346693699562666_" gradientUnits="userSpaceOnUse" x1="59.4616" y1="14.3579" x2="61.7175" y2="10.4506">
			<stop  offset="0" style="stop-color:#CC00FF"/>
			<stop  offset="1" style="stop-color:#00A4DB"/>
		</linearGradient>
		<path style="fill:url(#SVGID_00000002361878237768539100000008284346693699562666_);" d="M61.1,10.2c1.1,0.7,2.5,1,3.2,2.3
			c-2.5,0.8-5.1,0.4-7.8,0.2C58.4,12.3,59.4,10.6,61.1,10.2z M61.4,11.5c-0.2-0.1-0.3-0.2-0.5-0.3c-0.1,0-0.3,0.1-0.4,0.1
			c0.2,0.2,0.4,0.3,0.6,0.4C61.1,11.8,61.2,11.6,61.4,11.5z"/>
		
			<linearGradient id="SVGID_00000041290813061439373950000008172453058018036653_" gradientUnits="userSpaceOnUse" x1="62.5532" y1="31.6516" x2="64.3129" y2="28.6038">
			<stop  offset="0" style="stop-color:#CC00FF"/>
			<stop  offset="1" style="stop-color:#00A4DB"/>
		</linearGradient>
		<path style="fill:url(#SVGID_00000041290813061439373950000008172453058018036653_);" d="M62,28.7c0.9,0.6,1.9,0.8,2.9,0.6
			c1.2-0.3,1,0.8,0.6,1.3c-0.7,1-1.9,1-2.9,0.9s-1.1-1-0.9-1.9C61.8,29.3,61.5,29,62,28.7z"/>
		
			<linearGradient id="SVGID_00000052825355035600942970000015209228779873603749_" gradientUnits="userSpaceOnUse" x1="76.9035" y1="3.0996" x2="78.8819" y2="-0.3271">
			<stop  offset="0" style="stop-color:#CC00FF"/>
			<stop  offset="1" style="stop-color:#00A4DB"/>
		</linearGradient>
		<path style="fill:url(#SVGID_00000052825355035600942970000015209228779873603749_);" d="M81.7,1.3v0.9c-2.7-0.5-5.4-0.4-8-0.9
			C76.4,0.2,79,0.7,81.7,1.3z"/>
		
			<linearGradient id="SVGID_00000065773916213415198120000017913439043623886244_" gradientUnits="userSpaceOnUse" x1="85.3813" y1="36.3931" x2="87.5109" y2="32.7045">
			<stop  offset="0" style="stop-color:#CC00FF"/>
			<stop  offset="1" style="stop-color:#00A4DB"/>
		</linearGradient>
		<path style="fill:url(#SVGID_00000065773916213415198120000017913439043623886244_);" d="M83.6,31.8c0-0.1,0-0.3,0-0.4h0.6
			l1.2,0.1c0.1,1.3,0.8,2.5,1.9,3.2l0.9,1.3l1,1.9h-0.6l-0.8-0.1C86.8,35.6,85.3,33.6,83.6,31.8z"/>
		
			<linearGradient id="SVGID_00000179618087252205784540000006813159979200325515_" gradientUnits="userSpaceOnUse" x1="33.2259" y1="40.1976" x2="34.9716" y2="37.1741">
			<stop  offset="0" style="stop-color:#CC00FF"/>
			<stop  offset="1" style="stop-color:#00A4DB"/>
		</linearGradient>
		<path style="fill:url(#SVGID_00000179618087252205784540000006813159979200325515_);" d="M34.7,37c-0.1,1.3,1.9,2.8-0.5,3.8l0,0
			c-0.6-0.8-2.1-1-1.8-2.4C32.7,37.4,33.7,37.2,34.7,37L34.7,37z"/>
		
			<linearGradient id="SVGID_00000062889640353750397620000010306982742140490430_" gradientUnits="userSpaceOnUse" x1="66.3111" y1="45.3968" x2="68.2852" y2="41.9774">
			<stop  offset="0" style="stop-color:#CC00FF"/>
			<stop  offset="1" style="stop-color:#00A4DB"/>
		</linearGradient>
		<path style="fill:url(#SVGID_00000062889640353750397620000010306982742140490430_);" d="M68.5,43.3c0,1.3-0.9,1.8-1.9,2
			c-0.7,0.1-0.7-0.3-0.6-0.9c0.2-1.2,0.5-2.4,1.9-2.5C68.8,41.9,68.4,42.8,68.5,43.3z"/>
		
			<linearGradient id="SVGID_00000081639890104008842940000014587419576823588750_" gradientUnits="userSpaceOnUse" x1="102.1059" y1="64.4233" x2="104.0723" y2="61.0174">
			<stop  offset="0" style="stop-color:#CC00FF"/>
			<stop  offset="1" style="stop-color:#00A4DB"/>
		</linearGradient>
		<path style="fill:url(#SVGID_00000081639890104008842940000014587419576823588750_);" d="M101.9,60h0.4l2.3,5.2l-0.6,0.3
			c-1.1-1.5-2-3.3-2.6-5.1L101.9,60z"/>
		
			<linearGradient id="SVGID_00000005243908518690385390000003394982150964816797_" gradientUnits="userSpaceOnUse" x1="99.1829" y1="59.3124" x2="100.5684" y2="56.9126">
			<stop  offset="0" style="stop-color:#CC00FF"/>
			<stop  offset="1" style="stop-color:#00A4DB"/>
		</linearGradient>
		<path style="fill:url(#SVGID_00000005243908518690385390000003394982150964816797_);" d="M101,60c-2.3-0.4-3.1-1.8-2.2-3.8
			l0.7,0.1L101,60z"/>
		
			<linearGradient id="SVGID_00000090292095924793621830000000768406283036199338_" gradientUnits="userSpaceOnUse" x1="2.0557" y1="62.065" x2="4.8443" y2="57.235">
			<stop  offset="0" style="stop-color:#CC00FF"/>
			<stop  offset="1" style="stop-color:#00A4DB"/>
		</linearGradient>
		<path style="fill:url(#SVGID_00000090292095924793621830000000768406283036199338_);" d="M3.5,62.9c-0.6-2.3,0.6-4,0-6.4
			C4.9,58.5,4.9,59.5,3.5,62.9z"/>
		
			<linearGradient id="SVGID_00000052061987154799773590000005635999172236538786_" gradientUnits="userSpaceOnUse" x1="3.9031" y1="54.6366" x2="6.2564" y2="50.5606">
			<stop  offset="0" style="stop-color:#CC00FF"/>
			<stop  offset="1" style="stop-color:#00A4DB"/>
		</linearGradient>
		<path style="fill:url(#SVGID_00000052061987154799773590000005635999172236538786_);" d="M4.3,54.9c0.2-1.6-0.2-3.5,2-4.3
			C6.3,52.1,6.3,52.1,4.3,54.9z"/>
		
			<linearGradient id="SVGID_00000016043194774080563690000006787591457845902466_" gradientUnits="userSpaceOnUse" x1="49.6567" y1="11.2102" x2="51.307" y2="8.3517">
			<stop  offset="0" style="stop-color:#CC00FF"/>
			<stop  offset="1" style="stop-color:#00A4DB"/>
		</linearGradient>
		<path style="fill:url(#SVGID_00000016043194774080563690000006787591457845902466_);" d="M49.8,10.9c-0.7,0.1-1-0.2-0.9-0.6
			c0.3-1.1,1.3-1.4,2.2-1.7c0.3-0.1,1-0.1,0.9,0.6C51.9,10.8,50.2,10.1,49.8,10.9z"/>
		
			<linearGradient id="SVGID_00000029026681941836035230000013219440003202561953_" gradientUnits="userSpaceOnUse" x1="97.6884" y1="55.6186" x2="99.1078" y2="53.1602">
			<stop  offset="0" style="stop-color:#CC00FF"/>
			<stop  offset="1" style="stop-color:#00A4DB"/>
		</linearGradient>
		<path style="fill:url(#SVGID_00000029026681941836035230000013219440003202561953_);" d="M99.5,56.3l-0.7-0.1l-0.6-1l-1-2.7
			l0.7-0.1c1.1,0.4,1,2,2.1,2.4c0,0.3,0,0.6,0,0.9L99.5,56.3z"/>
		
			<linearGradient id="SVGID_00000161612129726212363690000017174441153499963564_" gradientUnits="userSpaceOnUse" x1="99.8748" y1="59.5706" x2="101.5518" y2="56.6659">
			<stop  offset="0" style="stop-color:#CC00FF"/>
			<stop  offset="1" style="stop-color:#00A4DB"/>
		</linearGradient>
		<path style="fill:url(#SVGID_00000161612129726212363690000017174441153499963564_);" d="M99.5,56.3l0.5-0.5
			c0.9,1.3,1.6,2.7,1.9,4.2l-0.5,0.5L101,60C100.5,58.8,100,57.5,99.5,56.3z"/>
		
			<linearGradient id="SVGID_00000178189098967904222950000010370562997690426802_" gradientUnits="userSpaceOnUse" x1="34.8457" y1="22.4091" x2="35.7752" y2="20.7992">
			<stop  offset="0" style="stop-color:#CC00FF"/>
			<stop  offset="1" style="stop-color:#00A4DB"/>
		</linearGradient>
		<path style="fill:url(#SVGID_00000178189098967904222950000010370562997690426802_);" d="M33.8,20.5c0-0.1,0-0.3,0-0.4h0.6
			c1.3,0.5,2.2,1.5,2.6,2.8l0,0l-0.5,0.5C35.8,22.3,34.9,21.3,33.8,20.5z"/>
		
			<linearGradient id="SVGID_00000092418121148236002040000009174050424500012174_" gradientUnits="userSpaceOnUse" x1="27.8191" y1="40.4911" x2="28.8973" y2="38.6236">
			<stop  offset="0" style="stop-color:#CC00FF"/>
			<stop  offset="1" style="stop-color:#00A4DB"/>
		</linearGradient>
		<path style="fill:url(#SVGID_00000092418121148236002040000009174050424500012174_);" d="M27.6,38.4h0.9c0,0.8,0.9,0.9,1.5,1.5
			c-1.4,0.8-2.3-0.3-3.4-0.1C26.6,38.9,27.5,38.9,27.6,38.4z"/>
		
			<linearGradient id="SVGID_00000159428312234362654010000015014324808770298802_" gradientUnits="userSpaceOnUse" x1="32.9463" y1="19.5502" x2="33.615" y2="18.3919">
			<stop  offset="0" style="stop-color:#CC00FF"/>
			<stop  offset="1" style="stop-color:#00A4DB"/>
		</linearGradient>
		<path style="fill:url(#SVGID_00000159428312234362654010000015014324808770298802_);" d="M34.4,20h-0.6c-0.9-0.4-1.5-1.3-1.4-2.4
			l1.8,1.4C34.2,19.4,34.3,19.7,34.4,20z"/>
		
			<linearGradient id="SVGID_00000078737539641534132580000001460854302664818341_" gradientUnits="userSpaceOnUse" x1="20.7439" y1="23.88" x2="21.6814" y2="22.2561">
			<stop  offset="0" style="stop-color:#CC00FF"/>
			<stop  offset="1" style="stop-color:#00A4DB"/>
		</linearGradient>
		<path style="fill:url(#SVGID_00000078737539641534132580000001460854302664818341_);" d="M20.7,22.9l1.3-0.4
			c0,0.8-0.6,1.4-1.4,1.4c0,0,0,0,0,0L20.7,22.9z"/>
		
			<linearGradient id="SVGID_00000046302412222013287330000008361239192653033094_" gradientUnits="userSpaceOnUse" x1="43.8234" y1="1.7559" x2="43.9419" y2="1.5508">
			<stop  offset="0" style="stop-color:#CC00FF"/>
			<stop  offset="1" style="stop-color:#00A4DB"/>
		</linearGradient>
		<path style="fill:url(#SVGID_00000046302412222013287330000008361239192653033094_);" d="M44.1,1.7l-0.5-0.1l0.1-0.2L44.1,1.7
			L44.1,1.7z"/>
		
			<linearGradient id="SVGID_00000130642532659304230310000005654168514869377432_" gradientUnits="userSpaceOnUse" x1="42.0061" y1="8.8563" x2="42.3651" y2="8.2344">
			<stop  offset="0" style="stop-color:#CC00FF"/>
			<stop  offset="1" style="stop-color:#00A4DB"/>
		</linearGradient>
		<path style="fill:url(#SVGID_00000130642532659304230310000005654168514869377432_);" d="M42.6,8.4c-0.2,0.3-0.5,0.5-0.8,0.4
			C41.9,8.4,42.3,8.3,42.6,8.4z"/>
		
			<linearGradient id="SVGID_00000086653198550731320030000009095443761839686845_" gradientUnits="userSpaceOnUse" x1="33.9177" y1="41.2636" x2="34.2157" y2="40.7475">
			<stop  offset="0" style="stop-color:#CC00FF"/>
			<stop  offset="1" style="stop-color:#00A4DB"/>
		</linearGradient>
		<path style="fill:url(#SVGID_00000086653198550731320030000009095443761839686845_);" d="M34.2,40.7L34,41.3
			C33.6,41,34,40.9,34.2,40.7L34.2,40.7z"/>
		
			<linearGradient id="SVGID_00000165949442061895881560000005223596317428990087_" gradientUnits="userSpaceOnUse" x1="88.7751" y1="59.555" x2="88.9788" y2="59.2021">
			<stop  offset="0" style="stop-color:#CC00FF"/>
			<stop  offset="1" style="stop-color:#00A4DB"/>
		</linearGradient>
		<path style="fill:url(#SVGID_00000165949442061895881560000005223596317428990087_);" d="M88.7,59.1l0.3,0.5
			C88.5,59.7,88.8,59.2,88.7,59.1L88.7,59.1z"/>
		
			<linearGradient id="SVGID_00000005233438172895066650000004312177268059548087_" gradientUnits="userSpaceOnUse" x1="34.6782" y1="36.9932" x2="34.7898" y2="36.7999">
			<stop  offset="0" style="stop-color:#CC00FF"/>
			<stop  offset="1" style="stop-color:#00A4DB"/>
		</linearGradient>
		<path style="fill:url(#SVGID_00000005233438172895066650000004312177268059548087_);" d="M34.7,37l0.1-0.2L34.7,37L34.7,37z"/>
		
			<linearGradient id="SVGID_00000152957450987800651110000017253099298147022254_" gradientUnits="userSpaceOnUse" x1="37.49" y1="23.3427" x2="37.8265" y2="22.7598">
			<stop  offset="0" style="stop-color:#CC00FF"/>
			<stop  offset="1" style="stop-color:#00A4DB"/>
		</linearGradient>
		<path style="fill:url(#SVGID_00000152957450987800651110000017253099298147022254_);" d="M38,22.9l-0.5,0.5v-0.5L38,22.9z"/>
		
			<linearGradient id="SVGID_00000127016123821409518140000008959674965896092823_" gradientUnits="userSpaceOnUse" x1="37.2107" y1="23.193" x2="37.4143" y2="22.8405">
			<stop  offset="0" style="stop-color:#CC00FF"/>
			<stop  offset="1" style="stop-color:#00A4DB"/>
		</linearGradient>
		<path style="fill:url(#SVGID_00000127016123821409518140000008959674965896092823_);" d="M37.5,22.9v0.5l0,0L37,22.9H37.5
			L37.5,22.9z"/>
		
			<linearGradient id="SVGID_00000096743830981356244240000000387609153148283520_" gradientUnits="userSpaceOnUse" x1="112.0472" y1="32.1869" x2="119.1869" y2="19.8206">
			<stop  offset="0" style="stop-color:#CC00FF"/>
			<stop  offset="1" style="stop-color:#00A4DB"/>
		</linearGradient>
		<path style="fill:url(#SVGID_00000096743830981356244240000000387609153148283520_);" d="M92.1,8.7l-0.5-0.4c0-0.3,0-0.6,0-0.9
			c9.2,2.1,18,6.1,25.6,11.8c8.9,6.6,16,15.3,20.7,25.3c0.4,0.8,1.2,1.5,0.3,2.7c-0.8-0.9-1.4-2-1.9-3.2c-3.3-7.3-8-13.8-13.9-19.2
			C113.8,16.9,103.4,11.4,92.1,8.7z"/>
		
			<linearGradient id="SVGID_00000093171737095762699030000008275815283917002917_" gradientUnits="userSpaceOnUse" x1="91.0983" y1="48.9914" x2="95.3882" y2="41.5612">
			<stop  offset="0" style="stop-color:#CC00FF"/>
			<stop  offset="1" style="stop-color:#00A4DB"/>
		</linearGradient>
		<path style="fill:url(#SVGID_00000093171737095762699030000008275815283917002917_);" d="M97.3,50.7c0.2,0.6,0.4,1.2,0.6,1.8
			l-0.7,0.1c-2.8-4.9-6.1-9.5-8.6-14.5h0.6C92.4,41.9,94.7,46.4,97.3,50.7z"/>
		
			<linearGradient id="SVGID_00000022560307054286915770000003126162203677242788_" gradientUnits="userSpaceOnUse" x1="81.8078" y1="30.2753" x2="83.1105" y2="28.0188">
			<stop  offset="0" style="stop-color:#CC00FF"/>
			<stop  offset="1" style="stop-color:#00A4DB"/>
		</linearGradient>
		<path style="fill:url(#SVGID_00000022560307054286915770000003126162203677242788_);" d="M84,30.4l0.2,0.9h-0.6
			c-1.1-1.1-2.1-2.4-2.9-3.7c0-0.2,0-0.5,0.1-0.7c0.1,0.1,0.3,0.1,0.4,0L84,30.4z"/>
		
			<linearGradient id="SVGID_00000084498245157433002250000008584975747084721030_" gradientUnits="userSpaceOnUse" x1="23.5856" y1="21.8781" x2="25.6714" y2="18.2652">
			<stop  offset="0" style="stop-color:#CC00FF"/>
			<stop  offset="1" style="stop-color:#00A4DB"/>
		</linearGradient>
		<path style="fill:url(#SVGID_00000084498245157433002250000008584975747084721030_);" d="M26.3,18.7c-0.5,1.5-1.8,2.6-3.3,2.8
			l-0.1-0.1c0.9-1.2,2-2.1,3.3-2.9C26.2,18.6,26.2,18.7,26.3,18.7z"/>
		
			<linearGradient id="SVGID_00000109730564506728176810000000422483690010715033_" gradientUnits="userSpaceOnUse" x1="36.6795" y1="23.8978" x2="37.196" y2="23.0032">
			<stop  offset="0" style="stop-color:#CC00FF"/>
			<stop  offset="1" style="stop-color:#00A4DB"/>
		</linearGradient>
		<path style="fill:url(#SVGID_00000109730564506728176810000000422483690010715033_);" d="M36.5,23.8v-0.4l0.5-0.5l0.5,0.5
			C37.3,23.7,36.9,23.8,36.5,23.8z"/>
		
			<linearGradient id="SVGID_00000062184234122571032490000013411703269284051381_" gradientUnits="userSpaceOnUse" x1="22.517" y1="21.9983" x2="22.8643" y2="21.3967">
			<stop  offset="0" style="stop-color:#CC00FF"/>
			<stop  offset="1" style="stop-color:#00A4DB"/>
		</linearGradient>
		<path style="fill:url(#SVGID_00000062184234122571032490000013411703269284051381_);" d="M23,21.5L22.5,22l-0.1-0.2l0.5-0.4
			L23,21.5z"/>
		
			<linearGradient id="SVGID_00000119089265904112998200000006633908033402326203_" gradientUnits="userSpaceOnUse" x1="22.0056" y1="22.4433" x2="22.3406" y2="21.863">
			<stop  offset="0" style="stop-color:#CC00FF"/>
			<stop  offset="1" style="stop-color:#00A4DB"/>
		</linearGradient>
		<path style="fill:url(#SVGID_00000119089265904112998200000006633908033402326203_);" d="M22,22.4V22c0.1-0.1,0.2-0.1,0.4-0.1
			l0.1,0.2L22,22.4z"/>
		
			<linearGradient id="SVGID_00000162347280025196953220000007189389464405388688_" gradientUnits="userSpaceOnUse" x1="95.4237" y1="18.2324" x2="95.854" y2="17.487">
			<stop  offset="0" style="stop-color:#CC00FF"/>
			<stop  offset="1" style="stop-color:#00A4DB"/>
		</linearGradient>
		<path style="fill:url(#SVGID_00000162347280025196953220000007189389464405388688_);" d="M97,18.5c-1.1,0.3-1.7-0.2-2.7-1.2
			C95.3,17.1,96.4,17.6,97,18.5z"/>
		
			<linearGradient id="SVGID_00000137097221026685954690000000047059939367676089_" gradientUnits="userSpaceOnUse" x1="88.3153" y1="16.8428" x2="89.0853" y2="15.5091">
			<stop  offset="0" style="stop-color:#CC00FF"/>
			<stop  offset="1" style="stop-color:#00A4DB"/>
		</linearGradient>
		<path style="fill:url(#SVGID_00000137097221026685954690000000047059939367676089_);" d="M88.8,17.1c-0.6-0.4-0.7-1.2-0.4-1.8
			c0-0.1,0.3-0.1,0.4-0.1C89.3,15.8,89.3,16.6,88.8,17.1z"/>
		
			<linearGradient id="SVGID_00000169519448047003280000000014832967515438104762_" gradientUnits="userSpaceOnUse" x1="91.5004" y1="20.1878" x2="91.8493" y2="19.5835">
			<stop  offset="0" style="stop-color:#CC00FF"/>
			<stop  offset="1" style="stop-color:#00A4DB"/>
		</linearGradient>
		<path style="fill:url(#SVGID_00000169519448047003280000000014832967515438104762_);" d="M91.4,19.6c0.4,0,0.7,0,0.8,0.4
			c0,0.1-0.3,0.4-0.4,0.3c-0.3-0.1-0.5-0.3-0.8-0.4L91.4,19.6z"/>
		
			<linearGradient id="SVGID_00000105384701309420465690000014721133177622124989_" gradientUnits="userSpaceOnUse" x1="89.8571" y1="18.7919" x2="90.1506" y2="18.2837">
			<stop  offset="0" style="stop-color:#CC00FF"/>
			<stop  offset="1" style="stop-color:#00A4DB"/>
		</linearGradient>
		<path style="fill:url(#SVGID_00000105384701309420465690000014721133177622124989_);" d="M89.7,18.2c0.4,0.1,0.7,0.1,0.7,0.6
			c0,0-0.1,0.1-0.2,0.1C89.8,18.9,89.7,18.5,89.7,18.2L89.7,18.2z"/>
		
			<linearGradient id="SVGID_00000070837908061875226020000014171282178335490453_" gradientUnits="userSpaceOnUse" x1="89.5583" y1="18.1413" x2="89.5999" y2="18.0692">
			<stop  offset="0" style="stop-color:#CC00FF"/>
			<stop  offset="1" style="stop-color:#00A4DB"/>
		</linearGradient>
		<path style="fill:url(#SVGID_00000070837908061875226020000014171282178335490453_);" d="M89.7,18.2L89.5,18L89.7,18.2L89.7,18.2z
			"/>
		
			<linearGradient id="SVGID_00000142159393913478144950000014795209555737325997_" gradientUnits="userSpaceOnUse" x1="36.6679" y1="132.605" x2="107.9087" y2="9.2123">
			<stop  offset="0" style="stop-color:#CC00FF"/>
			<stop  offset="1" style="stop-color:#00A4DB"/>
		</linearGradient>
		<path style="fill:url(#SVGID_00000142159393913478144950000014795209555737325997_);" d="M72.3,141.8C32.4,141.8,0,110,0,70.9
			S32.4,0,72.3,0s72.3,31.8,72.3,70.9S112.2,141.8,72.3,141.8z M72.3,3.1C34.2,3.1,3.1,33.5,3.1,70.9s31,67.8,69.2,67.8
			s69.2-30.4,69.2-67.8S110.4,3.1,72.3,3.1z"/>
		
			<linearGradient id="SVGID_00000039093881774521544110000002827503847370361490_" gradientUnits="userSpaceOnUse" x1="76.515" y1="147.397" x2="116.2773" y2="78.5268">
			<stop  offset="0" style="stop-color:#CC00FF"/>
			<stop  offset="1" style="stop-color:#00A4DB"/>
		</linearGradient>
		<polygon style="fill:url(#SVGID_00000039093881774521544110000002827503847370361490_);" points="63.7,86.5 59.8,105.1 
			58.9,137.2 128.8,139.9 130.3,128.7 122.8,82.3 		"/>
		
			<linearGradient id="SVGID_00000084513881921779512990000016889254324449201833_" gradientUnits="userSpaceOnUse" x1="80.6032" y1="113.0737" x2="111.2756" y2="59.9476">
			<stop  offset="0" style="stop-color:#CC00FF"/>
			<stop  offset="1" style="stop-color:#00A4DB"/>
		</linearGradient>
		<path style="fill:url(#SVGID_00000084513881921779512990000016889254324449201833_);" d="M56.9,86v9.8c0,0-0.1,5.9,6.5,6.2
			s8.1-7.3,8.1-7.3s1.3,7,8.1,6.8s7.5-7.5,7.5-7.5s0.2,7.7,7.8,8s6.5-7.9,6.5-7.9s1.7,8,8.6,8s6.6-8.2,6.6-8.2s0.7,7.8,8.4,8
			s6.8-9.1,6.8-9.1V81.7l-9.7-15.6h-55L56.6,82.4L56.9,86z"/>
		
			<linearGradient id="SVGID_00000163036938781916498210000017673302062948374933_" gradientUnits="userSpaceOnUse" x1="79.3416" y1="115.193" x2="112.507" y2="57.7489">
			<stop  offset="0" style="stop-color:#CC00FF"/>
			<stop  offset="1" style="stop-color:#00A4DB"/>
		</linearGradient>
		<path style="fill:url(#SVGID_00000163036938781916498210000017673302062948374933_);" d="M109.7,104.6c-2.9,0-5.6-1.2-7.5-3.4
			c-0.2,0.3-0.4,0.5-0.6,0.7c-1.8,1.9-4.3,2.8-6.9,2.6c-3.1,0-6.1-1.4-8-3.9c-1.8,2.1-4.4,3.4-7.2,3.4c-3.1,0.1-6-1.2-8-3.5
			c-1.9,2.7-5,4.2-8.2,4c-6.6-0.3-8.9-5.4-8.9-8.7v-9.7l-0.3-3.5c0-0.6,0.1-1.1,0.4-1.6l10.3-16.3c0.5-0.7,1.3-1.2,2.1-1.2h55
			c0.9,0,1.7,0.5,2.1,1.2l9.7,15.6c0.2,0.4,0.4,0.8,0.4,1.3v11c0.1,1,0.3,5.8-2.6,9.1c-1.7,1.9-4.2,2.8-6.7,2.7
			c-3,0.1-5.9-1.2-7.9-3.4c-0.3,0.4-0.5,0.7-0.8,1c-1.6,1.7-3.9,2.6-6.2,2.6H109.7z M101.3,91.7c1.2,0,2.2,0.8,2.4,2
			c0,0.2,1.3,6,6,6h0.1c1,0.1,2-0.3,2.7-1c1.5-1.6,1.4-4.5,1.4-4.6c-0.1-1.3,1-2.5,2.3-2.6c1.3-0.1,2.5,0.9,2.6,2.3
			c0.1,0.9,0.8,5.6,6,5.7c1.1,0.1,2.2-0.2,3-1c1.4-1.5,1.4-4.4,1.3-5.3c0-0.1,0-0.2,0-0.2V82.4l-8.6-13.8H68.3L59.1,83l0.2,2.8
			c0,0.1,0,0.1,0,0.2v9.8c0,1.1,0.4,3.5,4.1,3.7c4.3,0.2,5.4-4.7,5.5-5.3c0.2-1.2,1.3-2,2.5-2c1.2,0,2.2,0.8,2.4,2
			c0.1,0.5,1.1,4.7,5.3,4.7h0.2c4.4-0.1,5-4.7,5.1-5.2c0.1-1.4,1.2-2.5,2.6-2.4s2.5,1.2,2.4,2.6l0,0c0,3,2.4,5.5,5.4,5.5
			c0,0,0,0,0.1,0c2.1,0.1,2.8-0.7,3-0.9c1-1.2,1-3.4,0.9-4.1c-0.2-1.3,0.7-2.5,2-2.8C101,91.7,101.1,91.7,101.3,91.7z"/>
		
			<linearGradient id="SVGID_00000070802493890525354780000008410258830159697845_" gradientUnits="userSpaceOnUse" x1="83.7148" y1="101.7261" x2="104.9452" y2="64.9539">
			<stop  offset="0" style="stop-color:#CC00FF"/>
			<stop  offset="1" style="stop-color:#00A4DB"/>
		</linearGradient>
		<path style="fill:url(#SVGID_00000070802493890525354780000008410258830159697845_);" d="M131.8,85.8H56.9c-1.4,0-2.5-1.1-2.5-2.5
			s1.1-2.5,2.5-2.5l0,0h74.9c1.4,0,2.5,1.1,2.5,2.5S133.2,85.8,131.8,85.8z"/>
		
			<linearGradient id="SVGID_00000136370825904824881060000016958485351508646582_" gradientUnits="userSpaceOnUse" x1="75.5243" y1="151.0638" x2="112.1067" y2="87.7013">
			<stop  offset="0" style="stop-color:#CC00FF"/>
			<stop  offset="1" style="stop-color:#00A4DB"/>
		</linearGradient>
		<path style="fill:url(#SVGID_00000136370825904824881060000016958485351508646582_);" d="M129.1,140.9H58.6
			c-1.4,0-2.5-1.1-2.5-2.5l0,0V100c0-1.4,1.1-2.5,2.5-2.5s2.5,1.1,2.5,2.5v36h65.5v-35.6c0-1.4,1.1-2.5,2.5-2.5
			c1.4,0,2.5,1.1,2.5,2.5v38C131.7,139.8,130.6,140.9,129.1,140.9C129.2,140.9,129.2,140.9,129.1,140.9z"/>
		
			<linearGradient id="SVGID_00000087413319823579143960000006160527240223960728_" gradientUnits="userSpaceOnUse" x1="80.676" y1="137.6582" x2="108.211" y2="89.9662">
			<stop  offset="0" style="stop-color:#CC00FF"/>
			<stop  offset="1" style="stop-color:#00A4DB"/>
		</linearGradient>
		<path style="fill:url(#SVGID_00000087413319823579143960000006160527240223960728_);" d="M122.2,129.1H66.6
			c-1.4,0-2.5-1.1-2.5-2.5v-25.5c0-1.4,1.1-2.5,2.5-2.5s2.5,1.1,2.5,2.5l0,0v23h50.6v-23.2c0-1.4,1.1-2.5,2.5-2.5s2.5,1.1,2.5,2.5
			v25.7C124.7,128,123.6,129.1,122.2,129.1C122.2,129.1,122.2,129.1,122.2,129.1z"/>
		
			<linearGradient id="SVGID_00000124876583637478699720000016129309132636207779_" gradientUnits="userSpaceOnUse" x1="51.4048" y1="68.6252" x2="79.9838" y2="19.1249">
			<stop  offset="0" style="stop-color:#CC00FF"/>
			<stop  offset="1" style="stop-color:#00A4DB"/>
		</linearGradient>
		<path style="fill:url(#SVGID_00000124876583637478699720000016129309132636207779_);" d="M104.4,86.3c-0.5,0-0.9-0.3-1.1-0.8
			c-10.4-40-36-76.8-57-81.9c-5.9-1.4-10.8-0.8-14.8,1.9c-2.4,1.7-4.4,3.9-5.8,6.5c1.2,0.4,2.5,0.8,3.6,1.4
			c10.8,5,54.3,40.2,54,71.8c0,0.6-0.5,1.1-1.1,1.1l0,0c-0.6,0-1.1-0.5-1.1-1.1c0.3-28.6-39.9-63.8-52.8-69.8
			c-1.2-0.6-2.4-1-3.7-1.3c-1.2,2.6-2.1,5.4-2.5,8.3c-0.1,0.6-0.6,1-1.2,0.9c-0.4-0.1-0.7-0.3-0.9-0.7c-0.3-0.7-2.8-7.1,0-9.8
			c0.9-0.8,2.1-1.2,3.3-1.1c1.6-3.2,4-5.9,6.9-8c4.5-3.1,10.1-3.9,16.6-2.3c22.1,5.4,47.8,42.1,58.6,83.5c0.2,0.6-0.2,1.2-0.8,1.3
			c0,0,0,0,0,0C104.5,86.3,104.5,86.3,104.4,86.3z M22.2,14c-0.3,0.1-0.5,0.2-0.7,0.4c-0.6,0.6-0.8,1.8-0.6,3.2
			C21.3,16.4,21.8,15.2,22.2,14z"/>
		
			<linearGradient id="SVGID_00000172423822681330983360000010232915043689311620_" gradientUnits="userSpaceOnUse" x1="66.9045" y1="52.0685" x2="89.6952" y2="12.594">
			<stop  offset="0" style="stop-color:#CC00FF"/>
			<stop  offset="1" style="stop-color:#00A4DB"/>
		</linearGradient>
		<path style="fill:url(#SVGID_00000172423822681330983360000010232915043689311620_);" d="M119.7,68.7c-0.5,0-1-0.4-1.1-0.9
			c-0.1-0.5-11-47.7-41.1-59.2C62.3,2.9,44.8,7,25.2,20.9L25,21l0,0c0,0-1.4,0.7-2.8,3.9c-0.3,0.6-0.9,0.8-1.5,0.6
			c-0.5-0.2-0.8-0.9-0.6-1.4c1.5-3.5,3.3-4.6,3.8-4.9C44.2,4.7,62.4,0.5,78.3,6.6c31.2,12,42,58.8,42.5,60.8
			c0.1,0.6-0.2,1.2-0.8,1.3C119.9,68.7,119.8,68.7,119.7,68.7z"/>
	</g>
</g>
</svg>
