<svg xmlns="http://www.w3.org/2000/svg" viewBox="0 0 392.2 448.8"><defs><style>.cls-1{fill:#00a4db;}</style></defs><g id="Layer_2" data-name="Layer 2"><g id="NFT"><path class="cls-1" d="M385.6,107.37,202.7,1.77a13.19,13.19,0,0,0-13.2,0L6.6,107.37A13.19,13.19,0,0,0,0,118.8V330a13.22,13.22,0,0,0,6.6,11.43L189.5,447a13.19,13.19,0,0,0,13.2,0l182.9-105.6A13.22,13.22,0,0,0,392.2,330V118.8A13.19,13.19,0,0,0,385.6,107.37Zm-19.8,215-169.7,98-169.7-98V126.42l169.7-98,169.7,98Z"/><path class="cls-1" d="M259.27,115.71l28,16.15V324.55a13.2,13.2,0,0,0,26.4,0V147.1l14.77,8.53a13.2,13.2,0,1,0,13.2-22.86L272.47,92.85a13.2,13.2,0,0,0-13.2,22.86Z"/><path class="cls-1" d="M189.5,52.57l-34.56,20A13.17,13.17,0,0,0,148.34,84V364.83a13.2,13.2,0,0,0,26.4,0V237.6h60.33a13.2,13.2,0,1,0,0-26.4H174.74V91.58L196.1,79.25l32.37,18.68a13.2,13.2,0,1,0,13.2-22.86l-39-22.5A13.24,13.24,0,0,0,189.5,52.57Z"/><path class="cls-1" d="M117.54,96.17a13.2,13.2,0,0,0-13.2,13.2V252L69.82,140.3A13.2,13.2,0,0,0,44,144.2V304.59a13.2,13.2,0,1,0,26.4,0v-73l34.52,111.72a13.21,13.21,0,0,0,12.61,9.3,14.61,14.61,0,0,0,2-.14,13.21,13.21,0,0,0,11.24-13.06V109.37A13.21,13.21,0,0,0,117.54,96.17Z"/></g></g></svg>