<?xml version="1.0" encoding="utf-8"?>
<!-- Generator: Adobe Illustrator 26.0.1, SVG Export Plug-In . SVG Version: 6.00 Build 0)  -->
<svg version="1.1" id="Layer_1" xmlns="http://www.w3.org/2000/svg" xmlns:xlink="http://www.w3.org/1999/xlink" x="0px" y="0px"
	 viewBox="0 0 392.2 448.8" style="enable-background:new 0 0 392.2 448.8;" xml:space="preserve">
<style type="text/css">
	.st0{fill:url(#SVGID_1_);}
	.st1{fill:url(#SVGID_00000089542786207059259950000003828973582108914826_);}
	.st2{fill:url(#SVGID_00000019661438486016921810000001947317536374615952_);}
	.st3{fill:url(#SVGID_00000016035685758926777640000018102438744928443548_);}
</style>
<g id="Layer_2_00000075883949887080928200000000855811795759954062_">
	<g id="NFT">
		<linearGradient id="SVGID_1_" gradientUnits="userSpaceOnUse" x1="98.041" y1="394.2235" x2="294.1431" y2="54.5647">
			<stop  offset="0" style="stop-color:#CC00FF"/>
			<stop  offset="1" style="stop-color:#00A4DB"/>
		</linearGradient>
		<path class="st0" d="M385.6,107.4L202.7,1.8c-4.1-2.4-9.1-2.4-13.2,0L6.6,107.4c-4.1,2.4-6.6,6.7-6.6,11.4V330
			c0,4.7,2.5,9.1,6.6,11.4L189.5,447c4.1,2.4,9.1,2.4,13.2,0l182.9-105.6c4.1-2.4,6.6-6.7,6.6-11.4V118.8
			C392.2,114.1,389.7,109.7,385.6,107.4z M365.8,322.4l-169.7,98l-169.7-98V126.4l169.7-98l169.7,98V322.4z"/>
		
			<linearGradient id="SVGID_00000146491220719003049270000005126868235923462319_" gradientUnits="userSpaceOnUse" x1="233.2878" y1="300.9985" x2="333.2216" y2="127.9081">
			<stop  offset="0" style="stop-color:#CC00FF"/>
			<stop  offset="1" style="stop-color:#00A4DB"/>
		</linearGradient>
		<path style="fill:url(#SVGID_00000146491220719003049270000005126868235923462319_);" d="M259.3,115.7l28,16.2v192.7
			c0,7.3,5.9,13.2,13.2,13.2c7.3,0,13.2-5.9,13.2-13.2V147.1l14.8,8.5c6.3,3.7,14.4,1.7,18.1-4.6c3.7-6.3,1.7-14.4-4.6-18.1
			c-0.1-0.1-0.2-0.1-0.3-0.2l-69.2-39.9c-6.4-3.6-14.4-1.3-18,5.1C251,104.2,253.1,112.1,259.3,115.7z"/>
		
			<linearGradient id="SVGID_00000178887796788946754970000011994482373275263373_" gradientUnits="userSpaceOnUse" x1="94.1385" y1="341.1519" x2="246.2389" y2="77.7063">
			<stop  offset="0" style="stop-color:#CC00FF"/>
			<stop  offset="1" style="stop-color:#00A4DB"/>
		</linearGradient>
		<path style="fill:url(#SVGID_00000178887796788946754970000011994482373275263373_);" d="M189.5,52.6l-34.6,20
			c-4.1,2.4-6.6,6.7-6.6,11.4v280.8c0,7.3,5.9,13.2,13.2,13.2c7.3,0,13.2-5.9,13.2-13.2V237.6h60.3c7.3,0,13.2-5.9,13.2-13.2
			c0-7.3-5.9-13.2-13.2-13.2c0,0,0,0,0,0h-60.3V91.6l21.4-12.3l32.4,18.7c6.3,3.7,14.4,1.7,18.1-4.6c3.7-6.3,1.7-14.4-4.6-18.1
			c-0.1-0.1-0.2-0.1-0.3-0.2l-39-22.5C198.6,50.2,193.6,50.2,189.5,52.6z"/>
		
			<linearGradient id="SVGID_00000031912973117713614140000001607245415798279859_" gradientUnits="userSpaceOnUse" x1="46.0447" y1="313.3941" x2="158.8703" y2="117.9744">
			<stop  offset="0" style="stop-color:#CC00FF"/>
			<stop  offset="1" style="stop-color:#00A4DB"/>
		</linearGradient>
		<path style="fill:url(#SVGID_00000031912973117713614140000001607245415798279859_);" d="M117.5,96.2c-7.3,0-13.2,5.9-13.2,13.2
			V252L69.8,140.3c-2.1-7-9.5-10.9-16.5-8.8c-5.6,1.7-9.3,6.8-9.3,12.7v160.4c0,7.3,5.9,13.2,13.2,13.2s13.2-5.9,13.2-13.2v-73
			l34.5,111.7c1.7,5.5,6.8,9.3,12.6,9.3c0.7,0,1.3,0,2-0.1c6.5-1,11.2-6.5,11.2-13.1v-230C130.8,102.1,124.8,96.2,117.5,96.2
			C117.5,96.2,117.5,96.2,117.5,96.2z"/>
	</g>
</g>
</svg>
