<?xml version="1.0" encoding="utf-8"?>
<!-- Generator: Adobe Illustrator 26.0.1, SVG Export Plug-In . SVG Version: 6.00 Build 0)  -->
<svg version="1.1" id="Layer_1" xmlns="http://www.w3.org/2000/svg" xmlns:xlink="http://www.w3.org/1999/xlink" x="0px" y="0px"
	 viewBox="0 0 108.1 96.2" style="enable-background:new 0 0 108.1 96.2;" xml:space="preserve">
<style type="text/css">
	.st0{fill:url(#SVGID_1_);}
	.st1{fill:url(#SVGID_00000159461770167680478690000016025869495212823691_);}
	.st2{fill:url(#SVGID_00000183942681542294633950000015588847668936829083_);}
</style>
<g id="Layer_2_00000131365175471171732770000005093856681982098869_">
	<g id="Layer_1-2">
		<linearGradient id="SVGID_1_" gradientUnits="userSpaceOnUse" x1="27.0454" y1="94.8219" x2="81.0085" y2="1.355">
			<stop  offset="0" style="stop-color:#FFFFFF"/>
			<stop  offset="0" style="stop-color:#F6F6F6"/>
			<stop  offset="0" style="stop-color:#CC00FF"/>
			<stop  offset="1" style="stop-color:#00A4DB"/>
		</linearGradient>
		<path class="st0" d="M76.1,96.2h-44c-3.6,0-6.9-1.9-8.6-4.9l-22-38.1c-1.8-3.1-1.8-6.9,0-10L23.4,5c1.8-3.1,5.1-5,8.7-5h44
			c3.5,0.1,6.8,1.9,8.6,4.9l22,38.2c1.8,3.1,1.8,6.9,0,10l-22,38.1C82.9,94.2,79.6,96.2,76.1,96.2z M32.1,3.8c-2.2,0-4.2,1.1-5.3,3
			L4.7,45c-1.1,1.9-1.1,4.3,0,6.2l22,38.1c1.1,1.9,3.1,3,5.3,3h44c2.2,0,4.2-1.1,5.3-3l22-38.1c1.1-1.9,1.1-4.3,0-6.2l-22-38.1
			c-1.2-1.8-3.2-3-5.3-3L32.1,3.8z"/>
		
			<linearGradient id="SVGID_00000070825167782316757980000015027434005313064064_" gradientUnits="userSpaceOnUse" x1="48.3624" y1="37.379" x2="60.3347" y2="16.6424">
			<stop  offset="0" style="stop-color:#FFFFFF"/>
			<stop  offset="0" style="stop-color:#F6F6F6"/>
			<stop  offset="0" style="stop-color:#CC00FF"/>
			<stop  offset="1" style="stop-color:#00A4DB"/>
		</linearGradient>
		<path style="fill:url(#SVGID_00000070825167782316757980000015027434005313064064_);" d="M63.4,34.8h-3.8V24.2
			c-0.1-0.8-0.6-5.9-5.9-5.9s-5.8,5.1-5.9,5.9v10.6h-3.8V24.1c0.2-3.4,2.4-9.7,9.7-9.7s9.5,6.3,9.7,9.6V34.8z"/>
		
			<linearGradient id="SVGID_00000011712102427394862250000011692114967644220830_" gradientUnits="userSpaceOnUse" x1="42.7138" y1="71.0904" x2="64.3849" y2="33.5549">
			<stop  offset="0" style="stop-color:#FFFFFF"/>
			<stop  offset="0" style="stop-color:#F6F6F6"/>
			<stop  offset="0" style="stop-color:#CC00FF"/>
			<stop  offset="1" style="stop-color:#00A4DB"/>
		</linearGradient>
		<path style="fill:url(#SVGID_00000011712102427394862250000011692114967644220830_);" d="M61,72H46c-2.4,0-4.6-1.3-5.8-3.3
			l-7.5-13c-1.3-2-1.3-4.6,0-6.7l7.5-13c1.2-2.1,3.4-3.4,5.8-3.4h15c2.4,0,4.6,1.3,5.8,3.4l7.5,13c1.1,2,1.1,4.5,0,6.6l-7.5,13
			C65.7,70.7,63.4,72,61,72z M46,36.5c-1,0-1.9,0.5-2.4,1.4L36.1,51c-0.5,0.8-0.5,1.9,0,2.7l7.5,13.1c0.5,0.9,1.4,1.4,2.4,1.4h15
			c1,0,1.9-0.5,2.4-1.4L71,53.8c0.4-0.9,0.4-1.9,0-2.8l-7.5-13c-0.5-0.9-1.4-1.5-2.4-1.4L46,36.5z M53.8,63.3c-2.5,0-4.5-2-4.5-4.5
			v-3.1c-2.2-1.5-3.5-4-3.5-6.7c0-4.5,3.6-8.1,8.1-8.1s8.1,3.6,8.1,8.1v0.2c-0.2,2.6-1.6,5-3.7,6.5v3.2
			C58.3,61.3,56.2,63.3,53.8,63.3L53.8,63.3z M53.8,44.6c-2.3,0-4.2,1.9-4.3,4.3c0,1.7,0.9,3.2,2.4,3.9l1.1,0.5v5.5
			c0,0.4,0.3,0.7,0.7,0.7c0.4,0,0.7-0.3,0.7-0.7c0,0,0,0,0,0v-5.5l1.1-0.5c1.5-0.8,2.5-2.3,2.6-4C58.1,46.5,56.2,44.7,53.8,44.6
			L53.8,44.6z"/>
	</g>
</g>
</svg>
