<svg xmlns="http://www.w3.org/2000/svg" viewBox="0 0 108.1 96.15"><defs><style>.cls-1{fill:#00a4db;}</style></defs><g id="Layer_2" data-name="Layer 2"><g id="Layer_1-2" data-name="Layer 1"><path class="cls-1" d="M76.05,96.15h-44a10,10,0,0,1-8.65-4.94l-22-38.13a9.79,9.79,0,0,1,0-10L23.38,5a9.91,9.91,0,0,1,8.67-5h44a10.33,10.33,0,0,1,8.63,4.9l22,38.16a9.79,9.79,0,0,1,0,10l-22,38.07A9.9,9.9,0,0,1,76.05,96.15Zm-44-92.3a6,6,0,0,0-5.32,3L4.72,45a6,6,0,0,0,0,6.15l22,38.13a6.19,6.19,0,0,0,5.33,3h44a6.06,6.06,0,0,0,5.32-3l22-38.12a6,6,0,0,0,0-6.15l-22-38.13a6.49,6.49,0,0,0-5.33-3Z"/><path class="cls-1" d="M63.37,34.82H59.53V24.18c-.06-.79-.63-5.93-5.88-5.93s-5.82,5.14-5.88,5.93V34.82H43.93V24.12c.17-3.43,2.42-9.72,9.72-9.72S63.2,20.69,63.37,24Z"/><path class="cls-1" d="M61.05,72h-15a6.68,6.68,0,0,1-5.75-3.33l-7.52-13a6.3,6.3,0,0,1,0-6.65l7.48-13a6.52,6.52,0,0,1,5.77-3.36h15a6.54,6.54,0,0,1,5.8,3.42l7.5,13a6.88,6.88,0,0,1,0,6.56l-7.5,13A6.5,6.5,0,0,1,61.05,72Zm-15-35.5a2.69,2.69,0,0,0-2.4,1.39L36.12,51a2.53,2.53,0,0,0,0,2.7l7.55,13.08a2.8,2.8,0,0,0,2.43,1.44h15a2.68,2.68,0,0,0,2.4-1.38L71,53.76A3,3,0,0,0,71,51L63.48,38a2.72,2.72,0,0,0-2.43-1.44Zm7.7,26.81a4.59,4.59,0,0,1-4.52-4.53V55.63a8,8,0,0,1-3.5-6.71,8.12,8.12,0,1,1,16.24,0v.16a8.9,8.9,0,0,1-3.7,6.53v3.21A4.53,4.53,0,0,1,53.75,63.35Zm.1-18.7a4.33,4.33,0,0,0-4.28,4.27A4.23,4.23,0,0,0,52,52.79l1.09.52v5.51a.73.73,0,0,0,.68.68.67.67,0,0,0,.68-.68V53.33l1.06-.53a4.93,4.93,0,0,0,2.64-3.95A4.34,4.34,0,0,0,53.85,44.65Z"/></g></g></svg>