<svg xmlns="http://www.w3.org/2000/svg" viewBox="0 0 108.01 96.23"><defs><style>.cls-1{fill:#fff;stroke:#00a4db;stroke-miterlimit:10;stroke-width:3.85px;}</style></defs><g id="Layer_2" data-name="Layer 2"><g id="Layer_1-2" data-name="Layer 1"><path class="cls-1" d="M76,1.92H32A8.12,8.12,0,0,0,25,6L3,44.06a8.1,8.1,0,0,0,0,8.11L25,90.25a8.1,8.1,0,0,0,7,4H76a8.08,8.08,0,0,0,7-4l22-38.08a8.1,8.1,0,0,0,0-8.11L83,6A8.1,8.1,0,0,0,76,1.92Z"/><path class="cls-1" d="M61.41,34.81V24.09s-.41-7.83-7.84-7.83-7.83,7.83-7.83,7.83V34.81"/><path class="cls-1" d="M72.63,50l-7.47-13a4.75,4.75,0,0,0-4.11-2.37H46.1A4.74,4.74,0,0,0,42,37.08L34.51,50a4.77,4.77,0,0,0,0,4.74L42,67.72a4.74,4.74,0,0,0,4.11,2.37H61.05a4.75,4.75,0,0,0,4.11-2.37l7.47-12.95A4.72,4.72,0,0,0,72.63,50ZM56.3,54.52v4.35a2.63,2.63,0,1,1-5.25,0V54.52a6.17,6.17,0,1,1,5.25,0Z"/></g></g></svg>