<?xml version="1.0" encoding="utf-8"?>
<!-- Generator: Adobe Illustrator 26.0.1, SVG Export Plug-In . SVG Version: 6.00 Build 0)  -->
<svg version="1.1" id="Layer_1" xmlns="http://www.w3.org/2000/svg" xmlns:xlink="http://www.w3.org/1999/xlink" x="0px" y="0px"
	 viewBox="0 0 123.4 114.3" style="enable-background:new 0 0 123.4 114.3;" xml:space="preserve">
<style type="text/css">
	.st0{fill:url(#SVGID_1_);}
	.st1{fill:url(#SVGID_00000059990557006830646990000009631927572262351004_);}
	.st2{fill:url(#SVGID_00000060710786948820594810000008964606426604122752_);}
	.st3{fill:url(#SVGID_00000006682131022510217830000014143415814117803674_);}
	.st4{fill:url(#SVGID_00000003802515152889643860000002823694474368758446_);}
</style>
<g id="Layer_2_00000016762948017183131900000000660642363745784216_">
	<g id="Layer_1-2">
		<linearGradient id="SVGID_1_" gradientUnits="userSpaceOnUse" x1="32.8499" y1="95.9062" x2="96.3247" y2="-14.0353">
			<stop  offset="1.385225e-07" style="stop-color:#CC00FF"/>
			<stop  offset="1" style="stop-color:#00A4DB"/>
		</linearGradient>
		<path class="st0" d="M64.5,113.1c-1.8,0-3.6-0.7-4.8-2c-1.2-1.3-3-4.3-1.1-9.9c3.1-9.2-3.3-17.4-6-20.4C48,84,43,86.6,37.7,88.3
			c-3.8,1.1-5.5-0.4-6.3-1.4c-3-4.3,2.1-14.4,6.5-20.7c-2.5-1.7-9.1-1.9-14.1-2c-8-0.2-15-0.5-15.8-5.2c0-0.1,0-0.3,0-0.4
			c0.1-3.2,1.4-6.2,3.8-8.3c8-7.6,27-8,32-8c5.7-8.6,12.6-16.3,20.5-23C82,4.2,101.8-2.3,121.6,0.7c1,0.1,1.7,0.9,1.7,1.9
			c1.7,33.9-39.9,74.1-41.7,75.8c-0.2,0.2-0.5,0.4-0.8,0.5c0.3,6-0.9,12.2-2.6,19.3c-2.1,9-7.2,13.4-11.4,14.5
			C66,113,65.3,113.1,64.5,113.1z M52.8,76.1c0.5,0,1,0.2,1.4,0.5c0.5,0.5,12.9,11.9,8.3,25.8c-0.9,2.6-0.8,4.8,0.2,5.9
			c0.9,0.8,2.1,1,3.1,0.6c2.8-0.8,6.8-4.2,8.5-11.5c3.7-15.9,5-26.5-8.3-39.5c-0.8-0.8-0.8-2.1,0-2.9c0.8-0.8,2.1-0.8,2.9,0
			c6.8,6.7,10.2,12.8,11.4,19.1c7.2-7.2,39.3-41.2,39.1-69.6c-44-5.4-72.5,40.5-72.8,41c-0.4,0.6-1.1,1-1.8,1
			c-0.2,0-22.4-0.6-30.2,6.8c-1.5,1.3-2.4,3.1-2.5,5.1c0.7,1.3,8.2,1.6,11.9,1.7c8.2,0.2,15.9,0.5,18.4,5c0.4,0.7,0.3,1.6-0.2,2.2
			c-5.8,7.6-8.5,15.7-7.4,17.2c0.1,0.1,0.6,0.2,1.8-0.1c5.4-1.8,10.5-4.5,15-7.9C51.9,76.2,52.3,76,52.8,76.1L52.8,76.1z"/>
		
			<linearGradient id="SVGID_00000147901520988864298950000015625000078094980026_" gradientUnits="userSpaceOnUse" x1="81.9023" y1="44.7787" x2="94.8345" y2="22.3795">
			<stop  offset="1.385225e-07" style="stop-color:#CC00FF"/>
			<stop  offset="1" style="stop-color:#00A4DB"/>
		</linearGradient>
		<path style="fill:url(#SVGID_00000147901520988864298950000015625000078094980026_);" d="M88.4,46.5c-7.1,0-12.9-5.8-12.9-12.9
			s5.8-12.9,12.9-12.9s12.9,5.8,12.9,12.9v0C101.3,40.7,95.5,46.5,88.4,46.5z M88.4,27.4c-3.4,0-6.2,2.8-6.2,6.2
			c0,3.4,2.8,6.2,6.2,6.2s6.2-2.8,6.2-6.2l0,0C94.6,30.2,91.8,27.4,88.4,27.4z"/>
		
			<linearGradient id="SVGID_00000145041244472846770560000001587111675045720251_" gradientUnits="userSpaceOnUse" x1="31.4786" y1="116.6271" x2="52.6108" y2="80.0249">
			<stop  offset="1.385225e-07" style="stop-color:#CC00FF"/>
			<stop  offset="1" style="stop-color:#00A4DB"/>
		</linearGradient>
		<path style="fill:url(#SVGID_00000145041244472846770560000001587111675045720251_);" d="M28.4,114.3c-1.9,0-3.4-1.5-3.4-3.4
			c0-0.9,0.4-1.8,1.1-2.5l27.2-25.2c1.3-1.3,3.4-1.3,4.8,0c1.3,1.3,1.3,3.4,0,4.8c-0.1,0.1-0.1,0.1-0.2,0.2l-27.2,25.2
			C30.1,114,29.3,114.3,28.4,114.3z"/>
		
			<linearGradient id="SVGID_00000164479004139089503680000002093263227760241288_" gradientUnits="userSpaceOnUse" x1="14.3289" y1="112.0955" x2="33.4919" y2="78.9043">
			<stop  offset="1.385225e-07" style="stop-color:#CC00FF"/>
			<stop  offset="1" style="stop-color:#00A4DB"/>
		</linearGradient>
		<path style="fill:url(#SVGID_00000164479004139089503680000002093263227760241288_);" d="M11.8,110.1c-1.9,0-3.4-1.5-3.4-3.4
			c0-0.9,0.4-1.8,1.1-2.5l24.2-22.5c1.4-1.3,3.5-1.2,4.8,0.2c1.3,1.4,1.2,3.5-0.2,4.8l0,0l-24.2,22.5
			C13.5,109.8,12.6,110.1,11.8,110.1z"/>
		
			<linearGradient id="SVGID_00000044136377594350334440000000673196590318821532_" gradientUnits="userSpaceOnUse" x1="7.009" y1="102.9203" x2="31.5274" y2="60.4531">
			<stop  offset="1.385225e-07" style="stop-color:#CC00FF"/>
			<stop  offset="1" style="stop-color:#00A4DB"/>
		</linearGradient>
		<path style="fill:url(#SVGID_00000044136377594350334440000000673196590318821532_);" d="M3.4,100.3c-1.9,0-3.4-1.5-3.4-3.3
			c0-0.9,0.4-1.8,1-2.5L32.9,64c1.4-1.3,3.5-1.2,4.7,0.2c1.2,1.3,1.2,3.4-0.1,4.7L5.7,99.3C5.1,99.9,4.2,100.3,3.4,100.3z"/>
	</g>
</g>
</svg>
