<svg id="svg5" xmlns="http://www.w3.org/2000/svg" xmlns:xlink="http://www.w3.org/1999/xlink" viewBox="0 0 14.98 12.02"><defs><style>.cls-1{fill:url(#linear-gradient);}.cls-2{fill:url(#linear-gradient-4);}.cls-3{fill:url(#linear-gradient-5);}</style><linearGradient id="linear-gradient" x1="-450.89" y1="-344.45" x2="-450.89" y2="-344.45" gradientUnits="userSpaceOnUse"><stop offset="0" stop-color="#c0f"/><stop offset="1" stop-color="#00a4db"/></linearGradient><linearGradient id="linear-gradient-4" x1="-195.36" y1="-66.55" x2="-180.38" y2="-66.55" xlink:href="#linear-gradient"/><linearGradient id="linear-gradient-5" x1="-195.33" y1="-66.56" x2="-180.38" y2="-66.56" xlink:href="#linear-gradient"/></defs><g id="layer1"><g id="g31"><path id="path1501" class="cls-1" d="M-450.89-344.45" transform="translate(195.36 72.56)"/><path id="path1540" class="cls-1" d="M-450.89-344.45" transform="translate(195.36 72.56)"/><path id="path1579" class="cls-1" d="M-450.89-344.45" transform="translate(195.36 72.56)"/><g id="Angle-up"><g id="g3059"><path id="path3057" class="cls-2" d="M-181.1-60.54a.77.77,0,0,1-.53-.22L-187.87-67l-6.22,6.22a.79.79,0,0,1-.82.16.79.79,0,0,1-.45-.69v-3.76a.75.75,0,0,1,.21-.53l6.75-6.74a.74.74,0,0,1,1.06,0l2.62,2.61a.75.75,0,0,1,0,1.06.75.75,0,0,1-1.06,0l-2.09-2.09-6,6v1.64l5.45-5.48a.75.75,0,0,1,1.06,0l5.47,5.48v-1.64L-184-66.84a.75.75,0,0,1,0-1.06.75.75,0,0,1,1.06,0l2.3,2.3a.77.77,0,0,1,.22.53v3.76a.77.77,0,0,1-.45.69A.56.56,0,0,1-181.1-60.54Z" transform="translate(195.36 72.56)"/></g><g id="g3063"><path id="path6891" class="cls-3" d="M-181.18-60.57l-.18,0a37.3,37.3,0,0,1-3.31-3.2c-1.75-1.75-3.18-3.18-3.2-3.18s-1.43,1.43-3.18,3.15c-2.56,2.57-3.17,3.15-3.25,3.2a.81.81,0,0,1-.61,0,.83.83,0,0,1-.37-.37l-.05-.11v-2.06a10.08,10.08,0,0,1,.05-2.17,25.65,25.65,0,0,1,2.51-2.59l3.5-3.49c1-.93,1-1,1.16-1.06a.72.72,0,0,1,.5,0c.11,0,.21.13,1.56,1.45a16.62,16.62,0,0,1,1.48,1.54.49.49,0,0,1,.06.31.51.51,0,0,1-.06.32.74.74,0,0,1-1,.35,14.2,14.2,0,0,1-1.19-1.14c-.61-.61-1.12-1.11-1.14-1.11s-1.38,1.35-3,3l-3,3v1.64l2.41-2.41c3.25-3.23,3.2-3.17,3.33-3.23a.89.89,0,0,1,.51,0,32.18,32.18,0,0,1,2.91,2.83c1.58,1.54,2.85,2.81,2.85,2.81s0-.37,0-.82v-.82l-1.11-1.11c-1.22-1.22-1.19-1.19-1.22-1.51a.76.76,0,0,1,.5-.71.78.78,0,0,1,.56,0c.08,0,.42.37,1.38,1.32,1.11,1.11,1.27,1.27,1.29,1.38s.06.21.06,2.14v2l-.06.13a.83.83,0,0,1-.37.37A1,1,0,0,1-181.18-60.57Z" transform="translate(195.36 72.56)"/></g></g></g></g></svg>