<?xml version="1.0" encoding="UTF-8" standalone="no"?>
<!-- Created with Inkscape (http://www.inkscape.org/) -->

<svg
   width="5.2916665mm"
   height="4.2333336mm"
   viewBox="0 0 5.2916665 4.2333336"
   version="1.1"
   id="svg5"
   inkscape:version="1.1.1 (1:1.1+202109281949+c3084ef5ed)"
   sodipodi:docname="up_arrow.svg"
   xmlns:inkscape="http://www.inkscape.org/namespaces/inkscape"
   xmlns:sodipodi="http://sodipodi.sourceforge.net/DTD/sodipodi-0.dtd"
   xmlns="http://www.w3.org/2000/svg"
   xmlns:svg="http://www.w3.org/2000/svg">
  <sodipodi:namedview
     id="namedview7"
     pagecolor="#505050"
     bordercolor="#eeeeee"
     borderopacity="1"
     inkscape:pageshadow="0"
     inkscape:pageopacity="0"
     inkscape:pagecheckerboard="0"
     inkscape:document-units="mm"
     showgrid="false"
     inkscape:zoom="32"
     inkscape:cx="3.25"
     inkscape:cy="7.5625"
     inkscape:window-width="1712"
     inkscape:window-height="855"
     inkscape:window-x="0"
     inkscape:window-y="27"
     inkscape:window-maximized="1"
     inkscape:current-layer="g3063" />
  <defs
     id="defs2" />
  <g
     inkscape:label="Layer 1"
     inkscape:groupmode="layer"
     id="layer1"
     transform="translate(-119.9029,-121.5161)">
    <g
       id="g31"
       transform="matrix(0.26458333,0,0,0.26458333,115.10318,120.75621)">
      <path
         style="fill:#00a4db;fill-opacity:1;stroke-width:0.0181584"
         d=""
         id="path1501"
         transform="translate(-435.03565,-456.40143)" />
      <path
         style="fill:#00a4db;fill-opacity:1;stroke-width:0.0181584"
         d=""
         id="path1540"
         transform="translate(-435.03565,-456.40143)" />
      <path
         style="opacity:0.43939;fill:#00a4db;fill-opacity:1;stroke-width:0.0181584"
         d=""
         id="path1579"
         transform="translate(-435.03565,-456.40143)" />
      <g
         id="Angle-up"
         transform="translate(16.140691,-1.1279692)">
	<g
   id="g3059">
		<path
   fill="#ca86ff"
   d="m 21,20 c -0.26,0 -0.516,-0.102 -0.707,-0.293 L 12,11.414 3.707,19.69 C 3.42,19.976 2.99,20.06 2.617,19.906 2.244,19.751 2,19.387 2,18.982 v -5 c 0,-0.266 0.105,-0.52 0.293,-0.708 l 9,-8.982 c 0.391,-0.39 1.023,-0.389 1.414,0.001 l 3.502,3.502 c 0.391,0.391 0.391,1.023 0,1.414 -0.391,0.391 -1.023,0.391 -1.414,0 L 12,6.414 4,14.397 v 2.175 l 7.293,-7.28 c 0.391,-0.39 1.023,-0.389 1.414,10e-4 L 20,16.586 v -2.172 l -2.792,-2.792 c -0.391,-0.391 -0.391,-1.023 0,-1.414 0.391,-0.391 1.023,-0.391 1.414,0 l 3.084,3.084 C 21.895,13.48 22,13.735 22,14 v 5 c 0,0.404 -0.244,0.769 -0.617,0.924 C 21.259,19.975 21.129,20 21,20 Z"
   id="path3057" />

	</g>

	<g
   id="g3063">
		
	<path
   style="opacity:1;fill:#00a4db;fill-opacity:1;stroke-width:0.03125"
   d="m 18.90625,15.975184 c -0.05156,-0.0052 -0.164063,-0.03144 -0.25,-0.05829 -0.146215,-0.04568 -0.428215,-0.32054 -4.390893,-4.279728 C 11.936303,9.3101612 10.016893,7.40625 10.000002,7.40625 c -0.016891,0 -1.9222392,1.8893331 -4.2341067,4.198518 -3.4421971,3.438203 -4.2316908,4.211721 -4.3596453,4.271429 -0.2268902,0.105874 -0.59537916,0.10534 -0.8125,-0.0012 C 0.39482281,15.777429 0.20544207,15.588361 0.10773762,15.38981 L 0.03125,15.234375 V 12.5 c 0,-2.5948591 0.0029828,-2.7423472 0.05845934,-2.890625 C 0.14188447,9.4699212 0.50300703,9.0976219 3.4490844,6.1460256 5.2645878,4.3271209 7.3688947,2.2305424 8.1253215,1.4869625 9.3805553,0.25304759 9.5148672,0.13027462 9.6635431,0.08089237 9.8698728,0.01236073 10.127382,0.01185391 10.336778,0.07956733 10.48912,0.12883075 10.626697,0.2586454 12.400775,2.027112 c 1.388353,1.3839624 1.923194,1.9368858 1.983936,2.051013 0.07127,0.13391 0.08316,0.1942278 0.08316,0.421875 0,0.2266522 -0.01209,0.2885503 -0.08239,0.421875 C 14.124384,5.4170706 13.604502,5.6049344 13.088208,5.3906575 13.00437,5.3558622 12.530673,4.9035309 11.499562,3.8736647 10.691508,3.0665865 10.016487,2.40625 9.9995159,2.40625 c -0.016972,0 -1.827505,1.7966884 -4.0234072,3.9926409 L 1.9835591,10.391532 1.9917795,11.49149 2,12.591448 5.2027969,9.3972865 C 9.534204,5.0775575 9.462545,5.1469066 9.6632215,5.0806644 9.8699878,5.0124119 10.12742,5.01192 10.336778,5.0793769 c 0.154315,0.049722 0.36702,0.2561837 3.8979,3.7834821 2.054074,2.05199 3.745089,3.730891 3.757813,3.730891 0.01272,0 0.02313,-0.495759 0.02313,-1.101687 V 10.390376 L 16.547824,8.922824 C 14.91238,7.2876578 14.94276,7.3255222 14.940479,6.9194547 c -0.0024,-0.4218772 0.271396,-0.8030516 0.672436,-0.9362556 0.221798,-0.073669 0.523007,-0.050262 0.730835,0.056794 0.116857,0.060196 0.578764,0.5045253 1.832152,1.7624344 1.471682,1.4769909 1.683027,1.7009872 1.734375,1.8381972 0.05549,0.1482662 0.05847,0.295165 0.05847,2.8750003 v 2.71875 l -0.07367,0.16293 c -0.08362,0.184924 -0.323626,0.426309 -0.495123,0.497965 -0.135101,0.05645 -0.362204,0.09321 -0.493703,0.07991 z"
   id="path6891"
   transform="translate(1.9999832,3.9999944)" />
</g>

	
</g>
    </g>
  </g>
</svg>
